<?xml version="1.0" encoding="utf-8" standalone="no"?>
<!DOCTYPE svg PUBLIC "-//W3C//DTD SVG 1.1//EN"
  "http://www.w3.org/Graphics/SVG/1.1/DTD/svg11.dtd">
<svg xmlns:xlink="http://www.w3.org/1999/xlink" width="860.679063pt" height="429.768594pt" viewBox="0 0 860.679063 429.768594" xmlns="http://www.w3.org/2000/svg" version="1.1">
 <metadata>
  <rdf:RDF xmlns:dc="http://purl.org/dc/elements/1.1/" xmlns:cc="http://creativecommons.org/ns#" xmlns:rdf="http://www.w3.org/1999/02/22-rdf-syntax-ns#">
   <cc:Work>
    <dc:type rdf:resource="http://purl.org/dc/dcmitype/StillImage"/>
    <dc:date>2025-10-01T12:15:52.914479</dc:date>
    <dc:format>image/svg+xml</dc:format>
    <dc:creator>
     <cc:Agent>
      <dc:title>Matplotlib v3.10.3, https://matplotlib.org/</dc:title>
     </cc:Agent>
    </dc:creator>
   </cc:Work>
  </rdf:RDF>
 </metadata>
 <defs>
  <style type="text/css">*{stroke-linejoin: round; stroke-linecap: butt}</style>
 </defs>
 <g id="figure_1">
  <g id="patch_1">
   <path d="M 0 429.768594 
L 860.679063 429.768594 
L 860.679063 0 
L 0 0 
L 0 429.768594 
z
" style="fill: none"/>
  </g>
  <g id="axes_1">
   <g id="patch_2">
    <path d="M 16.23625 411.148594 
L 389.47 411.148594 
L 389.47 21.802344 
L 16.23625 21.802344 
L 16.23625 411.148594 
z
" style="fill: none"/>
   </g>
   <g id="FillBetweenPolyCollection_1">
    <path d="M 16.23625 411.148594 
L 16.23625 411.148594 
L 90.883 411.148594 
L 165.52975 411.148594 
L 240.1765 411.148594 
L 314.82325 411.148594 
L 389.47 411.148594 
L 389.47 411.148594 
L 389.47 411.148594 
L 314.82325 411.148594 
L 240.1765 411.148594 
L 165.52975 411.148594 
L 90.883 411.148594 
L 16.23625 411.148594 
z
" clip-path="url(#p0ffea8b2b1)" style="fill: #d9d9d9"/>
   </g>
   <g id="FillBetweenPolyCollection_2">
    <defs>
     <path id="m7a33d78c13" d="M 16.23625 -18.62 
L 16.23625 -18.62 
L 90.883 -18.62 
L 165.52975 -18.62 
L 240.1765 -18.62 
L 314.82325 -18.62 
L 389.47 -18.62 
L 389.47 -18.62 
L 389.47 -18.62 
L 314.82325 -18.62 
L 240.1765 -18.62 
L 165.52975 -18.62 
L 90.883 -18.62 
L 16.23625 -18.62 
z
" style="stroke: #d9d9d9"/>
    </defs>
    <g clip-path="url(#p0ffea8b2b1)">
     <use xlink:href="#m7a33d78c13" x="0" y="429.768594" style="fill: #d9d9d9; stroke: #d9d9d9"/>
    </g>
   </g>
   <g id="FillBetweenPolyCollection_3">
    <defs>
     <path id="mcaeb46b99a" d="M 16.23625 -18.62 
L 16.23625 -18.62 
L 90.883 -18.62 
L 165.52975 -18.62 
L 240.1765 -18.62 
L 314.82325 -18.62 
L 389.47 -18.62 
L 389.47 -18.62 
L 389.47 -18.62 
L 314.82325 -18.62 
L 240.1765 -18.62 
L 165.52975 -18.62 
L 90.883 -18.62 
L 16.23625 -18.62 
z
" style="stroke: #969696"/>
    </defs>
    <g clip-path="url(#p0ffea8b2b1)">
     <use xlink:href="#mcaeb46b99a" x="0" y="429.768594" style="fill: #969696; stroke: #969696"/>
    </g>
   </g>
   <g id="FillBetweenPolyCollection_4">
    <defs>
     <path id="m4f2e37adab" d="M 16.23625 -18.62 
L 16.23625 -18.62 
L 90.883 -18.62 
L 165.52975 -18.62 
L 240.1765 -18.62 
L 314.82325 -18.62 
L 389.47 -18.62 
L 389.47 -18.62 
L 389.47 -18.62 
L 314.82325 -18.62 
L 240.1765 -18.62 
L 165.52975 -18.62 
L 90.883 -18.62 
L 16.23625 -18.62 
z
" style="stroke: #636363"/>
    </defs>
    <g clip-path="url(#p0ffea8b2b1)">
     <use xlink:href="#m4f2e37adab" x="0" y="429.768594" style="fill: #636363; stroke: #636363"/>
    </g>
   </g>
   <g id="FillBetweenPolyCollection_5">
    <defs>
     <path id="m31fa3c37f0" d="M 16.23625 -18.62 
L 16.23625 -18.62 
L 90.883 -18.62 
L 165.52975 -18.62 
L 240.1765 -18.62 
L 314.82325 -18.62 
L 389.47 -18.62 
L 389.47 -18.62 
L 389.47 -18.62 
L 314.82325 -18.62 
L 240.1765 -18.62 
L 165.52975 -18.62 
L 90.883 -18.62 
L 16.23625 -18.62 
z
" style="stroke: #9e9ac8"/>
    </defs>
    <g clip-path="url(#p0ffea8b2b1)">
     <use xlink:href="#m31fa3c37f0" x="0" y="429.768594" style="fill: #9e9ac8; stroke: #9e9ac8"/>
    </g>
   </g>
   <g id="FillBetweenPolyCollection_6">
    <defs>
     <path id="m8e28c74ab9" d="M 16.23625 -18.62 
L 16.23625 -18.62 
L 90.883 -18.62 
L 165.52975 -18.62 
L 240.1765 -18.62 
L 314.82325 -18.62 
L 389.47 -18.62 
L 389.47 -18.62 
L 389.47 -18.62 
L 314.82325 -18.62 
L 240.1765 -18.62 
L 165.52975 -18.62 
L 90.883 -18.62 
L 16.23625 -18.62 
z
" style="stroke: #756bb1"/>
    </defs>
    <g clip-path="url(#p0ffea8b2b1)">
     <use xlink:href="#m8e28c74ab9" x="0" y="429.768594" style="fill: #756bb1; stroke: #756bb1"/>
    </g>
   </g>
   <g id="FillBetweenPolyCollection_7">
    <defs>
     <path id="m0184ffa6d0" d="M 16.23625 -23.742694 
L 16.23625 -18.62 
L 90.883 -18.62 
L 165.52975 -18.62 
L 240.1765 -18.62 
L 314.82325 -18.62 
L 389.47 -18.62 
L 389.47 -265.076276 
L 389.47 -265.076276 
L 314.82325 -179.921937 
L 240.1765 -120.404881 
L 165.52975 -70.618942 
L 90.883 -31.508975 
L 16.23625 -23.742694 
z
" style="stroke: #c7e9c0"/>
    </defs>
    <g clip-path="url(#p0ffea8b2b1)">
     <use xlink:href="#m0184ffa6d0" x="0" y="429.768594" style="fill: #c7e9c0; stroke: #c7e9c0"/>
    </g>
   </g>
   <g id="FillBetweenPolyCollection_8">
    <defs>
     <path id="m3df8774542" d="M 16.23625 -23.742694 
L 16.23625 -23.742694 
L 90.883 -31.508975 
L 165.52975 -70.618942 
L 240.1765 -120.404881 
L 314.82325 -179.921937 
L 389.47 -265.076276 
L 389.47 -265.076276 
L 389.47 -265.076276 
L 314.82325 -179.921937 
L 240.1765 -120.404881 
L 165.52975 -70.618942 
L 90.883 -31.508975 
L 16.23625 -23.742694 
z
" style="stroke: #a1d99b"/>
    </defs>
    <g clip-path="url(#p0ffea8b2b1)">
     <use xlink:href="#m3df8774542" x="0" y="429.768594" style="fill: #a1d99b; stroke: #a1d99b"/>
    </g>
   </g>
   <g id="FillBetweenPolyCollection_9">
    <defs>
     <path id="m642e61ade4" d="M 16.23625 -23.742694 
L 16.23625 -23.742694 
L 90.883 -31.508975 
L 165.52975 -70.618942 
L 240.1765 -120.404881 
L 314.82325 -179.921937 
L 389.47 -265.076276 
L 389.47 -278.047689 
L 389.47 -278.047689 
L 314.82325 -189.521011 
L 240.1765 -123.062432 
L 165.52975 -71.307883 
L 90.883 -31.508975 
L 16.23625 -23.742694 
z
" style="stroke: #74c476"/>
    </defs>
    <g clip-path="url(#p0ffea8b2b1)">
     <use xlink:href="#m642e61ade4" x="0" y="429.768594" style="fill: #74c476; stroke: #74c476"/>
    </g>
   </g>
   <g id="FillBetweenPolyCollection_10">
    <defs>
     <path id="m1fee728cf4" d="M 16.23625 -26.08743 
L 16.23625 -23.742694 
L 90.883 -31.508975 
L 165.52975 -71.307883 
L 240.1765 -123.062432 
L 314.82325 -189.521011 
L 389.47 -278.047689 
L 389.47 -389.425952 
L 389.47 -389.425952 
L 314.82325 -279.38456 
L 240.1765 -199.312101 
L 165.52975 -106.565313 
L 90.883 -38.496551 
L 16.23625 -26.08743 
z
" style="stroke: #31a354"/>
    </defs>
    <g clip-path="url(#p0ffea8b2b1)">
     <use xlink:href="#m1fee728cf4" x="0" y="429.768594" style="fill: #31a354; stroke: #31a354"/>
    </g>
   </g>
   <g id="FillBetweenPolyCollection_11">
    <defs>
     <path id="m93f8b6043c" d="M 16.23625 -26.08743 
L 16.23625 -26.08743 
L 90.883 -38.496551 
L 165.52975 -106.565313 
L 240.1765 -199.312101 
L 314.82325 -279.38456 
L 389.47 -389.425952 
L 389.47 -389.425952 
L 389.47 -389.425952 
L 314.82325 -279.38456 
L 240.1765 -199.312101 
L 165.52975 -106.565313 
L 90.883 -38.496551 
L 16.23625 -26.08743 
z
" style="stroke: #c6dbef"/>
    </defs>
    <g clip-path="url(#p0ffea8b2b1)">
     <use xlink:href="#m93f8b6043c" x="0" y="429.768594" style="fill: #c6dbef; stroke: #c6dbef"/>
    </g>
   </g>
   <g id="FillBetweenPolyCollection_12">
    <defs>
     <path id="me26326c70f" d="M 16.23625 -26.08743 
L 16.23625 -26.08743 
L 90.883 -38.496551 
L 165.52975 -106.565313 
L 240.1765 -199.312101 
L 314.82325 -279.38456 
L 389.47 -389.425952 
L 389.47 -389.425952 
L 389.47 -389.425952 
L 314.82325 -279.38456 
L 240.1765 -199.312101 
L 165.52975 -106.565313 
L 90.883 -38.496551 
L 16.23625 -26.08743 
z
" style="stroke: #9ecae1"/>
    </defs>
    <g clip-path="url(#p0ffea8b2b1)">
     <use xlink:href="#me26326c70f" x="0" y="429.768594" style="fill: #9ecae1; stroke: #9ecae1"/>
    </g>
   </g>
   <g id="FillBetweenPolyCollection_13">
    <defs>
     <path id="md60c2c881e" d="M 16.23625 -26.08743 
L 16.23625 -26.08743 
L 90.883 -38.496551 
L 165.52975 -106.565313 
L 240.1765 -199.312101 
L 314.82325 -279.38456 
L 389.47 -389.425952 
L 389.47 -389.425952 
L 389.47 -389.425952 
L 314.82325 -279.38456 
L 240.1765 -199.312101 
L 165.52975 -106.565313 
L 90.883 -38.496551 
L 16.23625 -26.08743 
z
" style="stroke: #6baed6"/>
    </defs>
    <g clip-path="url(#p0ffea8b2b1)">
     <use xlink:href="#md60c2c881e" x="0" y="429.768594" style="fill: #6baed6; stroke: #6baed6"/>
    </g>
   </g>
   <g id="FillBetweenPolyCollection_14">
    <defs>
     <path id="m5e5e124baa" d="M 16.23625 -26.08743 
L 16.23625 -26.08743 
L 90.883 -38.496551 
L 165.52975 -106.565313 
L 240.1765 -199.312101 
L 314.82325 -279.38456 
L 389.47 -389.425952 
L 389.47 -389.425952 
L 389.47 -389.425952 
L 314.82325 -279.38456 
L 240.1765 -199.312101 
L 165.52975 -106.565313 
L 90.883 -38.496551 
L 16.23625 -26.08743 
z
" style="stroke: #3182bd"/>
    </defs>
    <g clip-path="url(#p0ffea8b2b1)">
     <use xlink:href="#m5e5e124baa" x="0" y="429.768594" style="fill: #3182bd; stroke: #3182bd"/>
    </g>
   </g>
   <g id="matplotlib.axis_1">
    <g id="xtick_1">
     <g id="line2d_1">
      <defs>
       <path id="m34e6407209" d="M 0 0 
L 0 -3.5 
" style="stroke: #000000; stroke-width: 0.8"/>
      </defs>
      <g>
       <use xlink:href="#m34e6407209" x="16.23625" y="411.148594" style="stroke: #000000; stroke-width: 0.8"/>
      </g>
     </g>
     <g id="text_1">
      <!-- 2025 -->
      <g transform="translate(7.2 420.904844) scale(0.08 -0.08)">
       <defs>
        <path id="HardingTextWeb-Regular-32" d="M 3040 3418 
Q 3040 3002 2825 2598 
Q 2611 2195 2297 1836 
Q 1984 1478 1619 1168 
Q 1254 858 954 621 
L 1926 621 
Q 2125 621 2329 640 
Q 2534 659 2713 691 
Q 2893 723 3040 761 
Q 3187 800 3270 838 
L 3091 0 
L 243 0 
L 141 224 
Q 576 653 963 1046 
Q 1350 1440 1638 1811 
Q 1926 2182 2096 2547 
Q 2266 2912 2266 3283 
Q 2266 3648 2061 3872 
Q 1856 4096 1434 4096 
Q 1069 4096 845 3952 
Q 621 3808 403 3494 
L 262 3584 
Q 429 4051 790 4371 
Q 1152 4691 1728 4691 
Q 2406 4691 2723 4329 
Q 3040 3968 3040 3418 
z
" transform="scale(0.015625)"/>
        <path id="HardingTextWeb-Regular-30" d="M 2112 4691 
Q 2509 4691 2838 4537 
Q 3168 4384 3405 4089 
Q 3642 3795 3776 3356 
Q 3910 2918 3910 2355 
Q 3910 1766 3760 1308 
Q 3610 851 3363 547 
Q 3117 243 2793 83 
Q 2470 -77 2125 -77 
Q 1734 -77 1404 76 
Q 1075 230 838 524 
Q 602 819 467 1260 
Q 333 1702 333 2266 
Q 333 2854 483 3308 
Q 634 3763 877 4070 
Q 1120 4378 1443 4534 
Q 1766 4691 2112 4691 
z
M 2125 269 
Q 2605 269 2851 755 
Q 3098 1242 3098 2342 
Q 3098 3443 2845 3894 
Q 2592 4346 2112 4346 
Q 1638 4346 1388 3862 
Q 1139 3379 1139 2278 
Q 1139 1178 1395 723 
Q 1651 269 2125 269 
z
" transform="scale(0.015625)"/>
        <path id="HardingTextWeb-Regular-35" d="M 1325 256 
Q 1792 256 2035 496 
Q 2278 736 2278 1254 
Q 2278 1478 2198 1673 
Q 2118 1869 1923 2038 
Q 1728 2208 1382 2352 
Q 1037 2496 512 2624 
L 1037 4621 
L 2995 4621 
L 2784 3910 
Q 2637 3942 2368 3968 
Q 2099 3994 1862 3994 
L 1197 3994 
L 998 3213 
Q 1421 3110 1785 2966 
Q 2150 2822 2412 2620 
Q 2675 2419 2822 2153 
Q 2970 1888 2970 1549 
Q 2970 1165 2838 861 
Q 2707 557 2486 349 
Q 2266 141 1965 32 
Q 1664 -77 1325 -77 
Q 934 -77 697 -9 
Q 461 58 224 166 
L 160 826 
Q 410 602 720 429 
Q 1030 256 1325 256 
z
" transform="scale(0.015625)"/>
       </defs>
       <use xlink:href="#HardingTextWeb-Regular-32"/>
       <use xlink:href="#HardingTextWeb-Regular-30" transform="translate(54.199997 0)"/>
       <use xlink:href="#HardingTextWeb-Regular-32" transform="translate(120.499985 0)"/>
       <use xlink:href="#HardingTextWeb-Regular-35" transform="translate(174.699982 0)"/>
      </g>
     </g>
    </g>
    <g id="xtick_2">
     <g id="line2d_2">
      <g>
       <use xlink:href="#m34e6407209" x="90.883" y="411.148594" style="stroke: #000000; stroke-width: 0.8"/>
      </g>
     </g>
     <g id="text_2">
      <!-- 2030 -->
      <g transform="translate(81.223 420.904844) scale(0.08 -0.08)">
       <defs>
        <path id="HardingTextWeb-Regular-33" d="M 2451 1446 
Q 2451 1850 2246 2042 
Q 2042 2234 1677 2234 
Q 1517 2234 1389 2205 
Q 1261 2176 1139 2112 
L 1037 2310 
Q 1261 2426 1459 2541 
Q 1658 2656 1805 2787 
Q 1952 2918 2038 3084 
Q 2125 3251 2125 3469 
Q 2125 3782 1923 3968 
Q 1722 4154 1395 4154 
Q 1030 4154 809 4000 
Q 589 3846 429 3584 
L 282 3667 
Q 416 4109 761 4400 
Q 1107 4691 1626 4691 
Q 2227 4691 2544 4422 
Q 2861 4154 2861 3654 
Q 2861 3270 2633 3030 
Q 2406 2790 2099 2618 
L 2099 2598 
Q 2630 2573 2924 2278 
Q 3219 1984 3219 1555 
Q 3219 1126 3068 816 
Q 2918 506 2672 307 
Q 2426 109 2099 16 
Q 1773 -77 1427 -77 
Q 1088 -77 797 -9 
Q 506 58 288 166 
L 237 800 
Q 474 595 758 428 
Q 1043 262 1318 262 
Q 1875 262 2163 537 
Q 2451 813 2451 1446 
z
" transform="scale(0.015625)"/>
       </defs>
       <use xlink:href="#HardingTextWeb-Regular-32"/>
       <use xlink:href="#HardingTextWeb-Regular-30" transform="translate(54.199997 0)"/>
       <use xlink:href="#HardingTextWeb-Regular-33" transform="translate(120.499985 0)"/>
       <use xlink:href="#HardingTextWeb-Regular-30" transform="translate(175.199982 0)"/>
      </g>
     </g>
    </g>
    <g id="xtick_3">
     <g id="line2d_3">
      <g>
       <use xlink:href="#m34e6407209" x="165.52975" y="411.148594" style="stroke: #000000; stroke-width: 0.8"/>
      </g>
     </g>
     <g id="text_3">
      <!-- 2035 -->
      <g transform="translate(156.4735 420.904844) scale(0.08 -0.08)">
       <use xlink:href="#HardingTextWeb-Regular-32"/>
       <use xlink:href="#HardingTextWeb-Regular-30" transform="translate(54.199997 0)"/>
       <use xlink:href="#HardingTextWeb-Regular-33" transform="translate(120.499985 0)"/>
       <use xlink:href="#HardingTextWeb-Regular-35" transform="translate(175.199982 0)"/>
      </g>
     </g>
    </g>
    <g id="xtick_4">
     <g id="line2d_4">
      <g>
       <use xlink:href="#m34e6407209" x="240.1765" y="411.148594" style="stroke: #000000; stroke-width: 0.8"/>
      </g>
     </g>
     <g id="text_4">
      <!-- 2040 -->
      <g transform="translate(230.344625 420.904844) scale(0.08 -0.08)">
       <defs>
        <path id="HardingTextWeb-Regular-34" d="M 102 1574 
L 2163 4614 
L 2643 4614 
L 2643 1837 
L 3565 1837 
L 3501 1344 
L 2650 1344 
Q 2656 858 2694 547 
Q 2733 237 2797 0 
L 1766 0 
Q 1843 237 1881 547 
Q 1920 858 1926 1344 
L 179 1344 
L 102 1574 
z
M 678 1837 
L 1933 1837 
L 1933 3693 
L 678 1837 
z
" transform="scale(0.015625)"/>
       </defs>
       <use xlink:href="#HardingTextWeb-Regular-32"/>
       <use xlink:href="#HardingTextWeb-Regular-30" transform="translate(54.199997 0)"/>
       <use xlink:href="#HardingTextWeb-Regular-34" transform="translate(120.499985 0)"/>
       <use xlink:href="#HardingTextWeb-Regular-30" transform="translate(179.499969 0)"/>
      </g>
     </g>
    </g>
    <g id="xtick_5">
     <g id="line2d_5">
      <g>
       <use xlink:href="#m34e6407209" x="314.82325" y="411.148594" style="stroke: #000000; stroke-width: 0.8"/>
      </g>
     </g>
     <g id="text_5">
      <!-- 2045 -->
      <g transform="translate(305.595125 420.904844) scale(0.08 -0.08)">
       <use xlink:href="#HardingTextWeb-Regular-32"/>
       <use xlink:href="#HardingTextWeb-Regular-30" transform="translate(54.199997 0)"/>
       <use xlink:href="#HardingTextWeb-Regular-34" transform="translate(120.499985 0)"/>
       <use xlink:href="#HardingTextWeb-Regular-35" transform="translate(179.499969 0)"/>
      </g>
     </g>
    </g>
    <g id="xtick_6">
     <g id="line2d_6">
      <g>
       <use xlink:href="#m34e6407209" x="389.47" y="411.148594" style="stroke: #000000; stroke-width: 0.8"/>
      </g>
     </g>
     <g id="text_6">
      <!-- 2050 -->
      <g transform="translate(379.95 420.904844) scale(0.08 -0.08)">
       <use xlink:href="#HardingTextWeb-Regular-32"/>
       <use xlink:href="#HardingTextWeb-Regular-30" transform="translate(54.199997 0)"/>
       <use xlink:href="#HardingTextWeb-Regular-35" transform="translate(120.499985 0)"/>
       <use xlink:href="#HardingTextWeb-Regular-30" transform="translate(171.699982 0)"/>
      </g>
     </g>
    </g>
    <g id="xtick_7">
     <g id="line2d_7">
      <defs>
       <path id="m62272346a5" d="M 0 0 
L 0 -2 
" style="stroke: #000000; stroke-width: 0.6"/>
      </defs>
      <g>
       <use xlink:href="#m62272346a5" x="31.1656" y="411.148594" style="stroke: #000000; stroke-width: 0.6"/>
      </g>
     </g>
    </g>
    <g id="xtick_8">
     <g id="line2d_8">
      <g>
       <use xlink:href="#m62272346a5" x="46.09495" y="411.148594" style="stroke: #000000; stroke-width: 0.6"/>
      </g>
     </g>
    </g>
    <g id="xtick_9">
     <g id="line2d_9">
      <g>
       <use xlink:href="#m62272346a5" x="61.0243" y="411.148594" style="stroke: #000000; stroke-width: 0.6"/>
      </g>
     </g>
    </g>
    <g id="xtick_10">
     <g id="line2d_10">
      <g>
       <use xlink:href="#m62272346a5" x="75.95365" y="411.148594" style="stroke: #000000; stroke-width: 0.6"/>
      </g>
     </g>
    </g>
    <g id="xtick_11">
     <g id="line2d_11">
      <g>
       <use xlink:href="#m62272346a5" x="105.81235" y="411.148594" style="stroke: #000000; stroke-width: 0.6"/>
      </g>
     </g>
    </g>
    <g id="xtick_12">
     <g id="line2d_12">
      <g>
       <use xlink:href="#m62272346a5" x="120.7417" y="411.148594" style="stroke: #000000; stroke-width: 0.6"/>
      </g>
     </g>
    </g>
    <g id="xtick_13">
     <g id="line2d_13">
      <g>
       <use xlink:href="#m62272346a5" x="135.67105" y="411.148594" style="stroke: #000000; stroke-width: 0.6"/>
      </g>
     </g>
    </g>
    <g id="xtick_14">
     <g id="line2d_14">
      <g>
       <use xlink:href="#m62272346a5" x="150.6004" y="411.148594" style="stroke: #000000; stroke-width: 0.6"/>
      </g>
     </g>
    </g>
    <g id="xtick_15">
     <g id="line2d_15">
      <g>
       <use xlink:href="#m62272346a5" x="180.4591" y="411.148594" style="stroke: #000000; stroke-width: 0.6"/>
      </g>
     </g>
    </g>
    <g id="xtick_16">
     <g id="line2d_16">
      <g>
       <use xlink:href="#m62272346a5" x="195.38845" y="411.148594" style="stroke: #000000; stroke-width: 0.6"/>
      </g>
     </g>
    </g>
    <g id="xtick_17">
     <g id="line2d_17">
      <g>
       <use xlink:href="#m62272346a5" x="210.3178" y="411.148594" style="stroke: #000000; stroke-width: 0.6"/>
      </g>
     </g>
    </g>
    <g id="xtick_18">
     <g id="line2d_18">
      <g>
       <use xlink:href="#m62272346a5" x="225.24715" y="411.148594" style="stroke: #000000; stroke-width: 0.6"/>
      </g>
     </g>
    </g>
    <g id="xtick_19">
     <g id="line2d_19">
      <g>
       <use xlink:href="#m62272346a5" x="255.10585" y="411.148594" style="stroke: #000000; stroke-width: 0.6"/>
      </g>
     </g>
    </g>
    <g id="xtick_20">
     <g id="line2d_20">
      <g>
       <use xlink:href="#m62272346a5" x="270.0352" y="411.148594" style="stroke: #000000; stroke-width: 0.6"/>
      </g>
     </g>
    </g>
    <g id="xtick_21">
     <g id="line2d_21">
      <g>
       <use xlink:href="#m62272346a5" x="284.96455" y="411.148594" style="stroke: #000000; stroke-width: 0.6"/>
      </g>
     </g>
    </g>
    <g id="xtick_22">
     <g id="line2d_22">
      <g>
       <use xlink:href="#m62272346a5" x="299.8939" y="411.148594" style="stroke: #000000; stroke-width: 0.6"/>
      </g>
     </g>
    </g>
    <g id="xtick_23">
     <g id="line2d_23">
      <g>
       <use xlink:href="#m62272346a5" x="329.7526" y="411.148594" style="stroke: #000000; stroke-width: 0.6"/>
      </g>
     </g>
    </g>
    <g id="xtick_24">
     <g id="line2d_24">
      <g>
       <use xlink:href="#m62272346a5" x="344.68195" y="411.148594" style="stroke: #000000; stroke-width: 0.6"/>
      </g>
     </g>
    </g>
    <g id="xtick_25">
     <g id="line2d_25">
      <g>
       <use xlink:href="#m62272346a5" x="359.6113" y="411.148594" style="stroke: #000000; stroke-width: 0.6"/>
      </g>
     </g>
    </g>
    <g id="xtick_26">
     <g id="line2d_26">
      <g>
       <use xlink:href="#m62272346a5" x="374.54065" y="411.148594" style="stroke: #000000; stroke-width: 0.6"/>
      </g>
     </g>
    </g>
   </g>
   <g id="matplotlib.axis_2">
    <g id="ytick_1">
     <g id="line2d_27">
      <defs>
       <path id="m164625b785" d="M 0 0 
L -3.5 0 
" style="stroke: #000000; stroke-width: 0.8"/>
      </defs>
      <g>
       <use xlink:href="#m164625b785" x="389.47" y="411.148594" style="stroke: #000000; stroke-width: 0.8"/>
      </g>
     </g>
     <g id="text_7">
      <!-- 0 -->
      <g transform="translate(392.97 414.276719) scale(0.08 -0.08)">
       <use xlink:href="#HardingTextWeb-Regular-30"/>
      </g>
     </g>
    </g>
    <g id="ytick_2">
     <g id="line2d_28">
      <g>
       <use xlink:href="#m164625b785" x="389.47" y="328.818174" style="stroke: #000000; stroke-width: 0.8"/>
      </g>
     </g>
     <g id="text_8">
      <!-- 50 -->
      <g transform="translate(392.97 331.946299) scale(0.08 -0.08)">
       <use xlink:href="#HardingTextWeb-Regular-35"/>
       <use xlink:href="#HardingTextWeb-Regular-30" transform="translate(51.199997 0)"/>
      </g>
     </g>
    </g>
    <g id="ytick_3">
     <g id="line2d_29">
      <g>
       <use xlink:href="#m164625b785" x="389.47" y="246.487754" style="stroke: #000000; stroke-width: 0.8"/>
      </g>
     </g>
     <g id="text_9">
      <!-- 100 -->
      <g transform="translate(392.97 249.615879) scale(0.08 -0.08)">
       <defs>
        <path id="HardingTextWeb-Regular-31" d="M 294 0 
L 294 339 
L 960 339 
Q 998 538 1017 778 
Q 1037 1018 1037 1312 
L 1037 3917 
L 256 3949 
L 256 4205 
Q 730 4269 1120 4413 
Q 1510 4557 1830 4678 
Q 1786 4384 1776 4080 
Q 1766 3776 1766 3494 
L 1766 1312 
Q 1766 1018 1788 778 
Q 1811 538 1843 339 
L 2483 339 
L 2483 0 
L 294 0 
z
" transform="scale(0.015625)"/>
       </defs>
       <use xlink:href="#HardingTextWeb-Regular-31"/>
       <use xlink:href="#HardingTextWeb-Regular-30" transform="translate(41.799988 0)"/>
       <use xlink:href="#HardingTextWeb-Regular-30" transform="translate(108.099976 0)"/>
      </g>
     </g>
    </g>
    <g id="ytick_4">
     <g id="line2d_30">
      <g>
       <use xlink:href="#m164625b785" x="389.47" y="164.157334" style="stroke: #000000; stroke-width: 0.8"/>
      </g>
     </g>
     <g id="text_10">
      <!-- 150 -->
      <g transform="translate(392.97 167.285459) scale(0.08 -0.08)">
       <use xlink:href="#HardingTextWeb-Regular-31"/>
       <use xlink:href="#HardingTextWeb-Regular-35" transform="translate(41.799988 0)"/>
       <use xlink:href="#HardingTextWeb-Regular-30" transform="translate(92.999985 0)"/>
      </g>
     </g>
    </g>
    <g id="ytick_5">
     <g id="line2d_31">
      <g>
       <use xlink:href="#m164625b785" x="389.47" y="81.826914" style="stroke: #000000; stroke-width: 0.8"/>
      </g>
     </g>
     <g id="text_11">
      <!-- 200 -->
      <g transform="translate(392.97 84.955039) scale(0.08 -0.08)">
       <use xlink:href="#HardingTextWeb-Regular-32"/>
       <use xlink:href="#HardingTextWeb-Regular-30" transform="translate(54.199997 0)"/>
       <use xlink:href="#HardingTextWeb-Regular-30" transform="translate(120.499985 0)"/>
      </g>
     </g>
    </g>
    <g id="ytick_6">
     <g id="line2d_32">
      <defs>
       <path id="ma4a83e0591" d="M 0 0 
L -2 0 
" style="stroke: #000000; stroke-width: 0.6"/>
      </defs>
      <g>
       <use xlink:href="#ma4a83e0591" x="389.47" y="394.68251" style="stroke: #000000; stroke-width: 0.6"/>
      </g>
     </g>
    </g>
    <g id="ytick_7">
     <g id="line2d_33">
      <g>
       <use xlink:href="#ma4a83e0591" x="389.47" y="378.216426" style="stroke: #000000; stroke-width: 0.6"/>
      </g>
     </g>
    </g>
    <g id="ytick_8">
     <g id="line2d_34">
      <g>
       <use xlink:href="#ma4a83e0591" x="389.47" y="361.750342" style="stroke: #000000; stroke-width: 0.6"/>
      </g>
     </g>
    </g>
    <g id="ytick_9">
     <g id="line2d_35">
      <g>
       <use xlink:href="#ma4a83e0591" x="389.47" y="345.284258" style="stroke: #000000; stroke-width: 0.6"/>
      </g>
     </g>
    </g>
    <g id="ytick_10">
     <g id="line2d_36">
      <g>
       <use xlink:href="#ma4a83e0591" x="389.47" y="312.35209" style="stroke: #000000; stroke-width: 0.6"/>
      </g>
     </g>
    </g>
    <g id="ytick_11">
     <g id="line2d_37">
      <g>
       <use xlink:href="#ma4a83e0591" x="389.47" y="295.886006" style="stroke: #000000; stroke-width: 0.6"/>
      </g>
     </g>
    </g>
    <g id="ytick_12">
     <g id="line2d_38">
      <g>
       <use xlink:href="#ma4a83e0591" x="389.47" y="279.419922" style="stroke: #000000; stroke-width: 0.6"/>
      </g>
     </g>
    </g>
    <g id="ytick_13">
     <g id="line2d_39">
      <g>
       <use xlink:href="#ma4a83e0591" x="389.47" y="262.953838" style="stroke: #000000; stroke-width: 0.6"/>
      </g>
     </g>
    </g>
    <g id="ytick_14">
     <g id="line2d_40">
      <g>
       <use xlink:href="#ma4a83e0591" x="389.47" y="230.02167" style="stroke: #000000; stroke-width: 0.6"/>
      </g>
     </g>
    </g>
    <g id="ytick_15">
     <g id="line2d_41">
      <g>
       <use xlink:href="#ma4a83e0591" x="389.47" y="213.555586" style="stroke: #000000; stroke-width: 0.6"/>
      </g>
     </g>
    </g>
    <g id="ytick_16">
     <g id="line2d_42">
      <g>
       <use xlink:href="#ma4a83e0591" x="389.47" y="197.089502" style="stroke: #000000; stroke-width: 0.6"/>
      </g>
     </g>
    </g>
    <g id="ytick_17">
     <g id="line2d_43">
      <g>
       <use xlink:href="#ma4a83e0591" x="389.47" y="180.623418" style="stroke: #000000; stroke-width: 0.6"/>
      </g>
     </g>
    </g>
    <g id="ytick_18">
     <g id="line2d_44">
      <g>
       <use xlink:href="#ma4a83e0591" x="389.47" y="147.69125" style="stroke: #000000; stroke-width: 0.6"/>
      </g>
     </g>
    </g>
    <g id="ytick_19">
     <g id="line2d_45">
      <g>
       <use xlink:href="#ma4a83e0591" x="389.47" y="131.225166" style="stroke: #000000; stroke-width: 0.6"/>
      </g>
     </g>
    </g>
    <g id="ytick_20">
     <g id="line2d_46">
      <g>
       <use xlink:href="#ma4a83e0591" x="389.47" y="114.759082" style="stroke: #000000; stroke-width: 0.6"/>
      </g>
     </g>
    </g>
    <g id="ytick_21">
     <g id="line2d_47">
      <g>
       <use xlink:href="#ma4a83e0591" x="389.47" y="98.292998" style="stroke: #000000; stroke-width: 0.6"/>
      </g>
     </g>
    </g>
    <g id="ytick_22">
     <g id="line2d_48">
      <g>
       <use xlink:href="#ma4a83e0591" x="389.47" y="65.36083" style="stroke: #000000; stroke-width: 0.6"/>
      </g>
     </g>
    </g>
    <g id="ytick_23">
     <g id="line2d_49">
      <g>
       <use xlink:href="#ma4a83e0591" x="389.47" y="48.894746" style="stroke: #000000; stroke-width: 0.6"/>
      </g>
     </g>
    </g>
    <g id="ytick_24">
     <g id="line2d_50">
      <g>
       <use xlink:href="#ma4a83e0591" x="389.47" y="32.428662" style="stroke: #000000; stroke-width: 0.6"/>
      </g>
     </g>
    </g>
    <g id="text_12">
     <!-- MtH₂ yr⁻¹ -->
     <g transform="translate(420.073125 238.948906) rotate(-90) scale(0.1 -0.1)">
      <defs>
       <path id="HardingTextWeb-Regular-4d" d="M 2931 0 
L 2656 0 
L 1062 3738 
L 1030 3738 
L 1030 1485 
Q 1030 1056 1078 733 
Q 1126 410 1210 0 
L 422 0 
Q 506 403 550 729 
Q 595 1056 595 1485 
L 595 3379 
Q 595 3667 556 4012 
Q 518 4358 435 4621 
L 1478 4621 
L 2944 1133 
L 2976 1133 
L 4320 4621 
L 5338 4621 
Q 5274 4358 5232 4012 
Q 5190 3667 5190 3379 
L 5190 1242 
Q 5190 954 5232 608 
Q 5274 262 5338 0 
L 4269 0 
Q 4346 262 4384 608 
Q 4422 954 4429 1242 
L 4429 3731 
L 4403 3731 
L 2931 0 
z
" transform="scale(0.015625)"/>
       <path id="HardingTextWeb-Regular-74" d="M 2304 538 
Q 2298 461 2285 419 
Q 2272 378 2246 314 
Q 2176 141 1987 32 
Q 1798 -77 1498 -77 
Q 1030 -77 793 163 
Q 557 403 557 890 
L 557 2989 
L 102 2989 
L 102 3046 
L 1197 4141 
L 1248 4102 
L 1248 3424 
L 2182 3424 
L 2106 2989 
L 1248 2989 
L 1248 934 
Q 1248 659 1398 544 
Q 1549 429 1773 429 
Q 1933 429 2067 457 
Q 2202 486 2304 538 
z
" transform="scale(0.015625)"/>
       <path id="HardingTextWeb-Regular-48" d="M 1350 1203 
Q 1350 928 1388 592 
Q 1427 256 1491 0 
L 422 0 
Q 506 256 544 592 
Q 582 928 582 1203 
L 582 3418 
Q 582 3693 544 4029 
Q 506 4365 422 4621 
L 1491 4621 
Q 1427 4365 1388 4029 
Q 1350 3693 1350 3418 
L 1350 2515 
L 3392 2515 
L 3392 3418 
Q 3392 3693 3357 4029 
Q 3322 4365 3238 4621 
L 4301 4621 
Q 4237 4365 4198 4029 
Q 4160 3693 4160 3418 
L 4160 1203 
Q 4160 928 4198 592 
Q 4237 256 4301 0 
L 3238 0 
Q 3322 256 3357 592 
Q 3392 928 3392 1203 
L 3392 2170 
L 1350 2170 
L 1350 1203 
z
" transform="scale(0.015625)"/>
       <path id="HardingTextWeb-Regular-2082" d="M 2400 1510 
Q 2400 1254 2253 1004 
Q 2106 755 1888 534 
Q 1670 314 1420 118 
Q 1171 -77 966 -230 
L 1632 -230 
Q 1914 -230 2176 -182 
Q 2438 -134 2566 -83 
L 2445 -704 
L 397 -704 
L 326 -525 
Q 627 -250 892 0 
Q 1158 250 1356 486 
Q 1555 723 1670 950 
Q 1786 1178 1786 1402 
Q 1786 1619 1651 1776 
Q 1517 1933 1210 1933 
Q 973 1933 806 1837 
Q 640 1741 506 1542 
L 390 1606 
Q 506 1914 768 2131 
Q 1030 2349 1446 2349 
Q 1926 2349 2163 2109 
Q 2400 1869 2400 1510 
z
" transform="scale(0.015625)"/>
       <path id="HardingTextWeb-Regular-20" transform="scale(0.015625)"/>
       <path id="HardingTextWeb-Regular-79" d="M 1485 96 
L 531 2541 
Q 416 2835 320 3033 
Q 224 3232 122 3424 
L 1107 3424 
Q 1094 3226 1139 3030 
Q 1184 2835 1293 2528 
L 1837 973 
L 1862 973 
L 2419 2566 
Q 2509 2822 2534 3033 
Q 2560 3245 2528 3424 
L 3251 3424 
Q 3155 3232 3043 2998 
Q 2931 2765 2803 2432 
L 2042 403 
Q 1702 -486 1372 -924 
Q 1043 -1363 595 -1363 
Q 384 -1363 275 -1264 
Q 166 -1165 166 -1011 
Q 166 -870 252 -787 
Q 339 -704 474 -704 
Q 621 -704 691 -758 
Q 762 -813 858 -813 
Q 998 -813 1171 -566 
Q 1344 -320 1485 96 
z
" transform="scale(0.015625)"/>
       <path id="HardingTextWeb-Regular-72" d="M 1261 3462 
L 1242 2720 
L 1274 2720 
Q 1318 2861 1395 3001 
Q 1472 3142 1581 3251 
Q 1690 3360 1837 3430 
Q 1984 3501 2170 3501 
Q 2227 3501 2326 3485 
Q 2426 3469 2458 3456 
L 2394 2765 
L 2362 2765 
Q 2304 2803 2189 2838 
Q 2074 2874 1952 2874 
Q 1626 2874 1459 2650 
Q 1293 2426 1293 2131 
L 1293 1133 
Q 1293 813 1315 521 
Q 1338 230 1408 0 
L 480 0 
Q 557 243 579 563 
Q 602 883 602 1158 
L 602 2362 
Q 602 2637 525 2870 
Q 448 3104 339 3206 
L 1235 3482 
L 1261 3462 
z
" transform="scale(0.015625)"/>
       <path id="HardingTextWeb-Regular-207b" d="M 2470 3533 
L 358 3533 
L 358 3802 
L 2470 3802 
L 2470 3533 
z
" transform="scale(0.015625)"/>
       <path id="HardingTextWeb-Regular-b9" d="M 1811 3098 
Q 1811 2899 1827 2732 
Q 1843 2566 1869 2426 
L 2394 2426 
L 2394 2176 
L 627 2176 
L 627 2426 
L 1165 2426 
Q 1197 2566 1213 2732 
Q 1229 2899 1229 3098 
L 1229 4685 
L 602 4704 
L 602 4896 
Q 986 4941 1309 5040 
Q 1632 5139 1869 5222 
Q 1837 5024 1824 4790 
Q 1811 4557 1811 4346 
L 1811 3098 
z
" transform="scale(0.015625)"/>
      </defs>
      <use xlink:href="#HardingTextWeb-Regular-4d"/>
      <use xlink:href="#HardingTextWeb-Regular-74" transform="translate(89.999985 0)"/>
      <use xlink:href="#HardingTextWeb-Regular-48" transform="translate(128.299973 0)"/>
      <use xlink:href="#HardingTextWeb-Regular-2082" transform="translate(202.399963 0)"/>
      <use xlink:href="#HardingTextWeb-Regular-20" transform="translate(247.899948 0)"/>
      <use xlink:href="#HardingTextWeb-Regular-79" transform="translate(265.499939 0)"/>
      <use xlink:href="#HardingTextWeb-Regular-72" transform="translate(318.09993 0)"/>
      <use xlink:href="#HardingTextWeb-Regular-207b" transform="translate(359.599915 0)"/>
      <use xlink:href="#HardingTextWeb-Regular-b9" transform="translate(403.699905 0)"/>
     </g>
    </g>
   </g>
   <g id="line2d_51">
    <path d="M 16.23625 411.148594 
L 90.883 411.148594 
L 165.52975 411.148594 
L 240.1765 411.148594 
L 314.82325 411.148594 
L 389.47 411.148594 
" clip-path="url(#p0ffea8b2b1)" style="fill: none; stroke: #000000; stroke-width: 0.8; stroke-linecap: square"/>
   </g>
   <g id="line2d_52">
    <path d="M 16.23625 411.148594 
L 90.883 411.148594 
L 165.52975 411.148594 
L 240.1765 411.148594 
L 314.82325 411.148594 
L 389.47 411.148594 
" clip-path="url(#p0ffea8b2b1)" style="fill: none; stroke: #000000; stroke-width: 0.8; stroke-linecap: square"/>
   </g>
   <g id="line2d_53">
    <path d="M 16.23625 403.681164 
L 90.883 391.272043 
L 165.52975 323.203281 
L 240.1765 230.456493 
L 314.82325 150.384034 
L 389.47 40.342641 
" clip-path="url(#p0ffea8b2b1)" style="fill: none; stroke: #000000; stroke-width: 0.8; stroke-linecap: square"/>
   </g>
   <g id="line2d_54">
    <path d="M 16.23625 403.681164 
L 90.883 391.272043 
L 165.52975 323.203281 
L 240.1765 230.456493 
L 314.82325 150.384034 
L 389.47 40.342641 
" clip-path="url(#p0ffea8b2b1)" style="fill: none; stroke: #000000; stroke-width: 0.8; stroke-linecap: square"/>
   </g>
   <g id="patch_3">
    <path d="M 389.47 411.148594 
L 389.47 21.802344 
" style="fill: none; stroke: #000000; stroke-width: 0.8; stroke-linejoin: miter; stroke-linecap: square"/>
   </g>
   <g id="patch_4">
    <path d="M 16.23625 411.148594 
L 389.47 411.148594 
" style="fill: none; stroke: #000000; stroke-width: 0.8; stroke-linejoin: miter; stroke-linecap: square"/>
   </g>
   <g id="text_13">
    <!-- (a) -->
    <g transform="translate(195.956641 15.802344) scale(0.11 -0.11)">
     <defs>
      <path id="HardingTextWeb-Regular-28" d="M 1907 -902 
Q 1638 -698 1376 -406 
Q 1114 -115 909 253 
Q 704 621 576 1072 
Q 448 1523 448 2054 
Q 448 2541 576 2985 
Q 704 3430 909 3811 
Q 1114 4192 1376 4502 
Q 1638 4813 1907 5024 
L 2086 4890 
Q 1651 4422 1385 3712 
Q 1120 3002 1120 2163 
Q 1120 1082 1411 403 
Q 1702 -275 2106 -742 
L 1907 -902 
z
" transform="scale(0.015625)"/>
      <path id="HardingTextWeb-Regular-61" d="M 736 2406 
Q 614 2406 512 2486 
Q 410 2566 410 2726 
Q 410 2899 522 3043 
Q 634 3187 813 3289 
Q 992 3392 1222 3446 
Q 1453 3501 1690 3501 
Q 2298 3501 2554 3241 
Q 2810 2982 2810 2470 
L 2810 1158 
Q 2810 883 2829 563 
Q 2848 243 2925 0 
L 2195 0 
Q 2182 102 2172 246 
Q 2163 390 2163 480 
L 2138 480 
Q 2016 256 1801 89 
Q 1587 -77 1197 -77 
Q 774 -77 528 166 
Q 282 410 275 774 
Q 269 1088 486 1325 
Q 704 1562 1152 1722 
L 2118 2054 
L 2118 2515 
Q 2118 2861 1961 3008 
Q 1805 3155 1510 3155 
Q 1318 3155 1225 3081 
Q 1133 3008 1094 2816 
Q 1050 2598 966 2502 
Q 883 2406 736 2406 
z
M 986 883 
Q 986 640 1123 499 
Q 1261 358 1498 358 
Q 1734 358 1894 480 
Q 2054 602 2118 755 
L 2118 1805 
L 1517 1568 
Q 1235 1453 1110 1305 
Q 986 1158 986 883 
z
" transform="scale(0.015625)"/>
      <path id="HardingTextWeb-Regular-29" d="M 442 -902 
L 243 -742 
Q 646 -275 940 403 
Q 1235 1082 1235 2163 
Q 1235 3002 969 3712 
Q 704 4422 269 4890 
L 442 5024 
Q 717 4813 979 4502 
Q 1242 4192 1446 3811 
Q 1651 3430 1776 2985 
Q 1901 2541 1901 2054 
Q 1901 1523 1776 1072 
Q 1651 621 1446 253 
Q 1242 -115 979 -406 
Q 717 -698 442 -902 
z
" transform="scale(0.015625)"/>
     </defs>
     <use xlink:href="#HardingTextWeb-Regular-28"/>
     <use xlink:href="#HardingTextWeb-Regular-61" transform="translate(36.799988 0)"/>
     <use xlink:href="#HardingTextWeb-Regular-29" transform="translate(88.599976 0)"/>
    </g>
   </g>
   <g id="legend_1">
    <g id="patch_5">
     <path d="M 25.23625 38.622656 
L 45.23625 38.622656 
L 45.23625 31.622656 
L 25.23625 31.622656 
z
" style="fill: #c7e9c0; stroke: #c7e9c0; stroke-linejoin: miter"/>
    </g>
    <g id="text_14">
     <!-- bSMR -->
     <g transform="translate(53.23625 38.622656) scale(0.1 -0.1)">
      <defs>
       <path id="HardingTextWeb-Regular-62" d="M 1146 3987 
L 1146 2944 
L 1165 2944 
Q 1254 3142 1584 3321 
Q 1914 3501 2336 3501 
Q 2906 3501 3245 3072 
Q 3584 2643 3584 1824 
Q 3584 1434 3481 1085 
Q 3379 736 3168 480 
Q 2957 224 2630 73 
Q 2304 -77 1850 -77 
Q 1446 -77 1097 6 
Q 749 90 461 250 
L 461 3872 
Q 461 4147 390 4371 
Q 320 4595 218 4698 
L 1133 5005 
L 1184 4966 
L 1146 3987 
z
M 1152 486 
Q 1254 403 1468 332 
Q 1683 262 1856 262 
Q 2355 262 2592 643 
Q 2829 1024 2829 1715 
Q 2829 2349 2624 2665 
Q 2419 2982 1958 2982 
Q 1741 2982 1494 2876 
Q 1248 2771 1152 2643 
L 1152 486 
z
" transform="scale(0.015625)"/>
       <path id="HardingTextWeb-Regular-53" d="M 1811 4698 
Q 2240 4698 2480 4621 
Q 2720 4544 2912 4454 
L 2957 3693 
L 2925 3693 
Q 2739 3981 2425 4157 
Q 2112 4333 1747 4333 
Q 1389 4333 1203 4166 
Q 1018 4000 1018 3699 
Q 1018 3398 1226 3200 
Q 1434 3002 2010 2733 
Q 2560 2477 2921 2179 
Q 3283 1882 3283 1306 
Q 3283 1037 3190 784 
Q 3098 531 2902 342 
Q 2707 154 2400 38 
Q 2093 -77 1664 -77 
Q 1280 -77 941 3 
Q 602 83 320 237 
L 269 1114 
L 301 1114 
Q 538 781 909 531 
Q 1280 282 1677 282 
Q 2118 282 2345 467 
Q 2573 653 2573 992 
Q 2573 1357 2358 1581 
Q 2144 1805 1683 2035 
Q 1382 2176 1129 2307 
Q 877 2438 697 2598 
Q 518 2758 416 2972 
Q 314 3187 314 3494 
Q 314 4019 717 4358 
Q 1120 4698 1811 4698 
z
" transform="scale(0.015625)"/>
       <path id="HardingTextWeb-Regular-52" d="M 1350 1203 
Q 1350 928 1388 592 
Q 1427 256 1491 0 
L 422 0 
Q 506 256 544 592 
Q 582 928 582 1203 
L 582 3418 
Q 582 3693 544 4029 
Q 506 4365 422 4621 
L 1926 4621 
Q 2707 4621 3145 4291 
Q 3584 3962 3584 3347 
Q 3584 2906 3347 2595 
Q 3110 2285 2682 2144 
Q 2931 1670 3126 1350 
Q 3322 1030 3590 634 
Q 3693 493 3853 297 
Q 4013 102 4134 0 
L 3066 0 
Q 2790 448 2476 995 
Q 2163 1542 1888 2042 
L 1350 2042 
L 1350 1203 
z
M 1869 4269 
L 1350 4269 
L 1350 2381 
L 1869 2381 
Q 2368 2381 2582 2627 
Q 2797 2874 2797 3347 
Q 2797 3821 2582 4045 
Q 2368 4269 1869 4269 
z
" transform="scale(0.015625)"/>
      </defs>
      <use xlink:href="#HardingTextWeb-Regular-62"/>
      <use xlink:href="#HardingTextWeb-Regular-53" transform="translate(60.699997 0)"/>
      <use xlink:href="#HardingTextWeb-Regular-4d" transform="translate(116.199982 0)"/>
      <use xlink:href="#HardingTextWeb-Regular-52" transform="translate(206.199966 0)"/>
     </g>
    </g>
    <g id="patch_6">
     <path d="M 25.23625 53.522656 
L 45.23625 53.522656 
L 45.23625 46.522656 
L 25.23625 46.522656 
z
" style="fill: #74c476; stroke: #74c476; stroke-linejoin: miter"/>
    </g>
    <g id="text_15">
     <!-- BioGccs -->
     <g transform="translate(53.23625 53.522656) scale(0.1 -0.1)">
      <defs>
       <path id="HardingTextWeb-Regular-42" d="M 3725 1293 
Q 3725 672 3273 336 
Q 2822 0 2042 0 
L 422 0 
Q 506 256 544 592 
Q 582 928 582 1203 
L 582 3418 
Q 582 3693 544 4029 
Q 506 4365 422 4621 
L 1830 4621 
Q 2618 4621 3050 4361 
Q 3482 4102 3482 3494 
Q 3482 3110 3261 2860 
Q 3040 2611 2650 2496 
L 2650 2477 
Q 3136 2355 3430 2060 
Q 3725 1766 3725 1293 
z
M 1792 4282 
L 1350 4282 
L 1350 2586 
L 1792 2586 
Q 2285 2586 2505 2797 
Q 2726 3008 2726 3475 
Q 2726 3955 2505 4118 
Q 2285 4282 1792 4282 
z
M 2003 2278 
L 1350 2278 
L 1350 326 
L 2003 326 
Q 2502 326 2723 576 
Q 2944 826 2944 1299 
Q 2944 1773 2723 2025 
Q 2502 2278 2003 2278 
z
" transform="scale(0.015625)"/>
       <path id="HardingTextWeb-Regular-69" d="M 915 3942 
Q 723 3942 601 4064 
Q 480 4186 480 4365 
Q 480 4544 601 4665 
Q 723 4787 915 4787 
Q 1114 4787 1235 4665 
Q 1357 4544 1357 4365 
Q 1357 4186 1235 4064 
Q 1114 3942 915 3942 
z
M 1389 0 
L 454 0 
Q 531 243 553 563 
Q 576 883 576 1158 
L 576 2362 
Q 576 2637 499 2870 
Q 422 3104 314 3206 
L 1248 3482 
L 1299 3443 
Q 1293 3411 1286 3283 
Q 1280 3155 1277 3008 
Q 1274 2861 1270 2733 
Q 1267 2605 1267 2566 
L 1267 1158 
Q 1267 883 1289 563 
Q 1312 243 1389 0 
z
" transform="scale(0.015625)"/>
       <path id="HardingTextWeb-Regular-6f" d="M 1965 -77 
Q 1613 -77 1302 48 
Q 992 173 765 400 
Q 538 627 403 953 
Q 269 1280 269 1677 
Q 269 2093 403 2432 
Q 538 2771 765 3004 
Q 992 3238 1289 3366 
Q 1587 3494 1907 3494 
Q 2259 3494 2569 3369 
Q 2880 3245 3107 3017 
Q 3334 2790 3468 2467 
Q 3603 2144 3603 1747 
Q 3603 1331 3468 992 
Q 3334 653 3107 416 
Q 2880 179 2582 51 
Q 2285 -77 1965 -77 
z
M 1907 3162 
Q 1517 3162 1273 2810 
Q 1030 2458 1030 1754 
Q 1030 1024 1296 643 
Q 1562 262 1965 262 
Q 2355 262 2598 614 
Q 2842 966 2842 1670 
Q 2842 2400 2576 2781 
Q 2310 3162 1907 3162 
z
" transform="scale(0.015625)"/>
       <path id="HardingTextWeb-Regular-47" d="M 4102 1056 
L 4102 422 
Q 3872 205 3427 64 
Q 2982 -77 2432 -77 
Q 1952 -77 1558 86 
Q 1165 250 886 557 
Q 608 864 454 1309 
Q 301 1754 301 2310 
Q 301 2874 493 3322 
Q 685 3770 1001 4074 
Q 1318 4378 1724 4538 
Q 2131 4698 2560 4698 
Q 2944 4698 3315 4621 
Q 3686 4544 3917 4410 
L 3962 3552 
L 3930 3552 
Q 3629 3891 3315 4105 
Q 3002 4320 2560 4320 
Q 1920 4320 1539 3808 
Q 1158 3296 1158 2368 
Q 1158 1376 1516 835 
Q 1875 294 2477 294 
Q 2765 294 2985 329 
Q 3206 365 3379 467 
L 3379 1056 
Q 3379 1318 3344 1622 
Q 3309 1926 3226 2170 
L 4237 2170 
Q 4173 1926 4137 1622 
Q 4102 1318 4102 1056 
z
" transform="scale(0.015625)"/>
       <path id="HardingTextWeb-Regular-63" d="M 3046 749 
Q 3002 595 2902 448 
Q 2803 301 2652 185 
Q 2502 70 2291 -3 
Q 2080 -77 1811 -77 
Q 1491 -77 1206 38 
Q 922 154 717 371 
Q 512 589 390 905 
Q 269 1222 269 1626 
Q 269 2086 416 2435 
Q 563 2784 800 3021 
Q 1037 3258 1341 3376 
Q 1645 3494 1965 3494 
Q 2528 3494 2768 3283 
Q 3008 3072 3008 2829 
Q 3008 2650 2918 2547 
Q 2829 2445 2650 2445 
Q 2490 2445 2410 2550 
Q 2330 2656 2304 2854 
Q 2291 3053 2220 3107 
Q 2150 3162 1933 3162 
Q 1542 3162 1254 2806 
Q 966 2451 966 1830 
Q 966 1139 1264 803 
Q 1562 467 2042 467 
Q 2368 467 2621 572 
Q 2874 678 3034 858 
L 3046 749 
z
" transform="scale(0.015625)"/>
       <path id="HardingTextWeb-Regular-73" d="M 1472 3494 
Q 1805 3494 2022 3446 
Q 2240 3398 2368 3334 
L 2400 2669 
L 2362 2669 
Q 2163 2886 1958 3024 
Q 1754 3162 1472 3162 
Q 1254 3162 1081 3062 
Q 909 2963 909 2739 
Q 909 2522 1065 2390 
Q 1222 2259 1645 2080 
Q 2061 1901 2352 1677 
Q 2643 1453 2643 1043 
Q 2643 838 2576 636 
Q 2509 435 2358 278 
Q 2208 122 1965 22 
Q 1722 -77 1376 -77 
Q 1094 -77 822 -19 
Q 550 38 333 160 
L 294 941 
L 352 941 
Q 531 691 803 476 
Q 1075 262 1370 262 
Q 1728 262 1881 393 
Q 2035 525 2035 774 
Q 2035 1050 1862 1171 
Q 1690 1293 1299 1466 
Q 870 1651 592 1868 
Q 314 2086 314 2515 
Q 314 2931 634 3212 
Q 954 3494 1472 3494 
z
" transform="scale(0.015625)"/>
      </defs>
      <use xlink:href="#HardingTextWeb-Regular-42"/>
      <use xlink:href="#HardingTextWeb-Regular-69" transform="translate(63.099991 0)"/>
      <use xlink:href="#HardingTextWeb-Regular-6f" transform="translate(91.699982 0)"/>
      <use xlink:href="#HardingTextWeb-Regular-47" transform="translate(152.199966 0)"/>
      <use xlink:href="#HardingTextWeb-Regular-63" transform="translate(223.399948 0)"/>
      <use xlink:href="#HardingTextWeb-Regular-63" transform="translate(274.599945 0)"/>
      <use xlink:href="#HardingTextWeb-Regular-73" transform="translate(325.799942 0)"/>
     </g>
    </g>
    <g id="patch_7">
     <path d="M 110.345625 38.622656 
L 130.345625 38.622656 
L 130.345625 31.622656 
L 110.345625 31.622656 
z
" style="fill: #31a354; stroke: #31a354; stroke-linejoin: miter"/>
    </g>
    <g id="text_16">
     <!-- bSMR+CCS -->
     <g transform="translate(138.345625 38.622656) scale(0.1 -0.1)">
      <defs>
       <path id="HardingTextWeb-Regular-2b" d="M 3398 2093 
L 2061 2093 
L 2061 666 
L 1626 666 
L 1626 2093 
L 288 2093 
L 288 2490 
L 1626 2490 
L 1626 3910 
L 2061 3910 
L 2061 2490 
L 3398 2490 
L 3398 2093 
z
" transform="scale(0.015625)"/>
       <path id="HardingTextWeb-Regular-43" d="M 2547 294 
Q 2822 294 3036 374 
Q 3251 454 3417 576 
Q 3584 698 3715 848 
Q 3846 998 3955 1133 
L 4013 1133 
L 3949 339 
Q 3744 179 3373 51 
Q 3002 -77 2496 -77 
Q 2010 -77 1603 86 
Q 1197 250 909 557 
Q 621 864 461 1309 
Q 301 1754 301 2310 
Q 301 2874 489 3322 
Q 678 3770 985 4074 
Q 1293 4378 1696 4538 
Q 2099 4698 2528 4698 
Q 2912 4698 3280 4624 
Q 3648 4550 3878 4410 
L 3962 3565 
L 3898 3565 
Q 3616 3930 3293 4128 
Q 2970 4326 2528 4326 
Q 1888 4326 1523 3811 
Q 1158 3296 1158 2368 
Q 1158 1376 1539 835 
Q 1920 294 2547 294 
z
" transform="scale(0.015625)"/>
      </defs>
      <use xlink:href="#HardingTextWeb-Regular-62"/>
      <use xlink:href="#HardingTextWeb-Regular-53" transform="translate(60.699997 0)"/>
      <use xlink:href="#HardingTextWeb-Regular-4d" transform="translate(116.199982 0)"/>
      <use xlink:href="#HardingTextWeb-Regular-52" transform="translate(206.199966 0)"/>
      <use xlink:href="#HardingTextWeb-Regular-2b" transform="translate(270.899963 0)"/>
      <use xlink:href="#HardingTextWeb-Regular-43" transform="translate(328.499954 0)"/>
      <use xlink:href="#HardingTextWeb-Regular-43" transform="translate(396.699936 0)"/>
      <use xlink:href="#HardingTextWeb-Regular-53" transform="translate(464.899918 0)"/>
     </g>
    </g>
   </g>
  </g>
  <g id="axes_2">
   <g id="patch_8">
    <path d="M 440.36125 411.148594 
L 813.595 411.148594 
L 813.595 21.802344 
L 440.36125 21.802344 
L 440.36125 411.148594 
z
" style="fill: none"/>
   </g>
   <g id="FillBetweenPolyCollection_15">
    <path d="M 440.36125 216.475469 
L 440.36125 216.475469 
L 515.008 216.475469 
L 589.65475 216.475469 
L 664.3015 216.475469 
L 738.94825 216.475469 
L 813.595 216.475469 
L 813.595 216.475469 
L 813.595 216.475469 
L 738.94825 216.475469 
L 664.3015 216.475469 
L 589.65475 216.475469 
L 515.008 216.475469 
L 440.36125 216.475469 
z
" clip-path="url(#p71e541415f)" style="fill: #bdbdbd"/>
   </g>
   <g id="FillBetweenPolyCollection_16">
    <defs>
     <path id="mac8a67d60d" d="M 440.36125 -213.293125 
L 440.36125 -213.293125 
L 515.008 -213.293125 
L 589.65475 -213.293125 
L 664.3015 -213.293125 
L 738.94825 -213.293125 
L 813.595 -213.293125 
L 813.595 -213.293125 
L 813.595 -213.293125 
L 738.94825 -213.293125 
L 664.3015 -213.293125 
L 589.65475 -213.293125 
L 515.008 -213.293125 
L 440.36125 -213.293125 
z
" style="stroke: #e7969c"/>
    </defs>
    <g clip-path="url(#p71e541415f)">
     <use xlink:href="#mac8a67d60d" x="0" y="429.768594" style="fill: #e7969c; stroke: #e7969c"/>
    </g>
   </g>
   <g id="FillBetweenPolyCollection_17">
    <defs>
     <path id="m6f59c3b0ba" d="M 440.36125 -213.293125 
L 440.36125 -213.293125 
L 515.008 -213.293125 
L 589.65475 -213.293125 
L 664.3015 -213.293125 
L 738.94825 -213.293125 
L 813.595 -213.293125 
L 813.595 -213.293125 
L 813.595 -213.293125 
L 738.94825 -213.293125 
L 664.3015 -213.293125 
L 589.65475 -213.293125 
L 515.008 -213.293125 
L 440.36125 -213.293125 
z
" style="stroke: #d6616b"/>
    </defs>
    <g clip-path="url(#p71e541415f)">
     <use xlink:href="#m6f59c3b0ba" x="0" y="429.768594" style="fill: #d6616b; stroke: #d6616b"/>
    </g>
   </g>
   <g id="FillBetweenPolyCollection_18">
    <defs>
     <path id="m1e703c9da9" d="M 440.36125 -213.293125 
L 440.36125 -213.293125 
L 515.008 -213.293125 
L 589.65475 -213.293125 
L 664.3015 -213.293125 
L 738.94825 -213.293125 
L 813.595 -213.293125 
L 813.595 -213.293125 
L 813.595 -213.293125 
L 738.94825 -213.293125 
L 664.3015 -213.293125 
L 589.65475 -213.293125 
L 515.008 -213.293125 
L 440.36125 -213.293125 
z
" style="stroke: #ad494a"/>
    </defs>
    <g clip-path="url(#p71e541415f)">
     <use xlink:href="#m1e703c9da9" x="0" y="429.768594" style="fill: #ad494a; stroke: #ad494a"/>
    </g>
   </g>
   <g id="FillBetweenPolyCollection_19">
    <g clip-path="url(#p71e541415f)">
     <use xlink:href="#mac8a67d60d" x="0" y="429.768594" style="fill: #e7969c; stroke: #e7969c"/>
    </g>
   </g>
   <g id="FillBetweenPolyCollection_20">
    <g clip-path="url(#p71e541415f)">
     <use xlink:href="#m6f59c3b0ba" x="0" y="429.768594" style="fill: #d6616b; stroke: #d6616b"/>
    </g>
   </g>
   <g id="FillBetweenPolyCollection_21">
    <g clip-path="url(#p71e541415f)">
     <use xlink:href="#m1e703c9da9" x="0" y="429.768594" style="fill: #ad494a; stroke: #ad494a"/>
    </g>
   </g>
   <g id="FillBetweenPolyCollection_22">
    <defs>
     <path id="m4a84def554" d="M 440.36125 -213.293125 
L 440.36125 -213.293125 
L 515.008 -213.293125 
L 589.65475 -213.293125 
L 664.3015 -213.293125 
L 738.94825 -213.293125 
L 813.595 -213.293125 
L 813.595 -213.293125 
L 813.595 -213.293125 
L 738.94825 -213.293125 
L 664.3015 -213.293125 
L 589.65475 -213.293125 
L 515.008 -213.293125 
L 440.36125 -213.293125 
z
" style="stroke: #fd8d3c"/>
    </defs>
    <g clip-path="url(#p71e541415f)">
     <use xlink:href="#m4a84def554" x="0" y="429.768594" style="fill: #fd8d3c; stroke: #fd8d3c"/>
    </g>
   </g>
   <g id="FillBetweenPolyCollection_23">
    <defs>
     <path id="m34b427337a" d="M 440.36125 -213.293125 
L 440.36125 -213.293125 
L 515.008 -213.293125 
L 589.65475 -213.293125 
L 664.3015 -213.293125 
L 738.94825 -213.293125 
L 813.595 -213.293125 
L 813.595 -213.293125 
L 813.595 -213.293125 
L 738.94825 -213.293125 
L 664.3015 -213.293125 
L 589.65475 -213.293125 
L 515.008 -213.293125 
L 440.36125 -213.293125 
z
" style="stroke: #e6550d"/>
    </defs>
    <g clip-path="url(#p71e541415f)">
     <use xlink:href="#m34b427337a" x="0" y="429.768594" style="fill: #e6550d; stroke: #e6550d"/>
    </g>
   </g>
   <g id="FillBetweenPolyCollection_24">
    <defs>
     <path id="mb5a32b7304" d="M 440.36125 -213.293125 
L 440.36125 -213.293125 
L 515.008 -213.293125 
L 589.65475 -213.293125 
L 664.3015 -213.293125 
L 738.94825 -213.293125 
L 813.595 -213.293125 
L 813.595 -213.293125 
L 813.595 -213.293125 
L 738.94825 -213.293125 
L 664.3015 -213.293125 
L 589.65475 -213.293125 
L 515.008 -213.293125 
L 440.36125 -213.293125 
z
" style="stroke: #c6dbef"/>
    </defs>
    <g clip-path="url(#p71e541415f)">
     <use xlink:href="#mb5a32b7304" x="0" y="429.768594" style="fill: #c6dbef; stroke: #c6dbef"/>
    </g>
   </g>
   <g id="FillBetweenPolyCollection_25">
    <defs>
     <path id="mbc25a43c2a" d="M 440.36125 -213.293125 
L 440.36125 -213.293125 
L 515.008 -213.293125 
L 589.65475 -213.293125 
L 664.3015 -213.293125 
L 738.94825 -213.293125 
L 813.595 -213.293125 
L 813.595 -213.293125 
L 813.595 -213.293125 
L 738.94825 -213.293125 
L 664.3015 -213.293125 
L 589.65475 -213.293125 
L 515.008 -213.293125 
L 440.36125 -213.293125 
z
" style="stroke: #e7cb94"/>
    </defs>
    <g clip-path="url(#p71e541415f)">
     <use xlink:href="#mbc25a43c2a" x="0" y="429.768594" style="fill: #e7cb94; stroke: #e7cb94"/>
    </g>
   </g>
   <g id="FillBetweenPolyCollection_26">
    <defs>
     <path id="m8842a3ffe7" d="M 440.36125 -213.293125 
L 440.36125 -213.293125 
L 515.008 -213.293125 
L 589.65475 -213.293125 
L 664.3015 -213.293125 
L 738.94825 -213.293125 
L 813.595 -213.293125 
L 813.595 -213.293125 
L 813.595 -213.293125 
L 738.94825 -213.293125 
L 664.3015 -213.293125 
L 589.65475 -213.293125 
L 515.008 -213.293125 
L 440.36125 -213.293125 
z
" style="stroke: #e7ba52"/>
    </defs>
    <g clip-path="url(#p71e541415f)">
     <use xlink:href="#m8842a3ffe7" x="0" y="429.768594" style="fill: #e7ba52; stroke: #e7ba52"/>
    </g>
   </g>
   <g id="FillBetweenPolyCollection_27">
    <defs>
     <path id="m0ffdc6933a" d="M 440.36125 -213.293125 
L 440.36125 -213.293125 
L 515.008 -213.293125 
L 589.65475 -213.293125 
L 664.3015 -213.293125 
L 738.94825 -213.293125 
L 813.595 -213.293125 
L 813.595 -213.293125 
L 813.595 -213.293125 
L 738.94825 -213.293125 
L 664.3015 -213.293125 
L 589.65475 -213.293125 
L 515.008 -213.293125 
L 440.36125 -213.293125 
z
" style="stroke: #bd9e39"/>
    </defs>
    <g clip-path="url(#p71e541415f)">
     <use xlink:href="#m0ffdc6933a" x="0" y="429.768594" style="fill: #bd9e39; stroke: #bd9e39"/>
    </g>
   </g>
   <g id="FillBetweenPolyCollection_28">
    <defs>
     <path id="m3a922607db" d="M 440.36125 -213.293125 
L 440.36125 -213.293125 
L 515.008 -213.293125 
L 589.65475 -213.293125 
L 664.3015 -213.293125 
L 738.94825 -213.293125 
L 813.595 -213.293125 
L 813.595 -213.293125 
L 813.595 -213.293125 
L 738.94825 -213.293125 
L 664.3015 -213.293125 
L 589.65475 -213.293125 
L 515.008 -213.293125 
L 440.36125 -213.293125 
z
" style="stroke: #637939"/>
    </defs>
    <g clip-path="url(#p71e541415f)">
     <use xlink:href="#m3a922607db" x="0" y="429.768594" style="fill: #637939; stroke: #637939"/>
    </g>
   </g>
   <g id="FillBetweenPolyCollection_29">
    <defs>
     <path id="m035056ddb5" d="M 440.36125 -213.293125 
L 440.36125 -213.293125 
L 515.008 -213.293125 
L 589.65475 -213.293125 
L 664.3015 -213.293125 
L 738.94825 -213.293125 
L 813.595 -213.293125 
L 813.595 -213.293125 
L 813.595 -213.293125 
L 738.94825 -213.293125 
L 664.3015 -213.293125 
L 589.65475 -213.293125 
L 515.008 -213.293125 
L 440.36125 -213.293125 
z
" style="stroke: #a1d99b"/>
    </defs>
    <g clip-path="url(#p71e541415f)">
     <use xlink:href="#m035056ddb5" x="0" y="429.768594" style="fill: #a1d99b; stroke: #a1d99b"/>
    </g>
   </g>
   <g id="FillBetweenPolyCollection_30">
    <defs>
     <path id="m996f34817b" d="M 440.36125 -213.293125 
L 440.36125 -213.293125 
L 515.008 -213.293125 
L 589.65475 -213.293125 
L 664.3015 -213.293125 
L 738.94825 -213.293125 
L 813.595 -213.293125 
L 813.595 -213.293125 
L 813.595 -213.293125 
L 738.94825 -213.293125 
L 664.3015 -213.293125 
L 589.65475 -213.293125 
L 515.008 -213.293125 
L 440.36125 -213.293125 
z
" style="stroke: #74c476"/>
    </defs>
    <g clip-path="url(#p71e541415f)">
     <use xlink:href="#m996f34817b" x="0" y="429.768594" style="fill: #74c476; stroke: #74c476"/>
    </g>
   </g>
   <g id="FillBetweenPolyCollection_31">
    <defs>
     <path id="m3f8bfb82e4" d="M 440.36125 -213.293125 
L 440.36125 -213.293125 
L 515.008 -213.293125 
L 589.65475 -213.293125 
L 664.3015 -213.293125 
L 738.94825 -213.293125 
L 813.595 -213.293125 
L 813.595 -213.293125 
L 813.595 -213.293125 
L 738.94825 -213.293125 
L 664.3015 -213.293125 
L 589.65475 -213.293125 
L 515.008 -213.293125 
L 440.36125 -213.293125 
z
" style="stroke: #31a354"/>
    </defs>
    <g clip-path="url(#p71e541415f)">
     <use xlink:href="#m3f8bfb82e4" x="0" y="429.768594" style="fill: #31a354; stroke: #31a354"/>
    </g>
   </g>
   <g id="FillBetweenPolyCollection_32">
    <defs>
     <path id="m16d0f8a74d" d="M 440.36125 -213.293125 
L 440.36125 -213.293125 
L 515.008 -213.293125 
L 589.65475 -213.293125 
L 664.3015 -213.293125 
L 738.94825 -213.293125 
L 813.595 -213.293125 
L 813.595 -213.293125 
L 813.595 -213.293125 
L 738.94825 -213.293125 
L 664.3015 -213.293125 
L 589.65475 -213.293125 
L 515.008 -213.293125 
L 440.36125 -213.293125 
z
" style="stroke: #6baed6"/>
    </defs>
    <g clip-path="url(#p71e541415f)">
     <use xlink:href="#m16d0f8a74d" x="0" y="429.768594" style="fill: #6baed6; stroke: #6baed6"/>
    </g>
   </g>
   <g id="FillBetweenPolyCollection_33">
    <defs>
     <path id="m6969926311" d="M 440.36125 -213.293125 
L 440.36125 -213.293125 
L 515.008 -213.293125 
L 589.65475 -213.293125 
L 664.3015 -213.293125 
L 738.94825 -213.293125 
L 813.595 -213.293125 
L 813.595 -213.293125 
L 813.595 -213.293125 
L 738.94825 -213.293125 
L 664.3015 -213.293125 
L 589.65475 -213.293125 
L 515.008 -213.293125 
L 440.36125 -213.293125 
z
" style="stroke: #3182bd"/>
    </defs>
    <g clip-path="url(#p71e541415f)">
     <use xlink:href="#m6969926311" x="0" y="429.768594" style="fill: #3182bd; stroke: #3182bd"/>
    </g>
   </g>
   <g id="matplotlib.axis_3">
    <g id="xtick_27">
     <g id="line2d_55">
      <g>
       <use xlink:href="#m34e6407209" x="440.36125" y="411.148594" style="stroke: #000000; stroke-width: 0.8"/>
      </g>
     </g>
     <g id="text_17">
      <!-- 2025 -->
      <g transform="translate(431.325 420.904844) scale(0.08 -0.08)">
       <use xlink:href="#HardingTextWeb-Regular-32"/>
       <use xlink:href="#HardingTextWeb-Regular-30" transform="translate(54.199997 0)"/>
       <use xlink:href="#HardingTextWeb-Regular-32" transform="translate(120.499985 0)"/>
       <use xlink:href="#HardingTextWeb-Regular-35" transform="translate(174.699982 0)"/>
      </g>
     </g>
    </g>
    <g id="xtick_28">
     <g id="line2d_56">
      <g>
       <use xlink:href="#m34e6407209" x="515.008" y="411.148594" style="stroke: #000000; stroke-width: 0.8"/>
      </g>
     </g>
     <g id="text_18">
      <!-- 2030 -->
      <g transform="translate(505.348 420.904844) scale(0.08 -0.08)">
       <use xlink:href="#HardingTextWeb-Regular-32"/>
       <use xlink:href="#HardingTextWeb-Regular-30" transform="translate(54.199997 0)"/>
       <use xlink:href="#HardingTextWeb-Regular-33" transform="translate(120.499985 0)"/>
       <use xlink:href="#HardingTextWeb-Regular-30" transform="translate(175.199982 0)"/>
      </g>
     </g>
    </g>
    <g id="xtick_29">
     <g id="line2d_57">
      <g>
       <use xlink:href="#m34e6407209" x="589.65475" y="411.148594" style="stroke: #000000; stroke-width: 0.8"/>
      </g>
     </g>
     <g id="text_19">
      <!-- 2035 -->
      <g transform="translate(580.5985 420.904844) scale(0.08 -0.08)">
       <use xlink:href="#HardingTextWeb-Regular-32"/>
       <use xlink:href="#HardingTextWeb-Regular-30" transform="translate(54.199997 0)"/>
       <use xlink:href="#HardingTextWeb-Regular-33" transform="translate(120.499985 0)"/>
       <use xlink:href="#HardingTextWeb-Regular-35" transform="translate(175.199982 0)"/>
      </g>
     </g>
    </g>
    <g id="xtick_30">
     <g id="line2d_58">
      <g>
       <use xlink:href="#m34e6407209" x="664.3015" y="411.148594" style="stroke: #000000; stroke-width: 0.8"/>
      </g>
     </g>
     <g id="text_20">
      <!-- 2040 -->
      <g transform="translate(654.469625 420.904844) scale(0.08 -0.08)">
       <use xlink:href="#HardingTextWeb-Regular-32"/>
       <use xlink:href="#HardingTextWeb-Regular-30" transform="translate(54.199997 0)"/>
       <use xlink:href="#HardingTextWeb-Regular-34" transform="translate(120.499985 0)"/>
       <use xlink:href="#HardingTextWeb-Regular-30" transform="translate(179.499969 0)"/>
      </g>
     </g>
    </g>
    <g id="xtick_31">
     <g id="line2d_59">
      <g>
       <use xlink:href="#m34e6407209" x="738.94825" y="411.148594" style="stroke: #000000; stroke-width: 0.8"/>
      </g>
     </g>
     <g id="text_21">
      <!-- 2045 -->
      <g transform="translate(729.720125 420.904844) scale(0.08 -0.08)">
       <use xlink:href="#HardingTextWeb-Regular-32"/>
       <use xlink:href="#HardingTextWeb-Regular-30" transform="translate(54.199997 0)"/>
       <use xlink:href="#HardingTextWeb-Regular-34" transform="translate(120.499985 0)"/>
       <use xlink:href="#HardingTextWeb-Regular-35" transform="translate(179.499969 0)"/>
      </g>
     </g>
    </g>
    <g id="xtick_32">
     <g id="line2d_60">
      <g>
       <use xlink:href="#m34e6407209" x="813.595" y="411.148594" style="stroke: #000000; stroke-width: 0.8"/>
      </g>
     </g>
     <g id="text_22">
      <!-- 2050 -->
      <g transform="translate(804.075 420.904844) scale(0.08 -0.08)">
       <use xlink:href="#HardingTextWeb-Regular-32"/>
       <use xlink:href="#HardingTextWeb-Regular-30" transform="translate(54.199997 0)"/>
       <use xlink:href="#HardingTextWeb-Regular-35" transform="translate(120.499985 0)"/>
       <use xlink:href="#HardingTextWeb-Regular-30" transform="translate(171.699982 0)"/>
      </g>
     </g>
    </g>
    <g id="xtick_33">
     <g id="line2d_61">
      <g>
       <use xlink:href="#m62272346a5" x="455.2906" y="411.148594" style="stroke: #000000; stroke-width: 0.6"/>
      </g>
     </g>
    </g>
    <g id="xtick_34">
     <g id="line2d_62">
      <g>
       <use xlink:href="#m62272346a5" x="470.21995" y="411.148594" style="stroke: #000000; stroke-width: 0.6"/>
      </g>
     </g>
    </g>
    <g id="xtick_35">
     <g id="line2d_63">
      <g>
       <use xlink:href="#m62272346a5" x="485.1493" y="411.148594" style="stroke: #000000; stroke-width: 0.6"/>
      </g>
     </g>
    </g>
    <g id="xtick_36">
     <g id="line2d_64">
      <g>
       <use xlink:href="#m62272346a5" x="500.07865" y="411.148594" style="stroke: #000000; stroke-width: 0.6"/>
      </g>
     </g>
    </g>
    <g id="xtick_37">
     <g id="line2d_65">
      <g>
       <use xlink:href="#m62272346a5" x="529.93735" y="411.148594" style="stroke: #000000; stroke-width: 0.6"/>
      </g>
     </g>
    </g>
    <g id="xtick_38">
     <g id="line2d_66">
      <g>
       <use xlink:href="#m62272346a5" x="544.8667" y="411.148594" style="stroke: #000000; stroke-width: 0.6"/>
      </g>
     </g>
    </g>
    <g id="xtick_39">
     <g id="line2d_67">
      <g>
       <use xlink:href="#m62272346a5" x="559.79605" y="411.148594" style="stroke: #000000; stroke-width: 0.6"/>
      </g>
     </g>
    </g>
    <g id="xtick_40">
     <g id="line2d_68">
      <g>
       <use xlink:href="#m62272346a5" x="574.7254" y="411.148594" style="stroke: #000000; stroke-width: 0.6"/>
      </g>
     </g>
    </g>
    <g id="xtick_41">
     <g id="line2d_69">
      <g>
       <use xlink:href="#m62272346a5" x="604.5841" y="411.148594" style="stroke: #000000; stroke-width: 0.6"/>
      </g>
     </g>
    </g>
    <g id="xtick_42">
     <g id="line2d_70">
      <g>
       <use xlink:href="#m62272346a5" x="619.51345" y="411.148594" style="stroke: #000000; stroke-width: 0.6"/>
      </g>
     </g>
    </g>
    <g id="xtick_43">
     <g id="line2d_71">
      <g>
       <use xlink:href="#m62272346a5" x="634.4428" y="411.148594" style="stroke: #000000; stroke-width: 0.6"/>
      </g>
     </g>
    </g>
    <g id="xtick_44">
     <g id="line2d_72">
      <g>
       <use xlink:href="#m62272346a5" x="649.37215" y="411.148594" style="stroke: #000000; stroke-width: 0.6"/>
      </g>
     </g>
    </g>
    <g id="xtick_45">
     <g id="line2d_73">
      <g>
       <use xlink:href="#m62272346a5" x="679.23085" y="411.148594" style="stroke: #000000; stroke-width: 0.6"/>
      </g>
     </g>
    </g>
    <g id="xtick_46">
     <g id="line2d_74">
      <g>
       <use xlink:href="#m62272346a5" x="694.1602" y="411.148594" style="stroke: #000000; stroke-width: 0.6"/>
      </g>
     </g>
    </g>
    <g id="xtick_47">
     <g id="line2d_75">
      <g>
       <use xlink:href="#m62272346a5" x="709.08955" y="411.148594" style="stroke: #000000; stroke-width: 0.6"/>
      </g>
     </g>
    </g>
    <g id="xtick_48">
     <g id="line2d_76">
      <g>
       <use xlink:href="#m62272346a5" x="724.0189" y="411.148594" style="stroke: #000000; stroke-width: 0.6"/>
      </g>
     </g>
    </g>
    <g id="xtick_49">
     <g id="line2d_77">
      <g>
       <use xlink:href="#m62272346a5" x="753.8776" y="411.148594" style="stroke: #000000; stroke-width: 0.6"/>
      </g>
     </g>
    </g>
    <g id="xtick_50">
     <g id="line2d_78">
      <g>
       <use xlink:href="#m62272346a5" x="768.80695" y="411.148594" style="stroke: #000000; stroke-width: 0.6"/>
      </g>
     </g>
    </g>
    <g id="xtick_51">
     <g id="line2d_79">
      <g>
       <use xlink:href="#m62272346a5" x="783.7363" y="411.148594" style="stroke: #000000; stroke-width: 0.6"/>
      </g>
     </g>
    </g>
    <g id="xtick_52">
     <g id="line2d_80">
      <g>
       <use xlink:href="#m62272346a5" x="798.66565" y="411.148594" style="stroke: #000000; stroke-width: 0.6"/>
      </g>
     </g>
    </g>
   </g>
   <g id="matplotlib.axis_4">
    <g id="ytick_25">
     <g id="line2d_81">
      <g>
       <use xlink:href="#m164625b785" x="813.595" y="358.055923" style="stroke: #000000; stroke-width: 0.8"/>
      </g>
     </g>
     <g id="text_23">
      <!-- −0.04 -->
      <g transform="translate(817.095 361.184048) scale(0.08 -0.08)">
       <defs>
        <path id="HardingTextWeb-Regular-2212" d="M 3398 2093 
L 288 2093 
L 288 2490 
L 3398 2490 
L 3398 2093 
z
" transform="scale(0.015625)"/>
        <path id="HardingTextWeb-Regular-2e" d="M 864 -77 
Q 646 -77 515 64 
Q 384 205 384 403 
Q 384 595 515 736 
Q 646 877 864 877 
Q 1082 877 1213 736 
Q 1344 595 1344 403 
Q 1344 205 1213 64 
Q 1082 -77 864 -77 
z
" transform="scale(0.015625)"/>
       </defs>
       <use xlink:href="#HardingTextWeb-Regular-2212"/>
       <use xlink:href="#HardingTextWeb-Regular-30" transform="translate(57.599991 0)"/>
       <use xlink:href="#HardingTextWeb-Regular-2e" transform="translate(123.899979 0)"/>
       <use xlink:href="#HardingTextWeb-Regular-30" transform="translate(150.899963 0)"/>
       <use xlink:href="#HardingTextWeb-Regular-34" transform="translate(217.199951 0)"/>
      </g>
     </g>
    </g>
    <g id="ytick_26">
     <g id="line2d_82">
      <g>
       <use xlink:href="#m164625b785" x="813.595" y="287.265696" style="stroke: #000000; stroke-width: 0.8"/>
      </g>
     </g>
     <g id="text_24">
      <!-- −0.02 -->
      <g transform="translate(817.095 290.393821) scale(0.08 -0.08)">
       <use xlink:href="#HardingTextWeb-Regular-2212"/>
       <use xlink:href="#HardingTextWeb-Regular-30" transform="translate(57.599991 0)"/>
       <use xlink:href="#HardingTextWeb-Regular-2e" transform="translate(123.899979 0)"/>
       <use xlink:href="#HardingTextWeb-Regular-30" transform="translate(150.899963 0)"/>
       <use xlink:href="#HardingTextWeb-Regular-32" transform="translate(217.199951 0)"/>
      </g>
     </g>
    </g>
    <g id="ytick_27">
     <g id="line2d_83">
      <g>
       <use xlink:href="#m164625b785" x="813.595" y="216.475469" style="stroke: #000000; stroke-width: 0.8"/>
      </g>
     </g>
     <g id="text_25">
      <!-- 0.00 -->
      <g transform="translate(817.095 219.603594) scale(0.08 -0.08)">
       <use xlink:href="#HardingTextWeb-Regular-30"/>
       <use xlink:href="#HardingTextWeb-Regular-2e" transform="translate(66.299988 0)"/>
       <use xlink:href="#HardingTextWeb-Regular-30" transform="translate(93.299973 0)"/>
       <use xlink:href="#HardingTextWeb-Regular-30" transform="translate(159.59996 0)"/>
      </g>
     </g>
    </g>
    <g id="ytick_28">
     <g id="line2d_84">
      <g>
       <use xlink:href="#m164625b785" x="813.595" y="145.685241" style="stroke: #000000; stroke-width: 0.8"/>
      </g>
     </g>
     <g id="text_26">
      <!-- 0.02 -->
      <g transform="translate(817.095 148.813366) scale(0.08 -0.08)">
       <use xlink:href="#HardingTextWeb-Regular-30"/>
       <use xlink:href="#HardingTextWeb-Regular-2e" transform="translate(66.299988 0)"/>
       <use xlink:href="#HardingTextWeb-Regular-30" transform="translate(93.299973 0)"/>
       <use xlink:href="#HardingTextWeb-Regular-32" transform="translate(159.59996 0)"/>
      </g>
     </g>
    </g>
    <g id="ytick_29">
     <g id="line2d_85">
      <g>
       <use xlink:href="#m164625b785" x="813.595" y="74.895014" style="stroke: #000000; stroke-width: 0.8"/>
      </g>
     </g>
     <g id="text_27">
      <!-- 0.04 -->
      <g transform="translate(817.095 78.023139) scale(0.08 -0.08)">
       <use xlink:href="#HardingTextWeb-Regular-30"/>
       <use xlink:href="#HardingTextWeb-Regular-2e" transform="translate(66.299988 0)"/>
       <use xlink:href="#HardingTextWeb-Regular-30" transform="translate(93.299973 0)"/>
       <use xlink:href="#HardingTextWeb-Regular-34" transform="translate(159.59996 0)"/>
      </g>
     </g>
    </g>
    <g id="ytick_30">
     <g id="line2d_86">
      <g>
       <use xlink:href="#ma4a83e0591" x="813.595" y="411.148594" style="stroke: #000000; stroke-width: 0.6"/>
      </g>
     </g>
    </g>
    <g id="ytick_31">
     <g id="line2d_87">
      <g>
       <use xlink:href="#ma4a83e0591" x="813.595" y="393.451037" style="stroke: #000000; stroke-width: 0.6"/>
      </g>
     </g>
    </g>
    <g id="ytick_32">
     <g id="line2d_88">
      <g>
       <use xlink:href="#ma4a83e0591" x="813.595" y="375.75348" style="stroke: #000000; stroke-width: 0.6"/>
      </g>
     </g>
    </g>
    <g id="ytick_33">
     <g id="line2d_89">
      <g>
       <use xlink:href="#ma4a83e0591" x="813.595" y="340.358366" style="stroke: #000000; stroke-width: 0.6"/>
      </g>
     </g>
    </g>
    <g id="ytick_34">
     <g id="line2d_90">
      <g>
       <use xlink:href="#ma4a83e0591" x="813.595" y="322.66081" style="stroke: #000000; stroke-width: 0.6"/>
      </g>
     </g>
    </g>
    <g id="ytick_35">
     <g id="line2d_91">
      <g>
       <use xlink:href="#ma4a83e0591" x="813.595" y="304.963253" style="stroke: #000000; stroke-width: 0.6"/>
      </g>
     </g>
    </g>
    <g id="ytick_36">
     <g id="line2d_92">
      <g>
       <use xlink:href="#ma4a83e0591" x="813.595" y="269.568139" style="stroke: #000000; stroke-width: 0.6"/>
      </g>
     </g>
    </g>
    <g id="ytick_37">
     <g id="line2d_93">
      <g>
       <use xlink:href="#ma4a83e0591" x="813.595" y="251.870582" style="stroke: #000000; stroke-width: 0.6"/>
      </g>
     </g>
    </g>
    <g id="ytick_38">
     <g id="line2d_94">
      <g>
       <use xlink:href="#ma4a83e0591" x="813.595" y="234.173026" style="stroke: #000000; stroke-width: 0.6"/>
      </g>
     </g>
    </g>
    <g id="ytick_39">
     <g id="line2d_95">
      <g>
       <use xlink:href="#ma4a83e0591" x="813.595" y="198.777912" style="stroke: #000000; stroke-width: 0.6"/>
      </g>
     </g>
    </g>
    <g id="ytick_40">
     <g id="line2d_96">
      <g>
       <use xlink:href="#ma4a83e0591" x="813.595" y="181.080355" style="stroke: #000000; stroke-width: 0.6"/>
      </g>
     </g>
    </g>
    <g id="ytick_41">
     <g id="line2d_97">
      <g>
       <use xlink:href="#ma4a83e0591" x="813.595" y="163.382798" style="stroke: #000000; stroke-width: 0.6"/>
      </g>
     </g>
    </g>
    <g id="ytick_42">
     <g id="line2d_98">
      <g>
       <use xlink:href="#ma4a83e0591" x="813.595" y="127.987685" style="stroke: #000000; stroke-width: 0.6"/>
      </g>
     </g>
    </g>
    <g id="ytick_43">
     <g id="line2d_99">
      <g>
       <use xlink:href="#ma4a83e0591" x="813.595" y="110.290128" style="stroke: #000000; stroke-width: 0.6"/>
      </g>
     </g>
    </g>
    <g id="ytick_44">
     <g id="line2d_100">
      <g>
       <use xlink:href="#ma4a83e0591" x="813.595" y="92.592571" style="stroke: #000000; stroke-width: 0.6"/>
      </g>
     </g>
    </g>
    <g id="ytick_45">
     <g id="line2d_101">
      <g>
       <use xlink:href="#ma4a83e0591" x="813.595" y="57.197457" style="stroke: #000000; stroke-width: 0.6"/>
      </g>
     </g>
    </g>
    <g id="ytick_46">
     <g id="line2d_102">
      <g>
       <use xlink:href="#ma4a83e0591" x="813.595" y="39.499901" style="stroke: #000000; stroke-width: 0.6"/>
      </g>
     </g>
    </g>
    <g id="ytick_47">
     <g id="line2d_103">
      <g>
       <use xlink:href="#ma4a83e0591" x="813.595" y="21.802344" style="stroke: #000000; stroke-width: 0.6"/>
      </g>
     </g>
    </g>
    <g id="text_28">
     <!-- PWh yr⁻¹ -->
     <g transform="translate(851.349375 237.128594) rotate(-90) scale(0.1 -0.1)">
      <defs>
       <path id="HardingTextWeb-Regular-50" d="M 1350 1203 
Q 1350 928 1388 592 
Q 1427 256 1491 0 
L 422 0 
Q 506 256 544 592 
Q 582 928 582 1203 
L 582 3418 
Q 582 3693 544 4029 
Q 506 4365 422 4621 
L 1875 4621 
Q 2656 4621 3078 4281 
Q 3501 3942 3501 3322 
Q 3501 2701 3078 2361 
Q 2656 2022 1875 2022 
L 1350 2022 
L 1350 1203 
z
M 1830 4269 
L 1350 4269 
L 1350 2362 
L 1830 2362 
Q 2323 2362 2521 2605 
Q 2720 2848 2720 3322 
Q 2720 3795 2521 4032 
Q 2323 4269 1830 4269 
z
" transform="scale(0.015625)"/>
       <path id="HardingTextWeb-Regular-57" d="M 1370 3507 
L 1888 1203 
L 1907 1203 
L 2963 4621 
L 3373 4621 
L 4378 1203 
L 4397 1203 
L 4966 3360 
Q 5050 3699 5098 4028 
Q 5146 4358 5082 4621 
L 5830 4621 
Q 5709 4326 5603 4012 
Q 5498 3699 5395 3322 
L 4499 -13 
L 4032 -13 
L 3002 3315 
L 2970 3315 
L 1914 -13 
L 1440 -13 
L 602 3347 
Q 499 3770 406 4042 
Q 314 4314 173 4621 
L 1312 4621 
Q 1286 4346 1289 4099 
Q 1293 3853 1370 3507 
z
" transform="scale(0.015625)"/>
       <path id="HardingTextWeb-Regular-68" d="M 3322 1158 
Q 3322 883 3344 563 
Q 3366 243 3443 0 
L 2522 0 
Q 2592 230 2611 512 
Q 2630 794 2630 1107 
L 2630 2426 
Q 2630 2701 2483 2825 
Q 2336 2950 2035 2950 
Q 1798 2950 1593 2886 
Q 1389 2822 1242 2669 
L 1242 1107 
Q 1242 794 1261 512 
Q 1280 230 1350 0 
L 435 0 
Q 512 243 531 563 
Q 550 883 550 1158 
L 550 3872 
Q 550 4154 480 4374 
Q 410 4595 307 4704 
L 1222 5005 
L 1274 4966 
L 1242 3955 
L 1242 2931 
L 1261 2931 
Q 1382 3168 1683 3334 
Q 1984 3501 2374 3501 
Q 2893 3501 3107 3264 
Q 3322 3027 3322 2522 
L 3322 1158 
z
" transform="scale(0.015625)"/>
      </defs>
      <use xlink:href="#HardingTextWeb-Regular-50"/>
      <use xlink:href="#HardingTextWeb-Regular-57" transform="translate(58.099991 0)"/>
      <use xlink:href="#HardingTextWeb-Regular-68" transform="translate(151.699982 0)"/>
      <use xlink:href="#HardingTextWeb-Regular-20" transform="translate(211.499969 0)"/>
      <use xlink:href="#HardingTextWeb-Regular-79" transform="translate(229.09996 0)"/>
      <use xlink:href="#HardingTextWeb-Regular-72" transform="translate(281.699951 0)"/>
      <use xlink:href="#HardingTextWeb-Regular-207b" transform="translate(323.199936 0)"/>
      <use xlink:href="#HardingTextWeb-Regular-b9" transform="translate(367.299927 0)"/>
     </g>
    </g>
   </g>
   <g id="line2d_104">
    <path d="M 440.36125 216.475469 
L 515.008 216.475469 
L 589.65475 216.475469 
L 664.3015 216.475469 
L 738.94825 216.475469 
L 813.595 216.475469 
" clip-path="url(#p71e541415f)" style="fill: none; stroke: #000000; stroke-width: 0.8; stroke-linecap: square"/>
   </g>
   <g id="line2d_105">
    <path d="M 440.36125 216.475469 
L 515.008 216.475469 
L 589.65475 216.475469 
L 664.3015 216.475469 
L 738.94825 216.475469 
L 813.595 216.475469 
" clip-path="url(#p71e541415f)" style="fill: none; stroke: #000000; stroke-width: 0.8; stroke-linecap: square"/>
   </g>
   <g id="line2d_106">
    <path d="M 440.36125 216.475469 
L 515.008 216.475469 
L 589.65475 216.475469 
L 664.3015 216.475469 
L 738.94825 216.475469 
L 813.595 216.475469 
" clip-path="url(#p71e541415f)" style="fill: none; stroke: #000000; stroke-width: 0.8; stroke-linecap: square"/>
   </g>
   <g id="line2d_107">
    <path d="M 440.36125 216.475469 
L 515.008 216.475469 
L 589.65475 216.475469 
L 664.3015 216.475469 
L 738.94825 216.475469 
L 813.595 216.475469 
" clip-path="url(#p71e541415f)" style="fill: none; stroke: #000000; stroke-width: 0.8; stroke-linecap: square"/>
   </g>
   <g id="line2d_108">
    <path d="M 440.36125 216.475469 
L 515.008 216.475469 
L 589.65475 216.475469 
L 664.3015 216.475469 
L 738.94825 216.475469 
L 813.595 216.475469 
" clip-path="url(#p71e541415f)" style="fill: none; stroke: #000000; stroke-width: 0.8; stroke-linecap: square"/>
   </g>
   <g id="line2d_109">
    <path d="M 440.36125 216.475469 
L 515.008 216.475469 
L 589.65475 216.475469 
L 664.3015 216.475469 
L 738.94825 216.475469 
L 813.595 216.475469 
" clip-path="url(#p71e541415f)" style="fill: none; stroke: #000000; stroke-width: 0.8; stroke-linecap: square"/>
   </g>
   <g id="line2d_110">
    <path d="M 440.36125 216.475469 
L 515.008 216.475469 
L 589.65475 216.475469 
L 664.3015 216.475469 
L 738.94825 216.475469 
L 813.595 216.475469 
" clip-path="url(#p71e541415f)" style="fill: none; stroke: #000000; stroke-width: 0.8; stroke-linecap: square"/>
   </g>
   <g id="patch_9">
    <path d="M 813.595 411.148594 
L 813.595 21.802344 
" style="fill: none; stroke: #000000; stroke-width: 0.8; stroke-linejoin: miter; stroke-linecap: square"/>
   </g>
   <g id="patch_10">
    <path d="M 440.36125 411.148594 
L 813.595 411.148594 
" style="fill: none; stroke: #000000; stroke-width: 0.8; stroke-linejoin: miter; stroke-linecap: square"/>
   </g>
   <g id="text_29">
    <!-- (b) -->
    <g transform="translate(619.591797 15.802344) scale(0.11 -0.11)">
     <use xlink:href="#HardingTextWeb-Regular-28"/>
     <use xlink:href="#HardingTextWeb-Regular-62" transform="translate(36.799988 0)"/>
     <use xlink:href="#HardingTextWeb-Regular-29" transform="translate(97.499985 0)"/>
    </g>
   </g>
   <g id="legend_2"/>
  </g>
 </g>
 <defs>
  <clipPath id="p0ffea8b2b1">
   <rect x="16.23625" y="21.802344" width="373.23375" height="389.34625"/>
  </clipPath>
  <clipPath id="p71e541415f">
   <rect x="440.36125" y="21.802344" width="373.23375" height="389.34625"/>
  </clipPath>
 </defs>
</svg>
