<?xml version="1.0" encoding="utf-8" standalone="no"?>
<!DOCTYPE svg PUBLIC "-//W3C//DTD SVG 1.1//EN"
  "http://www.w3.org/Graphics/SVG/1.1/DTD/svg11.dtd">
<svg xmlns:xlink="http://www.w3.org/1999/xlink" width="465.12pt" height="393.12pt" viewBox="0 0 465.12 393.12" xmlns="http://www.w3.org/2000/svg" version="1.1">
 <metadata>
  <rdf:RDF xmlns:dc="http://purl.org/dc/elements/1.1/" xmlns:cc="http://creativecommons.org/ns#" xmlns:rdf="http://www.w3.org/1999/02/22-rdf-syntax-ns#">
   <cc:Work>
    <dc:type rdf:resource="http://purl.org/dc/dcmitype/StillImage"/>
    <dc:date>2025-09-18T10:55:22.500943</dc:date>
    <dc:format>image/svg+xml</dc:format>
    <dc:creator>
     <cc:Agent>
      <dc:title>Matplotlib v3.10.3, https://matplotlib.org/</dc:title>
     </cc:Agent>
    </dc:creator>
   </cc:Work>
  </rdf:RDF>
 </metadata>
 <defs>
  <style type="text/css">*{stroke-linejoin: round; stroke-linecap: butt}</style>
 </defs>
 <g id="figure_1">
  <g id="patch_1">
   <path d="M 0 393.12 
L 465.12 393.12 
L 465.12 0 
L 0 0 
L 0 393.12 
z
" style="fill: none"/>
  </g>
  <g id="axes_1">
   <g id="patch_2">
    <path d="M 330.976026 95.372324 
C 288.316873 95.372324 288.316873 125.25127 330.976026 125.25127 
C 373.635178 125.25127 373.635178 95.372324 333.008432 95.372324 
" clip-path="url(#pdf23c6f008)" style="fill: none; stroke: #ff0000; stroke-width: 1.81784; stroke-linecap: round"/>
    <path d="M 337.008432 97.372324 
L 333.008432 95.372324 
L 337.008432 93.372324 
" clip-path="url(#pdf23c6f008)" style="fill: none; stroke: #ff0000; stroke-width: 1.81784; stroke-linecap: round"/>
   </g>
   <g id="patch_3">
    <path d="M 308.49816 114.312556 
Q 224.69787 77.414991 135.707046 95.05633 
" clip-path="url(#pdf23c6f008)" style="fill: none; stroke: #ff0000; stroke-width: 0.752433; stroke-linecap: round"/>
    <path d="M 140.0196 96.240338 
L 135.707046 95.05633 
L 139.241785 92.316691 
" clip-path="url(#pdf23c6f008)" style="fill: none; stroke: #ff0000; stroke-width: 0.752433; stroke-linecap: round"/>
   </g>
   <g id="patch_4">
    <path d="M 309.221498 137.577773 
Q 195.226868 206.436081 146.366839 329.919703 
" clip-path="url(#pdf23c6f008)" style="fill: none; stroke: #ff0000; stroke-width: 0.339121; stroke-linecap: round"/>
    <path d="M 149.698251 326.936132 
L 146.366839 329.919703 
L 145.978829 325.464431 
" clip-path="url(#pdf23c6f008)" style="fill: none; stroke: #ff0000; stroke-width: 0.339121; stroke-linecap: round"/>
   </g>
   <g id="patch_5">
    <path d="M 306.527667 120.043346 
Q 188.845801 98.711022 82.066632 151.721129 
" clip-path="url(#pdf23c6f008)" style="fill: none; stroke: #1e90ff; stroke-width: 0.345477; stroke-linecap: round"/>
    <path d="M 86.53875 151.733862 
L 82.066632 151.721129 
L 84.760089 148.151074 
" clip-path="url(#pdf23c6f008)" style="fill: none; stroke: #1e90ff; stroke-width: 0.345477; stroke-linecap: round"/>
   </g>
   <g id="patch_6">
    <path d="M 319.107452 147.254508 
Q 310.348905 168.153278 309.990828 190.01626 
" clip-path="url(#pdf23c6f008)" style="fill: none; stroke: #ff0000; stroke-width: 0.710272; stroke-linecap: round"/>
    <path d="M 312.056064 186.049548 
L 309.990828 190.01626 
L 308.0566 185.984044 
" clip-path="url(#pdf23c6f008)" style="fill: none; stroke: #ff0000; stroke-width: 0.710272; stroke-linecap: round"/>
   </g>
   <g id="patch_7">
    <path d="M 345.358903 145.702329 
Q 360.841951 163.778668 381.326241 174.252585 
" clip-path="url(#pdf23c6f008)" style="fill: none; stroke: #ff0000; stroke-width: 0.710272; stroke-linecap: round"/>
    <path d="M 378.675305 170.650843 
L 381.326241 174.252585 
L 376.854286 174.212288 
" clip-path="url(#pdf23c6f008)" style="fill: none; stroke: #ff0000; stroke-width: 0.710272; stroke-linecap: round"/>
   </g>
   <g id="patch_8">
    <path d="M 340.338216 102.072057 
Q 343.170887 91.095213 343.169683 80.189143 
" clip-path="url(#pdf23c6f008)" style="fill: none; stroke: #1e90ff; stroke-width: 0.384956; stroke-linecap: round"/>
    <path d="M 341.170125 84.189364 
L 343.169683 80.189143 
L 345.170125 84.188922 
" clip-path="url(#pdf23c6f008)" style="fill: none; stroke: #1e90ff; stroke-width: 0.384956; stroke-linecap: round"/>
   </g>
   <g id="patch_9">
    <path d="M 307.803379 134.632456 
Q 292.631927 142.843765 281.334238 155.062903 
" clip-path="url(#pdf23c6f008)" style="fill: none; stroke: #ff0000; stroke-width: 0.544953; stroke-linecap: round"/>
    <path d="M 285.518255 153.483664 
L 281.334238 155.062903 
L 282.581257 150.768145 
" clip-path="url(#pdf23c6f008)" style="fill: none; stroke: #ff0000; stroke-width: 0.544953; stroke-linecap: round"/>
   </g>
   <g id="patch_10">
    <path d="M 308.032079 115.322022 
Q 282.618234 106.930216 257.12124 109.316774 
" clip-path="url(#pdf23c6f008)" style="fill: none; stroke: #ff0000; stroke-width: 1.033084; stroke-linecap: round"/>
    <path d="M 261.29022 110.935293 
L 257.12124 109.316774 
L 260.917443 106.952701 
" clip-path="url(#pdf23c6f008)" style="fill: none; stroke: #ff0000; stroke-width: 1.033084; stroke-linecap: round"/>
   </g>
   <g id="patch_11">
    <path d="M 133.04262 111.951 
Q 216.84291 148.848565 305.907982 131.192508 
" clip-path="url(#pdf23c6f008)" style="fill: none; stroke: #ff0000; stroke-width: 0.684731; stroke-linecap: round"/>
    <path d="M 301.595427 130.008499 
L 305.907982 131.192508 
L 302.373242 133.932146 
" clip-path="url(#pdf23c6f008)" style="fill: none; stroke: #ff0000; stroke-width: 0.684731; stroke-linecap: round"/>
   </g>
   <g id="patch_12">
    <path d="M 110.564754 71.133341 
C 67.905602 71.133341 67.905602 101.012286 110.564754 101.012286 
C 153.223906 101.012286 153.223906 71.133341 112.130733 71.133341 
" clip-path="url(#pdf23c6f008)" style="fill: none; stroke: #ff0000; stroke-width: 1.400654; stroke-linecap: round"/>
    <path d="M 116.130733 73.133341 
L 112.130733 71.133341 
L 116.130733 69.133341 
" clip-path="url(#pdf23c6f008)" style="fill: none; stroke: #ff0000; stroke-width: 1.400654; stroke-linecap: round"/>
   </g>
   <g id="patch_13">
    <path d="M 104.588737 125.290194 
Q 82.054463 231.904491 126.550223 330.995246 
" clip-path="url(#pdf23c6f008)" style="fill: none; stroke: #ff0000; stroke-width: 0.310954; stroke-linecap: round"/>
    <path d="M 126.736174 326.526977 
L 126.550223 330.995246 
L 123.087179 328.165524 
" clip-path="url(#pdf23c6f008)" style="fill: none; stroke: #ff0000; stroke-width: 0.310954; stroke-linecap: round"/>
   </g>
   <g id="patch_14">
    <path d="M 90.147532 115.439966 
Q 77.835388 126.431072 69.787515 140.426334 
" clip-path="url(#pdf23c6f008)" style="fill: none; stroke: #1e90ff; stroke-width: 0.322049; stroke-linecap: round"/>
    <path d="M 73.515291 137.95577 
L 69.787515 140.426334 
L 70.04773 135.961774 
" clip-path="url(#pdf23c6f008)" style="fill: none; stroke: #1e90ff; stroke-width: 0.322049; stroke-linecap: round"/>
   </g>
   <g id="patch_15">
    <path d="M 126.824673 120.001623 
Q 192.528631 191.308693 286.911427 211.330017 
" clip-path="url(#pdf23c6f008)" style="fill: none; stroke: #ff0000; stroke-width: 0.428598; stroke-linecap: round"/>
    <path d="M 283.413519 208.543506 
L 286.911427 211.330017 
L 282.583474 212.456436 
" clip-path="url(#pdf23c6f008)" style="fill: none; stroke: #ff0000; stroke-width: 0.428598; stroke-linecap: round"/>
   </g>
   <g id="patch_16">
    <path d="M 130.800489 115.696666 
Q 243.702625 193.022232 379.878203 185.845439 
" clip-path="url(#pdf23c6f008)" style="fill: none; stroke: #ff0000; stroke-width: 0.428598; stroke-linecap: round"/>
    <path d="M 375.778488 184.058728 
L 379.878203 185.845439 
L 375.989006 188.053185 
" clip-path="url(#pdf23c6f008)" style="fill: none; stroke: #ff0000; stroke-width: 0.428598; stroke-linecap: round"/>
   </g>
   <g id="patch_17">
    <path d="M 135.294215 104.680132 
Q 232.772356 115.562693 318.186064 68.076189 
" clip-path="url(#pdf23c6f008)" style="fill: none; stroke: #1e90ff; stroke-width: 0.319786; stroke-linecap: round"/>
    <path d="M 313.718209 68.271823 
L 318.186064 68.076189 
L 315.661858 71.767853 
" clip-path="url(#pdf23c6f008)" style="fill: none; stroke: #1e90ff; stroke-width: 0.319786; stroke-linecap: round"/>
   </g>
   <g id="patch_18">
    <path d="M 128.339781 118.58935 
Q 176.931738 162.07872 240.840108 172.704432 
" clip-path="url(#pdf23c6f008)" style="fill: none; stroke: #ff0000; stroke-width: 0.380578; stroke-linecap: round"/>
    <path d="M 237.222302 170.075463 
L 240.840108 172.704432 
L 236.566249 174.021295 
" clip-path="url(#pdf23c6f008)" style="fill: none; stroke: #ff0000; stroke-width: 0.380578; stroke-linecap: round"/>
   </g>
   <g id="patch_19">
    <path d="M 133.409173 111.160667 
Q 169.198348 124.04389 205.991052 119.165088 
" clip-path="url(#pdf23c6f008)" style="fill: none; stroke: #ff0000; stroke-width: 0.825009; stroke-linecap: round"/>
    <path d="M 201.762859 117.70825 
L 205.991052 119.165088 
L 202.288666 121.67354 
" clip-path="url(#pdf23c6f008)" style="fill: none; stroke: #ff0000; stroke-width: 0.825009; stroke-linecap: round"/>
   </g>
   <g id="patch_20">
    <path d="M 159.435197 341.439478 
Q 273.429828 272.58117 321.996102 149.839953 
" clip-path="url(#pdf23c6f008)" style="fill: none; stroke: #1e90ff; stroke-width: 1.053239; stroke-linecap: round"/>
    <path d="M 318.66469 152.823523 
L 321.996102 149.839953 
L 322.384111 154.295225 
" clip-path="url(#pdf23c6f008)" style="fill: none; stroke: #1e90ff; stroke-width: 1.053239; stroke-linecap: round"/>
   </g>
   <g id="patch_21">
    <path d="M 143.656687 329.488074 
Q 166.190961 222.873777 121.691868 123.775598 
" clip-path="url(#pdf23c6f008)" style="fill: none; stroke: #1e90ff; stroke-width: 0.303675; stroke-linecap: round"/>
    <path d="M 121.505917 128.243867 
L 121.691868 123.775598 
L 125.154912 126.60532 
" clip-path="url(#pdf23c6f008)" style="fill: none; stroke: #1e90ff; stroke-width: 0.303675; stroke-linecap: round"/>
   </g>
   <g id="patch_22">
    <path d="M 137.68067 323.887036 
C 95.021518 323.887036 95.021518 353.765982 137.68067 353.765982 
C 180.339822 353.765982 180.339822 323.887036 139.140929 323.887036 
" clip-path="url(#pdf23c6f008)" style="fill: none; stroke: #ff0000; stroke-width: 1.306095; stroke-linecap: round"/>
    <path d="M 143.140929 325.887036 
L 139.140929 323.887036 
L 143.140929 321.887036 
" clip-path="url(#pdf23c6f008)" style="fill: none; stroke: #ff0000; stroke-width: 1.306095; stroke-linecap: round"/>
   </g>
   <g id="patch_23">
    <path d="M 136.454734 328.795684 
Q 128.976452 246.294781 76.601673 182.628155 
" clip-path="url(#pdf23c6f008)" style="fill: none; stroke: #ff0000; stroke-width: 0.355883; stroke-linecap: round"/>
    <path d="M 77.598333 186.987819 
L 76.601673 182.628155 
L 80.6874 184.446626 
" clip-path="url(#pdf23c6f008)" style="fill: none; stroke: #ff0000; stroke-width: 0.355883; stroke-linecap: round"/>
   </g>
   <g id="patch_24">
    <path d="M 161.359598 345.754059 
Q 247.226907 313.011587 298.470846 237.397602 
" clip-path="url(#pdf23c6f008)" style="fill: none; stroke: #1e90ff; stroke-width: 0.496935; stroke-linecap: round"/>
    <path d="M 294.571188 239.586818 
L 298.470846 237.397602 
L 297.882425 241.830858 
" clip-path="url(#pdf23c6f008)" style="fill: none; stroke: #1e90ff; stroke-width: 0.496935; stroke-linecap: round"/>
   </g>
   <g id="patch_25">
    <path d="M 162.125059 348.528872 
Q 300.812774 314.98425 389.796362 204.154303 
" clip-path="url(#pdf23c6f008)" style="fill: none; stroke: #1e90ff; stroke-width: 0.496935; stroke-linecap: round"/>
    <path d="M 385.732559 206.021255 
L 389.796362 204.154303 
L 388.851642 208.525516 
" clip-path="url(#pdf23c6f008)" style="fill: none; stroke: #1e90ff; stroke-width: 0.496935; stroke-linecap: round"/>
   </g>
   <g id="patch_26">
    <path d="M 158.058469 339.282563 
Q 291.292085 239.904506 333.925214 79.645393 
" clip-path="url(#pdf23c6f008)" style="fill: none; stroke: #ff0000; stroke-width: 0.341213; stroke-linecap: round"/>
    <path d="M 330.964097 82.996779 
L 333.925214 79.645393 
L 334.829653 84.025118 
" clip-path="url(#pdf23c6f008)" style="fill: none; stroke: #ff0000; stroke-width: 0.341213; stroke-linecap: round"/>
   </g>
   <g id="patch_27">
    <path d="M 158.269973 339.583979 
Q 230.691095 285.469898 258.998372 200.100457 
" clip-path="url(#pdf23c6f008)" style="fill: none; stroke: #1e90ff; stroke-width: 0.416137; stroke-linecap: round"/>
    <path d="M 255.841075 203.267708 
L 258.998372 200.100457 
L 259.637794 204.526645 
" clip-path="url(#pdf23c6f008)" style="fill: none; stroke: #1e90ff; stroke-width: 0.416137; stroke-linecap: round"/>
   </g>
   <g id="patch_28">
    <path d="M 154.187406 334.990073 
Q 224.538629 249.499599 230.753266 139.602336 
" clip-path="url(#pdf23c6f008)" style="fill: none; stroke: #1e90ff; stroke-width: 0.575002; stroke-linecap: round"/>
    <path d="M 228.530619 143.483037 
L 230.753266 139.602336 
L 232.524238 143.708875 
" clip-path="url(#pdf23c6f008)" style="fill: none; stroke: #1e90ff; stroke-width: 0.575002; stroke-linecap: round"/>
   </g>
   <g id="patch_29">
    <path d="M 84.129996 168.89458 
Q 201.811861 190.226905 308.362238 137.33038 
" clip-path="url(#pdf23c6f008)" style="fill: none; stroke: #ff0000; stroke-width: 0.573944; stroke-linecap: round"/>
    <path d="M 303.890121 137.317647 
L 308.362238 137.33038 
L 305.668782 140.900435 
" clip-path="url(#pdf23c6f008)" style="fill: none; stroke: #ff0000; stroke-width: 0.573944; stroke-linecap: round"/>
   </g>
   <g id="patch_30">
    <path d="M 80.098859 149.258977 
Q 92.411003 138.267871 100.445677 124.295564 
" clip-path="url(#pdf23c6f008)" style="fill: none; stroke: #ff0000; stroke-width: 0.345732; stroke-linecap: round"/>
    <path d="M 96.7179 126.766127 
L 100.445677 124.295564 
L 100.185462 128.760123 
" clip-path="url(#pdf23c6f008)" style="fill: none; stroke: #ff0000; stroke-width: 0.345732; stroke-linecap: round"/>
   </g>
   <g id="patch_31">
    <path d="M 60.907573 188.656954 
Q 68.385854 271.157857 120.796292 334.867829 
" clip-path="url(#pdf23c6f008)" style="fill: none; stroke: #ff0000; stroke-width: 0.30568; stroke-linecap: round"/>
    <path d="M 119.799633 330.508165 
L 120.796292 334.867829 
L 116.710565 333.049358 
" clip-path="url(#pdf23c6f008)" style="fill: none; stroke: #ff0000; stroke-width: 0.30568; stroke-linecap: round"/>
   </g>
   <g id="patch_32">
    <path d="M 59.681637 133.807711 
C 17.022485 133.807711 17.022485 163.686657 59.681637 163.686657 
C 102.340789 163.686657 102.340789 133.807711 61.141726 133.807711 
" clip-path="url(#pdf23c6f008)" style="fill: none; stroke: #ff0000; stroke-width: 1.305943; stroke-linecap: round"/>
    <path d="M 65.141726 135.807711 
L 61.141726 133.807711 
L 65.141726 131.807711 
" clip-path="url(#pdf23c6f008)" style="fill: none; stroke: #ff0000; stroke-width: 1.305943; stroke-linecap: round"/>
   </g>
   <g id="patch_33">
    <path d="M 80.969281 176.798173 
Q 177.163677 231.805346 286.85445 219.391021 
" clip-path="url(#pdf23c6f008)" style="fill: none; stroke: #ff0000; stroke-width: 0.375862; stroke-linecap: round"/>
    <path d="M 282.654909 217.853539 
L 286.85445 219.391021 
L 283.104739 221.828165 
" clip-path="url(#pdf23c6f008)" style="fill: none; stroke: #ff0000; stroke-width: 0.375862; stroke-linecap: round"/>
   </g>
   <g id="patch_34">
    <path d="M 82.558163 173.770297 
Q 228.959188 234.153866 380.978419 191.297844 
" clip-path="url(#pdf23c6f008)" style="fill: none; stroke: #ff0000; stroke-width: 0.375862; stroke-linecap: round"/>
    <path d="M 376.585809 190.458217 
L 380.978419 191.297844 
L 377.671152 194.308156 
" clip-path="url(#pdf23c6f008)" style="fill: none; stroke: #ff0000; stroke-width: 0.375862; stroke-linecap: round"/>
   </g>
   <g id="patch_35">
    <path d="M 84.680816 163.267272 
Q 218.402995 157.30861 320.886815 71.748355 
" clip-path="url(#pdf23c6f008)" style="fill: none; stroke: #1e90ff; stroke-width: 0.313666; stroke-linecap: round"/>
    <path d="M 316.534489 72.776584 
L 320.886815 71.748355 
L 319.098003 75.847153 
" clip-path="url(#pdf23c6f008)" style="fill: none; stroke: #1e90ff; stroke-width: 0.313666; stroke-linecap: round"/>
   </g>
   <g id="patch_36">
    <path d="M 82.723009 173.386574 
Q 160.980139 202.610051 241.713411 182.709252 
" clip-path="url(#pdf23c6f008)" style="fill: none; stroke: #ff0000; stroke-width: 0.345125; stroke-linecap: round"/>
    <path d="M 237.350992 181.724725 
L 241.713411 182.709252 
L 238.308337 185.608471 
" clip-path="url(#pdf23c6f008)" style="fill: none; stroke: #ff0000; stroke-width: 0.345125; stroke-linecap: round"/>
   </g>
   <g id="patch_37">
    <path d="M 84.648651 164.993453 
Q 153.196049 165.293592 210.2618 128.872924 
" clip-path="url(#pdf23c6f008)" style="fill: none; stroke: #ff0000; stroke-width: 0.760539; stroke-linecap: round"/>
    <path d="M 205.814015 129.338984 
L 210.2618 128.872924 
L 207.965977 132.710788 
" clip-path="url(#pdf23c6f008)" style="fill: none; stroke: #ff0000; stroke-width: 0.760539; stroke-linecap: round"/>
   </g>
   <g id="patch_38">
    <path d="M 323.879359 193.720721 
Q 332.637905 172.821951 332.999084 150.76962 
" clip-path="url(#pdf23c6f008)" style="fill: none; stroke: #ff0000; stroke-width: 0.54089; stroke-linecap: round"/>
    <path d="M 330.933848 154.736332 
L 332.999084 150.76962 
L 334.933311 154.801836 
" clip-path="url(#pdf23c6f008)" style="fill: none; stroke: #ff0000; stroke-width: 0.54089; stroke-linecap: round"/>
   </g>
   <g id="patch_39">
    <path d="M 295.750865 196.734623 
Q 230.046907 125.427553 135.542963 105.38053 
" clip-path="url(#pdf23c6f008)" style="fill: none; stroke: #ff0000; stroke-width: 0.317828; stroke-linecap: round"/>
    <path d="M 139.040871 108.167041 
L 135.542963 105.38053 
L 139.870917 104.254111 
" clip-path="url(#pdf23c6f008)" style="fill: none; stroke: #ff0000; stroke-width: 0.317828; stroke-linecap: round"/>
   </g>
   <g id="patch_40">
    <path d="M 288.331856 223.735883 
Q 202.464547 256.478355 151.164627 332.174944 
" clip-path="url(#pdf23c6f008)" style="fill: none; stroke: #ff0000; stroke-width: 0.407683; stroke-linecap: round"/>
    <path d="M 155.064285 329.985727 
L 151.164627 332.174944 
L 151.753049 327.741688 
" clip-path="url(#pdf23c6f008)" style="fill: none; stroke: #ff0000; stroke-width: 0.407683; stroke-linecap: round"/>
   </g>
   <g id="patch_41">
    <path d="M 290.723141 202.612444 
Q 194.528745 147.60527 84.77067 160.027212 
" clip-path="url(#pdf23c6f008)" style="fill: none; stroke: #1e90ff; stroke-width: 0.315282; stroke-linecap: round"/>
    <path d="M 88.970212 161.564694 
L 84.77067 160.027212 
L 88.520381 157.590068 
" clip-path="url(#pdf23c6f008)" style="fill: none; stroke: #1e90ff; stroke-width: 0.315282; stroke-linecap: round"/>
   </g>
   <g id="patch_42">
    <path d="M 312.010785 185.845014 
C 269.351632 185.845014 269.351632 215.72396 312.010785 215.72396 
C 354.669937 215.72396 354.669937 185.845014 313.571439 185.845014 
" clip-path="url(#pdf23c6f008)" style="fill: none; stroke: #ff0000; stroke-width: 1.395891; stroke-linecap: round"/>
    <path d="M 317.571439 187.845014 
L 313.571439 185.845014 
L 317.571439 183.845014 
" clip-path="url(#pdf23c6f008)" style="fill: none; stroke: #ff0000; stroke-width: 1.395891; stroke-linecap: round"/>
   </g>
   <g id="patch_43">
    <path d="M 336.992173 214.838861 
Q 362.678084 211.570922 383.640796 199.216762 
" clip-path="url(#pdf23c6f008)" style="fill: none; stroke: #ff0000; stroke-width: 1.395891; stroke-linecap: round"/>
    <path d="M 379.17927 199.524634 
L 383.640796 199.216762 
L 381.210177 202.970706 
" clip-path="url(#pdf23c6f008)" style="fill: none; stroke: #ff0000; stroke-width: 1.395891; stroke-linecap: round"/>
   </g>
   <g id="patch_44">
    <path d="M 324.025594 193.797645 
Q 350.130417 139.543411 343.857418 80.002065 
" clip-path="url(#pdf23c6f008)" style="fill: none; stroke: #1e90ff; stroke-width: 0.301483; stroke-linecap: round"/>
    <path d="M 342.287528 84.189599 
L 343.857418 80.002065 
L 346.265512 83.770497 
" clip-path="url(#pdf23c6f008)" style="fill: none; stroke: #1e90ff; stroke-width: 0.301483; stroke-linecap: round"/>
   </g>
   <g id="patch_45">
    <path d="M 297.545245 195.338413 
Q 293.224863 190.903606 288.553064 187.448279 
" clip-path="url(#pdf23c6f008)" style="fill: none; stroke: #ff0000; stroke-width: 0.340429; stroke-linecap: round"/>
    <path d="M 290.579741 191.434829 
L 288.553064 187.448279 
L 292.95831 188.218867 
" clip-path="url(#pdf23c6f008)" style="fill: none; stroke: #ff0000; stroke-width: 0.340429; stroke-linecap: round"/>
   </g>
   <g id="patch_46">
    <path d="M 303.341093 192.279582 
Q 285.964101 153.544978 252.90746 128.289888 
" clip-path="url(#pdf23c6f008)" style="fill: none; stroke: #ff0000; stroke-width: 0.763587; stroke-linecap: round"/>
    <path d="M 254.871795 132.307523 
L 252.90746 128.289888 
L 257.300168 129.129 
" clip-path="url(#pdf23c6f008)" style="fill: none; stroke: #ff0000; stroke-width: 0.763587; stroke-linecap: round"/>
   </g>
   <g id="patch_47">
    <path d="M 390.893725 163.374262 
Q 375.410677 145.297923 354.757775 134.737793 
" clip-path="url(#pdf23c6f008)" style="fill: none; stroke: #ff0000; stroke-width: 0.54089; stroke-linecap: round"/>
    <path d="M 357.40871 138.339534 
L 354.757775 134.737793 
L 359.229729 134.778089 
" clip-path="url(#pdf23c6f008)" style="fill: none; stroke: #ff0000; stroke-width: 0.54089; stroke-linecap: round"/>
   </g>
   <g id="patch_48">
    <path d="M 385.040867 169.140941 
Q 272.138731 91.815375 135.83948 98.998687 
" clip-path="url(#pdf23c6f008)" style="fill: none; stroke: #ff0000; stroke-width: 0.317828; stroke-linecap: round"/>
    <path d="M 139.939196 100.785397 
L 135.83948 98.998687 
L 139.728678 96.790941 
" clip-path="url(#pdf23c6f008)" style="fill: none; stroke: #ff0000; stroke-width: 0.317828; stroke-linecap: round"/>
   </g>
   <g id="patch_49">
    <path d="M 380.832213 189.062431 
Q 242.144498 222.607053 153.098438 333.514811 
" clip-path="url(#pdf23c6f008)" style="fill: none; stroke: #ff0000; stroke-width: 0.407683; stroke-linecap: round"/>
    <path d="M 157.16224 331.647859 
L 153.098438 333.514811 
L 154.043158 329.143598 
" clip-path="url(#pdf23c6f008)" style="fill: none; stroke: #ff0000; stroke-width: 0.407683; stroke-linecap: round"/>
   </g>
   <g id="patch_50">
    <path d="M 382.400075 173.741681 
Q 235.999051 113.358112 83.91463 156.232512 
" clip-path="url(#pdf23c6f008)" style="fill: none; stroke: #1e90ff; stroke-width: 0.315282; stroke-linecap: round"/>
    <path d="M 88.30724 157.072138 
L 83.91463 156.232512 
L 87.221897 153.222199 
" clip-path="url(#pdf23c6f008)" style="fill: none; stroke: #1e90ff; stroke-width: 0.315282; stroke-linecap: round"/>
   </g>
   <g id="patch_51">
    <path d="M 380.295213 184.710421 
Q 354.609303 187.978359 333.646591 200.332519 
" clip-path="url(#pdf23c6f008)" style="fill: none; stroke: #ff0000; stroke-width: 1.395891; stroke-linecap: round"/>
    <path d="M 338.108117 200.024648 
L 333.646591 200.332519 
L 336.077209 196.578575 
" clip-path="url(#pdf23c6f008)" style="fill: none; stroke: #ff0000; stroke-width: 1.395891; stroke-linecap: round"/>
   </g>
   <g id="patch_52">
    <path d="M 405.276602 153.946376 
C 362.61745 153.946376 362.61745 183.825321 405.276602 183.825321 
C 447.935754 183.825321 447.935754 153.946376 406.837256 153.946376 
" clip-path="url(#pdf23c6f008)" style="fill: none; stroke: #ff0000; stroke-width: 1.395891; stroke-linecap: round"/>
    <path d="M 410.837256 155.946376 
L 406.837256 153.946376 
L 410.837256 151.946376 
" clip-path="url(#pdf23c6f008)" style="fill: none; stroke: #ff0000; stroke-width: 1.395891; stroke-linecap: round"/>
   </g>
   <g id="patch_53">
    <path d="M 401.617227 159.094798 
Q 391.285621 109.912557 357.918607 72.784402 
" clip-path="url(#pdf23c6f008)" style="fill: none; stroke: #1e90ff; stroke-width: 0.301483; stroke-linecap: round"/>
    <path d="M 359.104775 77.096363 
L 357.918607 72.784402 
L 362.079877 74.422644 
" clip-path="url(#pdf23c6f008)" style="fill: none; stroke: #1e90ff; stroke-width: 0.301483; stroke-linecap: round"/>
   </g>
   <g id="patch_54">
    <path d="M 382.050329 174.569939 
Q 336.859424 159.760139 290.617571 169.097195 
" clip-path="url(#pdf23c6f008)" style="fill: none; stroke: #ff0000; stroke-width: 0.340429; stroke-linecap: round"/>
    <path d="M 294.934288 170.265936 
L 290.617571 169.097195 
L 294.142595 166.345066 
" clip-path="url(#pdf23c6f008)" style="fill: none; stroke: #ff0000; stroke-width: 0.340429; stroke-linecap: round"/>
   </g>
   <g id="patch_55">
    <path d="M 386.454124 167.372187 
Q 329.227885 121.776564 257.212815 115.188702 
" clip-path="url(#pdf23c6f008)" style="fill: none; stroke: #ff0000; stroke-width: 0.763587; stroke-linecap: round"/>
    <path d="M 261.013986 117.54478 
L 257.212815 115.188702 
L 261.37838 113.561413 
" clip-path="url(#pdf23c6f008)" style="fill: none; stroke: #ff0000; stroke-width: 0.763587; stroke-linecap: round"/>
   </g>
   <g id="patch_56">
    <path d="M 330.531557 78.155736 
Q 327.698885 89.13258 327.700032 99.517695 
" clip-path="url(#pdf23c6f008)" style="fill: none; stroke: #ff0000; stroke-width: 0.850911; stroke-linecap: round"/>
    <path d="M 329.69959 95.517475 
L 327.700032 99.517695 
L 325.69959 95.517916 
" clip-path="url(#pdf23c6f008)" style="fill: none; stroke: #ff0000; stroke-width: 0.850911; stroke-linecap: round"/>
   </g>
   <g id="patch_57">
    <path d="M 315.164286 51.308678 
Q 217.686145 40.426116 132.255178 87.922216 
" clip-path="url(#pdf23c6f008)" style="fill: none; stroke: #ff0000; stroke-width: 0.302123; stroke-linecap: round"/>
    <path d="M 136.723032 87.726583 
L 132.255178 87.922216 
L 134.779384 84.230552 
" clip-path="url(#pdf23c6f008)" style="fill: none; stroke: #ff0000; stroke-width: 0.302123; stroke-linecap: round"/>
   </g>
   <g id="patch_58">
    <path d="M 319.515947 69.459942 
Q 186.282332 168.837999 143.640937 329.128183 
" clip-path="url(#pdf23c6f008)" style="fill: none; stroke: #ff0000; stroke-width: 0.312456; stroke-linecap: round"/>
    <path d="M 146.602053 325.776797 
L 143.640937 329.128183 
L 142.736498 324.748458 
" clip-path="url(#pdf23c6f008)" style="fill: none; stroke: #ff0000; stroke-width: 0.312456; stroke-linecap: round"/>
   </g>
   <g id="patch_59">
    <path d="M 314.894567 55.395908 
Q 181.172388 61.35457 78.711467 146.895708 
" clip-path="url(#pdf23c6f008)" style="fill: none; stroke: #1e90ff; stroke-width: 0.340347; stroke-linecap: round"/>
    <path d="M 83.063794 145.867478 
L 78.711467 146.895708 
L 80.50028 142.796909 
" clip-path="url(#pdf23c6f008)" style="fill: none; stroke: #1e90ff; stroke-width: 0.340347; stroke-linecap: round"/>
   </g>
   <g id="patch_60">
    <path d="M 327.878938 76.902839 
Q 301.774115 131.157073 308.030463 190.540382 
" clip-path="url(#pdf23c6f008)" style="fill: none; stroke: #ff0000; stroke-width: 0.443617; stroke-linecap: round"/>
    <path d="M 309.600353 186.352848 
L 308.030463 190.540382 
L 305.622369 186.771949 
" clip-path="url(#pdf23c6f008)" style="fill: none; stroke: #ff0000; stroke-width: 0.443617; stroke-linecap: round"/>
   </g>
   <g id="patch_61">
    <path d="M 343.553121 79.707046 
Q 353.884727 128.889288 387.14552 165.899248 
" clip-path="url(#pdf23c6f008)" style="fill: none; stroke: #ff0000; stroke-width: 0.443617; stroke-linecap: round"/>
    <path d="M 385.959352 161.587288 
L 387.14552 165.899248 
L 382.984251 164.261006 
" clip-path="url(#pdf23c6f008)" style="fill: none; stroke: #ff0000; stroke-width: 0.443617; stroke-linecap: round"/>
   </g>
   <g id="patch_62">
    <path d="M 339.893747 25.097577 
C 297.234594 25.097577 297.234594 54.976523 339.893747 54.976523 
C 382.552899 54.976523 382.552899 25.097577 341.340791 25.097577 
" clip-path="url(#pdf23c6f008)" style="fill: none; stroke: #ff0000; stroke-width: 1.294276; stroke-linecap: round"/>
    <path d="M 345.340791 27.097577 
L 341.340791 25.097577 
L 345.340791 23.097577 
" clip-path="url(#pdf23c6f008)" style="fill: none; stroke: #ff0000; stroke-width: 1.294276; stroke-linecap: round"/>
   </g>
   <g id="patch_63">
    <path d="M 320.781153 71.091311 
Q 285.598102 104.668621 271.855918 150.872406 
" clip-path="url(#pdf23c6f008)" style="fill: none; stroke: #ff0000; stroke-width: 0.384461; stroke-linecap: round"/>
    <path d="M 274.913256 147.608561 
L 271.855918 150.872406 
L 271.079245 146.468228 
" clip-path="url(#pdf23c6f008)" style="fill: none; stroke: #ff0000; stroke-width: 0.384461; stroke-linecap: round"/>
   </g>
   <g id="patch_64">
    <path d="M 315.326151 59.589157 
Q 277.511729 69.520823 249.030199 95.48035 
" clip-path="url(#pdf23c6f008)" style="fill: none; stroke: #ff0000; stroke-width: 0.500774; stroke-linecap: round"/>
    <path d="M 253.333739 94.263982 
L 249.030199 95.48035 
L 250.639229 91.307698 
" clip-path="url(#pdf23c6f008)" style="fill: none; stroke: #ff0000; stroke-width: 0.500774; stroke-linecap: round"/>
   </g>
   <g id="patch_65">
    <path d="M 289.265889 166.261509 
Q 304.437341 158.0502 314.919705 146.712886 
" clip-path="url(#pdf23c6f008)" style="fill: none; stroke: #ff0000; stroke-width: 1.619149; stroke-linecap: round"/>
    <path d="M 310.735687 148.292125 
L 314.919705 146.712886 
L 313.672685 151.007644 
" clip-path="url(#pdf23c6f008)" style="fill: none; stroke: #ff0000; stroke-width: 1.619149; stroke-linecap: round"/>
   </g>
   <g id="patch_66">
    <path d="M 248.318216 158.065631 
Q 199.726259 114.576262 136.052134 103.989496 
" clip-path="url(#pdf23c6f008)" style="fill: none; stroke: #ff0000; stroke-width: 0.59297; stroke-linecap: round"/>
    <path d="M 139.66994 106.618466 
L 136.052134 103.989496 
L 140.325993 102.672633 
" clip-path="url(#pdf23c6f008)" style="fill: none; stroke: #ff0000; stroke-width: 0.59297; stroke-linecap: round"/>
   </g>
   <g id="patch_67">
    <path d="M 245.503939 189.824698 
Q 173.082817 243.938779 144.793767 329.253252 
" clip-path="url(#pdf23c6f008)" style="fill: none; stroke: #ff0000; stroke-width: 0.467934; stroke-linecap: round"/>
    <path d="M 147.951064 326.086002 
L 144.793767 329.253252 
L 144.154344 324.827064 
" clip-path="url(#pdf23c6f008)" style="fill: none; stroke: #ff0000; stroke-width: 0.467934; stroke-linecap: round"/>
   </g>
   <g id="patch_68">
    <path d="M 243.051871 165.942778 
Q 164.79474 136.719301 84.1826 156.590241 
" clip-path="url(#pdf23c6f008)" style="fill: none; stroke: #ff0000; stroke-width: 0.456712; stroke-linecap: round"/>
    <path d="M 88.54502 157.574768 
L 84.1826 156.590241 
L 87.587674 153.691021 
" clip-path="url(#pdf23c6f008)" style="fill: none; stroke: #ff0000; stroke-width: 0.456712; stroke-linecap: round"/>
   </g>
   <g id="patch_69">
    <path d="M 280.558782 196.028242 
Q 284.879164 200.463049 288.060633 202.816108 
" clip-path="url(#pdf23c6f008)" style="fill: none; stroke: #ff0000; stroke-width: 1.998398; stroke-linecap: round"/>
    <path d="M 286.033956 198.829558 
L 288.060633 202.816108 
L 283.655387 202.045519 
" clip-path="url(#pdf23c6f008)" style="fill: none; stroke: #ff0000; stroke-width: 1.998398; stroke-linecap: round"/>
   </g>
   <g id="patch_70">
    <path d="M 289.319516 184.898078 
Q 334.510421 199.707877 378.935277 190.737706 
" clip-path="url(#pdf23c6f008)" style="fill: none; stroke: #ff0000; stroke-width: 1.998398; stroke-linecap: round"/>
    <path d="M 374.61856 189.568964 
L 378.935277 190.737706 
L 375.410254 193.489834 
" clip-path="url(#pdf23c6f008)" style="fill: none; stroke: #ff0000; stroke-width: 1.998398; stroke-linecap: round"/>
   </g>
   <g id="patch_71">
    <path d="M 285.205836 159.527908 
Q 320.388887 125.950597 334.138819 79.720763 
" clip-path="url(#pdf23c6f008)" style="fill: none; stroke: #1e90ff; stroke-width: 0.360153; stroke-linecap: round"/>
    <path d="M 331.081481 82.984608 
L 334.138819 79.720763 
L 334.915492 84.12494 
" clip-path="url(#pdf23c6f008)" style="fill: none; stroke: #1e90ff; stroke-width: 0.360153; stroke-linecap: round"/>
   </g>
   <g id="patch_72">
    <path d="M 266.093242 145.76375 
C 223.43409 145.76375 223.43409 175.642695 266.093242 175.642695 
C 308.752395 175.642695 308.752395 145.76375 267.820594 145.76375 
" clip-path="url(#pdf23c6f008)" style="fill: none; stroke: #ff0000; stroke-width: 1.54499; stroke-linecap: round"/>
    <path d="M 271.820594 147.76375 
L 267.820594 145.76375 
L 271.820594 143.76375 
" clip-path="url(#pdf23c6f008)" style="fill: none; stroke: #ff0000; stroke-width: 1.54499; stroke-linecap: round"/>
   </g>
   <g id="patch_73">
    <path d="M 259.78532 151.452017 
Q 255.525891 140.987255 249.958507 133.48819 
" clip-path="url(#pdf23c6f008)" style="fill: none; stroke: #ff0000; stroke-width: 1.751841; stroke-linecap: round"/>
    <path d="M 250.737047 137.892038 
L 249.958507 133.48819 
L 253.94871 135.507667 
" clip-path="url(#pdf23c6f008)" style="fill: none; stroke: #ff0000; stroke-width: 1.751841; stroke-linecap: round"/>
   </g>
   <g id="patch_74">
    <path d="M 254.330325 123.899203 
Q 279.744171 132.291009 305.134033 129.914478 
" clip-path="url(#pdf23c6f008)" style="fill: none; stroke: #ff0000; stroke-width: 1.129324; stroke-linecap: round"/>
    <path d="M 300.965053 128.295959 
L 305.134033 129.914478 
L 301.33783 132.278551 
" clip-path="url(#pdf23c6f008)" style="fill: none; stroke: #ff0000; stroke-width: 1.129324; stroke-linecap: round"/>
   </g>
   <g id="patch_75">
    <path d="M 208.54196 103.821574 
Q 172.752786 90.938351 135.610572 95.863499 
" clip-path="url(#pdf23c6f008)" style="fill: none; stroke: #ff0000; stroke-width: 0.509663; stroke-linecap: round"/>
    <path d="M 139.838766 97.320337 
L 135.610572 95.863499 
L 139.312959 93.355047 
" clip-path="url(#pdf23c6f008)" style="fill: none; stroke: #ff0000; stroke-width: 0.509663; stroke-linecap: round"/>
   </g>
   <g id="patch_76">
    <path d="M 214.879643 132.745863 
Q 144.52842 218.236337 138.297903 328.414425 
" clip-path="url(#pdf23c6f008)" style="fill: none; stroke: #ff0000; stroke-width: 0.323423; stroke-linecap: round"/>
    <path d="M 140.52055 324.533724 
L 138.297903 328.414425 
L 136.52693 324.307887 
" clip-path="url(#pdf23c6f008)" style="fill: none; stroke: #ff0000; stroke-width: 0.323423; stroke-linecap: round"/>
   </g>
   <g id="patch_77">
    <path d="M 206.419365 112.663159 
Q 137.871967 112.363019 80.423644 149.027854 
" clip-path="url(#pdf23c6f008)" style="fill: none; stroke: #1e90ff; stroke-width: 0.354604; stroke-linecap: round"/>
    <path d="M 84.871428 148.561794 
L 80.423644 149.027854 
L 82.719466 145.18999 
" clip-path="url(#pdf23c6f008)" style="fill: none; stroke: #1e90ff; stroke-width: 0.354604; stroke-linecap: round"/>
   </g>
   <g id="patch_78">
    <path d="M 240.056071 137.414333 
Q 257.433063 176.148937 290.676536 201.546765 
" clip-path="url(#pdf23c6f008)" style="fill: none; stroke: #ff0000; stroke-width: 0.553291; stroke-linecap: round"/>
    <path d="M 288.7122 197.529131 
L 290.676536 201.546765 
L 286.283827 200.707653 
" clip-path="url(#pdf23c6f008)" style="fill: none; stroke: #ff0000; stroke-width: 0.553291; stroke-linecap: round"/>
   </g>
   <g id="patch_79">
    <path d="M 250.208857 130.423089 
Q 307.435096 176.018712 379.684306 182.627993 
" clip-path="url(#pdf23c6f008)" style="fill: none; stroke: #ff0000; stroke-width: 0.553291; stroke-linecap: round"/>
    <path d="M 375.883135 180.271915 
L 379.684306 182.627993 
L 375.518741 184.255283 
" clip-path="url(#pdf23c6f008)" style="fill: none; stroke: #ff0000; stroke-width: 0.553291; stroke-linecap: round"/>
   </g>
   <g id="patch_80">
    <path d="M 255.953975 109.357321 
Q 293.768397 99.425656 322.378466 73.348971 
" clip-path="url(#pdf23c6f008)" style="fill: none; stroke: #1e90ff; stroke-width: 0.345215; stroke-linecap: round"/>
    <path d="M 318.074927 74.565338 
L 322.378466 73.348971 
L 320.769436 77.521623 
" clip-path="url(#pdf23c6f008)" style="fill: none; stroke: #1e90ff; stroke-width: 0.345215; stroke-linecap: round"/>
   </g>
   <g id="patch_81">
    <path d="M 237.694301 138.160633 
Q 241.953731 148.625395 248.384746 157.28774 
" clip-path="url(#pdf23c6f008)" style="fill: none; stroke: #ff0000; stroke-width: 0.455976; stroke-linecap: round"/>
    <path d="M 247.606206 152.883892 
L 248.384746 157.28774 
L 244.394543 155.268264 
" clip-path="url(#pdf23c6f008)" style="fill: none; stroke: #ff0000; stroke-width: 0.455976; stroke-linecap: round"/>
   </g>
   <g id="patch_82">
    <path d="M 231.386379 84.091009 
C 188.727227 84.091009 188.727227 113.969955 231.386379 113.969955 
C 274.045531 113.969955 274.045531 84.091009 233.312771 84.091009 
" clip-path="url(#pdf23c6f008)" style="fill: none; stroke: #ff0000; stroke-width: 1.723018; stroke-linecap: round"/>
    <path d="M 237.312771 86.091009 
L 233.312771 84.091009 
L 237.312771 82.091009 
" clip-path="url(#pdf23c6f008)" style="fill: none; stroke: #ff0000; stroke-width: 1.723018; stroke-linecap: round"/>
   </g>
   <g id="PathCollection_1">
    <defs>
     <path id="m1a1d91ddd7" d="M 0 19.364917 
C 5.135636 19.364917 10.061621 17.324507 13.693064 13.693064 
C 17.324507 10.061621 19.364917 5.135636 19.364917 0 
C 19.364917 -5.135636 17.324507 -10.061621 13.693064 -13.693064 
C 10.061621 -17.324507 5.135636 -19.364917 0 -19.364917 
C -5.135636 -19.364917 -10.061621 -17.324507 -13.693064 -13.693064 
C -17.324507 -10.061621 -19.364917 -5.135636 -19.364917 0 
C -19.364917 5.135636 -17.324507 10.061621 -13.693064 13.693064 
C -10.061621 17.324507 -5.135636 19.364917 0 19.364917 
z
" style="stroke: #000000"/>
    </defs>
    <g clip-path="url(#pdf23c6f008)">
     <use xlink:href="#m1a1d91ddd7" x="330.976026" y="125.25127" style="fill: #ffffff; stroke: #000000"/>
     <use xlink:href="#m1a1d91ddd7" x="110.564754" y="101.012286" style="fill: #ffffff; stroke: #000000"/>
     <use xlink:href="#m1a1d91ddd7" x="137.68067" y="353.765982" style="fill: #ffffff; stroke: #000000"/>
     <use xlink:href="#m1a1d91ddd7" x="59.681637" y="163.686657" style="fill: #ffffff; stroke: #000000"/>
     <use xlink:href="#m1a1d91ddd7" x="312.010785" y="215.72396" style="fill: #ffffff; stroke: #000000"/>
     <use xlink:href="#m1a1d91ddd7" x="405.276602" y="183.825321" style="fill: #ffffff; stroke: #000000"/>
     <use xlink:href="#m1a1d91ddd7" x="339.893747" y="54.976523" style="fill: #ffffff; stroke: #000000"/>
     <use xlink:href="#m1a1d91ddd7" x="266.093242" y="175.642695" style="fill: #ffffff; stroke: #000000"/>
     <use xlink:href="#m1a1d91ddd7" x="231.386379" y="113.969955" style="fill: #ffffff; stroke: #000000"/>
    </g>
   </g>
   <g id="text_1">
    <g clip-path="url(#pdf23c6f008)">
     <!-- Biogeochemical -->
     <g transform="translate(292.188128 214.304194) scale(0.05 -0.05)">
      <defs>
       <path id="DejaVuSans-42" d="M 1259 2228 
L 1259 519 
L 2272 519 
Q 2781 519 3026 730 
Q 3272 941 3272 1375 
Q 3272 1813 3026 2020 
Q 2781 2228 2272 2228 
L 1259 2228 
z
M 1259 4147 
L 1259 2741 
L 2194 2741 
Q 2656 2741 2882 2914 
Q 3109 3088 3109 3444 
Q 3109 3797 2882 3972 
Q 2656 4147 2194 4147 
L 1259 4147 
z
M 628 4666 
L 2241 4666 
Q 2963 4666 3353 4366 
Q 3744 4066 3744 3513 
Q 3744 3084 3544 2831 
Q 3344 2578 2956 2516 
Q 3422 2416 3680 2098 
Q 3938 1781 3938 1306 
Q 3938 681 3513 340 
Q 3088 0 2303 0 
L 628 0 
L 628 4666 
z
" transform="scale(0.015625)"/>
       <path id="DejaVuSans-69" d="M 603 3500 
L 1178 3500 
L 1178 0 
L 603 0 
L 603 3500 
z
M 603 4863 
L 1178 4863 
L 1178 4134 
L 603 4134 
L 603 4863 
z
" transform="scale(0.015625)"/>
       <path id="DejaVuSans-6f" d="M 1959 3097 
Q 1497 3097 1228 2736 
Q 959 2375 959 1747 
Q 959 1119 1226 758 
Q 1494 397 1959 397 
Q 2419 397 2687 759 
Q 2956 1122 2956 1747 
Q 2956 2369 2687 2733 
Q 2419 3097 1959 3097 
z
M 1959 3584 
Q 2709 3584 3137 3096 
Q 3566 2609 3566 1747 
Q 3566 888 3137 398 
Q 2709 -91 1959 -91 
Q 1206 -91 779 398 
Q 353 888 353 1747 
Q 353 2609 779 3096 
Q 1206 3584 1959 3584 
z
" transform="scale(0.015625)"/>
       <path id="DejaVuSans-67" d="M 2906 1791 
Q 2906 2416 2648 2759 
Q 2391 3103 1925 3103 
Q 1463 3103 1205 2759 
Q 947 2416 947 1791 
Q 947 1169 1205 825 
Q 1463 481 1925 481 
Q 2391 481 2648 825 
Q 2906 1169 2906 1791 
z
M 3481 434 
Q 3481 -459 3084 -895 
Q 2688 -1331 1869 -1331 
Q 1566 -1331 1297 -1286 
Q 1028 -1241 775 -1147 
L 775 -588 
Q 1028 -725 1275 -790 
Q 1522 -856 1778 -856 
Q 2344 -856 2625 -561 
Q 2906 -266 2906 331 
L 2906 616 
Q 2728 306 2450 153 
Q 2172 0 1784 0 
Q 1141 0 747 490 
Q 353 981 353 1791 
Q 353 2603 747 3093 
Q 1141 3584 1784 3584 
Q 2172 3584 2450 3431 
Q 2728 3278 2906 2969 
L 2906 3500 
L 3481 3500 
L 3481 434 
z
" transform="scale(0.015625)"/>
       <path id="DejaVuSans-65" d="M 3597 1894 
L 3597 1613 
L 953 1613 
Q 991 1019 1311 708 
Q 1631 397 2203 397 
Q 2534 397 2845 478 
Q 3156 559 3463 722 
L 3463 178 
Q 3153 47 2828 -22 
Q 2503 -91 2169 -91 
Q 1331 -91 842 396 
Q 353 884 353 1716 
Q 353 2575 817 3079 
Q 1281 3584 2069 3584 
Q 2775 3584 3186 3129 
Q 3597 2675 3597 1894 
z
M 3022 2063 
Q 3016 2534 2758 2815 
Q 2500 3097 2075 3097 
Q 1594 3097 1305 2825 
Q 1016 2553 972 2059 
L 3022 2063 
z
" transform="scale(0.015625)"/>
       <path id="DejaVuSans-63" d="M 3122 3366 
L 3122 2828 
Q 2878 2963 2633 3030 
Q 2388 3097 2138 3097 
Q 1578 3097 1268 2742 
Q 959 2388 959 1747 
Q 959 1106 1268 751 
Q 1578 397 2138 397 
Q 2388 397 2633 464 
Q 2878 531 3122 666 
L 3122 134 
Q 2881 22 2623 -34 
Q 2366 -91 2075 -91 
Q 1284 -91 818 406 
Q 353 903 353 1747 
Q 353 2603 823 3093 
Q 1294 3584 2113 3584 
Q 2378 3584 2631 3529 
Q 2884 3475 3122 3366 
z
" transform="scale(0.015625)"/>
       <path id="DejaVuSans-68" d="M 3513 2113 
L 3513 0 
L 2938 0 
L 2938 2094 
Q 2938 2591 2744 2837 
Q 2550 3084 2163 3084 
Q 1697 3084 1428 2787 
Q 1159 2491 1159 1978 
L 1159 0 
L 581 0 
L 581 4863 
L 1159 4863 
L 1159 2956 
Q 1366 3272 1645 3428 
Q 1925 3584 2291 3584 
Q 2894 3584 3203 3211 
Q 3513 2838 3513 2113 
z
" transform="scale(0.015625)"/>
       <path id="DejaVuSans-6d" d="M 3328 2828 
Q 3544 3216 3844 3400 
Q 4144 3584 4550 3584 
Q 5097 3584 5394 3201 
Q 5691 2819 5691 2113 
L 5691 0 
L 5113 0 
L 5113 2094 
Q 5113 2597 4934 2840 
Q 4756 3084 4391 3084 
Q 3944 3084 3684 2787 
Q 3425 2491 3425 1978 
L 3425 0 
L 2847 0 
L 2847 2094 
Q 2847 2600 2669 2842 
Q 2491 3084 2119 3084 
Q 1678 3084 1418 2786 
Q 1159 2488 1159 1978 
L 1159 0 
L 581 0 
L 581 3500 
L 1159 3500 
L 1159 2956 
Q 1356 3278 1631 3431 
Q 1906 3584 2284 3584 
Q 2666 3584 2933 3390 
Q 3200 3197 3328 2828 
z
" transform="scale(0.015625)"/>
       <path id="DejaVuSans-61" d="M 2194 1759 
Q 1497 1759 1228 1600 
Q 959 1441 959 1056 
Q 959 750 1161 570 
Q 1363 391 1709 391 
Q 2188 391 2477 730 
Q 2766 1069 2766 1631 
L 2766 1759 
L 2194 1759 
z
M 3341 1997 
L 3341 0 
L 2766 0 
L 2766 531 
Q 2569 213 2275 61 
Q 1981 -91 1556 -91 
Q 1019 -91 701 211 
Q 384 513 384 1019 
Q 384 1609 779 1909 
Q 1175 2209 1959 2209 
L 2766 2209 
L 2766 2266 
Q 2766 2663 2505 2880 
Q 2244 3097 1772 3097 
Q 1472 3097 1187 3025 
Q 903 2953 641 2809 
L 641 3341 
Q 956 3463 1253 3523 
Q 1550 3584 1831 3584 
Q 2591 3584 2966 3190 
Q 3341 2797 3341 1997 
z
" transform="scale(0.015625)"/>
       <path id="DejaVuSans-6c" d="M 603 4863 
L 1178 4863 
L 1178 0 
L 603 0 
L 603 4863 
z
" transform="scale(0.015625)"/>
      </defs>
      <use xlink:href="#DejaVuSans-42"/>
      <use xlink:href="#DejaVuSans-69" transform="translate(68.603516 0)"/>
      <use xlink:href="#DejaVuSans-6f" transform="translate(96.386719 0)"/>
      <use xlink:href="#DejaVuSans-67" transform="translate(157.568359 0)"/>
      <use xlink:href="#DejaVuSans-65" transform="translate(221.044922 0)"/>
      <use xlink:href="#DejaVuSans-6f" transform="translate(282.568359 0)"/>
      <use xlink:href="#DejaVuSans-63" transform="translate(343.75 0)"/>
      <use xlink:href="#DejaVuSans-68" transform="translate(398.730469 0)"/>
      <use xlink:href="#DejaVuSans-65" transform="translate(462.109375 0)"/>
      <use xlink:href="#DejaVuSans-6d" transform="translate(523.632812 0)"/>
      <use xlink:href="#DejaVuSans-69" transform="translate(621.044922 0)"/>
      <use xlink:href="#DejaVuSans-63" transform="translate(648.828125 0)"/>
      <use xlink:href="#DejaVuSans-61" transform="translate(703.808594 0)"/>
      <use xlink:href="#DejaVuSans-6c" transform="translate(765.087891 0)"/>
     </g>
    </g>
    <g clip-path="url(#pdf23c6f008)">
     <!-- flows-P -->
     <g transform="translate(303.150238 219.903101) scale(0.05 -0.05)">
      <defs>
       <path id="DejaVuSans-66" d="M 2375 4863 
L 2375 4384 
L 1825 4384 
Q 1516 4384 1395 4259 
Q 1275 4134 1275 3809 
L 1275 3500 
L 2222 3500 
L 2222 3053 
L 1275 3053 
L 1275 0 
L 697 0 
L 697 3053 
L 147 3053 
L 147 3500 
L 697 3500 
L 697 3744 
Q 697 4328 969 4595 
Q 1241 4863 1831 4863 
L 2375 4863 
z
" transform="scale(0.015625)"/>
       <path id="DejaVuSans-77" d="M 269 3500 
L 844 3500 
L 1563 769 
L 2278 3500 
L 2956 3500 
L 3675 769 
L 4391 3500 
L 4966 3500 
L 4050 0 
L 3372 0 
L 2619 2869 
L 1863 0 
L 1184 0 
L 269 3500 
z
" transform="scale(0.015625)"/>
       <path id="DejaVuSans-73" d="M 2834 3397 
L 2834 2853 
Q 2591 2978 2328 3040 
Q 2066 3103 1784 3103 
Q 1356 3103 1142 2972 
Q 928 2841 928 2578 
Q 928 2378 1081 2264 
Q 1234 2150 1697 2047 
L 1894 2003 
Q 2506 1872 2764 1633 
Q 3022 1394 3022 966 
Q 3022 478 2636 193 
Q 2250 -91 1575 -91 
Q 1294 -91 989 -36 
Q 684 19 347 128 
L 347 722 
Q 666 556 975 473 
Q 1284 391 1588 391 
Q 1994 391 2212 530 
Q 2431 669 2431 922 
Q 2431 1156 2273 1281 
Q 2116 1406 1581 1522 
L 1381 1569 
Q 847 1681 609 1914 
Q 372 2147 372 2553 
Q 372 3047 722 3315 
Q 1072 3584 1716 3584 
Q 2034 3584 2315 3537 
Q 2597 3491 2834 3397 
z
" transform="scale(0.015625)"/>
       <path id="DejaVuSans-2d" d="M 313 2009 
L 1997 2009 
L 1997 1497 
L 313 1497 
L 313 2009 
z
" transform="scale(0.015625)"/>
       <path id="DejaVuSans-50" d="M 1259 4147 
L 1259 2394 
L 2053 2394 
Q 2494 2394 2734 2622 
Q 2975 2850 2975 3272 
Q 2975 3691 2734 3919 
Q 2494 4147 2053 4147 
L 1259 4147 
z
M 628 4666 
L 2053 4666 
Q 2838 4666 3239 4311 
Q 3641 3956 3641 3272 
Q 3641 2581 3239 2228 
Q 2838 1875 2053 1875 
L 1259 1875 
L 1259 0 
L 628 0 
L 628 4666 
z
" transform="scale(0.015625)"/>
      </defs>
      <use xlink:href="#DejaVuSans-66"/>
      <use xlink:href="#DejaVuSans-6c" transform="translate(35.205078 0)"/>
      <use xlink:href="#DejaVuSans-6f" transform="translate(62.988281 0)"/>
      <use xlink:href="#DejaVuSans-77" transform="translate(124.169922 0)"/>
      <use xlink:href="#DejaVuSans-73" transform="translate(205.957031 0)"/>
      <use xlink:href="#DejaVuSans-2d" transform="translate(258.056641 0)"/>
      <use xlink:href="#DejaVuSans-50" transform="translate(294.140625 0)"/>
     </g>
    </g>
   </g>
   <g id="text_2">
    <g clip-path="url(#pdf23c6f008)">
     <!-- Freshwater -->
     <g transform="translate(45.905856 162.266891) scale(0.05 -0.05)">
      <defs>
       <path id="DejaVuSans-46" d="M 628 4666 
L 3309 4666 
L 3309 4134 
L 1259 4134 
L 1259 2759 
L 3109 2759 
L 3109 2228 
L 1259 2228 
L 1259 0 
L 628 0 
L 628 4666 
z
" transform="scale(0.015625)"/>
       <path id="DejaVuSans-72" d="M 2631 2963 
Q 2534 3019 2420 3045 
Q 2306 3072 2169 3072 
Q 1681 3072 1420 2755 
Q 1159 2438 1159 1844 
L 1159 0 
L 581 0 
L 581 3500 
L 1159 3500 
L 1159 2956 
Q 1341 3275 1631 3429 
Q 1922 3584 2338 3584 
Q 2397 3584 2469 3576 
Q 2541 3569 2628 3553 
L 2631 2963 
z
" transform="scale(0.015625)"/>
       <path id="DejaVuSans-74" d="M 1172 4494 
L 1172 3500 
L 2356 3500 
L 2356 3053 
L 1172 3053 
L 1172 1153 
Q 1172 725 1289 603 
Q 1406 481 1766 481 
L 2356 481 
L 2356 0 
L 1766 0 
Q 1100 0 847 248 
Q 594 497 594 1153 
L 594 3053 
L 172 3053 
L 172 3500 
L 594 3500 
L 594 4494 
L 1172 4494 
z
" transform="scale(0.015625)"/>
      </defs>
      <use xlink:href="#DejaVuSans-46"/>
      <use xlink:href="#DejaVuSans-72" transform="translate(50.269531 0)"/>
      <use xlink:href="#DejaVuSans-65" transform="translate(89.132812 0)"/>
      <use xlink:href="#DejaVuSans-73" transform="translate(150.65625 0)"/>
      <use xlink:href="#DejaVuSans-68" transform="translate(202.755859 0)"/>
      <use xlink:href="#DejaVuSans-77" transform="translate(266.134766 0)"/>
      <use xlink:href="#DejaVuSans-61" transform="translate(347.921875 0)"/>
      <use xlink:href="#DejaVuSans-74" transform="translate(409.201172 0)"/>
      <use xlink:href="#DejaVuSans-65" transform="translate(448.410156 0)"/>
      <use xlink:href="#DejaVuSans-72" transform="translate(509.933594 0)"/>
     </g>
    </g>
    <g clip-path="url(#pdf23c6f008)">
     <!-- use -->
     <g transform="translate(55.256637 167.865797) scale(0.05 -0.05)">
      <defs>
       <path id="DejaVuSans-75" d="M 544 1381 
L 544 3500 
L 1119 3500 
L 1119 1403 
Q 1119 906 1312 657 
Q 1506 409 1894 409 
Q 2359 409 2629 706 
Q 2900 1003 2900 1516 
L 2900 3500 
L 3475 3500 
L 3475 0 
L 2900 0 
L 2900 538 
Q 2691 219 2414 64 
Q 2138 -91 1772 -91 
Q 1169 -91 856 284 
Q 544 659 544 1381 
z
M 1991 3584 
L 1991 3584 
z
" transform="scale(0.015625)"/>
      </defs>
      <use xlink:href="#DejaVuSans-75"/>
      <use xlink:href="#DejaVuSans-73" transform="translate(63.378906 0)"/>
      <use xlink:href="#DejaVuSans-65" transform="translate(115.478516 0)"/>
     </g>
    </g>
   </g>
   <g id="text_3">
    <g clip-path="url(#pdf23c6f008)">
     <!-- Biogeochemical -->
     <g transform="translate(385.453946 182.405556) scale(0.05 -0.05)">
      <use xlink:href="#DejaVuSans-42"/>
      <use xlink:href="#DejaVuSans-69" transform="translate(68.603516 0)"/>
      <use xlink:href="#DejaVuSans-6f" transform="translate(96.386719 0)"/>
      <use xlink:href="#DejaVuSans-67" transform="translate(157.568359 0)"/>
      <use xlink:href="#DejaVuSans-65" transform="translate(221.044922 0)"/>
      <use xlink:href="#DejaVuSans-6f" transform="translate(282.568359 0)"/>
      <use xlink:href="#DejaVuSans-63" transform="translate(343.75 0)"/>
      <use xlink:href="#DejaVuSans-68" transform="translate(398.730469 0)"/>
      <use xlink:href="#DejaVuSans-65" transform="translate(462.109375 0)"/>
      <use xlink:href="#DejaVuSans-6d" transform="translate(523.632812 0)"/>
      <use xlink:href="#DejaVuSans-69" transform="translate(621.044922 0)"/>
      <use xlink:href="#DejaVuSans-63" transform="translate(648.828125 0)"/>
      <use xlink:href="#DejaVuSans-61" transform="translate(703.808594 0)"/>
      <use xlink:href="#DejaVuSans-6c" transform="translate(765.087891 0)"/>
     </g>
    </g>
    <g clip-path="url(#pdf23c6f008)">
     <!-- flows-N -->
     <g transform="translate(396.053164 188.004462) scale(0.05 -0.05)">
      <defs>
       <path id="DejaVuSans-4e" d="M 628 4666 
L 1478 4666 
L 3547 763 
L 3547 4666 
L 4159 4666 
L 4159 0 
L 3309 0 
L 1241 3903 
L 1241 0 
L 628 0 
L 628 4666 
z
" transform="scale(0.015625)"/>
      </defs>
      <use xlink:href="#DejaVuSans-66"/>
      <use xlink:href="#DejaVuSans-6c" transform="translate(35.205078 0)"/>
      <use xlink:href="#DejaVuSans-6f" transform="translate(62.988281 0)"/>
      <use xlink:href="#DejaVuSans-77" transform="translate(124.169922 0)"/>
      <use xlink:href="#DejaVuSans-73" transform="translate(205.957031 0)"/>
      <use xlink:href="#DejaVuSans-2d" transform="translate(258.056641 0)"/>
      <use xlink:href="#DejaVuSans-4e" transform="translate(294.140625 0)"/>
     </g>
    </g>
   </g>
   <g id="text_4">
    <g clip-path="url(#pdf23c6f008)">
     <!-- Stratospheric -->
     <g transform="translate(323.148043 50.757305) scale(0.05 -0.05)">
      <defs>
       <path id="DejaVuSans-53" d="M 3425 4513 
L 3425 3897 
Q 3066 4069 2747 4153 
Q 2428 4238 2131 4238 
Q 1616 4238 1336 4038 
Q 1056 3838 1056 3469 
Q 1056 3159 1242 3001 
Q 1428 2844 1947 2747 
L 2328 2669 
Q 3034 2534 3370 2195 
Q 3706 1856 3706 1288 
Q 3706 609 3251 259 
Q 2797 -91 1919 -91 
Q 1588 -91 1214 -16 
Q 841 59 441 206 
L 441 856 
Q 825 641 1194 531 
Q 1563 422 1919 422 
Q 2459 422 2753 634 
Q 3047 847 3047 1241 
Q 3047 1584 2836 1778 
Q 2625 1972 2144 2069 
L 1759 2144 
Q 1053 2284 737 2584 
Q 422 2884 422 3419 
Q 422 4038 858 4394 
Q 1294 4750 2059 4750 
Q 2388 4750 2728 4690 
Q 3069 4631 3425 4513 
z
" transform="scale(0.015625)"/>
       <path id="DejaVuSans-70" d="M 1159 525 
L 1159 -1331 
L 581 -1331 
L 581 3500 
L 1159 3500 
L 1159 2969 
Q 1341 3281 1617 3432 
Q 1894 3584 2278 3584 
Q 2916 3584 3314 3078 
Q 3713 2572 3713 1747 
Q 3713 922 3314 415 
Q 2916 -91 2278 -91 
Q 1894 -91 1617 61 
Q 1341 213 1159 525 
z
M 3116 1747 
Q 3116 2381 2855 2742 
Q 2594 3103 2138 3103 
Q 1681 3103 1420 2742 
Q 1159 2381 1159 1747 
Q 1159 1113 1420 752 
Q 1681 391 2138 391 
Q 2594 391 2855 752 
Q 3116 1113 3116 1747 
z
" transform="scale(0.015625)"/>
      </defs>
      <use xlink:href="#DejaVuSans-53"/>
      <use xlink:href="#DejaVuSans-74" transform="translate(63.476562 0)"/>
      <use xlink:href="#DejaVuSans-72" transform="translate(102.685547 0)"/>
      <use xlink:href="#DejaVuSans-61" transform="translate(143.798828 0)"/>
      <use xlink:href="#DejaVuSans-74" transform="translate(205.078125 0)"/>
      <use xlink:href="#DejaVuSans-6f" transform="translate(244.287109 0)"/>
      <use xlink:href="#DejaVuSans-73" transform="translate(305.46875 0)"/>
      <use xlink:href="#DejaVuSans-70" transform="translate(357.568359 0)"/>
      <use xlink:href="#DejaVuSans-68" transform="translate(421.044922 0)"/>
      <use xlink:href="#DejaVuSans-65" transform="translate(484.423828 0)"/>
      <use xlink:href="#DejaVuSans-72" transform="translate(545.947266 0)"/>
      <use xlink:href="#DejaVuSans-69" transform="translate(587.060547 0)"/>
      <use xlink:href="#DejaVuSans-63" transform="translate(614.84375 0)"/>
     </g>
    </g>
    <g clip-path="url(#pdf23c6f008)">
     <!-- ozone -->
     <g transform="translate(332.399606 56.356211) scale(0.05 -0.05)">
      <defs>
       <path id="DejaVuSans-7a" d="M 353 3500 
L 3084 3500 
L 3084 2975 
L 922 459 
L 3084 459 
L 3084 0 
L 275 0 
L 275 525 
L 2438 3041 
L 353 3041 
L 353 3500 
z
" transform="scale(0.015625)"/>
       <path id="DejaVuSans-6e" d="M 3513 2113 
L 3513 0 
L 2938 0 
L 2938 2094 
Q 2938 2591 2744 2837 
Q 2550 3084 2163 3084 
Q 1697 3084 1428 2787 
Q 1159 2491 1159 1978 
L 1159 0 
L 581 0 
L 581 3500 
L 1159 3500 
L 1159 2956 
Q 1366 3272 1645 3428 
Q 1925 3584 2291 3584 
Q 2894 3584 3203 3211 
Q 3513 2838 3513 2113 
z
" transform="scale(0.015625)"/>
      </defs>
      <use xlink:href="#DejaVuSans-6f"/>
      <use xlink:href="#DejaVuSans-7a" transform="translate(61.181641 0)"/>
      <use xlink:href="#DejaVuSans-6f" transform="translate(113.671875 0)"/>
      <use xlink:href="#DejaVuSans-6e" transform="translate(174.853516 0)"/>
      <use xlink:href="#DejaVuSans-65" transform="translate(238.232422 0)"/>
     </g>
    </g>
    <g clip-path="url(#pdf23c6f008)">
     <!-- depletion -->
     <g transform="translate(328.159762 61.955117) scale(0.05 -0.05)">
      <defs>
       <path id="DejaVuSans-64" d="M 2906 2969 
L 2906 4863 
L 3481 4863 
L 3481 0 
L 2906 0 
L 2906 525 
Q 2725 213 2448 61 
Q 2172 -91 1784 -91 
Q 1150 -91 751 415 
Q 353 922 353 1747 
Q 353 2572 751 3078 
Q 1150 3584 1784 3584 
Q 2172 3584 2448 3432 
Q 2725 3281 2906 2969 
z
M 947 1747 
Q 947 1113 1208 752 
Q 1469 391 1925 391 
Q 2381 391 2643 752 
Q 2906 1113 2906 1747 
Q 2906 2381 2643 2742 
Q 2381 3103 1925 3103 
Q 1469 3103 1208 2742 
Q 947 2381 947 1747 
z
" transform="scale(0.015625)"/>
      </defs>
      <use xlink:href="#DejaVuSans-64"/>
      <use xlink:href="#DejaVuSans-65" transform="translate(63.476562 0)"/>
      <use xlink:href="#DejaVuSans-70" transform="translate(125 0)"/>
      <use xlink:href="#DejaVuSans-6c" transform="translate(188.476562 0)"/>
      <use xlink:href="#DejaVuSans-65" transform="translate(216.259766 0)"/>
      <use xlink:href="#DejaVuSans-74" transform="translate(277.783203 0)"/>
      <use xlink:href="#DejaVuSans-69" transform="translate(316.992188 0)"/>
      <use xlink:href="#DejaVuSans-6f" transform="translate(344.775391 0)"/>
      <use xlink:href="#DejaVuSans-6e" transform="translate(405.957031 0)"/>
     </g>
    </g>
   </g>
   <g id="text_5">
    <g clip-path="url(#pdf23c6f008)">
     <!-- Ocean -->
     <g transform="translate(102.567488 99.592521) scale(0.05 -0.05)">
      <defs>
       <path id="DejaVuSans-4f" d="M 2522 4238 
Q 1834 4238 1429 3725 
Q 1025 3213 1025 2328 
Q 1025 1447 1429 934 
Q 1834 422 2522 422 
Q 3209 422 3611 934 
Q 4013 1447 4013 2328 
Q 4013 3213 3611 3725 
Q 3209 4238 2522 4238 
z
M 2522 4750 
Q 3503 4750 4090 4092 
Q 4678 3434 4678 2328 
Q 4678 1225 4090 567 
Q 3503 -91 2522 -91 
Q 1538 -91 948 565 
Q 359 1222 359 2328 
Q 359 3434 948 4092 
Q 1538 4750 2522 4750 
z
" transform="scale(0.015625)"/>
      </defs>
      <use xlink:href="#DejaVuSans-4f"/>
      <use xlink:href="#DejaVuSans-63" transform="translate(78.710938 0)"/>
      <use xlink:href="#DejaVuSans-65" transform="translate(133.691406 0)"/>
      <use xlink:href="#DejaVuSans-61" transform="translate(195.214844 0)"/>
      <use xlink:href="#DejaVuSans-6e" transform="translate(256.494141 0)"/>
     </g>
    </g>
    <g clip-path="url(#pdf23c6f008)">
     <!-- acidification -->
     <g transform="translate(95.41202 105.191427) scale(0.05 -0.05)">
      <use xlink:href="#DejaVuSans-61"/>
      <use xlink:href="#DejaVuSans-63" transform="translate(61.279297 0)"/>
      <use xlink:href="#DejaVuSans-69" transform="translate(116.259766 0)"/>
      <use xlink:href="#DejaVuSans-64" transform="translate(144.042969 0)"/>
      <use xlink:href="#DejaVuSans-69" transform="translate(207.519531 0)"/>
      <use xlink:href="#DejaVuSans-66" transform="translate(235.302734 0)"/>
      <use xlink:href="#DejaVuSans-69" transform="translate(270.507812 0)"/>
      <use xlink:href="#DejaVuSans-63" transform="translate(298.291016 0)"/>
      <use xlink:href="#DejaVuSans-61" transform="translate(353.271484 0)"/>
      <use xlink:href="#DejaVuSans-74" transform="translate(414.550781 0)"/>
      <use xlink:href="#DejaVuSans-69" transform="translate(453.759766 0)"/>
      <use xlink:href="#DejaVuSans-6f" transform="translate(481.542969 0)"/>
      <use xlink:href="#DejaVuSans-6e" transform="translate(542.724609 0)"/>
     </g>
    </g>
   </g>
   <g id="text_6">
    <g clip-path="url(#pdf23c6f008)">
     <!-- Biosphere -->
     <g transform="translate(218.925051 112.550189) scale(0.05 -0.05)">
      <use xlink:href="#DejaVuSans-42"/>
      <use xlink:href="#DejaVuSans-69" transform="translate(68.603516 0)"/>
      <use xlink:href="#DejaVuSans-6f" transform="translate(96.386719 0)"/>
      <use xlink:href="#DejaVuSans-73" transform="translate(157.568359 0)"/>
      <use xlink:href="#DejaVuSans-70" transform="translate(209.667969 0)"/>
      <use xlink:href="#DejaVuSans-68" transform="translate(273.144531 0)"/>
      <use xlink:href="#DejaVuSans-65" transform="translate(336.523438 0)"/>
      <use xlink:href="#DejaVuSans-72" transform="translate(398.046875 0)"/>
      <use xlink:href="#DejaVuSans-65" transform="translate(436.910156 0)"/>
     </g>
    </g>
    <g clip-path="url(#pdf23c6f008)">
     <!-- Integrity -->
     <g transform="translate(220.777004 118.149096) scale(0.05 -0.05)">
      <defs>
       <path id="DejaVuSans-49" d="M 628 4666 
L 1259 4666 
L 1259 0 
L 628 0 
L 628 4666 
z
" transform="scale(0.015625)"/>
       <path id="DejaVuSans-79" d="M 2059 -325 
Q 1816 -950 1584 -1140 
Q 1353 -1331 966 -1331 
L 506 -1331 
L 506 -850 
L 844 -850 
Q 1081 -850 1212 -737 
Q 1344 -625 1503 -206 
L 1606 56 
L 191 3500 
L 800 3500 
L 1894 763 
L 2988 3500 
L 3597 3500 
L 2059 -325 
z
" transform="scale(0.015625)"/>
      </defs>
      <use xlink:href="#DejaVuSans-49"/>
      <use xlink:href="#DejaVuSans-6e" transform="translate(29.492188 0)"/>
      <use xlink:href="#DejaVuSans-74" transform="translate(92.871094 0)"/>
      <use xlink:href="#DejaVuSans-65" transform="translate(132.080078 0)"/>
      <use xlink:href="#DejaVuSans-67" transform="translate(193.603516 0)"/>
      <use xlink:href="#DejaVuSans-72" transform="translate(257.080078 0)"/>
      <use xlink:href="#DejaVuSans-69" transform="translate(298.193359 0)"/>
      <use xlink:href="#DejaVuSans-74" transform="translate(325.976562 0)"/>
      <use xlink:href="#DejaVuSans-79" transform="translate(365.185547 0)"/>
     </g>
    </g>
   </g>
   <g id="text_7">
    <g clip-path="url(#pdf23c6f008)">
     <!-- Land-system -->
     <g transform="translate(250.056914 174.22293) scale(0.05 -0.05)">
      <defs>
       <path id="DejaVuSans-4c" d="M 628 4666 
L 1259 4666 
L 1259 531 
L 3531 531 
L 3531 0 
L 628 0 
L 628 4666 
z
" transform="scale(0.015625)"/>
      </defs>
      <use xlink:href="#DejaVuSans-4c"/>
      <use xlink:href="#DejaVuSans-61" transform="translate(55.712891 0)"/>
      <use xlink:href="#DejaVuSans-6e" transform="translate(116.992188 0)"/>
      <use xlink:href="#DejaVuSans-64" transform="translate(180.371094 0)"/>
      <use xlink:href="#DejaVuSans-2d" transform="translate(243.847656 0)"/>
      <use xlink:href="#DejaVuSans-73" transform="translate(279.931641 0)"/>
      <use xlink:href="#DejaVuSans-79" transform="translate(332.03125 0)"/>
      <use xlink:href="#DejaVuSans-73" transform="translate(391.210938 0)"/>
      <use xlink:href="#DejaVuSans-74" transform="translate(443.310547 0)"/>
      <use xlink:href="#DejaVuSans-65" transform="translate(482.519531 0)"/>
      <use xlink:href="#DejaVuSans-6d" transform="translate(544.042969 0)"/>
     </g>
    </g>
    <g clip-path="url(#pdf23c6f008)">
     <!-- change -->
     <g transform="translate(256.892461 179.821836) scale(0.05 -0.05)">
      <use xlink:href="#DejaVuSans-63"/>
      <use xlink:href="#DejaVuSans-68" transform="translate(54.980469 0)"/>
      <use xlink:href="#DejaVuSans-61" transform="translate(118.359375 0)"/>
      <use xlink:href="#DejaVuSans-6e" transform="translate(179.638672 0)"/>
      <use xlink:href="#DejaVuSans-67" transform="translate(243.017578 0)"/>
      <use xlink:href="#DejaVuSans-65" transform="translate(306.494141 0)"/>
     </g>
    </g>
   </g>
   <g id="text_8">
    <g clip-path="url(#pdf23c6f008)">
     <!-- Atmospheric -->
     <g transform="translate(121.960357 349.546763) scale(0.05 -0.05)">
      <defs>
       <path id="DejaVuSans-41" d="M 2188 4044 
L 1331 1722 
L 3047 1722 
L 2188 4044 
z
M 1831 4666 
L 2547 4666 
L 4325 0 
L 3669 0 
L 3244 1197 
L 1141 1197 
L 716 0 
L 50 0 
L 1831 4666 
z
" transform="scale(0.015625)"/>
      </defs>
      <use xlink:href="#DejaVuSans-41"/>
      <use xlink:href="#DejaVuSans-74" transform="translate(66.658203 0)"/>
      <use xlink:href="#DejaVuSans-6d" transform="translate(105.867188 0)"/>
      <use xlink:href="#DejaVuSans-6f" transform="translate(203.279297 0)"/>
      <use xlink:href="#DejaVuSans-73" transform="translate(264.460938 0)"/>
      <use xlink:href="#DejaVuSans-70" transform="translate(316.560547 0)"/>
      <use xlink:href="#DejaVuSans-68" transform="translate(380.037109 0)"/>
      <use xlink:href="#DejaVuSans-65" transform="translate(443.416016 0)"/>
      <use xlink:href="#DejaVuSans-72" transform="translate(504.939453 0)"/>
      <use xlink:href="#DejaVuSans-69" transform="translate(546.052734 0)"/>
      <use xlink:href="#DejaVuSans-63" transform="translate(573.835938 0)"/>
     </g>
    </g>
    <g clip-path="url(#pdf23c6f008)">
     <!-- aerosol -->
     <g transform="translate(128.582623 355.145669) scale(0.05 -0.05)">
      <use xlink:href="#DejaVuSans-61"/>
      <use xlink:href="#DejaVuSans-65" transform="translate(61.279297 0)"/>
      <use xlink:href="#DejaVuSans-72" transform="translate(122.802734 0)"/>
      <use xlink:href="#DejaVuSans-6f" transform="translate(161.666016 0)"/>
      <use xlink:href="#DejaVuSans-73" transform="translate(222.847656 0)"/>
      <use xlink:href="#DejaVuSans-6f" transform="translate(274.947266 0)"/>
      <use xlink:href="#DejaVuSans-6c" transform="translate(336.128906 0)"/>
     </g>
    </g>
    <g clip-path="url(#pdf23c6f008)">
     <!-- loading -->
     <g transform="translate(128.471295 360.744575) scale(0.05 -0.05)">
      <use xlink:href="#DejaVuSans-6c"/>
      <use xlink:href="#DejaVuSans-6f" transform="translate(27.783203 0)"/>
      <use xlink:href="#DejaVuSans-61" transform="translate(88.964844 0)"/>
      <use xlink:href="#DejaVuSans-64" transform="translate(150.244141 0)"/>
      <use xlink:href="#DejaVuSans-69" transform="translate(213.720703 0)"/>
      <use xlink:href="#DejaVuSans-6e" transform="translate(241.503906 0)"/>
      <use xlink:href="#DejaVuSans-67" transform="translate(304.882812 0)"/>
     </g>
    </g>
   </g>
   <g id="text_9">
    <g clip-path="url(#pdf23c6f008)">
     <!-- Climate -->
     <g transform="translate(321.355713 118.232598) scale(0.05 -0.05)">
      <defs>
       <path id="DejaVuSans-43" d="M 4122 4306 
L 4122 3641 
Q 3803 3938 3442 4084 
Q 3081 4231 2675 4231 
Q 1875 4231 1450 3742 
Q 1025 3253 1025 2328 
Q 1025 1406 1450 917 
Q 1875 428 2675 428 
Q 3081 428 3442 575 
Q 3803 722 4122 1019 
L 4122 359 
Q 3791 134 3420 21 
Q 3050 -91 2638 -91 
Q 1578 -91 968 557 
Q 359 1206 359 2328 
Q 359 3453 968 4101 
Q 1578 4750 2638 4750 
Q 3056 4750 3426 4639 
Q 3797 4528 4122 4306 
z
" transform="scale(0.015625)"/>
      </defs>
      <use xlink:href="#DejaVuSans-43"/>
      <use xlink:href="#DejaVuSans-6c" transform="translate(69.824219 0)"/>
      <use xlink:href="#DejaVuSans-69" transform="translate(97.607422 0)"/>
      <use xlink:href="#DejaVuSans-6d" transform="translate(125.390625 0)"/>
      <use xlink:href="#DejaVuSans-61" transform="translate(222.802734 0)"/>
      <use xlink:href="#DejaVuSans-74" transform="translate(284.082031 0)"/>
      <use xlink:href="#DejaVuSans-65" transform="translate(323.291016 0)"/>
     </g>
    </g>
    <g clip-path="url(#pdf23c6f008)">
     <!-- change -->
     <g transform="translate(321.775244 123.831504) scale(0.05 -0.05)">
      <use xlink:href="#DejaVuSans-63"/>
      <use xlink:href="#DejaVuSans-68" transform="translate(54.980469 0)"/>
      <use xlink:href="#DejaVuSans-61" transform="translate(118.359375 0)"/>
      <use xlink:href="#DejaVuSans-6e" transform="translate(179.638672 0)"/>
      <use xlink:href="#DejaVuSans-67" transform="translate(243.017578 0)"/>
      <use xlink:href="#DejaVuSans-65" transform="translate(306.494141 0)"/>
     </g>
    </g>
    <g clip-path="url(#pdf23c6f008)">
     <!-- Energy -->
     <g transform="translate(322.222901 129.43041) scale(0.05 -0.05)">
      <defs>
       <path id="DejaVuSans-45" d="M 628 4666 
L 3578 4666 
L 3578 4134 
L 1259 4134 
L 1259 2753 
L 3481 2753 
L 3481 2222 
L 1259 2222 
L 1259 531 
L 3634 531 
L 3634 0 
L 628 0 
L 628 4666 
z
" transform="scale(0.015625)"/>
      </defs>
      <use xlink:href="#DejaVuSans-45"/>
      <use xlink:href="#DejaVuSans-6e" transform="translate(63.183594 0)"/>
      <use xlink:href="#DejaVuSans-65" transform="translate(126.5625 0)"/>
      <use xlink:href="#DejaVuSans-72" transform="translate(188.085938 0)"/>
      <use xlink:href="#DejaVuSans-67" transform="translate(227.449219 0)"/>
      <use xlink:href="#DejaVuSans-79" transform="translate(290.925781 0)"/>
     </g>
    </g>
    <g clip-path="url(#pdf23c6f008)">
     <!-- imbalance -->
     <g transform="translate(318.003369 135.029317) scale(0.05 -0.05)">
      <defs>
       <path id="DejaVuSans-62" d="M 3116 1747 
Q 3116 2381 2855 2742 
Q 2594 3103 2138 3103 
Q 1681 3103 1420 2742 
Q 1159 2381 1159 1747 
Q 1159 1113 1420 752 
Q 1681 391 2138 391 
Q 2594 391 2855 752 
Q 3116 1113 3116 1747 
z
M 1159 2969 
Q 1341 3281 1617 3432 
Q 1894 3584 2278 3584 
Q 2916 3584 3314 3078 
Q 3713 2572 3713 1747 
Q 3713 922 3314 415 
Q 2916 -91 2278 -91 
Q 1894 -91 1617 61 
Q 1341 213 1159 525 
L 1159 0 
L 581 0 
L 581 4863 
L 1159 4863 
L 1159 2969 
z
" transform="scale(0.015625)"/>
      </defs>
      <use xlink:href="#DejaVuSans-69"/>
      <use xlink:href="#DejaVuSans-6d" transform="translate(27.783203 0)"/>
      <use xlink:href="#DejaVuSans-62" transform="translate(125.195312 0)"/>
      <use xlink:href="#DejaVuSans-61" transform="translate(188.671875 0)"/>
      <use xlink:href="#DejaVuSans-6c" transform="translate(249.951172 0)"/>
      <use xlink:href="#DejaVuSans-61" transform="translate(277.734375 0)"/>
      <use xlink:href="#DejaVuSans-6e" transform="translate(339.013672 0)"/>
      <use xlink:href="#DejaVuSans-63" transform="translate(402.392578 0)"/>
      <use xlink:href="#DejaVuSans-65" transform="translate(457.373047 0)"/>
     </g>
    </g>
   </g>
  </g>
 </g>
 <defs>
  <clipPath id="pdf23c6f008">
   <rect x="7.2" y="7.2" width="450.72" height="378.72"/>
  </clipPath>
 </defs>
</svg>
