<?xml version="1.0" encoding="utf-8" standalone="no"?>
<!DOCTYPE svg PUBLIC "-//W3C//DTD SVG 1.1//EN"
  "http://www.w3.org/Graphics/SVG/1.1/DTD/svg11.dtd">
<svg xmlns:xlink="http://www.w3.org/1999/xlink" width="645.12pt" height="645.12pt" viewBox="0 0 645.12 645.12" xmlns="http://www.w3.org/2000/svg" version="1.1">
 <metadata>
  <rdf:RDF xmlns:dc="http://purl.org/dc/elements/1.1/" xmlns:cc="http://creativecommons.org/ns#" xmlns:rdf="http://www.w3.org/1999/02/22-rdf-syntax-ns#">
   <cc:Work>
    <dc:type rdf:resource="http://purl.org/dc/dcmitype/StillImage"/>
    <dc:date>2025-07-21T03:45:40.644280</dc:date>
    <dc:format>image/svg+xml</dc:format>
    <dc:creator>
     <cc:Agent>
      <dc:title>Matplotlib v3.10.3, https://matplotlib.org/</dc:title>
     </cc:Agent>
    </dc:creator>
   </cc:Work>
  </rdf:RDF>
 </metadata>
 <defs>
  <style type="text/css">*{stroke-linejoin: round; stroke-linecap: butt}</style>
 </defs>
 <g id="figure_1">
  <g id="patch_1">
   <path d="M -0 645.12 
L 645.12 645.12 
L 645.12 0 
L -0 0 
L -0 645.12 
z
" style="fill: none"/>
  </g>
  <g id="axes_1">
   <g id="patch_2">
    <path d="M 573.341269 292.139413 
Q 431.312965 268.328142 307.046158 339.289147 
" clip-path="url(#p2fb885c743)" style="fill: none; stroke: #2cafff; stroke-width: -0.7; stroke-linecap: round"/>
    <path d="M 315.08374 338.844992 
L 307.046158 339.289147 
L 311.513383 332.592589 
" clip-path="url(#p2fb885c743)" style="fill: none; stroke: #2cafff; stroke-width: -0.7; stroke-linecap: round"/>
   </g>
   <g id="patch_3">
    <path d="M 573.253411 292.751025 
Q 358.85176 269.581354 181.737192 391.002412 
" clip-path="url(#p2fb885c743)" style="fill: none; stroke: #2cafff; stroke-width: -0.8; stroke-linecap: round"/>
    <path d="M 189.711265 389.900518 
L 181.737192 391.002412 
L 185.64012 383.962018 
" clip-path="url(#p2fb885c743)" style="fill: none; stroke: #2cafff; stroke-width: -0.8; stroke-linecap: round"/>
   </g>
   <g id="patch_4">
    <path d="M 574.528959 288.900723 
Q 456.350225 222.457212 326.437747 244.561246 
" clip-path="url(#p2fb885c743)" style="fill: none; stroke: #ef3b2c; stroke-width: 1.9; stroke-linecap: round"/>
    <path d="M 334.139584 246.902549 
L 326.437747 244.561246 
L 332.931892 239.804558 
" clip-path="url(#p2fb885c743)" style="fill: none; stroke: #ef3b2c; stroke-width: 1.9; stroke-linecap: round"/>
   </g>
   <g id="patch_5">
    <path d="M 574.928642 299.541359 
Q 435.510552 396.682751 391.023927 559.567596 
" clip-path="url(#p2fb885c743)" style="fill: none; stroke: #2cafff; stroke-width: -0.6; stroke-linecap: round"/>
    <path d="M 396.393697 553.570467 
L 391.023927 559.567596 
L 389.448086 551.673502 
" clip-path="url(#p2fb885c743)" style="fill: none; stroke: #2cafff; stroke-width: -0.6; stroke-linecap: round"/>
   </g>
   <g id="patch_6">
    <path d="M 573.889669 290.231256 
Q 525.936592 272.720428 478.485711 283.722885 
" clip-path="url(#p2fb885c743)" style="fill: none; stroke: #ef3b2c; stroke-linecap: round"/>
    <path d="M 486.312792 285.603525 
L 478.485711 283.722885 
L 484.686471 278.589604 
" clip-path="url(#p2fb885c743)" style="fill: none; stroke: #ef3b2c; stroke-linecap: round"/>
   </g>
   <g id="patch_7">
    <path d="M 573.223823 294.712444 
Q 504.721419 301.701881 456.030236 344.274026 
" clip-path="url(#p2fb885c743)" style="fill: none; stroke: #ef3b2c; stroke-width: 2.5; stroke-linecap: round"/>
    <path d="M 463.820176 342.245027 
L 456.030236 344.274026 
L 459.081001 336.824675 
" clip-path="url(#p2fb885c743)" style="fill: none; stroke: #ef3b2c; stroke-width: 2.5; stroke-linecap: round"/>
   </g>
   <g id="patch_8">
    <path d="M 296.209303 353.654359 
Q 438.237607 377.465631 560.853904 307.447129 
" clip-path="url(#p2fb885c743)" style="fill: none; stroke: #ef3b2c; stroke-linecap: round"/>
    <path d="M 552.816322 307.891284 
L 560.853904 307.447129 
L 556.386678 314.143687 
" clip-path="url(#p2fb885c743)" style="fill: none; stroke: #ef3b2c; stroke-linecap: round"/>
   </g>
   <g id="patch_9">
    <path d="M 295.42851 356.123661 
Q 352.17759 381.088154 408.099568 370.363497 
" clip-path="url(#p2fb885c743)" style="fill: none; stroke: #ef3b2c; stroke-width: 3.333333; stroke-linecap: round"/>
    <path d="M 400.350381 368.184023 
L 408.099568 370.363497 
L 401.706476 375.255162 
" clip-path="url(#p2fb885c743)" style="fill: none; stroke: #ef3b2c; stroke-width: 3.333333; stroke-linecap: round"/>
   </g>
   <g id="patch_10">
    <path d="M 68.942334 69.057907 
Q 272.345995 273.487512 564.470073 293.008003 
" clip-path="url(#p2fb885c743)" style="fill: none; stroke: #2cafff; stroke-width: -5.6; stroke-linecap: round"/>
    <path d="M 557.526121 288.935962 
L 564.470073 293.008003 
L 557.046068 296.119941 
" clip-path="url(#p2fb885c743)" style="fill: none; stroke: #2cafff; stroke-width: -5.6; stroke-linecap: round"/>
   </g>
   <g id="patch_11">
    <path d="M 171.889433 407.188071 
Q 299.43154 433.941856 410.758651 377.245814 
" clip-path="url(#p2fb885c743)" style="fill: none; stroke: #ef3b2c; stroke-width: 3.333333; stroke-linecap: round"/>
    <path d="M 402.709026 377.305318 
L 410.758651 377.245814 
L 405.976479 383.721216 
" clip-path="url(#p2fb885c743)" style="fill: none; stroke: #ef3b2c; stroke-width: 3.333333; stroke-linecap: round"/>
   </g>
   <g id="patch_12">
    <path d="M 308.4914 254.825648 
Q 426.670134 321.26916 558.235903 298.883826 
" clip-path="url(#p2fb885c743)" style="fill: none; stroke: #ef3b2c; stroke-width: 0.4; stroke-linecap: round"/>
    <path d="M 550.534066 296.542522 
L 558.235903 298.883826 
L 551.741758 303.640514 
" clip-path="url(#p2fb885c743)" style="fill: none; stroke: #ef3b2c; stroke-width: 0.4; stroke-linecap: round"/>
   </g>
   <g id="patch_13">
    <path d="M 295.216315 258.696518 
Q 279.369676 291.734836 282.238629 327.57385 
" clip-path="url(#p2fb885c743)" style="fill: none; stroke: #2cafff; stroke-width: -0.3; stroke-linecap: round"/>
    <path d="M 285.252619 320.109544 
L 282.238629 327.57385 
L 278.075578 320.684074 
" clip-path="url(#p2fb885c743)" style="fill: none; stroke: #2cafff; stroke-width: -0.3; stroke-linecap: round"/>
   </g>
   <g id="patch_14">
    <path d="M 294.757459 241.213925 
Q 220.122389 117.596565 86.754803 70.051288 
" clip-path="url(#p2fb885c743)" style="fill: none; stroke: #ef3b2c; stroke-linecap: round"/>
    <path d="M 92.327858 75.859994 
L 86.754803 70.051288 
L 94.745601 69.078068 
" clip-path="url(#p2fb885c743)" style="fill: none; stroke: #ef3b2c; stroke-linecap: round"/>
   </g>
   <g id="patch_15">
    <path d="M 298.630588 259.752646 
Q 280.185371 425.18331 370.854499 562.567294 
" clip-path="url(#p2fb885c743)" style="fill: none; stroke: #ef3b2c; stroke-width: 0.1; stroke-linecap: round"/>
    <path d="M 369.893203 554.575053 
L 370.854499 562.567294 
L 363.883929 558.540986 
" clip-path="url(#p2fb885c743)" style="fill: none; stroke: #ef3b2c; stroke-width: 0.1; stroke-linecap: round"/>
   </g>
   <g id="patch_16">
    <path d="M 304.739348 258.542032 
Q 343.60561 324.666991 408.964944 353.098838 
" clip-path="url(#p2fb885c743)" style="fill: none; stroke: #ef3b2c; stroke-width: 3.566667; stroke-linecap: round"/>
    <path d="M 403.798625 346.925577 
L 408.964944 353.098838 
L 400.926544 353.527937 
" clip-path="url(#p2fb885c743)" style="fill: none; stroke: #ef3b2c; stroke-width: 3.566667; stroke-linecap: round"/>
   </g>
   <g id="patch_17">
    <path d="M 393.4454 577.546202 
Q 532.86349 480.40481 577.497398 316.980699 
" clip-path="url(#p2fb885c743)" style="fill: none; stroke: #2cafff; stroke-width: -1.1; stroke-linecap: round"/>
    <path d="M 572.127627 322.977828 
L 577.497398 316.980699 
L 579.073239 324.874793 
" clip-path="url(#p2fb885c743)" style="fill: none; stroke: #2cafff; stroke-width: -1.1; stroke-linecap: round"/>
   </g>
   <g id="patch_18">
    <path d="M 462.779844 294.921109 
Q 510.732921 312.431937 557.965974 301.479987 
" clip-path="url(#p2fb885c743)" style="fill: none; stroke: #ef3b2c; stroke-width: 1.2; stroke-linecap: round"/>
    <path d="M 550.138893 299.599348 
L 557.965974 301.479987 
L 551.765214 306.613269 
" clip-path="url(#p2fb885c743)" style="fill: none; stroke: #ef3b2c; stroke-width: 1.2; stroke-linecap: round"/>
   </g>
   <g id="patch_19">
    <path d="M 443.482732 291.111407 
Q 366.580835 291.44773 307.213875 335.075996 
" clip-path="url(#p2fb885c743)" style="fill: none; stroke: #ef3b2c; stroke-width: 1.6; stroke-linecap: round"/>
    <path d="M 315.147524 333.713203 
L 307.213875 335.075996 
L 310.88383 327.911401 
" clip-path="url(#p2fb885c743)" style="fill: none; stroke: #ef3b2c; stroke-width: 1.6; stroke-linecap: round"/>
   </g>
   <g id="patch_20">
    <path d="M 443.480659 291.273735 
Q 293.909074 293.141554 179.868477 389.204694 
" clip-path="url(#p2fb885c743)" style="fill: none; stroke: #2cafff; stroke-width: -1.1; stroke-linecap: round"/>
    <path d="M 187.694446 387.319435 
L 179.868477 389.204694 
L 183.055851 381.812763 
" clip-path="url(#p2fb885c743)" style="fill: none; stroke: #2cafff; stroke-width: -1.1; stroke-linecap: round"/>
   </g>
   <g id="patch_21">
    <path d="M 448.05961 299.651313 
Q 437.345422 318.050143 435.654742 335.289659 
" clip-path="url(#p2fb885c743)" style="fill: none; stroke: #ef3b2c; stroke-width: 2.933333; stroke-linecap: round"/>
    <path d="M 439.940287 328.475401 
L 435.654742 335.289659 
L 432.774663 327.772668 
" clip-path="url(#p2fb885c743)" style="fill: none; stroke: #ef3b2c; stroke-width: 2.933333; stroke-linecap: round"/>
   </g>
   <g id="patch_22">
    <path d="M 445.964967 362.730393 
Q 514.467371 355.740956 560.717665 315.302952 
" clip-path="url(#p2fb885c743)" style="fill: none; stroke: #ef3b2c; stroke-width: 5.4; stroke-linecap: round"/>
    <path d="M 552.927725 317.331951 
L 560.717665 315.302952 
L 557.6669 322.752303 
" clip-path="url(#p2fb885c743)" style="fill: none; stroke: #ef3b2c; stroke-width: 5.4; stroke-linecap: round"/>
   </g>
   <g id="patch_23">
    <path d="M 426.934654 359.314024 
Q 370.185574 334.34953 312.579959 345.397073 
" clip-path="url(#p2fb885c743)" style="fill: none; stroke: #ef3b2c; stroke-width: 1.8; stroke-linecap: round"/>
    <path d="M 320.329146 347.576547 
L 312.579959 345.397073 
L 318.973051 340.505409 
" clip-path="url(#p2fb885c743)" style="fill: none; stroke: #ef3b2c; stroke-width: 1.8; stroke-linecap: round"/>
   </g>
   <g id="PathCollection_1">
    <defs>
     <path id="m8f828eae0d" d="M 0 19.364917 
C 5.135636 19.364917 10.061621 17.324507 13.693064 13.693064 
C 17.324507 10.061621 19.364917 5.135636 19.364917 0 
C 19.364917 -5.135636 17.324507 -10.061621 13.693064 -13.693064 
C 10.061621 -17.324507 5.135636 -19.364917 0 -19.364917 
C -5.135636 -19.364917 -10.061621 -17.324507 -13.693064 -13.693064 
C -17.324507 -10.061621 -19.364917 -5.135636 -19.364917 0 
C -19.364917 5.135636 -17.324507 10.061621 -13.693064 13.693064 
C -10.061621 17.324507 -5.135636 19.364917 0 19.364917 
z
" style="stroke: #000000"/>
    </defs>
    <g clip-path="url(#p2fb885c743)">
     <use xlink:href="#m8f828eae0d" x="583.188099" y="293.899462" style="fill: #ffffff; stroke: #000000"/>
     <use xlink:href="#m8f828eae0d" x="286.362473" y="351.89431" style="fill: #ffffff; stroke: #000000"/>
     <use xlink:href="#m8f828eae0d" x="61.931901" y="61.931901" style="fill: #ffffff; stroke: #000000"/>
     <use xlink:href="#m8f828eae0d" x="162.126513" y="405.019867" style="fill: #ffffff; stroke: #000000"/>
     <use xlink:href="#m8f828eae0d" x="299.83226" y="249.82691" style="fill: #ffffff; stroke: #000000"/>
     <use xlink:href="#m8f828eae0d" x="385.185943" y="583.188099" style="fill: #ffffff; stroke: #000000"/>
     <use xlink:href="#m8f828eae0d" x="453.481414" y="291.252903" style="fill: #ffffff; stroke: #000000"/>
     <use xlink:href="#m8f828eae0d" x="436.000691" y="363.543374" style="fill: #ffffff; stroke: #000000"/>
    </g>
   </g>
   <g id="text_1">
    <g clip-path="url(#p2fb885c743)">
     <!-- Ocean -->
     <g transform="translate(291.834995 248.407144) scale(0.05 -0.05)">
      <defs>
       <path id="DejaVuSans-4f" d="M 2522 4238 
Q 1834 4238 1429 3725 
Q 1025 3213 1025 2328 
Q 1025 1447 1429 934 
Q 1834 422 2522 422 
Q 3209 422 3611 934 
Q 4013 1447 4013 2328 
Q 4013 3213 3611 3725 
Q 3209 4238 2522 4238 
z
M 2522 4750 
Q 3503 4750 4090 4092 
Q 4678 3434 4678 2328 
Q 4678 1225 4090 567 
Q 3503 -91 2522 -91 
Q 1538 -91 948 565 
Q 359 1222 359 2328 
Q 359 3434 948 4092 
Q 1538 4750 2522 4750 
z
" transform="scale(0.015625)"/>
       <path id="DejaVuSans-63" d="M 3122 3366 
L 3122 2828 
Q 2878 2963 2633 3030 
Q 2388 3097 2138 3097 
Q 1578 3097 1268 2742 
Q 959 2388 959 1747 
Q 959 1106 1268 751 
Q 1578 397 2138 397 
Q 2388 397 2633 464 
Q 2878 531 3122 666 
L 3122 134 
Q 2881 22 2623 -34 
Q 2366 -91 2075 -91 
Q 1284 -91 818 406 
Q 353 903 353 1747 
Q 353 2603 823 3093 
Q 1294 3584 2113 3584 
Q 2378 3584 2631 3529 
Q 2884 3475 3122 3366 
z
" transform="scale(0.015625)"/>
       <path id="DejaVuSans-65" d="M 3597 1894 
L 3597 1613 
L 953 1613 
Q 991 1019 1311 708 
Q 1631 397 2203 397 
Q 2534 397 2845 478 
Q 3156 559 3463 722 
L 3463 178 
Q 3153 47 2828 -22 
Q 2503 -91 2169 -91 
Q 1331 -91 842 396 
Q 353 884 353 1716 
Q 353 2575 817 3079 
Q 1281 3584 2069 3584 
Q 2775 3584 3186 3129 
Q 3597 2675 3597 1894 
z
M 3022 2063 
Q 3016 2534 2758 2815 
Q 2500 3097 2075 3097 
Q 1594 3097 1305 2825 
Q 1016 2553 972 2059 
L 3022 2063 
z
" transform="scale(0.015625)"/>
       <path id="DejaVuSans-61" d="M 2194 1759 
Q 1497 1759 1228 1600 
Q 959 1441 959 1056 
Q 959 750 1161 570 
Q 1363 391 1709 391 
Q 2188 391 2477 730 
Q 2766 1069 2766 1631 
L 2766 1759 
L 2194 1759 
z
M 3341 1997 
L 3341 0 
L 2766 0 
L 2766 531 
Q 2569 213 2275 61 
Q 1981 -91 1556 -91 
Q 1019 -91 701 211 
Q 384 513 384 1019 
Q 384 1609 779 1909 
Q 1175 2209 1959 2209 
L 2766 2209 
L 2766 2266 
Q 2766 2663 2505 2880 
Q 2244 3097 1772 3097 
Q 1472 3097 1187 3025 
Q 903 2953 641 2809 
L 641 3341 
Q 956 3463 1253 3523 
Q 1550 3584 1831 3584 
Q 2591 3584 2966 3190 
Q 3341 2797 3341 1997 
z
" transform="scale(0.015625)"/>
       <path id="DejaVuSans-6e" d="M 3513 2113 
L 3513 0 
L 2938 0 
L 2938 2094 
Q 2938 2591 2744 2837 
Q 2550 3084 2163 3084 
Q 1697 3084 1428 2787 
Q 1159 2491 1159 1978 
L 1159 0 
L 581 0 
L 581 3500 
L 1159 3500 
L 1159 2956 
Q 1366 3272 1645 3428 
Q 1925 3584 2291 3584 
Q 2894 3584 3203 3211 
Q 3513 2838 3513 2113 
z
" transform="scale(0.015625)"/>
      </defs>
      <use xlink:href="#DejaVuSans-4f"/>
      <use xlink:href="#DejaVuSans-63" transform="translate(78.710938 0)"/>
      <use xlink:href="#DejaVuSans-65" transform="translate(133.691406 0)"/>
      <use xlink:href="#DejaVuSans-61" transform="translate(195.214844 0)"/>
      <use xlink:href="#DejaVuSans-6e" transform="translate(256.494141 0)"/>
     </g>
    </g>
    <g clip-path="url(#p2fb885c743)">
     <!-- Acidification -->
     <g transform="translate(284.545151 254.00605) scale(0.05 -0.05)">
      <defs>
       <path id="DejaVuSans-41" d="M 2188 4044 
L 1331 1722 
L 3047 1722 
L 2188 4044 
z
M 1831 4666 
L 2547 4666 
L 4325 0 
L 3669 0 
L 3244 1197 
L 1141 1197 
L 716 0 
L 50 0 
L 1831 4666 
z
" transform="scale(0.015625)"/>
       <path id="DejaVuSans-69" d="M 603 3500 
L 1178 3500 
L 1178 0 
L 603 0 
L 603 3500 
z
M 603 4863 
L 1178 4863 
L 1178 4134 
L 603 4134 
L 603 4863 
z
" transform="scale(0.015625)"/>
       <path id="DejaVuSans-64" d="M 2906 2969 
L 2906 4863 
L 3481 4863 
L 3481 0 
L 2906 0 
L 2906 525 
Q 2725 213 2448 61 
Q 2172 -91 1784 -91 
Q 1150 -91 751 415 
Q 353 922 353 1747 
Q 353 2572 751 3078 
Q 1150 3584 1784 3584 
Q 2172 3584 2448 3432 
Q 2725 3281 2906 2969 
z
M 947 1747 
Q 947 1113 1208 752 
Q 1469 391 1925 391 
Q 2381 391 2643 752 
Q 2906 1113 2906 1747 
Q 2906 2381 2643 2742 
Q 2381 3103 1925 3103 
Q 1469 3103 1208 2742 
Q 947 2381 947 1747 
z
" transform="scale(0.015625)"/>
       <path id="DejaVuSans-66" d="M 2375 4863 
L 2375 4384 
L 1825 4384 
Q 1516 4384 1395 4259 
Q 1275 4134 1275 3809 
L 1275 3500 
L 2222 3500 
L 2222 3053 
L 1275 3053 
L 1275 0 
L 697 0 
L 697 3053 
L 147 3053 
L 147 3500 
L 697 3500 
L 697 3744 
Q 697 4328 969 4595 
Q 1241 4863 1831 4863 
L 2375 4863 
z
" transform="scale(0.015625)"/>
       <path id="DejaVuSans-74" d="M 1172 4494 
L 1172 3500 
L 2356 3500 
L 2356 3053 
L 1172 3053 
L 1172 1153 
Q 1172 725 1289 603 
Q 1406 481 1766 481 
L 2356 481 
L 2356 0 
L 1766 0 
Q 1100 0 847 248 
Q 594 497 594 1153 
L 594 3053 
L 172 3053 
L 172 3500 
L 594 3500 
L 594 4494 
L 1172 4494 
z
" transform="scale(0.015625)"/>
       <path id="DejaVuSans-6f" d="M 1959 3097 
Q 1497 3097 1228 2736 
Q 959 2375 959 1747 
Q 959 1119 1226 758 
Q 1494 397 1959 397 
Q 2419 397 2687 759 
Q 2956 1122 2956 1747 
Q 2956 2369 2687 2733 
Q 2419 3097 1959 3097 
z
M 1959 3584 
Q 2709 3584 3137 3096 
Q 3566 2609 3566 1747 
Q 3566 888 3137 398 
Q 2709 -91 1959 -91 
Q 1206 -91 779 398 
Q 353 888 353 1747 
Q 353 2609 779 3096 
Q 1206 3584 1959 3584 
z
" transform="scale(0.015625)"/>
      </defs>
      <use xlink:href="#DejaVuSans-41"/>
      <use xlink:href="#DejaVuSans-63" transform="translate(66.658203 0)"/>
      <use xlink:href="#DejaVuSans-69" transform="translate(121.638672 0)"/>
      <use xlink:href="#DejaVuSans-64" transform="translate(149.421875 0)"/>
      <use xlink:href="#DejaVuSans-69" transform="translate(212.898438 0)"/>
      <use xlink:href="#DejaVuSans-66" transform="translate(240.681641 0)"/>
      <use xlink:href="#DejaVuSans-69" transform="translate(275.886719 0)"/>
      <use xlink:href="#DejaVuSans-63" transform="translate(303.669922 0)"/>
      <use xlink:href="#DejaVuSans-61" transform="translate(358.650391 0)"/>
      <use xlink:href="#DejaVuSans-74" transform="translate(419.929688 0)"/>
      <use xlink:href="#DejaVuSans-69" transform="translate(459.138672 0)"/>
      <use xlink:href="#DejaVuSans-6f" transform="translate(486.921875 0)"/>
      <use xlink:href="#DejaVuSans-6e" transform="translate(548.103516 0)"/>
     </g>
    </g>
   </g>
   <g id="text_2">
    <g clip-path="url(#p2fb885c743)">
     <!-- Biogeochemical -->
     <g transform="translate(142.303857 403.600101) scale(0.05 -0.05)">
      <defs>
       <path id="DejaVuSans-42" d="M 1259 2228 
L 1259 519 
L 2272 519 
Q 2781 519 3026 730 
Q 3272 941 3272 1375 
Q 3272 1813 3026 2020 
Q 2781 2228 2272 2228 
L 1259 2228 
z
M 1259 4147 
L 1259 2741 
L 2194 2741 
Q 2656 2741 2882 2914 
Q 3109 3088 3109 3444 
Q 3109 3797 2882 3972 
Q 2656 4147 2194 4147 
L 1259 4147 
z
M 628 4666 
L 2241 4666 
Q 2963 4666 3353 4366 
Q 3744 4066 3744 3513 
Q 3744 3084 3544 2831 
Q 3344 2578 2956 2516 
Q 3422 2416 3680 2098 
Q 3938 1781 3938 1306 
Q 3938 681 3513 340 
Q 3088 0 2303 0 
L 628 0 
L 628 4666 
z
" transform="scale(0.015625)"/>
       <path id="DejaVuSans-67" d="M 2906 1791 
Q 2906 2416 2648 2759 
Q 2391 3103 1925 3103 
Q 1463 3103 1205 2759 
Q 947 2416 947 1791 
Q 947 1169 1205 825 
Q 1463 481 1925 481 
Q 2391 481 2648 825 
Q 2906 1169 2906 1791 
z
M 3481 434 
Q 3481 -459 3084 -895 
Q 2688 -1331 1869 -1331 
Q 1566 -1331 1297 -1286 
Q 1028 -1241 775 -1147 
L 775 -588 
Q 1028 -725 1275 -790 
Q 1522 -856 1778 -856 
Q 2344 -856 2625 -561 
Q 2906 -266 2906 331 
L 2906 616 
Q 2728 306 2450 153 
Q 2172 0 1784 0 
Q 1141 0 747 490 
Q 353 981 353 1791 
Q 353 2603 747 3093 
Q 1141 3584 1784 3584 
Q 2172 3584 2450 3431 
Q 2728 3278 2906 2969 
L 2906 3500 
L 3481 3500 
L 3481 434 
z
" transform="scale(0.015625)"/>
       <path id="DejaVuSans-68" d="M 3513 2113 
L 3513 0 
L 2938 0 
L 2938 2094 
Q 2938 2591 2744 2837 
Q 2550 3084 2163 3084 
Q 1697 3084 1428 2787 
Q 1159 2491 1159 1978 
L 1159 0 
L 581 0 
L 581 4863 
L 1159 4863 
L 1159 2956 
Q 1366 3272 1645 3428 
Q 1925 3584 2291 3584 
Q 2894 3584 3203 3211 
Q 3513 2838 3513 2113 
z
" transform="scale(0.015625)"/>
       <path id="DejaVuSans-6d" d="M 3328 2828 
Q 3544 3216 3844 3400 
Q 4144 3584 4550 3584 
Q 5097 3584 5394 3201 
Q 5691 2819 5691 2113 
L 5691 0 
L 5113 0 
L 5113 2094 
Q 5113 2597 4934 2840 
Q 4756 3084 4391 3084 
Q 3944 3084 3684 2787 
Q 3425 2491 3425 1978 
L 3425 0 
L 2847 0 
L 2847 2094 
Q 2847 2600 2669 2842 
Q 2491 3084 2119 3084 
Q 1678 3084 1418 2786 
Q 1159 2488 1159 1978 
L 1159 0 
L 581 0 
L 581 3500 
L 1159 3500 
L 1159 2956 
Q 1356 3278 1631 3431 
Q 1906 3584 2284 3584 
Q 2666 3584 2933 3390 
Q 3200 3197 3328 2828 
z
" transform="scale(0.015625)"/>
       <path id="DejaVuSans-6c" d="M 603 4863 
L 1178 4863 
L 1178 0 
L 603 0 
L 603 4863 
z
" transform="scale(0.015625)"/>
      </defs>
      <use xlink:href="#DejaVuSans-42"/>
      <use xlink:href="#DejaVuSans-69" transform="translate(68.603516 0)"/>
      <use xlink:href="#DejaVuSans-6f" transform="translate(96.386719 0)"/>
      <use xlink:href="#DejaVuSans-67" transform="translate(157.568359 0)"/>
      <use xlink:href="#DejaVuSans-65" transform="translate(221.044922 0)"/>
      <use xlink:href="#DejaVuSans-6f" transform="translate(282.568359 0)"/>
      <use xlink:href="#DejaVuSans-63" transform="translate(343.75 0)"/>
      <use xlink:href="#DejaVuSans-68" transform="translate(398.730469 0)"/>
      <use xlink:href="#DejaVuSans-65" transform="translate(462.109375 0)"/>
      <use xlink:href="#DejaVuSans-6d" transform="translate(523.632812 0)"/>
      <use xlink:href="#DejaVuSans-69" transform="translate(621.044922 0)"/>
      <use xlink:href="#DejaVuSans-63" transform="translate(648.828125 0)"/>
      <use xlink:href="#DejaVuSans-61" transform="translate(703.808594 0)"/>
      <use xlink:href="#DejaVuSans-6c" transform="translate(765.087891 0)"/>
     </g>
    </g>
    <g clip-path="url(#p2fb885c743)">
     <!-- Flows -->
     <g transform="translate(155.117529 409.199007) scale(0.05 -0.05)">
      <defs>
       <path id="DejaVuSans-46" d="M 628 4666 
L 3309 4666 
L 3309 4134 
L 1259 4134 
L 1259 2759 
L 3109 2759 
L 3109 2228 
L 1259 2228 
L 1259 0 
L 628 0 
L 628 4666 
z
" transform="scale(0.015625)"/>
       <path id="DejaVuSans-77" d="M 269 3500 
L 844 3500 
L 1563 769 
L 2278 3500 
L 2956 3500 
L 3675 769 
L 4391 3500 
L 4966 3500 
L 4050 0 
L 3372 0 
L 2619 2869 
L 1863 0 
L 1184 0 
L 269 3500 
z
" transform="scale(0.015625)"/>
       <path id="DejaVuSans-73" d="M 2834 3397 
L 2834 2853 
Q 2591 2978 2328 3040 
Q 2066 3103 1784 3103 
Q 1356 3103 1142 2972 
Q 928 2841 928 2578 
Q 928 2378 1081 2264 
Q 1234 2150 1697 2047 
L 1894 2003 
Q 2506 1872 2764 1633 
Q 3022 1394 3022 966 
Q 3022 478 2636 193 
Q 2250 -91 1575 -91 
Q 1294 -91 989 -36 
Q 684 19 347 128 
L 347 722 
Q 666 556 975 473 
Q 1284 391 1588 391 
Q 1994 391 2212 530 
Q 2431 669 2431 922 
Q 2431 1156 2273 1281 
Q 2116 1406 1581 1522 
L 1381 1569 
Q 847 1681 609 1914 
Q 372 2147 372 2553 
Q 372 3047 722 3315 
Q 1072 3584 1716 3584 
Q 2034 3584 2315 3537 
Q 2597 3491 2834 3397 
z
" transform="scale(0.015625)"/>
      </defs>
      <use xlink:href="#DejaVuSans-46"/>
      <use xlink:href="#DejaVuSans-6c" transform="translate(57.519531 0)"/>
      <use xlink:href="#DejaVuSans-6f" transform="translate(85.302734 0)"/>
      <use xlink:href="#DejaVuSans-77" transform="translate(146.484375 0)"/>
      <use xlink:href="#DejaVuSans-73" transform="translate(228.271484 0)"/>
     </g>
    </g>
   </g>
   <g id="text_3">
    <g clip-path="url(#p2fb885c743)">
     <!-- Freshwater -->
     <g transform="translate(371.410161 581.768334) scale(0.05 -0.05)">
      <defs>
       <path id="DejaVuSans-72" d="M 2631 2963 
Q 2534 3019 2420 3045 
Q 2306 3072 2169 3072 
Q 1681 3072 1420 2755 
Q 1159 2438 1159 1844 
L 1159 0 
L 581 0 
L 581 3500 
L 1159 3500 
L 1159 2956 
Q 1341 3275 1631 3429 
Q 1922 3584 2338 3584 
Q 2397 3584 2469 3576 
Q 2541 3569 2628 3553 
L 2631 2963 
z
" transform="scale(0.015625)"/>
      </defs>
      <use xlink:href="#DejaVuSans-46"/>
      <use xlink:href="#DejaVuSans-72" transform="translate(50.269531 0)"/>
      <use xlink:href="#DejaVuSans-65" transform="translate(89.132812 0)"/>
      <use xlink:href="#DejaVuSans-73" transform="translate(150.65625 0)"/>
      <use xlink:href="#DejaVuSans-68" transform="translate(202.755859 0)"/>
      <use xlink:href="#DejaVuSans-77" transform="translate(266.134766 0)"/>
      <use xlink:href="#DejaVuSans-61" transform="translate(347.921875 0)"/>
      <use xlink:href="#DejaVuSans-74" transform="translate(409.201172 0)"/>
      <use xlink:href="#DejaVuSans-65" transform="translate(448.410156 0)"/>
      <use xlink:href="#DejaVuSans-72" transform="translate(509.933594 0)"/>
     </g>
    </g>
    <g clip-path="url(#p2fb885c743)">
     <!-- Use -->
     <g transform="translate(380.51563 587.36724) scale(0.05 -0.05)">
      <defs>
       <path id="DejaVuSans-55" d="M 556 4666 
L 1191 4666 
L 1191 1831 
Q 1191 1081 1462 751 
Q 1734 422 2344 422 
Q 2950 422 3222 751 
Q 3494 1081 3494 1831 
L 3494 4666 
L 4128 4666 
L 4128 1753 
Q 4128 841 3676 375 
Q 3225 -91 2344 -91 
Q 1459 -91 1007 375 
Q 556 841 556 1753 
L 556 4666 
z
" transform="scale(0.015625)"/>
      </defs>
      <use xlink:href="#DejaVuSans-55"/>
      <use xlink:href="#DejaVuSans-73" transform="translate(73.193359 0)"/>
      <use xlink:href="#DejaVuSans-65" transform="translate(125.292969 0)"/>
     </g>
    </g>
   </g>
   <g id="text_4">
    <g clip-path="url(#p2fb885c743)">
     <!-- Aerosol -->
     <g transform="translate(444.248992 289.833137) scale(0.05 -0.05)">
      <use xlink:href="#DejaVuSans-41"/>
      <use xlink:href="#DejaVuSans-65" transform="translate(66.658203 0)"/>
      <use xlink:href="#DejaVuSans-72" transform="translate(128.181641 0)"/>
      <use xlink:href="#DejaVuSans-6f" transform="translate(167.044922 0)"/>
      <use xlink:href="#DejaVuSans-73" transform="translate(228.226562 0)"/>
      <use xlink:href="#DejaVuSans-6f" transform="translate(280.326172 0)"/>
      <use xlink:href="#DejaVuSans-6c" transform="translate(341.507812 0)"/>
     </g>
    </g>
    <g clip-path="url(#p2fb885c743)">
     <!-- Loading -->
     <g transform="translate(443.617351 295.432043) scale(0.05 -0.05)">
      <defs>
       <path id="DejaVuSans-4c" d="M 628 4666 
L 1259 4666 
L 1259 531 
L 3531 531 
L 3531 0 
L 628 0 
L 628 4666 
z
" transform="scale(0.015625)"/>
      </defs>
      <use xlink:href="#DejaVuSans-4c"/>
      <use xlink:href="#DejaVuSans-6f" transform="translate(53.962891 0)"/>
      <use xlink:href="#DejaVuSans-61" transform="translate(115.144531 0)"/>
      <use xlink:href="#DejaVuSans-64" transform="translate(176.423828 0)"/>
      <use xlink:href="#DejaVuSans-69" transform="translate(239.900391 0)"/>
      <use xlink:href="#DejaVuSans-6e" transform="translate(267.683594 0)"/>
      <use xlink:href="#DejaVuSans-67" transform="translate(331.0625 0)"/>
     </g>
    </g>
   </g>
   <g id="text_5">
    <g clip-path="url(#p2fb885c743)">
     <!-- BI Land -->
     <g transform="translate(277.018723 353.273998) scale(0.05 -0.05)">
      <defs>
       <path id="DejaVuSans-49" d="M 628 4666 
L 1259 4666 
L 1259 0 
L 628 0 
L 628 4666 
z
" transform="scale(0.015625)"/>
       <path id="DejaVuSans-20" transform="scale(0.015625)"/>
      </defs>
      <use xlink:href="#DejaVuSans-42"/>
      <use xlink:href="#DejaVuSans-49" transform="translate(68.603516 0)"/>
      <use xlink:href="#DejaVuSans-20" transform="translate(98.095703 0)"/>
      <use xlink:href="#DejaVuSans-4c" transform="translate(129.882812 0)"/>
      <use xlink:href="#DejaVuSans-61" transform="translate(185.595703 0)"/>
      <use xlink:href="#DejaVuSans-6e" transform="translate(246.875 0)"/>
      <use xlink:href="#DejaVuSans-64" transform="translate(310.253906 0)"/>
     </g>
    </g>
   </g>
   <g id="text_6">
    <g clip-path="url(#p2fb885c743)">
     <!-- Strat. -->
     <g transform="translate(429.099128 359.324156) scale(0.05 -0.05)">
      <defs>
       <path id="DejaVuSans-53" d="M 3425 4513 
L 3425 3897 
Q 3066 4069 2747 4153 
Q 2428 4238 2131 4238 
Q 1616 4238 1336 4038 
Q 1056 3838 1056 3469 
Q 1056 3159 1242 3001 
Q 1428 2844 1947 2747 
L 2328 2669 
Q 3034 2534 3370 2195 
Q 3706 1856 3706 1288 
Q 3706 609 3251 259 
Q 2797 -91 1919 -91 
Q 1588 -91 1214 -16 
Q 841 59 441 206 
L 441 856 
Q 825 641 1194 531 
Q 1563 422 1919 422 
Q 2459 422 2753 634 
Q 3047 847 3047 1241 
Q 3047 1584 2836 1778 
Q 2625 1972 2144 2069 
L 1759 2144 
Q 1053 2284 737 2584 
Q 422 2884 422 3419 
Q 422 4038 858 4394 
Q 1294 4750 2059 4750 
Q 2388 4750 2728 4690 
Q 3069 4631 3425 4513 
z
" transform="scale(0.015625)"/>
       <path id="DejaVuSans-2e" d="M 684 794 
L 1344 794 
L 1344 0 
L 684 0 
L 684 794 
z
" transform="scale(0.015625)"/>
      </defs>
      <use xlink:href="#DejaVuSans-53"/>
      <use xlink:href="#DejaVuSans-74" transform="translate(63.476562 0)"/>
      <use xlink:href="#DejaVuSans-72" transform="translate(102.685547 0)"/>
      <use xlink:href="#DejaVuSans-61" transform="translate(143.798828 0)"/>
      <use xlink:href="#DejaVuSans-74" transform="translate(205.078125 0)"/>
      <use xlink:href="#DejaVuSans-2e" transform="translate(244.287109 0)"/>
     </g>
    </g>
    <g clip-path="url(#p2fb885c743)">
     <!-- Ozone -->
     <g transform="translate(428.068269 364.923062) scale(0.05 -0.05)">
      <defs>
       <path id="DejaVuSans-7a" d="M 353 3500 
L 3084 3500 
L 3084 2975 
L 922 459 
L 3084 459 
L 3084 0 
L 275 0 
L 275 525 
L 2438 3041 
L 353 3041 
L 353 3500 
z
" transform="scale(0.015625)"/>
      </defs>
      <use xlink:href="#DejaVuSans-4f"/>
      <use xlink:href="#DejaVuSans-7a" transform="translate(78.710938 0)"/>
      <use xlink:href="#DejaVuSans-6f" transform="translate(131.201172 0)"/>
      <use xlink:href="#DejaVuSans-6e" transform="translate(192.382812 0)"/>
      <use xlink:href="#DejaVuSans-65" transform="translate(255.761719 0)"/>
     </g>
    </g>
    <g clip-path="url(#p2fb885c743)">
     <!-- Depletion -->
     <g transform="translate(423.928816 370.521968) scale(0.05 -0.05)">
      <defs>
       <path id="DejaVuSans-44" d="M 1259 4147 
L 1259 519 
L 2022 519 
Q 2988 519 3436 956 
Q 3884 1394 3884 2338 
Q 3884 3275 3436 3711 
Q 2988 4147 2022 4147 
L 1259 4147 
z
M 628 4666 
L 1925 4666 
Q 3281 4666 3915 4102 
Q 4550 3538 4550 2338 
Q 4550 1131 3912 565 
Q 3275 0 1925 0 
L 628 0 
L 628 4666 
z
" transform="scale(0.015625)"/>
       <path id="DejaVuSans-70" d="M 1159 525 
L 1159 -1331 
L 581 -1331 
L 581 3500 
L 1159 3500 
L 1159 2969 
Q 1341 3281 1617 3432 
Q 1894 3584 2278 3584 
Q 2916 3584 3314 3078 
Q 3713 2572 3713 1747 
Q 3713 922 3314 415 
Q 2916 -91 2278 -91 
Q 1894 -91 1617 61 
Q 1341 213 1159 525 
z
M 3116 1747 
Q 3116 2381 2855 2742 
Q 2594 3103 2138 3103 
Q 1681 3103 1420 2742 
Q 1159 2381 1159 1747 
Q 1159 1113 1420 752 
Q 1681 391 2138 391 
Q 2594 391 2855 752 
Q 3116 1113 3116 1747 
z
" transform="scale(0.015625)"/>
      </defs>
      <use xlink:href="#DejaVuSans-44"/>
      <use xlink:href="#DejaVuSans-65" transform="translate(77.001953 0)"/>
      <use xlink:href="#DejaVuSans-70" transform="translate(138.525391 0)"/>
      <use xlink:href="#DejaVuSans-6c" transform="translate(202.001953 0)"/>
      <use xlink:href="#DejaVuSans-65" transform="translate(229.785156 0)"/>
      <use xlink:href="#DejaVuSans-74" transform="translate(291.308594 0)"/>
      <use xlink:href="#DejaVuSans-69" transform="translate(330.517578 0)"/>
      <use xlink:href="#DejaVuSans-6f" transform="translate(358.300781 0)"/>
      <use xlink:href="#DejaVuSans-6e" transform="translate(419.482422 0)"/>
     </g>
    </g>
   </g>
   <g id="text_7">
    <g clip-path="url(#p2fb885c743)">
     <!-- Land -->
     <g transform="translate(55.835416 57.712682) scale(0.05 -0.05)">
      <use xlink:href="#DejaVuSans-4c"/>
      <use xlink:href="#DejaVuSans-61" transform="translate(55.712891 0)"/>
      <use xlink:href="#DejaVuSans-6e" transform="translate(116.992188 0)"/>
      <use xlink:href="#DejaVuSans-64" transform="translate(180.371094 0)"/>
     </g>
    </g>
    <g clip-path="url(#p2fb885c743)">
     <!-- System -->
     <g transform="translate(52.609245 63.311588) scale(0.05 -0.05)">
      <defs>
       <path id="DejaVuSans-79" d="M 2059 -325 
Q 1816 -950 1584 -1140 
Q 1353 -1331 966 -1331 
L 506 -1331 
L 506 -850 
L 844 -850 
Q 1081 -850 1212 -737 
Q 1344 -625 1503 -206 
L 1606 56 
L 191 3500 
L 800 3500 
L 1894 763 
L 2988 3500 
L 3597 3500 
L 2059 -325 
z
" transform="scale(0.015625)"/>
      </defs>
      <use xlink:href="#DejaVuSans-53"/>
      <use xlink:href="#DejaVuSans-79" transform="translate(63.476562 0)"/>
      <use xlink:href="#DejaVuSans-73" transform="translate(122.65625 0)"/>
      <use xlink:href="#DejaVuSans-74" transform="translate(174.755859 0)"/>
      <use xlink:href="#DejaVuSans-65" transform="translate(213.964844 0)"/>
      <use xlink:href="#DejaVuSans-6d" transform="translate(275.488281 0)"/>
     </g>
    </g>
    <g clip-path="url(#p2fb885c743)">
     <!-- Change -->
     <g transform="translate(52.360026 68.910495) scale(0.05 -0.05)">
      <defs>
       <path id="DejaVuSans-43" d="M 4122 4306 
L 4122 3641 
Q 3803 3938 3442 4084 
Q 3081 4231 2675 4231 
Q 1875 4231 1450 3742 
Q 1025 3253 1025 2328 
Q 1025 1406 1450 917 
Q 1875 428 2675 428 
Q 3081 428 3442 575 
Q 3803 722 4122 1019 
L 4122 359 
Q 3791 134 3420 21 
Q 3050 -91 2638 -91 
Q 1578 -91 968 557 
Q 359 1206 359 2328 
Q 359 3453 968 4101 
Q 1578 4750 2638 4750 
Q 3056 4750 3426 4639 
Q 3797 4528 4122 4306 
z
" transform="scale(0.015625)"/>
      </defs>
      <use xlink:href="#DejaVuSans-43"/>
      <use xlink:href="#DejaVuSans-68" transform="translate(69.824219 0)"/>
      <use xlink:href="#DejaVuSans-61" transform="translate(133.203125 0)"/>
      <use xlink:href="#DejaVuSans-6e" transform="translate(194.482422 0)"/>
      <use xlink:href="#DejaVuSans-67" transform="translate(257.861328 0)"/>
      <use xlink:href="#DejaVuSans-65" transform="translate(321.337891 0)"/>
     </g>
    </g>
   </g>
   <g id="text_8">
    <g clip-path="url(#p2fb885c743)">
     <!-- Climate -->
     <g transform="translate(573.567787 292.479696) scale(0.05 -0.05)">
      <use xlink:href="#DejaVuSans-43"/>
      <use xlink:href="#DejaVuSans-6c" transform="translate(69.824219 0)"/>
      <use xlink:href="#DejaVuSans-69" transform="translate(97.607422 0)"/>
      <use xlink:href="#DejaVuSans-6d" transform="translate(125.390625 0)"/>
      <use xlink:href="#DejaVuSans-61" transform="translate(222.802734 0)"/>
      <use xlink:href="#DejaVuSans-74" transform="translate(284.082031 0)"/>
      <use xlink:href="#DejaVuSans-65" transform="translate(323.291016 0)"/>
     </g>
    </g>
    <g clip-path="url(#p2fb885c743)">
     <!-- Change -->
     <g transform="translate(573.616224 298.078603) scale(0.05 -0.05)">
      <use xlink:href="#DejaVuSans-43"/>
      <use xlink:href="#DejaVuSans-68" transform="translate(69.824219 0)"/>
      <use xlink:href="#DejaVuSans-61" transform="translate(133.203125 0)"/>
      <use xlink:href="#DejaVuSans-6e" transform="translate(194.482422 0)"/>
      <use xlink:href="#DejaVuSans-67" transform="translate(257.861328 0)"/>
      <use xlink:href="#DejaVuSans-65" transform="translate(321.337891 0)"/>
     </g>
    </g>
   </g>
  </g>
 </g>
 <defs>
  <clipPath id="p2fb885c743">
   <rect x="7.2" y="7.2" width="630.72" height="630.72"/>
  </clipPath>
 </defs>
</svg>
