<?xml version="1.0" encoding="utf-8" standalone="no"?>
<!DOCTYPE svg PUBLIC "-//W3C//DTD SVG 1.1//EN"
  "http://www.w3.org/Graphics/SVG/1.1/DTD/svg11.dtd">
<svg xmlns:xlink="http://www.w3.org/1999/xlink" width="712.200625pt" height="387.960937pt" viewBox="0 0 712.200625 387.960937" xmlns="http://www.w3.org/2000/svg" version="1.1">
 <metadata>
  <rdf:RDF xmlns:dc="http://purl.org/dc/elements/1.1/" xmlns:cc="http://creativecommons.org/ns#" xmlns:rdf="http://www.w3.org/1999/02/22-rdf-syntax-ns#">
   <cc:Work>
    <dc:type rdf:resource="http://purl.org/dc/dcmitype/StillImage"/>
    <dc:date>2025-01-19T21:28:24.853164</dc:date>
    <dc:format>image/svg+xml</dc:format>
    <dc:creator>
     <cc:Agent>
      <dc:title>Matplotlib v3.8.4, https://matplotlib.org/</dc:title>
     </cc:Agent>
    </dc:creator>
   </cc:Work>
  </rdf:RDF>
 </metadata>
 <defs>
  <style type="text/css">*{stroke-linejoin: round; stroke-linecap: butt}</style>
 </defs>
 <g id="figure_1">
  <g id="patch_1">
   <path d="M 0 387.960937 
L 712.200625 387.960937 
L 712.200625 0 
L 0 0 
L 0 387.960937 
z
" style="fill: none"/>
  </g>
  <g id="axes_1">
   <g id="patch_2">
    <path d="M 40.503125 367.582812 
L 337.675625 367.582812 
L 337.675625 21.020312 
L 40.503125 21.020312 
L 40.503125 367.582812 
z
" style="fill: none"/>
   </g>
   <g id="PolyCollection_1">
    <defs>
     <path id="me1eb515103" d="M 40.503125 -227.820016 
L 40.503125 -209.599648 
L 44.217781 -221.644306 
L 47.932438 -233.193706 
L 51.647094 -242.425911 
L 55.36175 -248.57397 
L 59.076406 -252.37286 
L 62.791063 -250.446063 
L 66.505719 -246.671368 
L 70.220375 -244.28691 
L 73.935031 -240.602688 
L 77.649688 -237.869636 
L 81.364344 -235.139637 
L 85.079 -233.552974 
L 88.793656 -234.808157 
L 92.508313 -236.901184 
L 96.222969 -235.206913 
L 99.937625 -234.208836 
L 103.652281 -228.587728 
L 107.366937 -224.751645 
L 111.081594 -217.769854 
L 114.79625 -211.085929 
L 118.510906 -205.001945 
L 122.225562 -200.033024 
L 125.940219 -196.931269 
L 129.654875 -194.337811 
L 133.369531 -194.93376 
L 137.084187 -193.897059 
L 140.798844 -193.803101 
L 144.5135 -190.120927 
L 148.228156 -183.273153 
L 151.942813 -174.356909 
L 155.657469 -167.112164 
L 159.372125 -161.125951 
L 163.086781 -156.113276 
L 166.801438 -152.712586 
L 170.516094 -151.617662 
L 174.23075 -152.185285 
L 177.945406 -148.968175 
L 181.660063 -146.933909 
L 185.374719 -144.625799 
L 189.089375 -138.494587 
L 192.804031 -133.290684 
L 196.518687 -128.447658 
L 200.233344 -124.782771 
L 203.948 -121.604083 
L 207.662656 -119.524304 
L 211.377312 -120.06403 
L 215.091969 -120.510708 
L 218.806625 -119.433371 
L 222.521281 -116.448186 
L 226.235937 -111.325136 
L 229.950594 -105.417472 
L 233.66525 -101.220515 
L 237.379906 -97.568124 
L 241.094562 -93.719581 
L 244.809219 -90.571712 
L 248.523875 -87.452324 
L 252.238531 -85.92526 
L 255.953187 -86.097964 
L 259.667844 -86.050397 
L 263.3825 -85.616463 
L 267.097156 -83.775083 
L 270.811812 -81.43334 
L 274.526469 -77.427432 
L 278.241125 -74.408381 
L 281.955781 -69.460811 
L 285.670437 -65.44849 
L 289.385094 -62.997453 
L 293.09975 -60.771952 
L 296.814406 -60.743847 
L 300.529062 -62.099257 
L 304.243719 -61.660354 
L 307.958375 -63.16018 
L 311.673031 -58.876484 
L 315.387687 -53.774893 
L 319.102344 -49.159039 
L 322.817 -44.378649 
L 326.531656 -40.665957 
L 330.246312 -37.507141 
L 333.960969 -36.130966 
L 337.675625 -36.403267 
L 337.675625 -85.367161 
L 337.675625 -85.367161 
L 333.960969 -84.609585 
L 330.246312 -86.691312 
L 326.531656 -90.673075 
L 322.817 -94.744739 
L 319.102344 -100.281064 
L 315.387687 -106.040577 
L 311.673031 -112.553084 
L 307.958375 -117.47343 
L 304.243719 -117.860546 
L 300.529062 -118.949643 
L 296.814406 -119.040624 
L 293.09975 -120.421781 
L 289.385094 -124.283551 
L 285.670437 -128.342331 
L 281.955781 -133.835542 
L 278.241125 -140.376035 
L 274.526469 -145.029536 
L 270.811812 -150.791673 
L 267.097156 -155.265424 
L 263.3825 -159.595092 
L 259.667844 -162.255841 
L 255.953187 -163.860489 
L 252.238531 -165.53616 
L 248.523875 -168.7391 
L 244.809219 -173.590263 
L 241.094562 -178.530717 
L 237.379906 -184.194153 
L 233.66525 -190.061768 
L 229.950594 -195.998807 
L 226.235937 -203.318336 
L 222.521281 -210.586273 
L 218.806625 -216.225907 
L 215.091969 -219.543729 
L 211.377312 -221.37693 
L 207.662656 -222.548241 
L 203.948 -226.878091 
L 200.233344 -232.946797 
L 196.518687 -239.526752 
L 192.804031 -247.094888 
L 189.089375 -255.020715 
L 185.374719 -263.19493 
L 181.660063 -268.6218 
L 177.945406 -273.583599 
L 174.23075 -278.971888 
L 170.516094 -281.168939 
L 166.801438 -284.994994 
L 163.086781 -289.972552 
L 159.372125 -296.863603 
L 155.657469 -304.169254 
L 151.942813 -312.81982 
L 148.228156 -321.562887 
L 144.5135 -328.948415 
L 140.798844 -333.188298 
L 137.084187 -334.239404 
L 133.369531 -335.041317 
L 129.654875 -334.187143 
L 125.940219 -334.873739 
L 122.225562 -337.24729 
L 118.510906 -340.606805 
L 114.79625 -345.010791 
L 111.081594 -348.451588 
L 107.366937 -351.187784 
L 103.652281 -349.692932 
L 99.937625 -350.786017 
L 96.222969 -347.47237 
L 92.508313 -342.871322 
L 88.793656 -332.136341 
L 85.079 -322.140765 
L 81.364344 -313.057131 
L 77.649688 -302.708573 
L 73.935031 -293.969992 
L 70.220375 -287.365249 
L 66.505719 -279.555235 
L 62.791063 -276.856341 
L 59.076406 -275.442713 
L 55.36175 -270.175696 
L 51.647094 -259.760499 
L 47.932438 -248.016808 
L 44.217781 -236.365556 
L 40.503125 -227.820016 
z
"/>
    </defs>
    <g clip-path="url(#p96c38755f0)">
     <use xlink:href="#me1eb515103" x="0" y="387.960937" style="fill: #822681; fill-opacity: 0.1"/>
    </g>
   </g>
   <g id="PolyCollection_2">
    <defs>
     <path id="md364ced17e" d="M 40.503125 -226.631373 
L 40.503125 -210.404415 
L 44.217781 -223.89264 
L 47.932438 -234.942446 
L 51.647094 -242.533292 
L 55.36175 -251.139612 
L 59.076406 -254.459381 
L 62.791063 -254.843446 
L 66.505719 -254.570303 
L 70.220375 -254.429404 
L 73.935031 -252.997372 
L 77.649688 -251.399664 
L 81.364344 -249.546833 
L 85.079 -249.038652 
L 88.793656 -250.936604 
L 92.508313 -255.135656 
L 96.222969 -253.693128 
L 99.937625 -253.734784 
L 103.652281 -248.816474 
L 107.366937 -246.335554 
L 111.081594 -240.18895 
L 114.79625 -234.468162 
L 118.510906 -227.442853 
L 122.225562 -222.789385 
L 125.940219 -219.322379 
L 129.654875 -216.545806 
L 133.369531 -216.809742 
L 137.084187 -215.871099 
L 140.798844 -215.954555 
L 144.5135 -212.311785 
L 148.228156 -205.53175 
L 151.942813 -197.069068 
L 155.657469 -189.875779 
L 159.372125 -183.820675 
L 163.086781 -178.550915 
L 166.801438 -175.366366 
L 170.516094 -174.674772 
L 174.23075 -175.146188 
L 177.945406 -172.179477 
L 181.660063 -170.174159 
L 185.374719 -167.925858 
L 189.089375 -162.040094 
L 192.804031 -156.833223 
L 196.518687 -152.042445 
L 200.233344 -148.606548 
L 203.948 -145.632966 
L 207.662656 -143.777828 
L 211.377312 -144.550693 
L 215.091969 -145.403527 
L 218.806625 -145.072631 
L 222.521281 -141.905526 
L 226.235937 -136.988187 
L 229.950594 -131.760076 
L 233.66525 -127.840059 
L 237.379906 -123.021773 
L 241.094562 -117.961856 
L 244.809219 -113.809475 
L 248.523875 -109.788143 
L 252.238531 -107.224755 
L 255.953187 -106.049727 
L 259.667844 -105.260612 
L 263.3825 -104.156173 
L 267.097156 -101.372566 
L 270.811812 -98.291495 
L 274.526469 -93.423451 
L 278.241125 -89.514486 
L 281.955781 -83.865702 
L 285.670437 -79.520869 
L 289.385094 -76.393603 
L 293.09975 -73.736326 
L 296.814406 -72.950174 
L 300.529062 -73.295827 
L 304.243719 -72.74733 
L 307.958375 -73.019209 
L 311.673031 -67.967187 
L 315.387687 -62.079595 
L 319.102344 -56.734512 
L 322.817 -50.890853 
L 326.531656 -46.719326 
L 330.246312 -42.56193 
L 333.960969 -40.53193 
L 337.675625 -40.102213 
L 337.675625 -83.546549 
L 337.675625 -83.546549 
L 333.960969 -84.312855 
L 330.246312 -85.353527 
L 326.531656 -88.577661 
L 322.817 -93.17139 
L 319.102344 -99.525728 
L 315.387687 -105.825413 
L 311.673031 -112.316061 
L 307.958375 -117.298774 
L 304.243719 -117.638735 
L 300.529062 -118.492368 
L 296.814406 -118.349658 
L 293.09975 -119.318826 
L 289.385094 -122.549711 
L 285.670437 -126.657344 
L 281.955781 -132.187627 
L 278.241125 -138.619327 
L 274.526469 -143.345003 
L 270.811812 -149.275756 
L 267.097156 -153.426934 
L 263.3825 -157.509176 
L 259.667844 -160.289131 
L 255.953187 -161.915228 
L 252.238531 -164.373735 
L 248.523875 -167.745085 
L 244.809219 -172.684274 
L 241.094562 -178.025073 
L 237.379906 -183.869345 
L 233.66525 -189.454933 
L 229.950594 -195.233341 
L 226.235937 -203.030472 
L 222.521281 -210.2605 
L 218.806625 -216.0966 
L 215.091969 -218.885153 
L 211.377312 -220.699546 
L 207.662656 -222.121465 
L 203.948 -226.824456 
L 200.233344 -232.652718 
L 196.518687 -238.56891 
L 192.804031 -245.817758 
L 189.089375 -253.319412 
L 185.374719 -261.369274 
L 181.660063 -266.159753 
L 177.945406 -270.696684 
L 174.23075 -275.48201 
L 170.516094 -277.332819 
L 166.801438 -280.559509 
L 163.086781 -285.462243 
L 159.372125 -292.228369 
L 155.657469 -299.81154 
L 151.942813 -308.223488 
L 148.228156 -317.011545 
L 144.5135 -324.219318 
L 140.798844 -328.250817 
L 137.084187 -328.885831 
L 133.369531 -329.383212 
L 129.654875 -327.98746 
L 125.940219 -329.027077 
L 122.225562 -331.171508 
L 118.510906 -334.175582 
L 114.79625 -338.447119 
L 111.081594 -342.579321 
L 107.366937 -345.393336 
L 103.652281 -344.34157 
L 99.937625 -345.473247 
L 96.222969 -342.733383 
L 92.508313 -338.085064 
L 88.793656 -326.360841 
L 85.079 -315.103729 
L 81.364344 -306.852802 
L 77.649688 -298.36597 
L 73.935031 -291.178464 
L 70.220375 -285.574383 
L 66.505719 -279.074537 
L 62.791063 -276.423672 
L 59.076406 -274.214748 
L 55.36175 -269.053423 
L 51.647094 -259.391079 
L 47.932438 -247.99662 
L 44.217781 -235.53858 
L 40.503125 -226.631373 
z
"/>
    </defs>
    <g clip-path="url(#p96c38755f0)">
     <use xlink:href="#md364ced17e" x="0" y="387.960937" style="fill: #822681; fill-opacity: 0.2"/>
    </g>
   </g>
   <g id="PolyCollection_3">
    <defs>
     <path id="m6920da239e" d="M 40.503125 -219.623943 
L 40.503125 -214.672826 
L 44.217781 -228.269247 
L 47.932438 -240.199069 
L 51.647094 -248.814895 
L 55.36175 -254.055529 
L 59.076406 -257.770108 
L 62.791063 -258.343161 
L 66.505719 -260.154542 
L 70.220375 -265.14992 
L 73.935031 -268.54014 
L 77.649688 -267.341698 
L 81.364344 -265.430672 
L 85.079 -264.733598 
L 88.793656 -266.656667 
L 92.508313 -269.95453 
L 96.222969 -270.515468 
L 99.937625 -271.359376 
L 103.652281 -268.112556 
L 107.366937 -266.722623 
L 111.081594 -261.414672 
L 114.79625 -255.302162 
L 118.510906 -248.607527 
L 122.225562 -243.793556 
L 125.940219 -239.828233 
L 129.654875 -237.677284 
L 133.369531 -237.829937 
L 137.084187 -237.236276 
L 140.798844 -237.49845 
L 144.5135 -234.45386 
L 148.228156 -227.6844 
L 151.942813 -219.344974 
L 155.657469 -212.478252 
L 159.372125 -207.063336 
L 163.086781 -202.340036 
L 166.801438 -199.93076 
L 170.516094 -199.077529 
L 174.23075 -198.91984 
L 177.945406 -195.637755 
L 181.660063 -193.008208 
L 185.374719 -190.47735 
L 189.089375 -184.644943 
L 192.804031 -179.329426 
L 196.518687 -174.440434 
L 200.233344 -171.002826 
L 203.948 -168.152229 
L 207.662656 -166.086164 
L 211.377312 -167.107874 
L 215.091969 -167.49091 
L 218.806625 -166.759442 
L 222.521281 -163.07727 
L 226.235937 -158.588859 
L 229.950594 -153.07854 
L 233.66525 -148.697552 
L 237.379906 -144.233163 
L 241.094562 -138.973512 
L 244.809219 -134.688865 
L 248.523875 -130.475497 
L 252.238531 -127.053105 
L 255.953187 -125.1806 
L 259.667844 -124.011192 
L 263.3825 -122.987803 
L 267.097156 -121.205939 
L 270.811812 -119.171629 
L 274.526469 -115.47087 
L 278.241125 -111.958005 
L 281.955781 -105.626162 
L 285.670437 -100.497647 
L 289.385094 -96.948885 
L 293.09975 -93.708054 
L 296.814406 -92.609431 
L 300.529062 -92.003326 
L 304.243719 -90.690187 
L 307.958375 -90.184806 
L 311.673031 -85.244372 
L 315.387687 -79.327164 
L 319.102344 -73.971242 
L 322.817 -68.713676 
L 326.531656 -65.376125 
L 330.246312 -61.949644 
L 333.960969 -60.397505 
L 337.675625 -60.665714 
L 337.675625 -79.672953 
L 337.675625 -79.672953 
L 333.960969 -80.686267 
L 330.246312 -83.131258 
L 326.531656 -87.322035 
L 322.817 -90.610322 
L 319.102344 -97.018 
L 315.387687 -102.400281 
L 311.673031 -108.203066 
L 307.958375 -112.531192 
L 304.243719 -112.404862 
L 300.529062 -113.53856 
L 296.814406 -113.520417 
L 293.09975 -114.875483 
L 289.385094 -118.675396 
L 285.670437 -122.546428 
L 281.955781 -127.524131 
L 278.241125 -133.154545 
L 274.526469 -138.222717 
L 270.811812 -143.617947 
L 267.097156 -147.105536 
L 263.3825 -150.206184 
L 259.667844 -152.271916 
L 255.953187 -153.549036 
L 252.238531 -154.452044 
L 248.523875 -157.364438 
L 244.809219 -161.340139 
L 241.094562 -165.383656 
L 237.379906 -169.695851 
L 233.66525 -174.442646 
L 229.950594 -179.368187 
L 226.235937 -186.097728 
L 222.521281 -191.472391 
L 218.806625 -196.014112 
L 215.091969 -197.942747 
L 211.377312 -197.924423 
L 207.662656 -198.473103 
L 203.948 -200.786445 
L 200.233344 -204.539628 
L 196.518687 -209.364173 
L 192.804031 -215.726302 
L 189.089375 -222.18851 
L 185.374719 -228.882902 
L 181.660063 -232.477002 
L 177.945406 -235.789728 
L 174.23075 -239.264652 
L 170.516094 -239.721221 
L 166.801438 -240.334921 
L 163.086781 -243.404355 
L 159.372125 -248.559509 
L 155.657469 -254.322986 
L 151.942813 -261.283742 
L 148.228156 -270.024292 
L 144.5135 -276.080244 
L 140.798844 -279.332552 
L 137.084187 -281.738631 
L 133.369531 -284.829555 
L 129.654875 -286.209398 
L 125.940219 -289.583067 
L 122.225562 -294.050257 
L 118.510906 -299.655498 
L 114.79625 -308.102026 
L 111.081594 -315.76166 
L 107.366937 -322.163879 
L 103.652281 -324.465888 
L 99.937625 -328.368779 
L 96.222969 -328.613886 
L 92.508313 -323.873086 
L 88.793656 -311.186751 
L 85.079 -299.780178 
L 81.364344 -289.639943 
L 77.649688 -285.35263 
L 73.935031 -281.127059 
L 70.220375 -276.554466 
L 66.505719 -273.282287 
L 62.791063 -271.268755 
L 59.076406 -267.278268 
L 55.36175 -261.921286 
L 51.647094 -254.111258 
L 47.932438 -244.951899 
L 44.217781 -233.588829 
L 40.503125 -219.623943 
z
"/>
    </defs>
    <g clip-path="url(#p96c38755f0)">
     <use xlink:href="#m6920da239e" x="0" y="387.960937" style="fill: #822681; fill-opacity: 0.4"/>
    </g>
   </g>
   <g id="matplotlib.axis_1">
    <g id="xtick_1">
     <g id="line2d_1">
      <defs>
       <path id="m0b36b59911" d="M 0 0 
L 0 -3.5 
" style="stroke: #000000; stroke-width: 0.8"/>
      </defs>
      <g>
       <use xlink:href="#m0b36b59911" x="40.503125" y="367.582812" style="stroke: #000000; stroke-width: 0.8"/>
      </g>
     </g>
     <g id="text_1">
      <!-- 2020 -->
      <g transform="translate(27.778125 378.68125) scale(0.1 -0.1)">
       <defs>
        <path id="DejaVuSans-32" d="M 1228 531 
L 3431 531 
L 3431 0 
L 469 0 
L 469 531 
Q 828 903 1448 1529 
Q 2069 2156 2228 2338 
Q 2531 2678 2651 2914 
Q 2772 3150 2772 3378 
Q 2772 3750 2511 3984 
Q 2250 4219 1831 4219 
Q 1534 4219 1204 4116 
Q 875 4013 500 3803 
L 500 4441 
Q 881 4594 1212 4672 
Q 1544 4750 1819 4750 
Q 2544 4750 2975 4387 
Q 3406 4025 3406 3419 
Q 3406 3131 3298 2873 
Q 3191 2616 2906 2266 
Q 2828 2175 2409 1742 
Q 1991 1309 1228 531 
z
" transform="scale(0.015625)"/>
        <path id="DejaVuSans-30" d="M 2034 4250 
Q 1547 4250 1301 3770 
Q 1056 3291 1056 2328 
Q 1056 1369 1301 889 
Q 1547 409 2034 409 
Q 2525 409 2770 889 
Q 3016 1369 3016 2328 
Q 3016 3291 2770 3770 
Q 2525 4250 2034 4250 
z
M 2034 4750 
Q 2819 4750 3233 4129 
Q 3647 3509 3647 2328 
Q 3647 1150 3233 529 
Q 2819 -91 2034 -91 
Q 1250 -91 836 529 
Q 422 1150 422 2328 
Q 422 3509 836 4129 
Q 1250 4750 2034 4750 
z
" transform="scale(0.015625)"/>
       </defs>
       <use xlink:href="#DejaVuSans-32"/>
       <use xlink:href="#DejaVuSans-30" x="63.623047"/>
       <use xlink:href="#DejaVuSans-32" x="127.246094"/>
       <use xlink:href="#DejaVuSans-30" x="190.869141"/>
      </g>
     </g>
    </g>
    <g id="xtick_2">
     <g id="line2d_2">
      <g>
       <use xlink:href="#m0b36b59911" x="77.649688" y="367.582812" style="stroke: #000000; stroke-width: 0.8"/>
      </g>
     </g>
     <g id="text_2">
      <!-- 2030 -->
      <g transform="translate(64.924688 378.68125) scale(0.1 -0.1)">
       <defs>
        <path id="DejaVuSans-33" d="M 2597 2516 
Q 3050 2419 3304 2112 
Q 3559 1806 3559 1356 
Q 3559 666 3084 287 
Q 2609 -91 1734 -91 
Q 1441 -91 1130 -33 
Q 819 25 488 141 
L 488 750 
Q 750 597 1062 519 
Q 1375 441 1716 441 
Q 2309 441 2620 675 
Q 2931 909 2931 1356 
Q 2931 1769 2642 2001 
Q 2353 2234 1838 2234 
L 1294 2234 
L 1294 2753 
L 1863 2753 
Q 2328 2753 2575 2939 
Q 2822 3125 2822 3475 
Q 2822 3834 2567 4026 
Q 2313 4219 1838 4219 
Q 1578 4219 1281 4162 
Q 984 4106 628 3988 
L 628 4550 
Q 988 4650 1302 4700 
Q 1616 4750 1894 4750 
Q 2613 4750 3031 4423 
Q 3450 4097 3450 3541 
Q 3450 3153 3228 2886 
Q 3006 2619 2597 2516 
z
" transform="scale(0.015625)"/>
       </defs>
       <use xlink:href="#DejaVuSans-32"/>
       <use xlink:href="#DejaVuSans-30" x="63.623047"/>
       <use xlink:href="#DejaVuSans-33" x="127.246094"/>
       <use xlink:href="#DejaVuSans-30" x="190.869141"/>
      </g>
     </g>
    </g>
    <g id="xtick_3">
     <g id="line2d_3">
      <g>
       <use xlink:href="#m0b36b59911" x="114.79625" y="367.582812" style="stroke: #000000; stroke-width: 0.8"/>
      </g>
     </g>
     <g id="text_3">
      <!-- 2040 -->
      <g transform="translate(102.07125 378.68125) scale(0.1 -0.1)">
       <defs>
        <path id="DejaVuSans-34" d="M 2419 4116 
L 825 1625 
L 2419 1625 
L 2419 4116 
z
M 2253 4666 
L 3047 4666 
L 3047 1625 
L 3713 1625 
L 3713 1100 
L 3047 1100 
L 3047 0 
L 2419 0 
L 2419 1100 
L 313 1100 
L 313 1709 
L 2253 4666 
z
" transform="scale(0.015625)"/>
       </defs>
       <use xlink:href="#DejaVuSans-32"/>
       <use xlink:href="#DejaVuSans-30" x="63.623047"/>
       <use xlink:href="#DejaVuSans-34" x="127.246094"/>
       <use xlink:href="#DejaVuSans-30" x="190.869141"/>
      </g>
     </g>
    </g>
    <g id="xtick_4">
     <g id="line2d_4">
      <g>
       <use xlink:href="#m0b36b59911" x="151.942813" y="367.582812" style="stroke: #000000; stroke-width: 0.8"/>
      </g>
     </g>
     <g id="text_4">
      <!-- 2050 -->
      <g transform="translate(139.217813 378.68125) scale(0.1 -0.1)">
       <defs>
        <path id="DejaVuSans-35" d="M 691 4666 
L 3169 4666 
L 3169 4134 
L 1269 4134 
L 1269 2991 
Q 1406 3038 1543 3061 
Q 1681 3084 1819 3084 
Q 2600 3084 3056 2656 
Q 3513 2228 3513 1497 
Q 3513 744 3044 326 
Q 2575 -91 1722 -91 
Q 1428 -91 1123 -41 
Q 819 9 494 109 
L 494 744 
Q 775 591 1075 516 
Q 1375 441 1709 441 
Q 2250 441 2565 725 
Q 2881 1009 2881 1497 
Q 2881 1984 2565 2268 
Q 2250 2553 1709 2553 
Q 1456 2553 1204 2497 
Q 953 2441 691 2322 
L 691 4666 
z
" transform="scale(0.015625)"/>
       </defs>
       <use xlink:href="#DejaVuSans-32"/>
       <use xlink:href="#DejaVuSans-30" x="63.623047"/>
       <use xlink:href="#DejaVuSans-35" x="127.246094"/>
       <use xlink:href="#DejaVuSans-30" x="190.869141"/>
      </g>
     </g>
    </g>
    <g id="xtick_5">
     <g id="line2d_5">
      <g>
       <use xlink:href="#m0b36b59911" x="189.089375" y="367.582812" style="stroke: #000000; stroke-width: 0.8"/>
      </g>
     </g>
     <g id="text_5">
      <!-- 2060 -->
      <g transform="translate(176.364375 378.68125) scale(0.1 -0.1)">
       <defs>
        <path id="DejaVuSans-36" d="M 2113 2584 
Q 1688 2584 1439 2293 
Q 1191 2003 1191 1497 
Q 1191 994 1439 701 
Q 1688 409 2113 409 
Q 2538 409 2786 701 
Q 3034 994 3034 1497 
Q 3034 2003 2786 2293 
Q 2538 2584 2113 2584 
z
M 3366 4563 
L 3366 3988 
Q 3128 4100 2886 4159 
Q 2644 4219 2406 4219 
Q 1781 4219 1451 3797 
Q 1122 3375 1075 2522 
Q 1259 2794 1537 2939 
Q 1816 3084 2150 3084 
Q 2853 3084 3261 2657 
Q 3669 2231 3669 1497 
Q 3669 778 3244 343 
Q 2819 -91 2113 -91 
Q 1303 -91 875 529 
Q 447 1150 447 2328 
Q 447 3434 972 4092 
Q 1497 4750 2381 4750 
Q 2619 4750 2861 4703 
Q 3103 4656 3366 4563 
z
" transform="scale(0.015625)"/>
       </defs>
       <use xlink:href="#DejaVuSans-32"/>
       <use xlink:href="#DejaVuSans-30" x="63.623047"/>
       <use xlink:href="#DejaVuSans-36" x="127.246094"/>
       <use xlink:href="#DejaVuSans-30" x="190.869141"/>
      </g>
     </g>
    </g>
    <g id="xtick_6">
     <g id="line2d_6">
      <g>
       <use xlink:href="#m0b36b59911" x="226.235937" y="367.582812" style="stroke: #000000; stroke-width: 0.8"/>
      </g>
     </g>
     <g id="text_6">
      <!-- 2070 -->
      <g transform="translate(213.510937 378.68125) scale(0.1 -0.1)">
       <defs>
        <path id="DejaVuSans-37" d="M 525 4666 
L 3525 4666 
L 3525 4397 
L 1831 0 
L 1172 0 
L 2766 4134 
L 525 4134 
L 525 4666 
z
" transform="scale(0.015625)"/>
       </defs>
       <use xlink:href="#DejaVuSans-32"/>
       <use xlink:href="#DejaVuSans-30" x="63.623047"/>
       <use xlink:href="#DejaVuSans-37" x="127.246094"/>
       <use xlink:href="#DejaVuSans-30" x="190.869141"/>
      </g>
     </g>
    </g>
    <g id="xtick_7">
     <g id="line2d_7">
      <g>
       <use xlink:href="#m0b36b59911" x="263.3825" y="367.582812" style="stroke: #000000; stroke-width: 0.8"/>
      </g>
     </g>
     <g id="text_7">
      <!-- 2080 -->
      <g transform="translate(250.6575 378.68125) scale(0.1 -0.1)">
       <defs>
        <path id="DejaVuSans-38" d="M 2034 2216 
Q 1584 2216 1326 1975 
Q 1069 1734 1069 1313 
Q 1069 891 1326 650 
Q 1584 409 2034 409 
Q 2484 409 2743 651 
Q 3003 894 3003 1313 
Q 3003 1734 2745 1975 
Q 2488 2216 2034 2216 
z
M 1403 2484 
Q 997 2584 770 2862 
Q 544 3141 544 3541 
Q 544 4100 942 4425 
Q 1341 4750 2034 4750 
Q 2731 4750 3128 4425 
Q 3525 4100 3525 3541 
Q 3525 3141 3298 2862 
Q 3072 2584 2669 2484 
Q 3125 2378 3379 2068 
Q 3634 1759 3634 1313 
Q 3634 634 3220 271 
Q 2806 -91 2034 -91 
Q 1263 -91 848 271 
Q 434 634 434 1313 
Q 434 1759 690 2068 
Q 947 2378 1403 2484 
z
M 1172 3481 
Q 1172 3119 1398 2916 
Q 1625 2713 2034 2713 
Q 2441 2713 2670 2916 
Q 2900 3119 2900 3481 
Q 2900 3844 2670 4047 
Q 2441 4250 2034 4250 
Q 1625 4250 1398 4047 
Q 1172 3844 1172 3481 
z
" transform="scale(0.015625)"/>
       </defs>
       <use xlink:href="#DejaVuSans-32"/>
       <use xlink:href="#DejaVuSans-30" x="63.623047"/>
       <use xlink:href="#DejaVuSans-38" x="127.246094"/>
       <use xlink:href="#DejaVuSans-30" x="190.869141"/>
      </g>
     </g>
    </g>
    <g id="xtick_8">
     <g id="line2d_8">
      <g>
       <use xlink:href="#m0b36b59911" x="300.529062" y="367.582812" style="stroke: #000000; stroke-width: 0.8"/>
      </g>
     </g>
     <g id="text_8">
      <!-- 2090 -->
      <g transform="translate(287.804062 378.68125) scale(0.1 -0.1)">
       <defs>
        <path id="DejaVuSans-39" d="M 703 97 
L 703 672 
Q 941 559 1184 500 
Q 1428 441 1663 441 
Q 2288 441 2617 861 
Q 2947 1281 2994 2138 
Q 2813 1869 2534 1725 
Q 2256 1581 1919 1581 
Q 1219 1581 811 2004 
Q 403 2428 403 3163 
Q 403 3881 828 4315 
Q 1253 4750 1959 4750 
Q 2769 4750 3195 4129 
Q 3622 3509 3622 2328 
Q 3622 1225 3098 567 
Q 2575 -91 1691 -91 
Q 1453 -91 1209 -44 
Q 966 3 703 97 
z
M 1959 2075 
Q 2384 2075 2632 2365 
Q 2881 2656 2881 3163 
Q 2881 3666 2632 3958 
Q 2384 4250 1959 4250 
Q 1534 4250 1286 3958 
Q 1038 3666 1038 3163 
Q 1038 2656 1286 2365 
Q 1534 2075 1959 2075 
z
" transform="scale(0.015625)"/>
       </defs>
       <use xlink:href="#DejaVuSans-32"/>
       <use xlink:href="#DejaVuSans-30" x="63.623047"/>
       <use xlink:href="#DejaVuSans-39" x="127.246094"/>
       <use xlink:href="#DejaVuSans-30" x="190.869141"/>
      </g>
     </g>
    </g>
    <g id="xtick_9">
     <g id="line2d_9">
      <g>
       <use xlink:href="#m0b36b59911" x="337.675625" y="367.582812" style="stroke: #000000; stroke-width: 0.8"/>
      </g>
     </g>
     <g id="text_9">
      <!-- 2100 -->
      <g transform="translate(324.950625 378.68125) scale(0.1 -0.1)">
       <defs>
        <path id="DejaVuSans-31" d="M 794 531 
L 1825 531 
L 1825 4091 
L 703 3866 
L 703 4441 
L 1819 4666 
L 2450 4666 
L 2450 531 
L 3481 531 
L 3481 0 
L 794 0 
L 794 531 
z
" transform="scale(0.015625)"/>
       </defs>
       <use xlink:href="#DejaVuSans-32"/>
       <use xlink:href="#DejaVuSans-31" x="63.623047"/>
       <use xlink:href="#DejaVuSans-30" x="127.246094"/>
       <use xlink:href="#DejaVuSans-30" x="190.869141"/>
      </g>
     </g>
    </g>
   </g>
   <g id="matplotlib.axis_2">
    <g id="ytick_1">
     <g id="line2d_10">
      <defs>
       <path id="mefa8caca21" d="M 0 0 
L 3.5 0 
" style="stroke: #000000; stroke-width: 0.8"/>
      </defs>
      <g>
       <use xlink:href="#mefa8caca21" x="40.503125" y="300.9315" style="stroke: #000000; stroke-width: 0.8"/>
      </g>
     </g>
     <g id="text_10">
      <!-- 2.0 -->
      <g transform="translate(21.1 304.730719) scale(0.1 -0.1)">
       <defs>
        <path id="DejaVuSans-2e" d="M 684 794 
L 1344 794 
L 1344 0 
L 684 0 
L 684 794 
z
" transform="scale(0.015625)"/>
       </defs>
       <use xlink:href="#DejaVuSans-32"/>
       <use xlink:href="#DejaVuSans-2e" x="63.623047"/>
       <use xlink:href="#DejaVuSans-30" x="95.410156"/>
      </g>
     </g>
    </g>
    <g id="ytick_2">
     <g id="line2d_11">
      <g>
       <use xlink:href="#mefa8caca21" x="40.503125" y="216.92955" style="stroke: #000000; stroke-width: 0.8"/>
      </g>
     </g>
     <g id="text_11">
      <!-- 2.5 -->
      <g transform="translate(21.1 220.728768) scale(0.1 -0.1)">
       <use xlink:href="#DejaVuSans-32"/>
       <use xlink:href="#DejaVuSans-2e" x="63.623047"/>
       <use xlink:href="#DejaVuSans-35" x="95.410156"/>
      </g>
     </g>
    </g>
    <g id="ytick_3">
     <g id="line2d_12">
      <g>
       <use xlink:href="#mefa8caca21" x="40.503125" y="132.927599" style="stroke: #000000; stroke-width: 0.8"/>
      </g>
     </g>
     <g id="text_12">
      <!-- 3.0 -->
      <g transform="translate(21.1 136.726818) scale(0.1 -0.1)">
       <use xlink:href="#DejaVuSans-33"/>
       <use xlink:href="#DejaVuSans-2e" x="63.623047"/>
       <use xlink:href="#DejaVuSans-30" x="95.410156"/>
      </g>
     </g>
    </g>
    <g id="ytick_4">
     <g id="line2d_13">
      <g>
       <use xlink:href="#mefa8caca21" x="40.503125" y="48.925648" style="stroke: #000000; stroke-width: 0.8"/>
      </g>
     </g>
     <g id="text_13">
      <!-- 3.5 -->
      <g transform="translate(21.1 52.724867) scale(0.1 -0.1)">
       <use xlink:href="#DejaVuSans-33"/>
       <use xlink:href="#DejaVuSans-2e" x="63.623047"/>
       <use xlink:href="#DejaVuSans-35" x="95.410156"/>
      </g>
     </g>
    </g>
    <g id="text_14">
     <!-- W/m² -->
     <g transform="translate(15.020313 207.651562) rotate(-90) scale(0.1 -0.1)">
      <defs>
       <path id="HardingTextWeb-Regular-57" d="M 1370 3507 
L 1888 1203 
L 1907 1203 
L 2963 4621 
L 3373 4621 
L 4378 1203 
L 4397 1203 
L 4966 3360 
Q 5050 3699 5098 4028 
Q 5146 4358 5082 4621 
L 5830 4621 
Q 5709 4326 5603 4012 
Q 5498 3699 5395 3322 
L 4499 -13 
L 4032 -13 
L 3002 3315 
L 2970 3315 
L 1914 -13 
L 1440 -13 
L 602 3347 
Q 499 3770 406 4042 
Q 314 4314 173 4621 
L 1312 4621 
Q 1286 4346 1289 4099 
Q 1293 3853 1370 3507 
z
" transform="scale(0.015625)"/>
       <path id="HardingTextWeb-Regular-2f" d="M -154 -832 
L 1933 4934 
L 2394 4934 
L 307 -832 
L -154 -832 
z
" transform="scale(0.015625)"/>
       <path id="HardingTextWeb-Regular-6d" d="M 1242 1107 
Q 1242 794 1261 512 
Q 1280 230 1350 0 
L 429 0 
Q 506 243 528 563 
Q 550 883 550 1158 
L 550 2362 
Q 550 2637 473 2870 
Q 397 3104 288 3206 
L 1165 3482 
L 1216 3443 
L 1197 2893 
L 1222 2893 
Q 1344 3136 1648 3318 
Q 1952 3501 2342 3501 
Q 2765 3501 2960 3357 
Q 3155 3213 3219 2893 
L 3245 2893 
Q 3366 3130 3680 3315 
Q 3994 3501 4365 3501 
Q 4883 3501 5084 3264 
Q 5286 3027 5286 2522 
L 5286 1158 
Q 5286 883 5308 563 
Q 5331 243 5408 0 
L 4486 0 
Q 4557 230 4576 512 
Q 4595 794 4595 1107 
L 4595 2426 
Q 4595 2701 4464 2825 
Q 4333 2950 4032 2950 
Q 3795 2950 3596 2867 
Q 3398 2784 3258 2637 
Q 3264 2611 3264 2579 
Q 3264 2547 3264 2522 
L 3264 1107 
Q 3264 794 3283 512 
Q 3302 230 3373 0 
L 2483 0 
Q 2547 230 2560 512 
Q 2573 794 2573 1107 
Q 2579 1107 2579 1315 
Q 2579 1523 2579 1769 
Q 2579 2016 2576 2221 
Q 2573 2426 2573 2426 
Q 2573 2701 2441 2825 
Q 2310 2950 2010 2950 
Q 1773 2950 1584 2870 
Q 1395 2790 1242 2637 
L 1242 1107 
z
" transform="scale(0.015625)"/>
       <path id="HardingTextWeb-Regular-b2" d="M 2400 4390 
Q 2400 4134 2253 3884 
Q 2106 3635 1888 3414 
Q 1670 3194 1420 2998 
Q 1171 2803 966 2650 
L 1632 2650 
Q 1914 2650 2176 2698 
Q 2438 2746 2566 2797 
L 2445 2176 
L 397 2176 
L 326 2355 
Q 627 2630 892 2880 
Q 1158 3130 1356 3366 
Q 1555 3603 1670 3830 
Q 1786 4058 1786 4282 
Q 1786 4499 1651 4656 
Q 1517 4813 1210 4813 
Q 973 4813 806 4717 
Q 640 4621 506 4422 
L 390 4486 
Q 506 4794 768 5011 
Q 1030 5229 1446 5229 
Q 1926 5229 2163 4989 
Q 2400 4749 2400 4390 
z
" transform="scale(0.015625)"/>
      </defs>
      <use xlink:href="#HardingTextWeb-Regular-57"/>
      <use xlink:href="#HardingTextWeb-Regular-2f" x="93.599991"/>
      <use xlink:href="#HardingTextWeb-Regular-6d" x="130.999985"/>
      <use xlink:href="#HardingTextWeb-Regular-b2" x="221.499969"/>
     </g>
    </g>
   </g>
   <g id="line2d_14">
    <path d="M 40.503125 170.779655 
L 44.217781 155.048176 
L 47.932438 144.542155 
L 51.647094 137.115418 
L 55.36175 128.515978 
L 59.076406 123.065635 
L 62.791063 120.17801 
L 66.505719 119.51281 
L 70.220375 116.651564 
L 73.935031 113.376629 
L 77.649688 110.267429 
L 81.364344 106.189737 
L 85.079 104.576142 
L 88.793656 100.703128 
L 92.508313 94.552946 
L 96.222969 94.150517 
L 99.937625 93.911306 
L 103.652281 97.32921 
L 107.366937 98.947921 
L 111.081594 104.26777 
L 114.79625 109.031691 
L 118.510906 114.689935 
L 122.225562 117.898649 
L 125.940219 120.055937 
L 129.654875 121.012505 
L 133.369531 119.280418 
L 137.084187 118.98269 
L 140.798844 117.890066 
L 144.5135 120.05952 
L 148.228156 125.815299 
L 151.942813 134.07761 
L 155.657469 142.547476 
L 159.372125 148.915158 
L 163.086781 154.970903 
L 166.801438 159.157576 
L 170.516094 160.258252 
L 174.23075 161.049557 
L 177.945406 164.80389 
L 181.660063 168.396305 
L 185.374719 171.879808 
L 189.089375 177.865505 
L 192.804031 183.900264 
L 196.518687 189.128714 
L 200.233344 193.145147 
L 203.948 196.652093 
L 207.662656 199.411073 
L 211.377312 198.576944 
L 215.091969 198.831215 
L 218.806625 200.243828 
L 222.521281 204.447253 
L 226.235937 210.008089 
L 229.950594 216.854956 
L 233.66525 223.328724 
L 237.379906 229.143207 
L 241.094562 234.368101 
L 244.809219 238.342633 
L 248.523875 241.744384 
L 252.238531 244.000886 
L 255.953187 245.393577 
L 259.667844 245.696562 
L 263.3825 247.421938 
L 267.097156 250.696391 
L 270.811812 254.474794 
L 274.526469 259.737418 
L 278.241125 264.001053 
L 281.955781 269.849204 
L 285.670437 274.696 
L 289.385094 278.443759 
L 293.09975 281.367067 
L 296.814406 281.998548 
L 300.529062 282.681335 
L 304.243719 282.918154 
L 307.958375 281.874862 
L 311.673031 285.597756 
L 315.387687 291.516682 
L 319.102344 296.72051 
L 322.817 302.53218 
L 326.531656 307.213446 
L 330.246312 311.186107 
L 333.960969 313.208612 
L 337.675625 313.816115 
" clip-path="url(#p96c38755f0)" style="fill: none; stroke: #822681; stroke-width: 2; stroke-linecap: square"/>
   </g>
   <g id="line2d_15">
    <path d="M 40.503125 317.73189 
L 337.675625 317.73189 
" clip-path="url(#p96c38755f0)" style="fill: none; stroke-dasharray: 5.55,2.4; stroke-dashoffset: 0; stroke: #000000; stroke-width: 1.5"/>
   </g>
   <g id="patch_3">
    <path d="M 40.503125 367.582812 
L 40.503125 21.020312 
" style="fill: none; stroke: #000000; stroke-width: 0.8; stroke-linejoin: miter; stroke-linecap: square"/>
   </g>
   <g id="patch_4">
    <path d="M 40.503125 367.582812 
L 337.675625 367.582812 
" style="fill: none; stroke: #000000; stroke-width: 0.8; stroke-linejoin: miter; stroke-linecap: square"/>
   </g>
   <g id="text_15">
    <!-- 1.9W/m² -->
    <g transform="translate(44.217781 314.371812) scale(0.1 -0.1)">
     <defs>
      <path id="HardingTextWeb-Regular-31" d="M 294 0 
L 294 339 
L 960 339 
Q 998 538 1017 778 
Q 1037 1018 1037 1312 
L 1037 3917 
L 256 3949 
L 256 4205 
Q 730 4269 1120 4413 
Q 1510 4557 1830 4678 
Q 1786 4384 1776 4080 
Q 1766 3776 1766 3494 
L 1766 1312 
Q 1766 1018 1788 778 
Q 1811 538 1843 339 
L 2483 339 
L 2483 0 
L 294 0 
z
" transform="scale(0.015625)"/>
      <path id="HardingTextWeb-Regular-2e" d="M 864 -77 
Q 646 -77 515 64 
Q 384 205 384 403 
Q 384 595 515 736 
Q 646 877 864 877 
Q 1082 877 1213 736 
Q 1344 595 1344 403 
Q 1344 205 1213 64 
Q 1082 -77 864 -77 
z
" transform="scale(0.015625)"/>
      <path id="HardingTextWeb-Regular-39" d="M 992 -64 
L 890 166 
Q 1530 480 1987 969 
Q 2445 1459 2605 2182 
Q 2419 2010 2169 1901 
Q 1920 1792 1594 1792 
Q 1350 1792 1116 1875 
Q 883 1958 700 2131 
Q 518 2304 406 2566 
Q 294 2829 294 3181 
Q 294 3526 416 3808 
Q 538 4090 749 4285 
Q 960 4480 1248 4589 
Q 1536 4698 1862 4698 
Q 2189 4698 2486 4592 
Q 2784 4486 3005 4268 
Q 3226 4051 3357 3718 
Q 3488 3386 3488 2931 
Q 3488 2368 3257 1885 
Q 3027 1402 2668 1021 
Q 2310 640 1862 365 
Q 1414 90 992 -64 
z
M 1050 3258 
Q 1050 2720 1306 2473 
Q 1562 2227 1914 2227 
Q 2150 2227 2336 2320 
Q 2522 2413 2669 2554 
Q 2682 2656 2688 2765 
Q 2694 2874 2694 2995 
Q 2694 3213 2659 3456 
Q 2624 3699 2528 3894 
Q 2432 4090 2269 4221 
Q 2106 4352 1856 4352 
Q 1414 4352 1232 4032 
Q 1050 3712 1050 3258 
z
" transform="scale(0.015625)"/>
     </defs>
     <use xlink:href="#HardingTextWeb-Regular-31"/>
     <use xlink:href="#HardingTextWeb-Regular-2e" x="41.799988"/>
     <use xlink:href="#HardingTextWeb-Regular-39" x="68.799973"/>
     <use xlink:href="#HardingTextWeb-Regular-57" x="128.499969"/>
     <use xlink:href="#HardingTextWeb-Regular-2f" x="222.09996"/>
     <use xlink:href="#HardingTextWeb-Regular-6d" x="259.499954"/>
     <use xlink:href="#HardingTextWeb-Regular-b2" x="349.999939"/>
    </g>
   </g>
   <g id="text_16">
    <!-- (a) -->
    <g transform="translate(182.819844 15.020312) scale(0.1 -0.1)">
     <defs>
      <path id="HardingTextWeb-Regular-28" d="M 1907 -902 
Q 1638 -698 1376 -406 
Q 1114 -115 909 253 
Q 704 621 576 1072 
Q 448 1523 448 2054 
Q 448 2541 576 2985 
Q 704 3430 909 3811 
Q 1114 4192 1376 4502 
Q 1638 4813 1907 5024 
L 2086 4890 
Q 1651 4422 1385 3712 
Q 1120 3002 1120 2163 
Q 1120 1082 1411 403 
Q 1702 -275 2106 -742 
L 1907 -902 
z
" transform="scale(0.015625)"/>
      <path id="HardingTextWeb-Regular-61" d="M 736 2406 
Q 614 2406 512 2486 
Q 410 2566 410 2726 
Q 410 2899 522 3043 
Q 634 3187 813 3289 
Q 992 3392 1222 3446 
Q 1453 3501 1690 3501 
Q 2298 3501 2554 3241 
Q 2810 2982 2810 2470 
L 2810 1158 
Q 2810 883 2829 563 
Q 2848 243 2925 0 
L 2195 0 
Q 2182 102 2172 246 
Q 2163 390 2163 480 
L 2138 480 
Q 2016 256 1801 89 
Q 1587 -77 1197 -77 
Q 774 -77 528 166 
Q 282 410 275 774 
Q 269 1088 486 1325 
Q 704 1562 1152 1722 
L 2118 2054 
L 2118 2515 
Q 2118 2861 1961 3008 
Q 1805 3155 1510 3155 
Q 1318 3155 1225 3081 
Q 1133 3008 1094 2816 
Q 1050 2598 966 2502 
Q 883 2406 736 2406 
z
M 986 883 
Q 986 640 1123 499 
Q 1261 358 1498 358 
Q 1734 358 1894 480 
Q 2054 602 2118 755 
L 2118 1805 
L 1517 1568 
Q 1235 1453 1110 1305 
Q 986 1158 986 883 
z
" transform="scale(0.015625)"/>
      <path id="HardingTextWeb-Regular-29" d="M 442 -902 
L 243 -742 
Q 646 -275 940 403 
Q 1235 1082 1235 2163 
Q 1235 3002 969 3712 
Q 704 4422 269 4890 
L 442 5024 
Q 717 4813 979 4502 
Q 1242 4192 1446 3811 
Q 1651 3430 1776 2985 
Q 1901 2541 1901 2054 
Q 1901 1523 1776 1072 
Q 1651 621 1446 253 
Q 1242 -115 979 -406 
Q 717 -698 442 -902 
z
" transform="scale(0.015625)"/>
     </defs>
     <use xlink:href="#HardingTextWeb-Regular-28"/>
     <use xlink:href="#HardingTextWeb-Regular-61" x="36.799988"/>
     <use xlink:href="#HardingTextWeb-Regular-29" x="88.599976"/>
    </g>
   </g>
  </g>
  <g id="axes_2">
   <g id="patch_5">
    <path d="M 395.103125 367.582812 
L 692.275625 367.582812 
L 692.275625 21.020312 
L 395.103125 21.020312 
L 395.103125 367.582812 
z
" style="fill: none"/>
   </g>
   <g id="PolyCollection_4">
    <defs>
     <path id="m450a5b3c7e" d="M 395.103125 -150.535092 
L 395.103125 -133.989464 
L 398.817781 -145.314042 
L 402.532438 -157.604091 
L 406.247094 -170.522321 
L 409.96175 -182.711384 
L 413.676406 -192.528286 
L 417.391062 -200.244 
L 421.105719 -205.061972 
L 424.820375 -206.351694 
L 428.535031 -207.129636 
L 432.249687 -207.195549 
L 435.964344 -208.033198 
L 439.679 -208.092089 
L 443.393656 -209.654533 
L 447.108312 -212.315305 
L 450.822969 -213.457201 
L 454.537625 -213.884384 
L 458.252281 -212.982053 
L 461.966937 -211.742515 
L 465.681594 -209.231594 
L 469.39625 -206.51302 
L 473.110906 -202.387589 
L 476.825562 -198.618304 
L 480.540219 -195.596675 
L 484.254875 -192.874915 
L 487.969531 -191.532582 
L 491.684187 -190.806876 
L 495.398844 -190.566709 
L 499.1135 -189.473139 
L 502.828156 -186.561463 
L 506.542812 -181.615222 
L 510.257469 -175.94972 
L 513.972125 -170.595363 
L 517.686781 -165.353803 
L 521.401437 -160.309849 
L 525.116094 -157.621258 
L 528.83075 -155.867405 
L 532.545406 -152.858163 
L 536.260062 -150.127868 
L 539.974719 -147.634553 
L 543.689375 -144.136462 
L 547.404031 -140.090805 
L 551.118687 -135.675188 
L 554.833344 -131.662012 
L 558.548 -128.896138 
L 562.262656 -126.14973 
L 565.977312 -124.254989 
L 569.691969 -122.772368 
L 573.406625 -121.290189 
L 577.121281 -119.655425 
L 580.835937 -116.634379 
L 584.550594 -112.277463 
L 588.26525 -108.276256 
L 591.979906 -104.861027 
L 595.694562 -100.567891 
L 599.409219 -96.348347 
L 603.123875 -93.200928 
L 606.838531 -90.641137 
L 610.553187 -88.405979 
L 614.267844 -87.160329 
L 617.9825 -86.097984 
L 621.697156 -84.576874 
L 625.411812 -82.491898 
L 629.126469 -80.054829 
L 632.841125 -77.304739 
L 636.555781 -73.869173 
L 640.270437 -69.910968 
L 643.985094 -66.527613 
L 647.69975 -63.986739 
L 651.414406 -61.993161 
L 655.129062 -61.088001 
L 658.843719 -60.324509 
L 662.558375 -60.183778 
L 666.273031 -58.954297 
L 669.987687 -55.825133 
L 673.702344 -51.957766 
L 677.417 -47.955971 
L 681.131656 -44.154386 
L 684.846312 -40.90988 
L 688.560969 -38.258797 
L 692.275625 -36.130966 
L 692.275625 -112.620797 
L 692.275625 -112.620797 
L 688.560969 -116.324996 
L 684.846312 -121.125696 
L 681.131656 -126.301533 
L 677.417 -131.017215 
L 673.702344 -135.869821 
L 669.987687 -140.477118 
L 666.273031 -144.734729 
L 662.558375 -148.167195 
L 658.843719 -150.791795 
L 655.129062 -153.639835 
L 651.414406 -156.223046 
L 647.69975 -159.803299 
L 643.985094 -164.48541 
L 640.270437 -170.145296 
L 636.555781 -176.345918 
L 632.841125 -181.899824 
L 629.126469 -187.684833 
L 625.411812 -192.433777 
L 621.697156 -197.021864 
L 617.9825 -201.507938 
L 614.267844 -205.315387 
L 610.553187 -208.633059 
L 606.838531 -212.702283 
L 603.123875 -217.445734 
L 599.409219 -221.958753 
L 595.694562 -227.282783 
L 591.979906 -233.580792 
L 588.26525 -240.311529 
L 584.550594 -246.912741 
L 580.835937 -253.092376 
L 577.121281 -258.136628 
L 573.406625 -262.375441 
L 569.691969 -265.129263 
L 565.977312 -268.948779 
L 562.262656 -273.602621 
L 558.548 -279.483158 
L 554.833344 -285.113814 
L 551.118687 -291.112213 
L 547.404031 -296.26267 
L 543.689375 -301.932774 
L 539.974719 -307.171096 
L 536.260062 -311.299887 
L 532.545406 -315.029017 
L 528.83075 -318.332587 
L 525.116094 -321.275989 
L 521.401437 -324.467591 
L 517.686781 -329.532356 
L 513.972125 -334.345513 
L 510.257469 -339.350091 
L 506.542812 -344.387365 
L 502.828156 -348.67604 
L 499.1135 -351.187784 
L 495.398844 -350.567823 
L 491.684187 -348.508667 
L 487.969531 -346.788045 
L 484.254875 -344.754316 
L 480.540219 -343.380244 
L 476.825562 -341.915529 
L 473.110906 -340.794795 
L 469.39625 -339.865778 
L 465.681594 -337.639451 
L 461.966937 -333.173786 
L 458.252281 -326.514488 
L 454.537625 -318.82693 
L 450.822969 -309.433211 
L 447.108312 -298.056883 
L 443.393656 -285.61157 
L 439.679 -272.939861 
L 435.964344 -261.218433 
L 432.249687 -250.633863 
L 428.535031 -240.22404 
L 424.820375 -231.717319 
L 421.105719 -225.336382 
L 417.391062 -218.072218 
L 413.676406 -208.033976 
L 409.96175 -196.763411 
L 406.247094 -184.098034 
L 402.532438 -173.677801 
L 398.817781 -162.297569 
L 395.103125 -150.535092 
z
"/>
    </defs>
    <g clip-path="url(#paeab271d63)">
     <use xlink:href="#m450a5b3c7e" x="0" y="387.960937" style="fill: #822681; fill-opacity: 0.1"/>
    </g>
   </g>
   <g id="PolyCollection_5">
    <defs>
     <path id="ma3ce0467e3" d="M 395.103125 -148.901731 
L 395.103125 -134.310062 
L 398.817781 -146.726421 
L 402.532438 -159.462422 
L 406.247094 -172.113588 
L 409.96175 -182.934891 
L 413.676406 -193.19253 
L 417.391062 -202.003008 
L 421.105719 -206.937077 
L 424.820375 -211.918064 
L 428.535031 -214.737513 
L 432.249687 -216.869011 
L 435.964344 -218.975434 
L 439.679 -220.73914 
L 443.393656 -222.930809 
L 447.108312 -226.874235 
L 450.822969 -229.698555 
L 454.537625 -231.490152 
L 458.252281 -232.339076 
L 461.966937 -231.966246 
L 465.681594 -230.647137 
L 469.39625 -228.336226 
L 473.110906 -226.113925 
L 476.825562 -224.026097 
L 480.540219 -222.192825 
L 484.254875 -221.058212 
L 487.969531 -220.359725 
L 491.684187 -219.43887 
L 495.398844 -218.304867 
L 499.1135 -217.495612 
L 502.828156 -214.643068 
L 506.542812 -209.78905 
L 510.257469 -204.676858 
L 513.972125 -199.663626 
L 517.686781 -195.28399 
L 521.401437 -190.302392 
L 525.116094 -187.285165 
L 528.83075 -185.829379 
L 532.545406 -184.297743 
L 536.260062 -183.037106 
L 539.974719 -180.205819 
L 543.689375 -177.273105 
L 547.404031 -173.536817 
L 551.118687 -169.495319 
L 554.833344 -165.74517 
L 558.548 -161.917285 
L 562.262656 -159.545007 
L 565.977312 -158.307403 
L 569.691969 -157.771959 
L 573.406625 -156.902924 
L 577.121281 -155.700155 
L 580.835937 -152.898 
L 584.550594 -149.176472 
L 588.26525 -145.041713 
L 591.979906 -141.324624 
L 595.694562 -136.940412 
L 599.409219 -132.34175 
L 603.123875 -128.02345 
L 606.838531 -124.604859 
L 610.553187 -121.784517 
L 614.267844 -119.485463 
L 617.9825 -117.167838 
L 621.697156 -114.451521 
L 625.411812 -111.663692 
L 629.126469 -108.384965 
L 632.841125 -104.802933 
L 636.555781 -100.128688 
L 640.270437 -95.314932 
L 643.985094 -91.272449 
L 647.69975 -87.156396 
L 651.414406 -84.010506 
L 655.129062 -81.991457 
L 658.843719 -79.668223 
L 662.558375 -78.811722 
L 666.273031 -76.845118 
L 669.987687 -73.103743 
L 673.702344 -68.629528 
L 677.417 -63.913535 
L 681.131656 -59.181656 
L 684.846312 -55.067534 
L 688.560969 -51.095183 
L 692.275625 -48.273207 
L 692.275625 -110.252775 
L 692.275625 -110.252775 
L 688.560969 -113.272878 
L 684.846312 -117.582797 
L 681.131656 -123.194958 
L 677.417 -128.563699 
L 673.702344 -133.38938 
L 669.987687 -137.822757 
L 666.273031 -141.843303 
L 662.558375 -145.307901 
L 658.843719 -147.894762 
L 655.129062 -150.596241 
L 651.414406 -154.123567 
L 647.69975 -157.998024 
L 643.985094 -162.499539 
L 640.270437 -168.065765 
L 636.555781 -173.570437 
L 632.841125 -179.236665 
L 629.126469 -185.236241 
L 625.411812 -190.269218 
L 621.697156 -194.518617 
L 617.9825 -198.543734 
L 614.267844 -202.626911 
L 610.553187 -206.282398 
L 606.838531 -210.164087 
L 603.123875 -215.202337 
L 599.409219 -220.26341 
L 595.694562 -226.106049 
L 591.979906 -231.748696 
L 588.26525 -238.341245 
L 584.550594 -245.809301 
L 580.835937 -252.499805 
L 577.121281 -257.333707 
L 573.406625 -260.998449 
L 569.691969 -263.690195 
L 565.977312 -267.188653 
L 562.262656 -271.470364 
L 558.548 -277.408392 
L 554.833344 -282.36497 
L 551.118687 -287.825546 
L 547.404031 -292.485651 
L 543.689375 -298.199767 
L 539.974719 -303.268751 
L 536.260062 -306.732195 
L 532.545406 -309.458056 
L 528.83075 -312.872094 
L 525.116094 -315.301775 
L 521.401437 -317.819685 
L 517.686781 -322.685262 
L 513.972125 -328.053373 
L 510.257469 -332.948312 
L 506.542812 -337.787672 
L 502.828156 -341.540011 
L 499.1135 -343.491657 
L 495.398844 -342.834415 
L 491.684187 -341.892268 
L 487.969531 -339.383744 
L 484.254875 -337.264664 
L 480.540219 -335.836887 
L 476.825562 -334.609392 
L 473.110906 -333.581843 
L 469.39625 -332.79268 
L 465.681594 -330.462202 
L 461.966937 -326.204099 
L 458.252281 -319.298056 
L 454.537625 -311.710194 
L 450.822969 -302.395799 
L 447.108312 -291.794379 
L 443.393656 -280.257627 
L 439.679 -268.891975 
L 435.964344 -258.285567 
L 432.249687 -248.451821 
L 428.535031 -239.176133 
L 424.820375 -231.247122 
L 421.105719 -225.132474 
L 417.391062 -217.736109 
L 413.676406 -207.814632 
L 409.96175 -196.462973 
L 406.247094 -183.716904 
L 402.532438 -173.668718 
L 398.817781 -161.191404 
L 395.103125 -148.901731 
z
"/>
    </defs>
    <g clip-path="url(#paeab271d63)">
     <use xlink:href="#ma3ce0467e3" x="0" y="387.960937" style="fill: #822681; fill-opacity: 0.2"/>
    </g>
   </g>
   <g id="PolyCollection_6">
    <defs>
     <path id="m7079d147b5" d="M 395.103125 -141.498608 
L 395.103125 -136.785918 
L 398.817781 -149.882059 
L 402.532438 -164.428315 
L 406.247094 -178.24237 
L 409.96175 -190.31728 
L 413.676406 -198.402344 
L 417.391062 -205.203119 
L 421.105719 -210.279368 
L 424.820375 -215.218292 
L 428.535031 -222.398586 
L 432.249687 -230.466648 
L 435.964344 -233.083196 
L 439.679 -235.869227 
L 443.393656 -239.348709 
L 447.108312 -242.715617 
L 450.822969 -245.325351 
L 454.537625 -247.332618 
L 458.252281 -249.848623 
L 461.966937 -250.685572 
L 465.681594 -251.01538 
L 469.39625 -249.308856 
L 473.110906 -248.008865 
L 476.825562 -246.697839 
L 480.540219 -244.590187 
L 484.254875 -241.588001 
L 487.969531 -240.973448 
L 491.684187 -242.760254 
L 495.398844 -242.20149 
L 499.1135 -241.287493 
L 502.828156 -239.104806 
L 506.542812 -235.102557 
L 510.257469 -229.9838 
L 513.972125 -224.364265 
L 517.686781 -219.978564 
L 521.401437 -216.823962 
L 525.116094 -215.026721 
L 528.83075 -213.637779 
L 532.545406 -211.93251 
L 536.260062 -209.97842 
L 539.974719 -208.00581 
L 543.689375 -204.827621 
L 547.404031 -201.363663 
L 551.118687 -198.404296 
L 554.833344 -195.000357 
L 558.548 -191.547214 
L 562.262656 -187.931522 
L 565.977312 -185.834334 
L 569.691969 -184.428007 
L 573.406625 -183.413307 
L 577.121281 -181.310191 
L 580.835937 -178.871058 
L 584.550594 -175.044268 
L 588.26525 -170.930808 
L 591.979906 -167.041776 
L 595.694562 -163.231288 
L 599.409219 -159.557856 
L 603.123875 -155.028975 
L 606.838531 -151.899188 
L 610.553187 -149.487738 
L 614.267844 -145.960473 
L 617.9825 -143.203078 
L 621.697156 -140.399242 
L 625.411812 -137.252238 
L 629.126469 -133.458385 
L 632.841125 -129.334352 
L 636.555781 -124.788777 
L 640.270437 -121.58605 
L 643.985094 -118.678642 
L 647.69975 -115.833423 
L 651.414406 -113.971116 
L 655.129062 -113.627797 
L 658.843719 -113.832355 
L 662.558375 -113.354089 
L 666.273031 -109.958222 
L 669.987687 -105.132675 
L 673.702344 -99.589239 
L 677.417 -93.848156 
L 681.131656 -88.453178 
L 684.846312 -83.514192 
L 688.560969 -79.307734 
L 692.275625 -75.914653 
L 692.275625 -103.356035 
L 692.275625 -103.356035 
L 688.560969 -106.056186 
L 684.846312 -110.946952 
L 681.131656 -116.49295 
L 677.417 -122.067366 
L 673.702344 -126.490385 
L 669.987687 -130.48037 
L 666.273031 -134.108343 
L 662.558375 -136.610774 
L 658.843719 -137.974193 
L 655.129062 -140.045531 
L 651.414406 -142.03222 
L 647.69975 -145.58659 
L 643.985094 -149.476261 
L 640.270437 -154.558141 
L 636.555781 -159.745535 
L 632.841125 -164.847587 
L 629.126469 -169.207772 
L 625.411812 -173.710277 
L 621.697156 -177.394933 
L 617.9825 -180.902231 
L 614.267844 -183.441914 
L 610.553187 -185.907236 
L 606.838531 -189.064866 
L 603.123875 -193.013968 
L 599.409219 -197.037445 
L 595.694562 -200.525834 
L 591.979906 -204.761789 
L 588.26525 -210.464351 
L 584.550594 -215.60828 
L 580.835937 -219.863732 
L 577.121281 -224.251225 
L 573.406625 -226.780274 
L 569.691969 -228.321746 
L 565.977312 -229.333425 
L 562.262656 -231.276469 
L 558.548 -234.661331 
L 554.833344 -238.387876 
L 551.118687 -242.323617 
L 547.404031 -246.426624 
L 543.689375 -251.351747 
L 539.974719 -254.839083 
L 536.260062 -257.193941 
L 532.545406 -260.40044 
L 528.83075 -262.393516 
L 525.116094 -263.547432 
L 521.401437 -266.255103 
L 517.686781 -270.20877 
L 513.972125 -273.979269 
L 510.257469 -278.551406 
L 506.542812 -285.074197 
L 502.828156 -290.553694 
L 499.1135 -293.629822 
L 495.398844 -295.170972 
L 491.684187 -295.921552 
L 487.969531 -298.057294 
L 484.254875 -299.663889 
L 480.540219 -302.489547 
L 476.825562 -305.993435 
L 473.110906 -309.442701 
L 469.39625 -311.141647 
L 465.681594 -311.653518 
L 461.966937 -309.59216 
L 458.252281 -306.270993 
L 454.537625 -299.328822 
L 450.822969 -289.647625 
L 447.108312 -278.877401 
L 443.393656 -264.998404 
L 439.679 -254.242517 
L 435.964344 -249.617841 
L 432.249687 -239.161879 
L 428.535031 -233.603982 
L 424.820375 -227.470903 
L 421.105719 -220.334111 
L 417.391062 -212.18904 
L 413.676406 -202.738413 
L 409.96175 -193.620373 
L 406.247094 -183.363448 
L 402.532438 -169.95903 
L 398.817781 -155.00714 
L 395.103125 -141.498608 
z
"/>
    </defs>
    <g clip-path="url(#paeab271d63)">
     <use xlink:href="#m7079d147b5" x="0" y="387.960937" style="fill: #822681; fill-opacity: 0.4"/>
    </g>
   </g>
   <g id="matplotlib.axis_3">
    <g id="xtick_10">
     <g id="line2d_16">
      <g>
       <use xlink:href="#m0b36b59911" x="395.103125" y="367.582812" style="stroke: #000000; stroke-width: 0.8"/>
      </g>
     </g>
     <g id="text_17">
      <!-- 2020 -->
      <g transform="translate(382.378125 378.68125) scale(0.1 -0.1)">
       <use xlink:href="#DejaVuSans-32"/>
       <use xlink:href="#DejaVuSans-30" x="63.623047"/>
       <use xlink:href="#DejaVuSans-32" x="127.246094"/>
       <use xlink:href="#DejaVuSans-30" x="190.869141"/>
      </g>
     </g>
    </g>
    <g id="xtick_11">
     <g id="line2d_17">
      <g>
       <use xlink:href="#m0b36b59911" x="432.249687" y="367.582812" style="stroke: #000000; stroke-width: 0.8"/>
      </g>
     </g>
     <g id="text_18">
      <!-- 2030 -->
      <g transform="translate(419.524687 378.68125) scale(0.1 -0.1)">
       <use xlink:href="#DejaVuSans-32"/>
       <use xlink:href="#DejaVuSans-30" x="63.623047"/>
       <use xlink:href="#DejaVuSans-33" x="127.246094"/>
       <use xlink:href="#DejaVuSans-30" x="190.869141"/>
      </g>
     </g>
    </g>
    <g id="xtick_12">
     <g id="line2d_18">
      <g>
       <use xlink:href="#m0b36b59911" x="469.39625" y="367.582812" style="stroke: #000000; stroke-width: 0.8"/>
      </g>
     </g>
     <g id="text_19">
      <!-- 2040 -->
      <g transform="translate(456.67125 378.68125) scale(0.1 -0.1)">
       <use xlink:href="#DejaVuSans-32"/>
       <use xlink:href="#DejaVuSans-30" x="63.623047"/>
       <use xlink:href="#DejaVuSans-34" x="127.246094"/>
       <use xlink:href="#DejaVuSans-30" x="190.869141"/>
      </g>
     </g>
    </g>
    <g id="xtick_13">
     <g id="line2d_19">
      <g>
       <use xlink:href="#m0b36b59911" x="506.542812" y="367.582812" style="stroke: #000000; stroke-width: 0.8"/>
      </g>
     </g>
     <g id="text_20">
      <!-- 2050 -->
      <g transform="translate(493.817812 378.68125) scale(0.1 -0.1)">
       <use xlink:href="#DejaVuSans-32"/>
       <use xlink:href="#DejaVuSans-30" x="63.623047"/>
       <use xlink:href="#DejaVuSans-35" x="127.246094"/>
       <use xlink:href="#DejaVuSans-30" x="190.869141"/>
      </g>
     </g>
    </g>
    <g id="xtick_14">
     <g id="line2d_20">
      <g>
       <use xlink:href="#m0b36b59911" x="543.689375" y="367.582812" style="stroke: #000000; stroke-width: 0.8"/>
      </g>
     </g>
     <g id="text_21">
      <!-- 2060 -->
      <g transform="translate(530.964375 378.68125) scale(0.1 -0.1)">
       <use xlink:href="#DejaVuSans-32"/>
       <use xlink:href="#DejaVuSans-30" x="63.623047"/>
       <use xlink:href="#DejaVuSans-36" x="127.246094"/>
       <use xlink:href="#DejaVuSans-30" x="190.869141"/>
      </g>
     </g>
    </g>
    <g id="xtick_15">
     <g id="line2d_21">
      <g>
       <use xlink:href="#m0b36b59911" x="580.835937" y="367.582812" style="stroke: #000000; stroke-width: 0.8"/>
      </g>
     </g>
     <g id="text_22">
      <!-- 2070 -->
      <g transform="translate(568.110937 378.68125) scale(0.1 -0.1)">
       <use xlink:href="#DejaVuSans-32"/>
       <use xlink:href="#DejaVuSans-30" x="63.623047"/>
       <use xlink:href="#DejaVuSans-37" x="127.246094"/>
       <use xlink:href="#DejaVuSans-30" x="190.869141"/>
      </g>
     </g>
    </g>
    <g id="xtick_16">
     <g id="line2d_22">
      <g>
       <use xlink:href="#m0b36b59911" x="617.9825" y="367.582812" style="stroke: #000000; stroke-width: 0.8"/>
      </g>
     </g>
     <g id="text_23">
      <!-- 2080 -->
      <g transform="translate(605.2575 378.68125) scale(0.1 -0.1)">
       <use xlink:href="#DejaVuSans-32"/>
       <use xlink:href="#DejaVuSans-30" x="63.623047"/>
       <use xlink:href="#DejaVuSans-38" x="127.246094"/>
       <use xlink:href="#DejaVuSans-30" x="190.869141"/>
      </g>
     </g>
    </g>
    <g id="xtick_17">
     <g id="line2d_23">
      <g>
       <use xlink:href="#m0b36b59911" x="655.129062" y="367.582812" style="stroke: #000000; stroke-width: 0.8"/>
      </g>
     </g>
     <g id="text_24">
      <!-- 2090 -->
      <g transform="translate(642.404062 378.68125) scale(0.1 -0.1)">
       <use xlink:href="#DejaVuSans-32"/>
       <use xlink:href="#DejaVuSans-30" x="63.623047"/>
       <use xlink:href="#DejaVuSans-39" x="127.246094"/>
       <use xlink:href="#DejaVuSans-30" x="190.869141"/>
      </g>
     </g>
    </g>
    <g id="xtick_18">
     <g id="line2d_24">
      <g>
       <use xlink:href="#m0b36b59911" x="692.275625" y="367.582812" style="stroke: #000000; stroke-width: 0.8"/>
      </g>
     </g>
     <g id="text_25">
      <!-- 2100 -->
      <g transform="translate(679.550625 378.68125) scale(0.1 -0.1)">
       <use xlink:href="#DejaVuSans-32"/>
       <use xlink:href="#DejaVuSans-31" x="63.623047"/>
       <use xlink:href="#DejaVuSans-30" x="127.246094"/>
       <use xlink:href="#DejaVuSans-30" x="190.869141"/>
      </g>
     </g>
    </g>
   </g>
   <g id="matplotlib.axis_4">
    <g id="ytick_5">
     <g id="line2d_25">
      <g>
       <use xlink:href="#mefa8caca21" x="395.103125" y="341.955451" style="stroke: #000000; stroke-width: 0.8"/>
      </g>
     </g>
     <g id="text_26">
      <!-- 1.0 -->
      <g transform="translate(375.7 345.75467) scale(0.1 -0.1)">
       <use xlink:href="#DejaVuSans-31"/>
       <use xlink:href="#DejaVuSans-2e" x="63.623047"/>
       <use xlink:href="#DejaVuSans-30" x="95.410156"/>
      </g>
     </g>
    </g>
    <g id="ytick_6">
     <g id="line2d_26">
      <g>
       <use xlink:href="#mefa8caca21" x="395.103125" y="261.264355" style="stroke: #000000; stroke-width: 0.8"/>
      </g>
     </g>
     <g id="text_27">
      <!-- 1.2 -->
      <g transform="translate(375.7 265.063574) scale(0.1 -0.1)">
       <use xlink:href="#DejaVuSans-31"/>
       <use xlink:href="#DejaVuSans-2e" x="63.623047"/>
       <use xlink:href="#DejaVuSans-32" x="95.410156"/>
      </g>
     </g>
    </g>
    <g id="ytick_7">
     <g id="line2d_27">
      <g>
       <use xlink:href="#mefa8caca21" x="395.103125" y="180.57326" style="stroke: #000000; stroke-width: 0.8"/>
      </g>
     </g>
     <g id="text_28">
      <!-- 1.4 -->
      <g transform="translate(375.7 184.372478) scale(0.1 -0.1)">
       <use xlink:href="#DejaVuSans-31"/>
       <use xlink:href="#DejaVuSans-2e" x="63.623047"/>
       <use xlink:href="#DejaVuSans-34" x="95.410156"/>
      </g>
     </g>
    </g>
    <g id="ytick_8">
     <g id="line2d_28">
      <g>
       <use xlink:href="#mefa8caca21" x="395.103125" y="99.882164" style="stroke: #000000; stroke-width: 0.8"/>
      </g>
     </g>
     <g id="text_29">
      <!-- 1.6 -->
      <g transform="translate(375.7 103.681383) scale(0.1 -0.1)">
       <use xlink:href="#DejaVuSans-31"/>
       <use xlink:href="#DejaVuSans-2e" x="63.623047"/>
       <use xlink:href="#DejaVuSans-36" x="95.410156"/>
      </g>
     </g>
    </g>
    <g id="text_30">
     <!-- °C -->
     <g transform="translate(369.620312 199.876562) rotate(-90) scale(0.1 -0.1)">
      <defs>
       <path id="HardingTextWeb-Regular-b0" d="M 275 3584 
Q 275 4077 601 4384 
Q 928 4691 1389 4691 
Q 1613 4691 1817 4611 
Q 2022 4531 2172 4384 
Q 2323 4237 2409 4032 
Q 2496 3827 2496 3584 
Q 2496 3341 2409 3139 
Q 2323 2938 2172 2794 
Q 2022 2650 1817 2570 
Q 1613 2490 1389 2490 
Q 928 2490 601 2797 
Q 275 3104 275 3584 
z
M 2086 3584 
Q 2086 3923 1884 4131 
Q 1683 4339 1389 4339 
Q 1094 4339 889 4131 
Q 685 3923 685 3584 
Q 685 3258 889 3050 
Q 1094 2842 1389 2842 
Q 1683 2842 1884 3050 
Q 2086 3258 2086 3584 
z
" transform="scale(0.015625)"/>
       <path id="HardingTextWeb-Regular-43" d="M 2547 294 
Q 2822 294 3036 374 
Q 3251 454 3417 576 
Q 3584 698 3715 848 
Q 3846 998 3955 1133 
L 4013 1133 
L 3949 339 
Q 3744 179 3373 51 
Q 3002 -77 2496 -77 
Q 2010 -77 1603 86 
Q 1197 250 909 557 
Q 621 864 461 1309 
Q 301 1754 301 2310 
Q 301 2874 489 3322 
Q 678 3770 985 4074 
Q 1293 4378 1696 4538 
Q 2099 4698 2528 4698 
Q 2912 4698 3280 4624 
Q 3648 4550 3878 4410 
L 3962 3565 
L 3898 3565 
Q 3616 3930 3293 4128 
Q 2970 4326 2528 4326 
Q 1888 4326 1523 3811 
Q 1158 3296 1158 2368 
Q 1158 1376 1539 835 
Q 1920 294 2547 294 
z
" transform="scale(0.015625)"/>
      </defs>
      <use xlink:href="#HardingTextWeb-Regular-b0"/>
      <use xlink:href="#HardingTextWeb-Regular-43" x="43.299988"/>
     </g>
    </g>
   </g>
   <g id="line2d_29">
    <path d="M 395.103125 248.620258 
L 398.817781 234.563191 
L 402.532438 219.62279 
L 406.247094 206.446104 
L 409.96175 195.620966 
L 413.676406 186.794079 
L 417.391062 177.570772 
L 421.105719 171.088387 
L 424.820375 165.748591 
L 428.535031 160.037047 
L 432.249687 153.897335 
L 435.964344 146.158255 
L 439.679 139.091334 
L 443.393656 132.958544 
L 447.108312 126.655979 
L 450.822969 121.624788 
L 454.537625 116.645042 
L 458.252281 114.315276 
L 461.966937 112.474895 
L 465.681594 111.064142 
L 469.39625 113.141444 
L 473.110906 114.9335 
L 476.825562 116.896679 
L 480.540219 118.167657 
L 484.254875 117.856449 
L 487.969531 116.976121 
L 491.684187 115.331525 
L 495.398844 114.063347 
L 499.1135 113.043608 
L 502.828156 113.265064 
L 506.542812 115.956699 
L 510.257469 119.470521 
L 513.972125 123.061961 
L 517.686781 127.046922 
L 521.401437 130.392294 
L 525.116094 132.511196 
L 528.83075 133.962757 
L 532.545406 135.811978 
L 536.260062 137.172317 
L 539.974719 139.341144 
L 543.689375 142.869905 
L 547.404031 147.761461 
L 551.118687 153.338712 
L 554.833344 158.171832 
L 558.548 161.985582 
L 562.262656 166.253006 
L 565.977312 169.255879 
L 569.691969 170.659876 
L 573.406625 172.094718 
L 577.121281 174.593918 
L 580.835937 178.736239 
L 584.550594 183.298131 
L 588.26525 188.432706 
L 591.979906 192.751988 
L 595.694562 198.352454 
L 599.409219 203.261509 
L 603.123875 206.635027 
L 606.838531 210.916356 
L 610.553187 213.472662 
L 614.267844 215.481349 
L 617.9825 217.934935 
L 621.697156 221.590078 
L 625.411812 225.167308 
L 629.126469 229.33027 
L 632.841125 233.732968 
L 636.555781 238.07533 
L 640.270437 242.806965 
L 643.985094 247.322028 
L 647.69975 251.816375 
L 651.414406 254.470749 
L 655.129062 256.314023 
L 658.843719 259.083836 
L 662.558375 260.334524 
L 666.273031 262.509757 
L 669.987687 265.845827 
L 673.702344 270.744252 
L 677.417 275.28489 
L 681.131656 280.066629 
L 684.846312 285.557849 
L 688.560969 288.814339 
L 692.275625 291.624431 
" clip-path="url(#paeab271d63)" style="fill: none; stroke: #822681; stroke-width: 2; stroke-linecap: square"/>
   </g>
   <g id="line2d_30">
    <path d="M 395.103125 140.227712 
L 692.275625 140.227712 
" clip-path="url(#paeab271d63)" style="fill: none; stroke-dasharray: 5.55,2.4; stroke-dashoffset: 0; stroke: #000000; stroke-width: 1.5"/>
   </g>
   <g id="patch_6">
    <path d="M 395.103125 367.582812 
L 395.103125 21.020312 
" style="fill: none; stroke: #000000; stroke-width: 0.8; stroke-linejoin: miter; stroke-linecap: square"/>
   </g>
   <g id="patch_7">
    <path d="M 395.103125 367.582812 
L 692.275625 367.582812 
" style="fill: none; stroke: #000000; stroke-width: 0.8; stroke-linejoin: miter; stroke-linecap: square"/>
   </g>
   <g id="text_31">
    <!-- 1.5°C -->
    <g transform="translate(398.817781 132.158602) scale(0.1 -0.1)">
     <defs>
      <path id="HardingTextWeb-Regular-35" d="M 1325 256 
Q 1792 256 2035 496 
Q 2278 736 2278 1254 
Q 2278 1478 2198 1673 
Q 2118 1869 1923 2038 
Q 1728 2208 1382 2352 
Q 1037 2496 512 2624 
L 1037 4621 
L 2995 4621 
L 2784 3910 
Q 2637 3942 2368 3968 
Q 2099 3994 1862 3994 
L 1197 3994 
L 998 3213 
Q 1421 3110 1785 2966 
Q 2150 2822 2412 2620 
Q 2675 2419 2822 2153 
Q 2970 1888 2970 1549 
Q 2970 1165 2838 861 
Q 2707 557 2486 349 
Q 2266 141 1965 32 
Q 1664 -77 1325 -77 
Q 934 -77 697 -9 
Q 461 58 224 166 
L 160 826 
Q 410 602 720 429 
Q 1030 256 1325 256 
z
" transform="scale(0.015625)"/>
     </defs>
     <use xlink:href="#HardingTextWeb-Regular-31"/>
     <use xlink:href="#HardingTextWeb-Regular-2e" x="41.799988"/>
     <use xlink:href="#HardingTextWeb-Regular-35" x="68.799973"/>
     <use xlink:href="#HardingTextWeb-Regular-b0" x="119.999969"/>
     <use xlink:href="#HardingTextWeb-Regular-43" x="163.299957"/>
    </g>
   </g>
   <g id="text_32">
    <!-- (b) -->
    <g transform="translate(536.974531 15.020312) scale(0.1 -0.1)">
     <defs>
      <path id="HardingTextWeb-Regular-62" d="M 1146 3987 
L 1146 2944 
L 1165 2944 
Q 1254 3142 1584 3321 
Q 1914 3501 2336 3501 
Q 2906 3501 3245 3072 
Q 3584 2643 3584 1824 
Q 3584 1434 3481 1085 
Q 3379 736 3168 480 
Q 2957 224 2630 73 
Q 2304 -77 1850 -77 
Q 1446 -77 1097 6 
Q 749 90 461 250 
L 461 3872 
Q 461 4147 390 4371 
Q 320 4595 218 4698 
L 1133 5005 
L 1184 4966 
L 1146 3987 
z
M 1152 486 
Q 1254 403 1468 332 
Q 1683 262 1856 262 
Q 2355 262 2592 643 
Q 2829 1024 2829 1715 
Q 2829 2349 2624 2665 
Q 2419 2982 1958 2982 
Q 1741 2982 1494 2876 
Q 1248 2771 1152 2643 
L 1152 486 
z
" transform="scale(0.015625)"/>
     </defs>
     <use xlink:href="#HardingTextWeb-Regular-28"/>
     <use xlink:href="#HardingTextWeb-Regular-62" x="36.799988"/>
     <use xlink:href="#HardingTextWeb-Regular-29" x="97.499985"/>
    </g>
   </g>
  </g>
  <g id="legend_1">
   <g id="line2d_31">
    <path d="M 55.255625 345.883125 
L 65.255625 345.883125 
L 75.255625 345.883125 
" style="fill: none; stroke: #822681; stroke-width: 2; stroke-linecap: square"/>
   </g>
   <g id="text_33">
    <!-- 50th percentile -->
    <g transform="translate(83.255625 349.383125) scale(0.1 -0.1)">
     <defs>
      <path id="HardingTextWeb-Regular-30" d="M 2112 4691 
Q 2509 4691 2838 4537 
Q 3168 4384 3405 4089 
Q 3642 3795 3776 3356 
Q 3910 2918 3910 2355 
Q 3910 1766 3760 1308 
Q 3610 851 3363 547 
Q 3117 243 2793 83 
Q 2470 -77 2125 -77 
Q 1734 -77 1404 76 
Q 1075 230 838 524 
Q 602 819 467 1260 
Q 333 1702 333 2266 
Q 333 2854 483 3308 
Q 634 3763 877 4070 
Q 1120 4378 1443 4534 
Q 1766 4691 2112 4691 
z
M 2125 269 
Q 2605 269 2851 755 
Q 3098 1242 3098 2342 
Q 3098 3443 2845 3894 
Q 2592 4346 2112 4346 
Q 1638 4346 1388 3862 
Q 1139 3379 1139 2278 
Q 1139 1178 1395 723 
Q 1651 269 2125 269 
z
" transform="scale(0.015625)"/>
      <path id="HardingTextWeb-Regular-74" d="M 2304 538 
Q 2298 461 2285 419 
Q 2272 378 2246 314 
Q 2176 141 1987 32 
Q 1798 -77 1498 -77 
Q 1030 -77 793 163 
Q 557 403 557 890 
L 557 2989 
L 102 2989 
L 102 3046 
L 1197 4141 
L 1248 4102 
L 1248 3424 
L 2182 3424 
L 2106 2989 
L 1248 2989 
L 1248 934 
Q 1248 659 1398 544 
Q 1549 429 1773 429 
Q 1933 429 2067 457 
Q 2202 486 2304 538 
z
" transform="scale(0.015625)"/>
      <path id="HardingTextWeb-Regular-68" d="M 3322 1158 
Q 3322 883 3344 563 
Q 3366 243 3443 0 
L 2522 0 
Q 2592 230 2611 512 
Q 2630 794 2630 1107 
L 2630 2426 
Q 2630 2701 2483 2825 
Q 2336 2950 2035 2950 
Q 1798 2950 1593 2886 
Q 1389 2822 1242 2669 
L 1242 1107 
Q 1242 794 1261 512 
Q 1280 230 1350 0 
L 435 0 
Q 512 243 531 563 
Q 550 883 550 1158 
L 550 3872 
Q 550 4154 480 4374 
Q 410 4595 307 4704 
L 1222 5005 
L 1274 4966 
L 1242 3955 
L 1242 2931 
L 1261 2931 
Q 1382 3168 1683 3334 
Q 1984 3501 2374 3501 
Q 2893 3501 3107 3264 
Q 3322 3027 3322 2522 
L 3322 1158 
z
" transform="scale(0.015625)"/>
      <path id="HardingTextWeb-Regular-20" transform="scale(0.015625)"/>
      <path id="HardingTextWeb-Regular-70" d="M 1242 -173 
Q 1242 -486 1274 -793 
Q 1306 -1101 1376 -1331 
L 429 -1331 
Q 506 -1088 528 -768 
Q 550 -448 550 -173 
L 550 2362 
Q 550 2637 473 2870 
Q 397 3104 288 3206 
L 1216 3482 
L 1242 3462 
L 1229 2931 
L 1248 2931 
Q 1331 3130 1612 3315 
Q 1894 3501 2317 3501 
Q 2598 3501 2844 3395 
Q 3091 3290 3270 3085 
Q 3450 2880 3552 2563 
Q 3654 2246 3654 1830 
Q 3654 1478 3555 1132 
Q 3456 787 3248 521 
Q 3040 256 2717 89 
Q 2394 -77 1946 -77 
Q 1760 -77 1581 -51 
Q 1402 -26 1242 26 
L 1242 -173 
z
M 1242 544 
Q 1344 442 1523 355 
Q 1702 269 1946 269 
Q 2458 269 2688 656 
Q 2918 1043 2918 1734 
Q 2918 2368 2684 2688 
Q 2451 3008 1990 3008 
Q 1779 3008 1555 2886 
Q 1331 2765 1242 2643 
L 1242 544 
z
" transform="scale(0.015625)"/>
      <path id="HardingTextWeb-Regular-65" d="M 3162 781 
Q 3040 448 2707 185 
Q 2374 -77 1811 -77 
Q 1510 -77 1228 28 
Q 947 134 736 345 
Q 525 557 397 880 
Q 269 1203 269 1626 
Q 269 2042 384 2387 
Q 499 2733 704 2979 
Q 909 3226 1193 3363 
Q 1478 3501 1811 3501 
Q 2496 3501 2819 3085 
Q 3142 2669 3142 1869 
L 966 1869 
L 966 1792 
Q 966 1082 1283 781 
Q 1600 480 2086 480 
Q 2528 480 2777 624 
Q 3027 768 3149 902 
L 3162 781 
z
M 1798 3168 
Q 1459 3168 1251 2909 
Q 1043 2650 986 2163 
L 2426 2202 
Q 2413 2662 2288 2915 
Q 2163 3168 1798 3168 
z
" transform="scale(0.015625)"/>
      <path id="HardingTextWeb-Regular-72" d="M 1261 3462 
L 1242 2720 
L 1274 2720 
Q 1318 2861 1395 3001 
Q 1472 3142 1581 3251 
Q 1690 3360 1837 3430 
Q 1984 3501 2170 3501 
Q 2227 3501 2326 3485 
Q 2426 3469 2458 3456 
L 2394 2765 
L 2362 2765 
Q 2304 2803 2189 2838 
Q 2074 2874 1952 2874 
Q 1626 2874 1459 2650 
Q 1293 2426 1293 2131 
L 1293 1133 
Q 1293 813 1315 521 
Q 1338 230 1408 0 
L 480 0 
Q 557 243 579 563 
Q 602 883 602 1158 
L 602 2362 
Q 602 2637 525 2870 
Q 448 3104 339 3206 
L 1235 3482 
L 1261 3462 
z
" transform="scale(0.015625)"/>
      <path id="HardingTextWeb-Regular-63" d="M 3046 749 
Q 3002 595 2902 448 
Q 2803 301 2652 185 
Q 2502 70 2291 -3 
Q 2080 -77 1811 -77 
Q 1491 -77 1206 38 
Q 922 154 717 371 
Q 512 589 390 905 
Q 269 1222 269 1626 
Q 269 2086 416 2435 
Q 563 2784 800 3021 
Q 1037 3258 1341 3376 
Q 1645 3494 1965 3494 
Q 2528 3494 2768 3283 
Q 3008 3072 3008 2829 
Q 3008 2650 2918 2547 
Q 2829 2445 2650 2445 
Q 2490 2445 2410 2550 
Q 2330 2656 2304 2854 
Q 2291 3053 2220 3107 
Q 2150 3162 1933 3162 
Q 1542 3162 1254 2806 
Q 966 2451 966 1830 
Q 966 1139 1264 803 
Q 1562 467 2042 467 
Q 2368 467 2621 572 
Q 2874 678 3034 858 
L 3046 749 
z
" transform="scale(0.015625)"/>
      <path id="HardingTextWeb-Regular-6e" d="M 288 3206 
L 1190 3482 
L 1216 3462 
L 1197 2886 
L 1222 2886 
Q 1344 3130 1664 3315 
Q 1984 3501 2374 3501 
Q 2893 3501 3104 3261 
Q 3315 3021 3315 2515 
L 3315 1158 
Q 3315 883 3337 563 
Q 3360 243 3437 0 
L 2515 0 
Q 2586 230 2605 512 
Q 2624 794 2624 1107 
L 2624 2426 
Q 2624 2701 2480 2825 
Q 2336 2950 2035 2950 
Q 1798 2950 1596 2870 
Q 1395 2790 1242 2637 
L 1242 1107 
Q 1242 794 1261 512 
Q 1280 230 1350 0 
L 429 0 
Q 506 243 528 563 
Q 550 883 550 1158 
L 550 2362 
Q 550 2637 473 2870 
Q 397 3104 288 3206 
z
" transform="scale(0.015625)"/>
      <path id="HardingTextWeb-Regular-69" d="M 915 3942 
Q 723 3942 601 4064 
Q 480 4186 480 4365 
Q 480 4544 601 4665 
Q 723 4787 915 4787 
Q 1114 4787 1235 4665 
Q 1357 4544 1357 4365 
Q 1357 4186 1235 4064 
Q 1114 3942 915 3942 
z
M 1389 0 
L 454 0 
Q 531 243 553 563 
Q 576 883 576 1158 
L 576 2362 
Q 576 2637 499 2870 
Q 422 3104 314 3206 
L 1248 3482 
L 1299 3443 
Q 1293 3411 1286 3283 
Q 1280 3155 1277 3008 
Q 1274 2861 1270 2733 
Q 1267 2605 1267 2566 
L 1267 1158 
Q 1267 883 1289 563 
Q 1312 243 1389 0 
z
" transform="scale(0.015625)"/>
      <path id="HardingTextWeb-Regular-6c" d="M 1376 0 
L 448 0 
Q 525 243 547 563 
Q 570 883 570 1158 
L 570 3853 
Q 570 4128 493 4361 
Q 416 4595 307 4704 
L 1235 5005 
L 1286 4966 
Q 1286 4934 1280 4809 
Q 1274 4685 1267 4541 
Q 1261 4397 1257 4269 
Q 1254 4141 1254 4102 
L 1254 1158 
Q 1254 883 1276 563 
Q 1299 243 1376 0 
z
" transform="scale(0.015625)"/>
     </defs>
     <use xlink:href="#HardingTextWeb-Regular-35"/>
     <use xlink:href="#HardingTextWeb-Regular-30" x="51.199997"/>
     <use xlink:href="#HardingTextWeb-Regular-74" x="117.499985"/>
     <use xlink:href="#HardingTextWeb-Regular-68" x="155.799973"/>
     <use xlink:href="#HardingTextWeb-Regular-20" x="215.59996"/>
     <use xlink:href="#HardingTextWeb-Regular-70" x="233.199951"/>
     <use xlink:href="#HardingTextWeb-Regular-65" x="294.999939"/>
     <use xlink:href="#HardingTextWeb-Regular-72" x="348.199936"/>
     <use xlink:href="#HardingTextWeb-Regular-63" x="389.699921"/>
     <use xlink:href="#HardingTextWeb-Regular-65" x="440.899918"/>
     <use xlink:href="#HardingTextWeb-Regular-6e" x="494.099915"/>
     <use xlink:href="#HardingTextWeb-Regular-74" x="553.799911"/>
     <use xlink:href="#HardingTextWeb-Regular-69" x="592.099899"/>
     <use xlink:href="#HardingTextWeb-Regular-6c" x="620.69989"/>
     <use xlink:href="#HardingTextWeb-Regular-65" x="649.199875"/>
    </g>
   </g>
  </g>
 </g>
 <defs>
  <clipPath id="p96c38755f0">
   <rect x="40.503125" y="21.020312" width="297.1725" height="346.5625"/>
  </clipPath>
  <clipPath id="paeab271d63">
   <rect x="395.103125" y="21.020312" width="297.1725" height="346.5625"/>
  </clipPath>
 </defs>
</svg>
