<?xml version="1.0" encoding="utf-8" standalone="no"?>
<!DOCTYPE svg PUBLIC "-//W3C//DTD SVG 1.1//EN"
  "http://www.w3.org/Graphics/SVG/1.1/DTD/svg11.dtd">
<svg xmlns:xlink="http://www.w3.org/1999/xlink" width="728.39952pt" height="404.39952pt" viewBox="0 0 728.39952 404.39952" xmlns="http://www.w3.org/2000/svg" version="1.1">
 <metadata>
  <rdf:RDF xmlns:dc="http://purl.org/dc/elements/1.1/" xmlns:cc="http://creativecommons.org/ns#" xmlns:rdf="http://www.w3.org/1999/02/22-rdf-syntax-ns#">
   <cc:Work>
    <dc:type rdf:resource="http://purl.org/dc/dcmitype/StillImage"/>
    <dc:date>2025-01-19T21:28:27.738491</dc:date>
    <dc:format>image/svg+xml</dc:format>
    <dc:creator>
     <cc:Agent>
      <dc:title>Matplotlib v3.8.4, https://matplotlib.org/</dc:title>
     </cc:Agent>
    </dc:creator>
   </cc:Work>
  </rdf:RDF>
 </metadata>
 <defs>
  <style type="text/css">*{stroke-linejoin: round; stroke-linecap: butt}</style>
 </defs>
 <g id="figure_1">
  <g id="patch_1">
   <path d="M 0 404.39952 
L 728.39952 404.39952 
L 728.39952 0 
L 0 0 
L 0 404.39952 
z
" style="fill: none"/>
  </g>
  <g id="axes_1">
   <g id="patch_2">
    <path d="M 43.6875 384.021395 
L 198.802448 384.021395 
L 198.802448 21.020312 
L 43.6875 21.020312 
L 43.6875 384.021395 
z
" style="fill: none"/>
   </g>
   <g id="PolyCollection_1">
    <defs>
     <path id="m8967f368a8" d="M 43.6875 -18.828409 
L 43.6875 -13.041092 
L 48.857998 -26.033684 
L 54.028497 -38.002896 
L 59.198995 -48.948729 
L 64.369493 -58.871182 
L 69.539991 -67.770255 
L 74.71049 -76.096118 
L 79.880988 -83.848771 
L 85.051486 -91.028215 
L 90.221985 -97.634449 
L 95.392483 -103.667472 
L 100.562981 -109.190532 
L 105.733479 -114.203626 
L 110.903978 -118.706755 
L 116.074476 -122.69992 
L 121.244974 -126.18312 
L 126.415473 -129.184398 
L 131.585971 -131.703756 
L 136.756469 -133.741192 
L 141.926967 -135.296707 
L 147.097466 -136.3703 
L 152.267964 -137.133207 
L 157.438462 -137.585428 
L 162.608961 -137.726962 
L 167.779459 -137.55781 
L 172.949957 -137.077971 
L 178.120455 -136.436466 
L 183.290954 -135.633295 
L 188.461452 -134.668459 
L 193.63195 -133.541956 
L 198.802448 -132.253788 
L 198.802448 -374.72205 
L 198.802448 -374.72205 
L 193.63195 -376.313613 
L 188.461452 -377.048939 
L 183.290954 -376.928028 
L 178.120455 -375.950879 
L 172.949957 -374.117494 
L 167.779459 -371.427871 
L 162.608961 -367.584971 
L 157.438462 -362.588795 
L 152.267964 -356.439342 
L 147.097466 -349.136613 
L 141.926967 -340.680607 
L 136.756469 -331.025309 
L 131.585971 -320.170719 
L 126.415473 -308.116838 
L 121.244974 -294.863665 
L 116.074476 -280.4112 
L 110.903978 -265.054477 
L 105.733479 -248.793496 
L 100.562981 -231.628256 
L 95.392483 -213.558758 
L 90.221985 -194.585002 
L 85.051486 -175.477897 
L 79.880988 -156.237443 
L 74.71049 -136.86364 
L 69.539991 -117.356489 
L 64.369493 -97.715988 
L 59.198995 -78.04293 
L 54.028497 -58.337314 
L 48.857998 -38.599141 
L 43.6875 -18.828409 
z
"/>
    </defs>
    <g clip-path="url(#pd811540e01)">
     <use xlink:href="#m8967f368a8" x="0" y="404.39952" style="fill: #822681; fill-opacity: 0.1"/>
    </g>
   </g>
   <g id="PolyCollection_2">
    <defs>
     <path id="m231e4c6c74" d="M 43.6875 -18.642168 
L 43.6875 -14.66248 
L 48.857998 -29.5623 
L 54.028497 -43.551542 
L 59.198995 -56.52482 
L 64.369493 -68.563666 
L 69.539991 -79.66808 
L 74.71049 -90.027741 
L 79.880988 -99.642649 
L 85.051486 -108.512803 
L 90.221985 -116.638203 
L 95.392483 -124.018851 
L 100.562981 -130.880851 
L 105.733479 -137.224205 
L 110.903978 -143.048913 
L 116.074476 -148.354974 
L 121.244974 -153.142388 
L 126.415473 -157.497245 
L 131.585971 -161.419544 
L 136.756469 -164.203237 
L 141.926967 -164.076828 
L 147.097466 -163.376656 
L 152.267964 -162.431173 
L 157.438462 -161.240379 
L 162.608961 -159.804275 
L 167.779459 -158.12286 
L 172.949957 -156.196134 
L 178.120455 -154.197857 
L 183.290954 -152.128029 
L 188.461452 -149.986648 
L 193.63195 -147.773716 
L 198.802448 -145.489233 
L 198.802448 -344.994119 
L 198.802448 -344.994119 
L 193.63195 -346.450159 
L 188.461452 -347.254565 
L 183.290954 -347.265983 
L 178.120455 -346.484413 
L 172.949957 -344.909854 
L 167.779459 -342.542307 
L 162.608961 -339.136837 
L 157.438462 -334.693444 
L 152.267964 -329.212127 
L 147.097466 -322.692886 
L 141.926967 -315.135723 
L 136.756469 -306.465084 
L 131.585971 -296.68097 
L 126.415473 -285.783381 
L 121.244974 -273.772317 
L 116.074476 -261.607475 
L 110.903978 -248.442202 
L 105.733479 -234.178707 
L 100.562981 -218.816991 
L 95.392483 -202.357053 
L 90.221985 -184.798895 
L 85.051486 -167.044076 
L 79.880988 -149.092596 
L 74.71049 -130.944456 
L 69.539991 -112.599656 
L 64.369493 -94.058195 
L 59.198995 -75.361683 
L 54.028497 -56.510119 
L 48.857998 -37.56548 
L 43.6875 -18.642168 
z
"/>
    </defs>
    <g clip-path="url(#pd811540e01)">
     <use xlink:href="#m231e4c6c74" x="0" y="404.39952" style="fill: #822681; fill-opacity: 0.2"/>
    </g>
   </g>
   <g id="PolyCollection_3">
    <defs>
     <path id="mfc3c20eb63" d="M 43.6875 -18.138263 
L 43.6875 -16.595304 
L 48.857998 -33.487459 
L 54.028497 -49.677876 
L 59.198995 -65.174458 
L 64.369493 -79.977205 
L 69.539991 -93.838387 
L 74.71049 -106.033741 
L 79.880988 -117.147349 
L 85.051486 -127.179211 
L 90.221985 -136.940263 
L 95.392483 -146.573715 
L 100.562981 -155.47608 
L 105.733479 -163.647358 
L 110.903978 -171.748127 
L 116.074476 -179.479704 
L 121.244974 -186.593263 
L 126.415473 -191.337709 
L 131.585971 -194.90367 
L 136.756469 -197.841327 
L 141.926967 -200.150679 
L 147.097466 -201.91076 
L 152.267964 -204.16307 
L 157.438462 -207.737517 
L 162.608961 -210.880097 
L 167.779459 -212.179241 
L 172.949957 -211.207826 
L 178.120455 -209.797132 
L 183.290954 -208.13474 
L 188.461452 -206.22065 
L 193.63195 -204.05486 
L 198.802448 -201.637372 
L 198.802448 -276.337798 
L 198.802448 -276.337798 
L 193.63195 -276.19664 
L 188.461452 -275.633372 
L 183.290954 -274.647994 
L 178.120455 -273.240505 
L 172.949957 -271.410906 
L 167.779459 -269.159197 
L 162.608961 -266.449808 
L 157.438462 -263.282738 
L 152.267964 -259.657988 
L 147.097466 -255.575557 
L 141.926967 -251.035447 
L 136.756469 -245.851776 
L 131.585971 -240.024546 
L 126.415473 -233.553756 
L 121.244974 -226.439406 
L 116.074476 -218.681497 
L 110.903978 -209.918064 
L 105.733479 -200.149107 
L 100.562981 -189.374627 
L 95.392483 -177.594623 
L 90.221985 -165.413535 
L 85.051486 -152.734167 
L 79.880988 -138.867947 
L 74.71049 -123.814873 
L 69.539991 -107.467135 
L 64.369493 -89.918578 
L 59.198995 -72.726679 
L 54.028497 -55.011639 
L 48.857998 -36.853927 
L 43.6875 -18.138263 
z
"/>
    </defs>
    <g clip-path="url(#pd811540e01)">
     <use xlink:href="#mfc3c20eb63" x="0" y="404.39952" style="fill: #822681; fill-opacity: 0.4"/>
    </g>
   </g>
   <g id="matplotlib.axis_1">
    <g id="xtick_1">
     <g id="line2d_1">
      <defs>
       <path id="m8a44588abf" d="M 0 0 
L 0 -3.5 
" style="stroke: #000000; stroke-width: 0.8"/>
      </defs>
      <g>
       <use xlink:href="#m8a44588abf" x="43.6875" y="384.021395" style="stroke: #000000; stroke-width: 0.8"/>
      </g>
     </g>
     <g id="text_1">
      <!-- 2020 -->
      <g transform="translate(30.9625 395.119832) scale(0.1 -0.1)">
       <defs>
        <path id="DejaVuSans-32" d="M 1228 531 
L 3431 531 
L 3431 0 
L 469 0 
L 469 531 
Q 828 903 1448 1529 
Q 2069 2156 2228 2338 
Q 2531 2678 2651 2914 
Q 2772 3150 2772 3378 
Q 2772 3750 2511 3984 
Q 2250 4219 1831 4219 
Q 1534 4219 1204 4116 
Q 875 4013 500 3803 
L 500 4441 
Q 881 4594 1212 4672 
Q 1544 4750 1819 4750 
Q 2544 4750 2975 4387 
Q 3406 4025 3406 3419 
Q 3406 3131 3298 2873 
Q 3191 2616 2906 2266 
Q 2828 2175 2409 1742 
Q 1991 1309 1228 531 
z
" transform="scale(0.015625)"/>
        <path id="DejaVuSans-30" d="M 2034 4250 
Q 1547 4250 1301 3770 
Q 1056 3291 1056 2328 
Q 1056 1369 1301 889 
Q 1547 409 2034 409 
Q 2525 409 2770 889 
Q 3016 1369 3016 2328 
Q 3016 3291 2770 3770 
Q 2525 4250 2034 4250 
z
M 2034 4750 
Q 2819 4750 3233 4129 
Q 3647 3509 3647 2328 
Q 3647 1150 3233 529 
Q 2819 -91 2034 -91 
Q 1250 -91 836 529 
Q 422 1150 422 2328 
Q 422 3509 836 4129 
Q 1250 4750 2034 4750 
z
" transform="scale(0.015625)"/>
       </defs>
       <use xlink:href="#DejaVuSans-32"/>
       <use xlink:href="#DejaVuSans-30" x="63.623047"/>
       <use xlink:href="#DejaVuSans-32" x="127.246094"/>
       <use xlink:href="#DejaVuSans-30" x="190.869141"/>
      </g>
     </g>
    </g>
    <g id="xtick_2">
     <g id="line2d_2">
      <g>
       <use xlink:href="#m8a44588abf" x="95.392483" y="384.021395" style="stroke: #000000; stroke-width: 0.8"/>
      </g>
     </g>
     <g id="text_2">
      <!-- 2030 -->
      <g transform="translate(82.667483 395.119832) scale(0.1 -0.1)">
       <defs>
        <path id="DejaVuSans-33" d="M 2597 2516 
Q 3050 2419 3304 2112 
Q 3559 1806 3559 1356 
Q 3559 666 3084 287 
Q 2609 -91 1734 -91 
Q 1441 -91 1130 -33 
Q 819 25 488 141 
L 488 750 
Q 750 597 1062 519 
Q 1375 441 1716 441 
Q 2309 441 2620 675 
Q 2931 909 2931 1356 
Q 2931 1769 2642 2001 
Q 2353 2234 1838 2234 
L 1294 2234 
L 1294 2753 
L 1863 2753 
Q 2328 2753 2575 2939 
Q 2822 3125 2822 3475 
Q 2822 3834 2567 4026 
Q 2313 4219 1838 4219 
Q 1578 4219 1281 4162 
Q 984 4106 628 3988 
L 628 4550 
Q 988 4650 1302 4700 
Q 1616 4750 1894 4750 
Q 2613 4750 3031 4423 
Q 3450 4097 3450 3541 
Q 3450 3153 3228 2886 
Q 3006 2619 2597 2516 
z
" transform="scale(0.015625)"/>
       </defs>
       <use xlink:href="#DejaVuSans-32"/>
       <use xlink:href="#DejaVuSans-30" x="63.623047"/>
       <use xlink:href="#DejaVuSans-33" x="127.246094"/>
       <use xlink:href="#DejaVuSans-30" x="190.869141"/>
      </g>
     </g>
    </g>
    <g id="xtick_3">
     <g id="line2d_3">
      <g>
       <use xlink:href="#m8a44588abf" x="147.097466" y="384.021395" style="stroke: #000000; stroke-width: 0.8"/>
      </g>
     </g>
     <g id="text_3">
      <!-- 2040 -->
      <g transform="translate(134.372466 395.119832) scale(0.1 -0.1)">
       <defs>
        <path id="DejaVuSans-34" d="M 2419 4116 
L 825 1625 
L 2419 1625 
L 2419 4116 
z
M 2253 4666 
L 3047 4666 
L 3047 1625 
L 3713 1625 
L 3713 1100 
L 3047 1100 
L 3047 0 
L 2419 0 
L 2419 1100 
L 313 1100 
L 313 1709 
L 2253 4666 
z
" transform="scale(0.015625)"/>
       </defs>
       <use xlink:href="#DejaVuSans-32"/>
       <use xlink:href="#DejaVuSans-30" x="63.623047"/>
       <use xlink:href="#DejaVuSans-34" x="127.246094"/>
       <use xlink:href="#DejaVuSans-30" x="190.869141"/>
      </g>
     </g>
    </g>
    <g id="xtick_4">
     <g id="line2d_4">
      <g>
       <use xlink:href="#m8a44588abf" x="198.802448" y="384.021395" style="stroke: #000000; stroke-width: 0.8"/>
      </g>
     </g>
     <g id="text_4">
      <!-- 2050 -->
      <g transform="translate(186.077448 395.119832) scale(0.1 -0.1)">
       <defs>
        <path id="DejaVuSans-35" d="M 691 4666 
L 3169 4666 
L 3169 4134 
L 1269 4134 
L 1269 2991 
Q 1406 3038 1543 3061 
Q 1681 3084 1819 3084 
Q 2600 3084 3056 2656 
Q 3513 2228 3513 1497 
Q 3513 744 3044 326 
Q 2575 -91 1722 -91 
Q 1428 -91 1123 -41 
Q 819 9 494 109 
L 494 744 
Q 775 591 1075 516 
Q 1375 441 1709 441 
Q 2250 441 2565 725 
Q 2881 1009 2881 1497 
Q 2881 1984 2565 2268 
Q 2250 2553 1709 2553 
Q 1456 2553 1204 2497 
Q 953 2441 691 2322 
L 691 4666 
z
" transform="scale(0.015625)"/>
       </defs>
       <use xlink:href="#DejaVuSans-32"/>
       <use xlink:href="#DejaVuSans-30" x="63.623047"/>
       <use xlink:href="#DejaVuSans-35" x="127.246094"/>
       <use xlink:href="#DejaVuSans-30" x="190.869141"/>
      </g>
     </g>
    </g>
   </g>
   <g id="matplotlib.axis_2">
    <g id="ytick_1">
     <g id="line2d_5">
      <defs>
       <path id="md970617b3e" d="M 0 0 
L 3.5 0 
" style="stroke: #000000; stroke-width: 0.8"/>
      </defs>
      <g>
       <use xlink:href="#md970617b3e" x="43.6875" y="319.96238" style="stroke: #000000; stroke-width: 0.8"/>
      </g>
     </g>
     <g id="text_5">
      <!-- 200 -->
      <g transform="translate(21.1 323.761599) scale(0.1 -0.1)">
       <use xlink:href="#DejaVuSans-32"/>
       <use xlink:href="#DejaVuSans-30" x="63.623047"/>
       <use xlink:href="#DejaVuSans-30" x="127.246094"/>
      </g>
     </g>
    </g>
    <g id="ytick_2">
     <g id="line2d_6">
      <g>
       <use xlink:href="#md970617b3e" x="43.6875" y="234.550361" style="stroke: #000000; stroke-width: 0.8"/>
      </g>
     </g>
     <g id="text_6">
      <!-- 400 -->
      <g transform="translate(21.1 238.34958) scale(0.1 -0.1)">
       <use xlink:href="#DejaVuSans-34"/>
       <use xlink:href="#DejaVuSans-30" x="63.623047"/>
       <use xlink:href="#DejaVuSans-30" x="127.246094"/>
      </g>
     </g>
    </g>
    <g id="ytick_3">
     <g id="line2d_7">
      <g>
       <use xlink:href="#md970617b3e" x="43.6875" y="149.138342" style="stroke: #000000; stroke-width: 0.8"/>
      </g>
     </g>
     <g id="text_7">
      <!-- 600 -->
      <g transform="translate(21.1 152.93756) scale(0.1 -0.1)">
       <defs>
        <path id="DejaVuSans-36" d="M 2113 2584 
Q 1688 2584 1439 2293 
Q 1191 2003 1191 1497 
Q 1191 994 1439 701 
Q 1688 409 2113 409 
Q 2538 409 2786 701 
Q 3034 994 3034 1497 
Q 3034 2003 2786 2293 
Q 2538 2584 2113 2584 
z
M 3366 4563 
L 3366 3988 
Q 3128 4100 2886 4159 
Q 2644 4219 2406 4219 
Q 1781 4219 1451 3797 
Q 1122 3375 1075 2522 
Q 1259 2794 1537 2939 
Q 1816 3084 2150 3084 
Q 2853 3084 3261 2657 
Q 3669 2231 3669 1497 
Q 3669 778 3244 343 
Q 2819 -91 2113 -91 
Q 1303 -91 875 529 
Q 447 1150 447 2328 
Q 447 3434 972 4092 
Q 1497 4750 2381 4750 
Q 2619 4750 2861 4703 
Q 3103 4656 3366 4563 
z
" transform="scale(0.015625)"/>
       </defs>
       <use xlink:href="#DejaVuSans-36"/>
       <use xlink:href="#DejaVuSans-30" x="63.623047"/>
       <use xlink:href="#DejaVuSans-30" x="127.246094"/>
      </g>
     </g>
    </g>
    <g id="ytick_4">
     <g id="line2d_8">
      <g>
       <use xlink:href="#md970617b3e" x="43.6875" y="63.726322" style="stroke: #000000; stroke-width: 0.8"/>
      </g>
     </g>
     <g id="text_8">
      <!-- 800 -->
      <g transform="translate(21.1 67.525541) scale(0.1 -0.1)">
       <defs>
        <path id="DejaVuSans-38" d="M 2034 2216 
Q 1584 2216 1326 1975 
Q 1069 1734 1069 1313 
Q 1069 891 1326 650 
Q 1584 409 2034 409 
Q 2484 409 2743 651 
Q 3003 894 3003 1313 
Q 3003 1734 2745 1975 
Q 2488 2216 2034 2216 
z
M 1403 2484 
Q 997 2584 770 2862 
Q 544 3141 544 3541 
Q 544 4100 942 4425 
Q 1341 4750 2034 4750 
Q 2731 4750 3128 4425 
Q 3525 4100 3525 3541 
Q 3525 3141 3298 2862 
Q 3072 2584 2669 2484 
Q 3125 2378 3379 2068 
Q 3634 1759 3634 1313 
Q 3634 634 3220 271 
Q 2806 -91 2034 -91 
Q 1263 -91 848 271 
Q 434 634 434 1313 
Q 434 1759 690 2068 
Q 947 2378 1403 2484 
z
M 1172 3481 
Q 1172 3119 1398 2916 
Q 1625 2713 2034 2713 
Q 2441 2713 2670 2916 
Q 2900 3119 2900 3481 
Q 2900 3844 2670 4047 
Q 2441 4250 2034 4250 
Q 1625 4250 1398 4047 
Q 1172 3844 1172 3481 
z
" transform="scale(0.015625)"/>
       </defs>
       <use xlink:href="#DejaVuSans-38"/>
       <use xlink:href="#DejaVuSans-30" x="63.623047"/>
       <use xlink:href="#DejaVuSans-30" x="127.246094"/>
      </g>
     </g>
    </g>
    <g id="text_9">
     <!-- GtCO₂/yr -->
     <g transform="translate(14.970313 224.085697) rotate(-90) scale(0.1 -0.1)">
      <defs>
       <path id="HardingTextWeb-Regular-47" d="M 4102 1056 
L 4102 422 
Q 3872 205 3427 64 
Q 2982 -77 2432 -77 
Q 1952 -77 1558 86 
Q 1165 250 886 557 
Q 608 864 454 1309 
Q 301 1754 301 2310 
Q 301 2874 493 3322 
Q 685 3770 1001 4074 
Q 1318 4378 1724 4538 
Q 2131 4698 2560 4698 
Q 2944 4698 3315 4621 
Q 3686 4544 3917 4410 
L 3962 3552 
L 3930 3552 
Q 3629 3891 3315 4105 
Q 3002 4320 2560 4320 
Q 1920 4320 1539 3808 
Q 1158 3296 1158 2368 
Q 1158 1376 1516 835 
Q 1875 294 2477 294 
Q 2765 294 2985 329 
Q 3206 365 3379 467 
L 3379 1056 
Q 3379 1318 3344 1622 
Q 3309 1926 3226 2170 
L 4237 2170 
Q 4173 1926 4137 1622 
Q 4102 1318 4102 1056 
z
" transform="scale(0.015625)"/>
       <path id="HardingTextWeb-Regular-74" d="M 2304 538 
Q 2298 461 2285 419 
Q 2272 378 2246 314 
Q 2176 141 1987 32 
Q 1798 -77 1498 -77 
Q 1030 -77 793 163 
Q 557 403 557 890 
L 557 2989 
L 102 2989 
L 102 3046 
L 1197 4141 
L 1248 4102 
L 1248 3424 
L 2182 3424 
L 2106 2989 
L 1248 2989 
L 1248 934 
Q 1248 659 1398 544 
Q 1549 429 1773 429 
Q 1933 429 2067 457 
Q 2202 486 2304 538 
z
" transform="scale(0.015625)"/>
       <path id="HardingTextWeb-Regular-43" d="M 2547 294 
Q 2822 294 3036 374 
Q 3251 454 3417 576 
Q 3584 698 3715 848 
Q 3846 998 3955 1133 
L 4013 1133 
L 3949 339 
Q 3744 179 3373 51 
Q 3002 -77 2496 -77 
Q 2010 -77 1603 86 
Q 1197 250 909 557 
Q 621 864 461 1309 
Q 301 1754 301 2310 
Q 301 2874 489 3322 
Q 678 3770 985 4074 
Q 1293 4378 1696 4538 
Q 2099 4698 2528 4698 
Q 2912 4698 3280 4624 
Q 3648 4550 3878 4410 
L 3962 3565 
L 3898 3565 
Q 3616 3930 3293 4128 
Q 2970 4326 2528 4326 
Q 1888 4326 1523 3811 
Q 1158 3296 1158 2368 
Q 1158 1376 1539 835 
Q 1920 294 2547 294 
z
" transform="scale(0.015625)"/>
       <path id="HardingTextWeb-Regular-4f" d="M 2445 4691 
Q 2867 4691 3257 4544 
Q 3648 4397 3945 4105 
Q 4243 3814 4422 3379 
Q 4602 2944 4602 2374 
Q 4602 1779 4406 1318 
Q 4211 858 3907 550 
Q 3603 243 3219 83 
Q 2835 -77 2458 -77 
Q 2035 -77 1641 70 
Q 1248 218 953 509 
Q 659 800 480 1238 
Q 301 1677 301 2246 
Q 301 2842 496 3299 
Q 691 3757 995 4064 
Q 1299 4371 1683 4531 
Q 2067 4691 2445 4691 
z
M 2458 282 
Q 3021 282 3392 755 
Q 3763 1229 3763 2310 
Q 3763 2848 3664 3235 
Q 3565 3622 3389 3865 
Q 3213 4109 2969 4221 
Q 2726 4333 2445 4333 
Q 1888 4333 1513 3856 
Q 1139 3379 1139 2298 
Q 1139 1760 1241 1376 
Q 1344 992 1520 749 
Q 1696 506 1936 394 
Q 2176 282 2458 282 
z
" transform="scale(0.015625)"/>
       <path id="HardingTextWeb-Regular-2082" d="M 2400 1510 
Q 2400 1254 2253 1004 
Q 2106 755 1888 534 
Q 1670 314 1420 118 
Q 1171 -77 966 -230 
L 1632 -230 
Q 1914 -230 2176 -182 
Q 2438 -134 2566 -83 
L 2445 -704 
L 397 -704 
L 326 -525 
Q 627 -250 892 0 
Q 1158 250 1356 486 
Q 1555 723 1670 950 
Q 1786 1178 1786 1402 
Q 1786 1619 1651 1776 
Q 1517 1933 1210 1933 
Q 973 1933 806 1837 
Q 640 1741 506 1542 
L 390 1606 
Q 506 1914 768 2131 
Q 1030 2349 1446 2349 
Q 1926 2349 2163 2109 
Q 2400 1869 2400 1510 
z
" transform="scale(0.015625)"/>
       <path id="HardingTextWeb-Regular-2f" d="M -154 -832 
L 1933 4934 
L 2394 4934 
L 307 -832 
L -154 -832 
z
" transform="scale(0.015625)"/>
       <path id="HardingTextWeb-Regular-79" d="M 1485 96 
L 531 2541 
Q 416 2835 320 3033 
Q 224 3232 122 3424 
L 1107 3424 
Q 1094 3226 1139 3030 
Q 1184 2835 1293 2528 
L 1837 973 
L 1862 973 
L 2419 2566 
Q 2509 2822 2534 3033 
Q 2560 3245 2528 3424 
L 3251 3424 
Q 3155 3232 3043 2998 
Q 2931 2765 2803 2432 
L 2042 403 
Q 1702 -486 1372 -924 
Q 1043 -1363 595 -1363 
Q 384 -1363 275 -1264 
Q 166 -1165 166 -1011 
Q 166 -870 252 -787 
Q 339 -704 474 -704 
Q 621 -704 691 -758 
Q 762 -813 858 -813 
Q 998 -813 1171 -566 
Q 1344 -320 1485 96 
z
" transform="scale(0.015625)"/>
       <path id="HardingTextWeb-Regular-72" d="M 1261 3462 
L 1242 2720 
L 1274 2720 
Q 1318 2861 1395 3001 
Q 1472 3142 1581 3251 
Q 1690 3360 1837 3430 
Q 1984 3501 2170 3501 
Q 2227 3501 2326 3485 
Q 2426 3469 2458 3456 
L 2394 2765 
L 2362 2765 
Q 2304 2803 2189 2838 
Q 2074 2874 1952 2874 
Q 1626 2874 1459 2650 
Q 1293 2426 1293 2131 
L 1293 1133 
Q 1293 813 1315 521 
Q 1338 230 1408 0 
L 480 0 
Q 557 243 579 563 
Q 602 883 602 1158 
L 602 2362 
Q 602 2637 525 2870 
Q 448 3104 339 3206 
L 1235 3482 
L 1261 3462 
z
" transform="scale(0.015625)"/>
      </defs>
      <use xlink:href="#HardingTextWeb-Regular-47"/>
      <use xlink:href="#HardingTextWeb-Regular-74" x="71.199982"/>
      <use xlink:href="#HardingTextWeb-Regular-43" x="109.499969"/>
      <use xlink:href="#HardingTextWeb-Regular-4f" x="177.699951"/>
      <use xlink:href="#HardingTextWeb-Regular-2082" x="254.299942"/>
      <use xlink:href="#HardingTextWeb-Regular-2f" x="299.799927"/>
      <use xlink:href="#HardingTextWeb-Regular-79" x="337.199921"/>
      <use xlink:href="#HardingTextWeb-Regular-72" x="389.799911"/>
     </g>
    </g>
   </g>
   <g id="line2d_9">
    <path d="M 43.6875 386.501856 
L 48.857998 368.535702 
L 54.028497 350.814712 
L 59.198995 333.122092 
L 64.369493 316.703074 
L 69.539991 301.541176 
L 74.71049 287.140573 
L 79.880988 273.377235 
L 85.051486 260.462075 
L 90.221985 248.395093 
L 95.392483 237.915746 
L 100.562981 229.08738 
L 105.733479 221.148485 
L 110.903978 214.968845 
L 116.074476 209.103086 
L 121.244974 203.84297 
L 126.415473 199.162068 
L 131.585971 194.879467 
L 136.756469 191.175711 
L 141.926967 187.391508 
L 147.097466 183.336743 
L 152.267964 179.742957 
L 157.438462 176.610149 
L 162.608961 173.938321 
L 167.779459 171.727471 
L 172.949957 169.9776 
L 178.120455 168.659361 
L 183.290954 167.772755 
L 188.461452 167.317781 
L 193.63195 167.294439 
L 198.802448 167.70273 
" clip-path="url(#pd811540e01)" style="fill: none; stroke: #822681; stroke-width: 2; stroke-linecap: square"/>
   </g>
   <g id="line2d_10">
    <path d="M 43.6875 191.844351 
L 198.802448 191.844351 
" clip-path="url(#pd811540e01)" style="fill: none; stroke-dasharray: 5.55,2.4; stroke-dashoffset: 0; stroke: #000000; stroke-width: 1.5"/>
   </g>
   <g id="line2d_11">
    <path d="M 43.6875 386.320579 
L 48.857998 367.70634 
L 54.028497 349.531684 
L 59.198995 331.796609 
L 64.369493 314.501117 
L 69.539991 297.645206 
L 74.71049 282.413456 
L 79.880988 268.805865 
L 85.051486 256.822433 
L 90.221985 246.463162 
L 95.392483 237.728049 
L 100.562981 229.928849 
L 105.733479 223.065561 
L 110.903978 217.138185 
L 116.074476 212.146721 
L 121.244974 208.091169 
L 126.415473 204.516795 
L 131.585971 201.4236 
L 136.756469 198.811583 
L 141.926967 196.680745 
L 147.097466 195.031086 
L 152.267964 193.679803 
L 157.438462 192.626898 
L 162.608961 191.872369 
L 167.779459 191.416218 
L 172.949957 191.258444 
L 178.120455 191.266123 
L 183.290954 191.439256 
L 188.461452 191.777843 
L 193.63195 192.281883 
L 198.802448 192.951376 
" clip-path="url(#pd811540e01)" style="fill: none; stroke-dasharray: 12.8,3.2,2,3.2; stroke-dashoffset: 0; stroke: #ffff00; stroke-width: 2"/>
   </g>
   <g id="line2d_12">
    <path d="M 43.6875 386.320579 
L 48.857998 367.648038 
L 54.028497 349.356776 
L 59.198995 331.446793 
L 64.369493 313.91809 
L 69.539991 296.770667 
L 74.71049 281.116187 
L 79.880988 266.95465 
L 85.051486 254.286056 
L 90.221985 243.110405 
L 95.392483 233.427698 
L 100.562981 224.869957 
L 105.733479 217.437183 
L 110.903978 211.129375 
L 116.074476 205.946533 
L 121.244974 201.888658 
L 126.415473 198.483687 
L 131.585971 195.73162 
L 136.756469 193.632457 
L 141.926967 192.186198 
L 147.097466 191.392844 
L 152.267964 190.976871 
L 157.438462 190.938281 
L 162.608961 191.277073 
L 167.779459 191.993248 
L 172.949957 193.086804 
L 178.120455 194.395125 
L 183.290954 195.918211 
L 188.461452 197.65606 
L 193.63195 199.608675 
L 198.802448 201.776053 
" clip-path="url(#pd811540e01)" style="fill: none; stroke-dasharray: 12.8,3.2,2,3.2; stroke-dashoffset: 0; stroke: #ffa500; stroke-width: 2"/>
   </g>
   <g id="line2d_13">
    <path d="M 43.6875 386.320579 
L 48.857998 367.69827 
L 54.028497 349.507474 
L 59.198995 331.748191 
L 64.369493 314.42042 
L 69.539991 297.524161 
L 74.71049 282.096748 
L 79.880988 268.138181 
L 85.051486 255.64846 
L 90.221985 244.627585 
L 95.392483 235.075556 
L 100.562981 226.586866 
L 105.733479 219.161516 
L 110.903978 212.799505 
L 116.074476 207.500833 
L 121.244974 203.265501 
L 126.415473 199.66306 
L 131.585971 196.693509 
L 136.756469 194.356848 
L 141.926967 192.653078 
L 147.097466 191.582199 
L 152.267964 190.996557 
L 157.438462 190.896152 
L 162.608961 191.280986 
L 167.779459 192.151056 
L 172.949957 193.506365 
L 178.120455 195.224175 
L 183.290954 197.304487 
L 188.461452 199.7473 
L 193.63195 202.552615 
L 198.802448 205.720431 
" clip-path="url(#pd811540e01)" style="fill: none; stroke-dasharray: 12.8,3.2,2,3.2; stroke-dashoffset: 0; stroke: #800080; stroke-width: 2"/>
   </g>
   <g id="patch_3">
    <path d="M 43.6875 384.021395 
L 43.6875 21.020312 
" style="fill: none; stroke: #000000; stroke-width: 0.8; stroke-linejoin: miter; stroke-linecap: square"/>
   </g>
   <g id="patch_4">
    <path d="M 43.6875 384.021395 
L 198.802448 384.021395 
" style="fill: none; stroke: #000000; stroke-width: 0.8; stroke-linejoin: miter; stroke-linecap: square"/>
   </g>
   <g id="text_10">
    <!-- 500GtCO₂ -->
    <g transform="translate(48.857998 187.57375) scale(0.1 -0.1)">
     <defs>
      <path id="HardingTextWeb-Regular-35" d="M 1325 256 
Q 1792 256 2035 496 
Q 2278 736 2278 1254 
Q 2278 1478 2198 1673 
Q 2118 1869 1923 2038 
Q 1728 2208 1382 2352 
Q 1037 2496 512 2624 
L 1037 4621 
L 2995 4621 
L 2784 3910 
Q 2637 3942 2368 3968 
Q 2099 3994 1862 3994 
L 1197 3994 
L 998 3213 
Q 1421 3110 1785 2966 
Q 2150 2822 2412 2620 
Q 2675 2419 2822 2153 
Q 2970 1888 2970 1549 
Q 2970 1165 2838 861 
Q 2707 557 2486 349 
Q 2266 141 1965 32 
Q 1664 -77 1325 -77 
Q 934 -77 697 -9 
Q 461 58 224 166 
L 160 826 
Q 410 602 720 429 
Q 1030 256 1325 256 
z
" transform="scale(0.015625)"/>
      <path id="HardingTextWeb-Regular-30" d="M 2112 4691 
Q 2509 4691 2838 4537 
Q 3168 4384 3405 4089 
Q 3642 3795 3776 3356 
Q 3910 2918 3910 2355 
Q 3910 1766 3760 1308 
Q 3610 851 3363 547 
Q 3117 243 2793 83 
Q 2470 -77 2125 -77 
Q 1734 -77 1404 76 
Q 1075 230 838 524 
Q 602 819 467 1260 
Q 333 1702 333 2266 
Q 333 2854 483 3308 
Q 634 3763 877 4070 
Q 1120 4378 1443 4534 
Q 1766 4691 2112 4691 
z
M 2125 269 
Q 2605 269 2851 755 
Q 3098 1242 3098 2342 
Q 3098 3443 2845 3894 
Q 2592 4346 2112 4346 
Q 1638 4346 1388 3862 
Q 1139 3379 1139 2278 
Q 1139 1178 1395 723 
Q 1651 269 2125 269 
z
" transform="scale(0.015625)"/>
     </defs>
     <use xlink:href="#HardingTextWeb-Regular-35"/>
     <use xlink:href="#HardingTextWeb-Regular-30" x="51.199997"/>
     <use xlink:href="#HardingTextWeb-Regular-30" x="117.499985"/>
     <use xlink:href="#HardingTextWeb-Regular-47" x="183.799973"/>
     <use xlink:href="#HardingTextWeb-Regular-74" x="254.999954"/>
     <use xlink:href="#HardingTextWeb-Regular-43" x="293.299942"/>
     <use xlink:href="#HardingTextWeb-Regular-4f" x="361.499924"/>
     <use xlink:href="#HardingTextWeb-Regular-2082" x="438.099915"/>
    </g>
   </g>
   <g id="text_11">
    <!-- (a) -->
    <g transform="translate(114.975443 15.020312) scale(0.1 -0.1)">
     <defs>
      <path id="HardingTextWeb-Regular-28" d="M 1907 -902 
Q 1638 -698 1376 -406 
Q 1114 -115 909 253 
Q 704 621 576 1072 
Q 448 1523 448 2054 
Q 448 2541 576 2985 
Q 704 3430 909 3811 
Q 1114 4192 1376 4502 
Q 1638 4813 1907 5024 
L 2086 4890 
Q 1651 4422 1385 3712 
Q 1120 3002 1120 2163 
Q 1120 1082 1411 403 
Q 1702 -275 2106 -742 
L 1907 -902 
z
" transform="scale(0.015625)"/>
      <path id="HardingTextWeb-Regular-61" d="M 736 2406 
Q 614 2406 512 2486 
Q 410 2566 410 2726 
Q 410 2899 522 3043 
Q 634 3187 813 3289 
Q 992 3392 1222 3446 
Q 1453 3501 1690 3501 
Q 2298 3501 2554 3241 
Q 2810 2982 2810 2470 
L 2810 1158 
Q 2810 883 2829 563 
Q 2848 243 2925 0 
L 2195 0 
Q 2182 102 2172 246 
Q 2163 390 2163 480 
L 2138 480 
Q 2016 256 1801 89 
Q 1587 -77 1197 -77 
Q 774 -77 528 166 
Q 282 410 275 774 
Q 269 1088 486 1325 
Q 704 1562 1152 1722 
L 2118 2054 
L 2118 2515 
Q 2118 2861 1961 3008 
Q 1805 3155 1510 3155 
Q 1318 3155 1225 3081 
Q 1133 3008 1094 2816 
Q 1050 2598 966 2502 
Q 883 2406 736 2406 
z
M 986 883 
Q 986 640 1123 499 
Q 1261 358 1498 358 
Q 1734 358 1894 480 
Q 2054 602 2118 755 
L 2118 1805 
L 1517 1568 
Q 1235 1453 1110 1305 
Q 986 1158 986 883 
z
" transform="scale(0.015625)"/>
      <path id="HardingTextWeb-Regular-29" d="M 442 -902 
L 243 -742 
Q 646 -275 940 403 
Q 1235 1082 1235 2163 
Q 1235 3002 969 3712 
Q 704 4422 269 4890 
L 442 5024 
Q 717 4813 979 4502 
Q 1242 4192 1446 3811 
Q 1651 3430 1776 2985 
Q 1901 2541 1901 2054 
Q 1901 1523 1776 1072 
Q 1651 621 1446 253 
Q 1242 -115 979 -406 
Q 717 -698 442 -902 
z
" transform="scale(0.015625)"/>
     </defs>
     <use xlink:href="#HardingTextWeb-Regular-28"/>
     <use xlink:href="#HardingTextWeb-Regular-61" x="36.799988"/>
     <use xlink:href="#HardingTextWeb-Regular-29" x="88.599976"/>
    </g>
   </g>
  </g>
  <g id="axes_2">
   <g id="patch_5">
    <path d="M 260.377928 384.021395 
L 415.492877 384.021395 
L 415.492877 21.020312 
L 260.377928 21.020312 
L 260.377928 384.021395 
z
" style="fill: none"/>
   </g>
   <g id="PolyCollection_4">
    <defs>
     <path id="m1e7b9683ec" d="M 260.377928 -26.095142 
L 260.377928 -25.192033 
L 265.548427 -25.339567 
L 270.718925 -25.4871 
L 275.889423 -25.634633 
L 281.059922 -25.782167 
L 286.23042 -25.908644 
L 291.400918 -26.051617 
L 296.571416 -26.171236 
L 301.741915 -26.288463 
L 306.912413 -26.405691 
L 312.082911 -26.522919 
L 317.25341 -27.217869 
L 322.423908 -27.912819 
L 327.594406 -28.607769 
L 332.764904 -29.302719 
L 337.935403 -29.916415 
L 343.105901 -30.879052 
L 348.276399 -31.841689 
L 353.446898 -32.804325 
L 358.617396 -33.766962 
L 363.787894 -34.729599 
L 368.958392 -35.713061 
L 374.128891 -36.696524 
L 379.299389 -37.679986 
L 384.469887 -38.663449 
L 389.640386 -39.646912 
L 394.810884 -40.631836 
L 399.981382 -41.616761 
L 405.15188 -42.601686 
L 410.322379 -43.586611 
L 415.492877 -44.571536 
L 415.492877 -383.29574 
L 415.492877 -383.29574 
L 410.322379 -353.78611 
L 405.15188 -324.27648 
L 399.981382 -294.76685 
L 394.810884 -265.257221 
L 389.640386 -235.747591 
L 384.469887 -217.086501 
L 379.299389 -198.425411 
L 374.128891 -179.764321 
L 368.958392 -161.103231 
L 363.787894 -142.442141 
L 358.617396 -129.64541 
L 353.446898 -116.848679 
L 348.276399 -104.051948 
L 343.105901 -91.255217 
L 337.935403 -78.458485 
L 332.764904 -71.421445 
L 327.594406 -64.384404 
L 322.423908 -57.347363 
L 317.25341 -50.310322 
L 312.082911 -43.273281 
L 306.912413 -40.70129 
L 301.741915 -38.1293 
L 296.571416 -35.557309 
L 291.400918 -32.985319 
L 286.23042 -30.413328 
L 281.059922 -29.536232 
L 275.889423 -28.659135 
L 270.718925 -27.782039 
L 265.548427 -26.904943 
L 260.377928 -26.095142 
z
"/>
    </defs>
    <g clip-path="url(#p37053100af)">
     <use xlink:href="#m1e7b9683ec" x="0" y="404.39952" style="fill: #822681; fill-opacity: 0.1"/>
    </g>
   </g>
   <g id="PolyCollection_5">
    <defs>
     <path id="mdf1cbadc7e" d="M 260.377928 -26.031212 
L 260.377928 -25.192041 
L 265.548427 -25.362678 
L 270.718925 -25.533315 
L 275.889423 -25.703953 
L 281.059922 -25.87459 
L 286.23042 -25.928647 
L 291.400918 -26.053888 
L 296.571416 -26.193424 
L 301.741915 -26.324513 
L 306.912413 -26.448317 
L 312.082911 -26.57212 
L 317.25341 -27.30383 
L 322.423908 -28.030068 
L 327.594406 -28.689228 
L 332.764904 -29.333027 
L 337.935403 -29.993607 
L 343.105901 -31.130684 
L 348.276399 -32.257882 
L 353.446898 -33.385079 
L 358.617396 -34.512277 
L 363.787894 -35.639475 
L 368.958392 -36.682697 
L 374.128891 -37.725918 
L 379.299389 -38.76914 
L 384.469887 -39.812362 
L 389.640386 -40.855584 
L 394.810884 -41.866184 
L 399.981382 -42.876784 
L 405.15188 -43.887384 
L 410.322379 -44.897984 
L 415.492877 -45.908584 
L 415.492877 -188.580477 
L 415.492877 -188.580477 
L 410.322379 -175.83566 
L 405.15188 -163.090843 
L 399.981382 -153.574082 
L 394.810884 -144.320448 
L 389.640386 -135.066814 
L 384.469887 -127.313486 
L 379.299389 -119.560158 
L 374.128891 -111.80683 
L 368.958392 -104.053501 
L 363.787894 -96.300173 
L 358.617396 -89.308246 
L 353.446898 -82.316319 
L 348.276399 -75.324391 
L 343.105901 -68.332464 
L 337.935403 -62.100735 
L 332.764904 -57.344803 
L 327.594406 -52.588872 
L 322.423908 -47.921873 
L 317.25341 -43.448986 
L 312.082911 -38.976098 
L 306.912413 -37.202502 
L 301.741915 -35.428905 
L 296.571416 -33.655309 
L 291.400918 -31.881713 
L 286.23042 -30.108117 
L 281.059922 -29.292063 
L 275.889423 -28.476009 
L 270.718925 -27.659955 
L 265.548427 -26.843901 
L 260.377928 -26.031212 
z
"/>
    </defs>
    <g clip-path="url(#p37053100af)">
     <use xlink:href="#mdf1cbadc7e" x="0" y="404.39952" style="fill: #822681; fill-opacity: 0.2"/>
    </g>
   </g>
   <g id="PolyCollection_6">
    <defs>
     <path id="ma279f597de" d="M 260.377928 -25.958692 
L 260.377928 -25.849009 
L 265.548427 -25.924081 
L 270.718925 -25.934365 
L 275.889423 -25.941623 
L 281.059922 -25.950873 
L 286.23042 -26.029149 
L 291.400918 -26.206895 
L 296.571416 -26.386946 
L 301.741915 -26.569967 
L 306.912413 -26.752987 
L 312.082911 -26.936008 
L 317.25341 -27.536672 
L 322.423908 -28.15211 
L 327.594406 -28.807726 
L 332.764904 -29.533452 
L 337.935403 -30.259178 
L 343.105901 -33.347324 
L 348.276399 -36.359016 
L 353.446898 -38.82645 
L 358.617396 -40.920327 
L 363.787894 -43.247538 
L 368.958392 -47.440022 
L 374.128891 -51.399147 
L 379.299389 -54.122898 
L 384.469887 -56.900433 
L 389.640386 -59.823195 
L 394.810884 -63.18083 
L 399.981382 -66.538466 
L 405.15188 -69.896101 
L 410.322379 -73.253736 
L 415.492877 -76.611371 
L 415.492877 -109.548643 
L 415.492877 -109.548643 
L 410.322379 -106.447964 
L 405.15188 -102.858907 
L 399.981382 -97.766111 
L 394.810884 -92.673315 
L 389.640386 -86.849063 
L 384.469887 -82.061289 
L 379.299389 -77.273516 
L 374.128891 -72.485743 
L 368.958392 -67.584103 
L 363.787894 -61.792947 
L 358.617396 -57.787098 
L 353.446898 -53.78125 
L 348.276399 -49.966133 
L 343.105901 -46.645621 
L 337.935403 -43.32511 
L 332.764904 -41.348485 
L 327.594406 -39.371861 
L 322.423908 -37.395237 
L 317.25341 -35.357304 
L 312.082911 -32.955192 
L 306.912413 -31.788517 
L 301.741915 -30.621842 
L 296.571416 -29.455168 
L 291.400918 -28.288493 
L 286.23042 -27.121818 
L 281.059922 -26.896016 
L 275.889423 -26.670213 
L 270.718925 -26.44441 
L 265.548427 -26.216316 
L 260.377928 -25.958692 
z
"/>
    </defs>
    <g clip-path="url(#p37053100af)">
     <use xlink:href="#ma279f597de" x="0" y="404.39952" style="fill: #822681; fill-opacity: 0.4"/>
    </g>
   </g>
   <g id="matplotlib.axis_3">
    <g id="xtick_5">
     <g id="line2d_14">
      <g>
       <use xlink:href="#m8a44588abf" x="260.377928" y="384.021395" style="stroke: #000000; stroke-width: 0.8"/>
      </g>
     </g>
     <g id="text_12">
      <!-- 2020 -->
      <g transform="translate(247.652928 395.119832) scale(0.1 -0.1)">
       <use xlink:href="#DejaVuSans-32"/>
       <use xlink:href="#DejaVuSans-30" x="63.623047"/>
       <use xlink:href="#DejaVuSans-32" x="127.246094"/>
       <use xlink:href="#DejaVuSans-30" x="190.869141"/>
      </g>
     </g>
    </g>
    <g id="xtick_6">
     <g id="line2d_15">
      <g>
       <use xlink:href="#m8a44588abf" x="312.082911" y="384.021395" style="stroke: #000000; stroke-width: 0.8"/>
      </g>
     </g>
     <g id="text_13">
      <!-- 2030 -->
      <g transform="translate(299.357911 395.119832) scale(0.1 -0.1)">
       <use xlink:href="#DejaVuSans-32"/>
       <use xlink:href="#DejaVuSans-30" x="63.623047"/>
       <use xlink:href="#DejaVuSans-33" x="127.246094"/>
       <use xlink:href="#DejaVuSans-30" x="190.869141"/>
      </g>
     </g>
    </g>
    <g id="xtick_7">
     <g id="line2d_16">
      <g>
       <use xlink:href="#m8a44588abf" x="363.787894" y="384.021395" style="stroke: #000000; stroke-width: 0.8"/>
      </g>
     </g>
     <g id="text_14">
      <!-- 2040 -->
      <g transform="translate(351.062894 395.119832) scale(0.1 -0.1)">
       <use xlink:href="#DejaVuSans-32"/>
       <use xlink:href="#DejaVuSans-30" x="63.623047"/>
       <use xlink:href="#DejaVuSans-34" x="127.246094"/>
       <use xlink:href="#DejaVuSans-30" x="190.869141"/>
      </g>
     </g>
    </g>
    <g id="xtick_8">
     <g id="line2d_17">
      <g>
       <use xlink:href="#m8a44588abf" x="415.492877" y="384.021395" style="stroke: #000000; stroke-width: 0.8"/>
      </g>
     </g>
     <g id="text_15">
      <!-- 2050 -->
      <g transform="translate(402.767877 395.119832) scale(0.1 -0.1)">
       <use xlink:href="#DejaVuSans-32"/>
       <use xlink:href="#DejaVuSans-30" x="63.623047"/>
       <use xlink:href="#DejaVuSans-35" x="127.246094"/>
       <use xlink:href="#DejaVuSans-30" x="190.869141"/>
      </g>
     </g>
    </g>
   </g>
   <g id="matplotlib.axis_4">
    <g id="ytick_5">
     <g id="line2d_18">
      <g>
       <use xlink:href="#md970617b3e" x="260.377928" y="379.5399" style="stroke: #000000; stroke-width: 0.8"/>
      </g>
     </g>
     <g id="text_16">
      <!-- 0 -->
      <g transform="translate(250.515428 383.339119) scale(0.1 -0.1)">
       <use xlink:href="#DejaVuSans-30"/>
      </g>
     </g>
    </g>
    <g id="ytick_6">
     <g id="line2d_19">
      <g>
       <use xlink:href="#md970617b3e" x="260.377928" y="304.848319" style="stroke: #000000; stroke-width: 0.8"/>
      </g>
     </g>
     <g id="text_17">
      <!-- 250 -->
      <g transform="translate(237.790428 308.647538) scale(0.1 -0.1)">
       <use xlink:href="#DejaVuSans-32"/>
       <use xlink:href="#DejaVuSans-35" x="63.623047"/>
       <use xlink:href="#DejaVuSans-30" x="127.246094"/>
      </g>
     </g>
    </g>
    <g id="ytick_7">
     <g id="line2d_20">
      <g>
       <use xlink:href="#md970617b3e" x="260.377928" y="230.156739" style="stroke: #000000; stroke-width: 0.8"/>
      </g>
     </g>
     <g id="text_18">
      <!-- 500 -->
      <g transform="translate(237.790428 233.955957) scale(0.1 -0.1)">
       <use xlink:href="#DejaVuSans-35"/>
       <use xlink:href="#DejaVuSans-30" x="63.623047"/>
       <use xlink:href="#DejaVuSans-30" x="127.246094"/>
      </g>
     </g>
    </g>
    <g id="ytick_8">
     <g id="line2d_21">
      <g>
       <use xlink:href="#md970617b3e" x="260.377928" y="155.465158" style="stroke: #000000; stroke-width: 0.8"/>
      </g>
     </g>
     <g id="text_19">
      <!-- 750 -->
      <g transform="translate(237.790428 159.264377) scale(0.1 -0.1)">
       <defs>
        <path id="DejaVuSans-37" d="M 525 4666 
L 3525 4666 
L 3525 4397 
L 1831 0 
L 1172 0 
L 2766 4134 
L 525 4134 
L 525 4666 
z
" transform="scale(0.015625)"/>
       </defs>
       <use xlink:href="#DejaVuSans-37"/>
       <use xlink:href="#DejaVuSans-35" x="63.623047"/>
       <use xlink:href="#DejaVuSans-30" x="127.246094"/>
      </g>
     </g>
    </g>
    <g id="ytick_9">
     <g id="line2d_22">
      <g>
       <use xlink:href="#md970617b3e" x="260.377928" y="80.773577" style="stroke: #000000; stroke-width: 0.8"/>
      </g>
     </g>
     <g id="text_20">
      <!-- 1000 -->
      <g transform="translate(231.427928 84.572796) scale(0.1 -0.1)">
       <defs>
        <path id="DejaVuSans-31" d="M 794 531 
L 1825 531 
L 1825 4091 
L 703 3866 
L 703 4441 
L 1819 4666 
L 2450 4666 
L 2450 531 
L 3481 531 
L 3481 0 
L 794 0 
L 794 531 
z
" transform="scale(0.015625)"/>
       </defs>
       <use xlink:href="#DejaVuSans-31"/>
       <use xlink:href="#DejaVuSans-30" x="63.623047"/>
       <use xlink:href="#DejaVuSans-30" x="127.246094"/>
       <use xlink:href="#DejaVuSans-30" x="190.869141"/>
      </g>
     </g>
    </g>
    <g id="text_21">
     <!-- MtH₂/yr -->
     <g transform="translate(225.298241 221.490385) rotate(-90) scale(0.1 -0.1)">
      <defs>
       <path id="HardingTextWeb-Regular-4d" d="M 2931 0 
L 2656 0 
L 1062 3738 
L 1030 3738 
L 1030 1485 
Q 1030 1056 1078 733 
Q 1126 410 1210 0 
L 422 0 
Q 506 403 550 729 
Q 595 1056 595 1485 
L 595 3379 
Q 595 3667 556 4012 
Q 518 4358 435 4621 
L 1478 4621 
L 2944 1133 
L 2976 1133 
L 4320 4621 
L 5338 4621 
Q 5274 4358 5232 4012 
Q 5190 3667 5190 3379 
L 5190 1242 
Q 5190 954 5232 608 
Q 5274 262 5338 0 
L 4269 0 
Q 4346 262 4384 608 
Q 4422 954 4429 1242 
L 4429 3731 
L 4403 3731 
L 2931 0 
z
" transform="scale(0.015625)"/>
       <path id="HardingTextWeb-Regular-48" d="M 1350 1203 
Q 1350 928 1388 592 
Q 1427 256 1491 0 
L 422 0 
Q 506 256 544 592 
Q 582 928 582 1203 
L 582 3418 
Q 582 3693 544 4029 
Q 506 4365 422 4621 
L 1491 4621 
Q 1427 4365 1388 4029 
Q 1350 3693 1350 3418 
L 1350 2515 
L 3392 2515 
L 3392 3418 
Q 3392 3693 3357 4029 
Q 3322 4365 3238 4621 
L 4301 4621 
Q 4237 4365 4198 4029 
Q 4160 3693 4160 3418 
L 4160 1203 
Q 4160 928 4198 592 
Q 4237 256 4301 0 
L 3238 0 
Q 3322 256 3357 592 
Q 3392 928 3392 1203 
L 3392 2170 
L 1350 2170 
L 1350 1203 
z
" transform="scale(0.015625)"/>
      </defs>
      <use xlink:href="#HardingTextWeb-Regular-4d"/>
      <use xlink:href="#HardingTextWeb-Regular-74" x="89.999985"/>
      <use xlink:href="#HardingTextWeb-Regular-48" x="128.299973"/>
      <use xlink:href="#HardingTextWeb-Regular-2082" x="202.399963"/>
      <use xlink:href="#HardingTextWeb-Regular-2f" x="247.899948"/>
      <use xlink:href="#HardingTextWeb-Regular-79" x="285.299942"/>
      <use xlink:href="#HardingTextWeb-Regular-72" x="337.899933"/>
     </g>
    </g>
   </g>
   <g id="line2d_23">
    <path d="M 260.377928 378.475937 
L 265.548427 378.435749 
L 270.718925 378.344815 
L 275.889423 378.267501 
L 281.059922 378.182793 
L 286.23042 378.098084 
L 291.400918 377.509381 
L 296.571416 376.881834 
L 301.741915 376.254287 
L 306.912413 375.651068 
L 312.082911 375.058455 
L 317.25341 373.588652 
L 322.423908 372.131697 
L 327.594406 370.697574 
L 332.764904 369.263452 
L 337.935403 367.82933 
L 343.105901 365.166807 
L 348.276399 362.473159 
L 353.446898 359.779511 
L 358.617396 357.085864 
L 363.787894 354.41973 
L 368.958392 350.059173 
L 374.128891 345.234984 
L 379.299389 340.410794 
L 384.469887 335.891452 
L 389.640386 330.500969 
L 394.810884 325.109117 
L 399.981382 319.832152 
L 405.15188 315.029974 
L 410.322379 310.227796 
L 415.492877 305.425619 
" clip-path="url(#p37053100af)" style="fill: none; stroke: #822681; stroke-width: 2; stroke-linecap: square"/>
   </g>
   <g id="line2d_24">
    <path d="M 260.377928 378.371673 
L 265.548427 377.657971 
L 270.718925 376.944269 
L 275.889423 376.230567 
L 281.059922 375.516865 
L 286.23042 374.803162 
L 291.400918 373.994931 
L 296.571416 373.186699 
L 301.741915 372.378467 
L 306.912413 371.570235 
L 312.082911 370.762004 
L 317.25341 368.950253 
L 322.423908 367.138502 
L 327.594406 365.326751 
L 332.764904 363.515 
L 337.935403 361.703249 
L 343.105901 358.493046 
L 348.276399 355.282844 
L 353.446898 352.072641 
L 358.617396 348.862439 
L 363.787894 345.652236 
L 368.958392 340.532062 
L 374.128891 335.411888 
L 379.299389 330.291714 
L 384.469887 325.171539 
L 389.640386 320.051365 
L 394.810884 313.96251 
L 399.981382 307.873656 
L 405.15188 301.784801 
L 410.322379 295.695946 
L 415.492877 289.607092 
" clip-path="url(#p37053100af)" style="fill: none; stroke-dasharray: 12.8,3.2,2,3.2; stroke-dashoffset: 0; stroke: #ffff00; stroke-width: 2"/>
   </g>
   <g id="line2d_25">
    <path d="M 260.377928 378.371673 
L 265.548427 377.558832 
L 270.718925 376.745991 
L 275.889423 375.93315 
L 281.059922 375.120308 
L 286.23042 374.307467 
L 291.400918 372.575892 
L 296.571416 370.844316 
L 301.741915 369.112741 
L 306.912413 367.381165 
L 312.082911 365.64959 
L 317.25341 361.311657 
L 322.423908 356.973725 
L 327.594406 352.635793 
L 332.764904 348.29786 
L 337.935403 343.959928 
L 343.105901 337.273517 
L 348.276399 330.587105 
L 353.446898 323.900694 
L 358.617396 317.214283 
L 363.787894 310.527871 
L 368.958392 303.348636 
L 374.128891 296.169401 
L 379.299389 288.990165 
L 384.469887 281.81093 
L 389.640386 274.631694 
L 394.810884 266.444165 
L 399.981382 258.256636 
L 405.15188 250.069107 
L 410.322379 241.881578 
L 415.492877 233.694049 
" clip-path="url(#p37053100af)" style="fill: none; stroke-dasharray: 12.8,3.2,2,3.2; stroke-dashoffset: 0; stroke: #ffa500; stroke-width: 2"/>
   </g>
   <g id="line2d_26">
    <path d="M 260.377928 378.371673 
L 265.548427 377.494577 
L 270.718925 376.617481 
L 275.889423 375.740385 
L 281.059922 374.863288 
L 286.23042 373.986192 
L 291.400918 371.414201 
L 296.571416 368.842211 
L 301.741915 366.27022 
L 306.912413 363.69823 
L 312.082911 361.126239 
L 317.25341 354.089198 
L 322.423908 347.052157 
L 327.594406 340.015116 
L 332.764904 332.978075 
L 337.935403 325.941035 
L 343.105901 313.144303 
L 348.276399 300.347572 
L 353.446898 287.550841 
L 358.617396 274.75411 
L 363.787894 261.957379 
L 368.958392 243.296289 
L 374.128891 224.635199 
L 379.299389 205.974109 
L 384.469887 187.313019 
L 389.640386 168.651929 
L 394.810884 139.142299 
L 399.981382 109.63267 
L 405.15188 80.12304 
L 410.322379 50.61341 
L 415.492877 21.10378 
" clip-path="url(#p37053100af)" style="fill: none; stroke-dasharray: 12.8,3.2,2,3.2; stroke-dashoffset: 0; stroke: #800080; stroke-width: 2"/>
   </g>
   <g id="line2d_27">
    <path d="M 312.082911 359.821323 
L 337.935403 334.127419 
L 415.492877 259.734605 
" clip-path="url(#p37053100af)" style="fill: none; stroke-dasharray: 7.4,3.2; stroke-dashoffset: 0; stroke: #ff0000; stroke-width: 2"/>
   </g>
   <g id="patch_6">
    <path d="M 260.377928 384.021395 
L 260.377928 21.020312 
" style="fill: none; stroke: #000000; stroke-width: 0.8; stroke-linejoin: miter; stroke-linecap: square"/>
   </g>
   <g id="patch_7">
    <path d="M 260.377928 384.021395 
L 415.492877 384.021395 
" style="fill: none; stroke: #000000; stroke-width: 0.8; stroke-linejoin: miter; stroke-linecap: square"/>
   </g>
   <g id="text_22">
    <!-- (b) -->
    <g transform="translate(331.220559 15.020312) scale(0.1 -0.1)">
     <defs>
      <path id="HardingTextWeb-Regular-62" d="M 1146 3987 
L 1146 2944 
L 1165 2944 
Q 1254 3142 1584 3321 
Q 1914 3501 2336 3501 
Q 2906 3501 3245 3072 
Q 3584 2643 3584 1824 
Q 3584 1434 3481 1085 
Q 3379 736 3168 480 
Q 2957 224 2630 73 
Q 2304 -77 1850 -77 
Q 1446 -77 1097 6 
Q 749 90 461 250 
L 461 3872 
Q 461 4147 390 4371 
Q 320 4595 218 4698 
L 1133 5005 
L 1184 4966 
L 1146 3987 
z
M 1152 486 
Q 1254 403 1468 332 
Q 1683 262 1856 262 
Q 2355 262 2592 643 
Q 2829 1024 2829 1715 
Q 2829 2349 2624 2665 
Q 2419 2982 1958 2982 
Q 1741 2982 1494 2876 
Q 1248 2771 1152 2643 
L 1152 486 
z
" transform="scale(0.015625)"/>
     </defs>
     <use xlink:href="#HardingTextWeb-Regular-28"/>
     <use xlink:href="#HardingTextWeb-Regular-62" x="36.799988"/>
     <use xlink:href="#HardingTextWeb-Regular-29" x="97.499985"/>
    </g>
   </g>
   <g id="legend_1">
    <g id="line2d_28">
     <path d="M 273.352356 45.230657 
L 283.352356 45.230657 
L 293.352356 45.230657 
" style="fill: none; stroke: #822681; stroke-width: 2; stroke-linecap: square"/>
    </g>
    <g id="text_23">
     <!-- 50th percentile -->
     <g transform="translate(301.352356 48.730657) scale(0.1 -0.1)">
      <defs>
       <path id="HardingTextWeb-Regular-68" d="M 3322 1158 
Q 3322 883 3344 563 
Q 3366 243 3443 0 
L 2522 0 
Q 2592 230 2611 512 
Q 2630 794 2630 1107 
L 2630 2426 
Q 2630 2701 2483 2825 
Q 2336 2950 2035 2950 
Q 1798 2950 1593 2886 
Q 1389 2822 1242 2669 
L 1242 1107 
Q 1242 794 1261 512 
Q 1280 230 1350 0 
L 435 0 
Q 512 243 531 563 
Q 550 883 550 1158 
L 550 3872 
Q 550 4154 480 4374 
Q 410 4595 307 4704 
L 1222 5005 
L 1274 4966 
L 1242 3955 
L 1242 2931 
L 1261 2931 
Q 1382 3168 1683 3334 
Q 1984 3501 2374 3501 
Q 2893 3501 3107 3264 
Q 3322 3027 3322 2522 
L 3322 1158 
z
" transform="scale(0.015625)"/>
       <path id="HardingTextWeb-Regular-20" transform="scale(0.015625)"/>
       <path id="HardingTextWeb-Regular-70" d="M 1242 -173 
Q 1242 -486 1274 -793 
Q 1306 -1101 1376 -1331 
L 429 -1331 
Q 506 -1088 528 -768 
Q 550 -448 550 -173 
L 550 2362 
Q 550 2637 473 2870 
Q 397 3104 288 3206 
L 1216 3482 
L 1242 3462 
L 1229 2931 
L 1248 2931 
Q 1331 3130 1612 3315 
Q 1894 3501 2317 3501 
Q 2598 3501 2844 3395 
Q 3091 3290 3270 3085 
Q 3450 2880 3552 2563 
Q 3654 2246 3654 1830 
Q 3654 1478 3555 1132 
Q 3456 787 3248 521 
Q 3040 256 2717 89 
Q 2394 -77 1946 -77 
Q 1760 -77 1581 -51 
Q 1402 -26 1242 26 
L 1242 -173 
z
M 1242 544 
Q 1344 442 1523 355 
Q 1702 269 1946 269 
Q 2458 269 2688 656 
Q 2918 1043 2918 1734 
Q 2918 2368 2684 2688 
Q 2451 3008 1990 3008 
Q 1779 3008 1555 2886 
Q 1331 2765 1242 2643 
L 1242 544 
z
" transform="scale(0.015625)"/>
       <path id="HardingTextWeb-Regular-65" d="M 3162 781 
Q 3040 448 2707 185 
Q 2374 -77 1811 -77 
Q 1510 -77 1228 28 
Q 947 134 736 345 
Q 525 557 397 880 
Q 269 1203 269 1626 
Q 269 2042 384 2387 
Q 499 2733 704 2979 
Q 909 3226 1193 3363 
Q 1478 3501 1811 3501 
Q 2496 3501 2819 3085 
Q 3142 2669 3142 1869 
L 966 1869 
L 966 1792 
Q 966 1082 1283 781 
Q 1600 480 2086 480 
Q 2528 480 2777 624 
Q 3027 768 3149 902 
L 3162 781 
z
M 1798 3168 
Q 1459 3168 1251 2909 
Q 1043 2650 986 2163 
L 2426 2202 
Q 2413 2662 2288 2915 
Q 2163 3168 1798 3168 
z
" transform="scale(0.015625)"/>
       <path id="HardingTextWeb-Regular-63" d="M 3046 749 
Q 3002 595 2902 448 
Q 2803 301 2652 185 
Q 2502 70 2291 -3 
Q 2080 -77 1811 -77 
Q 1491 -77 1206 38 
Q 922 154 717 371 
Q 512 589 390 905 
Q 269 1222 269 1626 
Q 269 2086 416 2435 
Q 563 2784 800 3021 
Q 1037 3258 1341 3376 
Q 1645 3494 1965 3494 
Q 2528 3494 2768 3283 
Q 3008 3072 3008 2829 
Q 3008 2650 2918 2547 
Q 2829 2445 2650 2445 
Q 2490 2445 2410 2550 
Q 2330 2656 2304 2854 
Q 2291 3053 2220 3107 
Q 2150 3162 1933 3162 
Q 1542 3162 1254 2806 
Q 966 2451 966 1830 
Q 966 1139 1264 803 
Q 1562 467 2042 467 
Q 2368 467 2621 572 
Q 2874 678 3034 858 
L 3046 749 
z
" transform="scale(0.015625)"/>
       <path id="HardingTextWeb-Regular-6e" d="M 288 3206 
L 1190 3482 
L 1216 3462 
L 1197 2886 
L 1222 2886 
Q 1344 3130 1664 3315 
Q 1984 3501 2374 3501 
Q 2893 3501 3104 3261 
Q 3315 3021 3315 2515 
L 3315 1158 
Q 3315 883 3337 563 
Q 3360 243 3437 0 
L 2515 0 
Q 2586 230 2605 512 
Q 2624 794 2624 1107 
L 2624 2426 
Q 2624 2701 2480 2825 
Q 2336 2950 2035 2950 
Q 1798 2950 1596 2870 
Q 1395 2790 1242 2637 
L 1242 1107 
Q 1242 794 1261 512 
Q 1280 230 1350 0 
L 429 0 
Q 506 243 528 563 
Q 550 883 550 1158 
L 550 2362 
Q 550 2637 473 2870 
Q 397 3104 288 3206 
z
" transform="scale(0.015625)"/>
       <path id="HardingTextWeb-Regular-69" d="M 915 3942 
Q 723 3942 601 4064 
Q 480 4186 480 4365 
Q 480 4544 601 4665 
Q 723 4787 915 4787 
Q 1114 4787 1235 4665 
Q 1357 4544 1357 4365 
Q 1357 4186 1235 4064 
Q 1114 3942 915 3942 
z
M 1389 0 
L 454 0 
Q 531 243 553 563 
Q 576 883 576 1158 
L 576 2362 
Q 576 2637 499 2870 
Q 422 3104 314 3206 
L 1248 3482 
L 1299 3443 
Q 1293 3411 1286 3283 
Q 1280 3155 1277 3008 
Q 1274 2861 1270 2733 
Q 1267 2605 1267 2566 
L 1267 1158 
Q 1267 883 1289 563 
Q 1312 243 1389 0 
z
" transform="scale(0.015625)"/>
       <path id="HardingTextWeb-Regular-6c" d="M 1376 0 
L 448 0 
Q 525 243 547 563 
Q 570 883 570 1158 
L 570 3853 
Q 570 4128 493 4361 
Q 416 4595 307 4704 
L 1235 5005 
L 1286 4966 
Q 1286 4934 1280 4809 
Q 1274 4685 1267 4541 
Q 1261 4397 1257 4269 
Q 1254 4141 1254 4102 
L 1254 1158 
Q 1254 883 1276 563 
Q 1299 243 1376 0 
z
" transform="scale(0.015625)"/>
      </defs>
      <use xlink:href="#HardingTextWeb-Regular-35"/>
      <use xlink:href="#HardingTextWeb-Regular-30" x="51.199997"/>
      <use xlink:href="#HardingTextWeb-Regular-74" x="117.499985"/>
      <use xlink:href="#HardingTextWeb-Regular-68" x="155.799973"/>
      <use xlink:href="#HardingTextWeb-Regular-20" x="215.59996"/>
      <use xlink:href="#HardingTextWeb-Regular-70" x="233.199951"/>
      <use xlink:href="#HardingTextWeb-Regular-65" x="294.999939"/>
      <use xlink:href="#HardingTextWeb-Regular-72" x="348.199936"/>
      <use xlink:href="#HardingTextWeb-Regular-63" x="389.699921"/>
      <use xlink:href="#HardingTextWeb-Regular-65" x="440.899918"/>
      <use xlink:href="#HardingTextWeb-Regular-6e" x="494.099915"/>
      <use xlink:href="#HardingTextWeb-Regular-74" x="553.799911"/>
      <use xlink:href="#HardingTextWeb-Regular-69" x="592.099899"/>
      <use xlink:href="#HardingTextWeb-Regular-6c" x="620.69989"/>
      <use xlink:href="#HardingTextWeb-Regular-65" x="649.199875"/>
     </g>
    </g>
    <g id="line2d_29">
     <path d="M 273.352356 60.130657 
L 283.352356 60.130657 
L 293.352356 60.130657 
" style="fill: none; stroke-dasharray: 12.8,3.2,2,3.2; stroke-dashoffset: 0; stroke: #ffff00; stroke-width: 2"/>
    </g>
    <g id="text_24">
     <!-- pkbudg500-SSP1 -->
     <g transform="translate(301.352356 63.630657) scale(0.1 -0.1)">
      <defs>
       <path id="HardingTextWeb-Regular-6b" d="M 1357 0 
L 435 0 
Q 512 243 531 563 
Q 550 883 550 1158 
L 550 3898 
Q 550 4173 476 4384 
Q 403 4595 288 4704 
L 1216 5005 
L 1267 4966 
Q 1267 4934 1260 4806 
Q 1254 4678 1251 4531 
Q 1248 4384 1245 4256 
Q 1242 4128 1242 4090 
L 1242 1818 
L 2074 2733 
Q 2272 2950 2358 3116 
Q 2445 3283 2483 3424 
L 3226 3424 
Q 3027 3245 2848 3053 
Q 2669 2861 2458 2637 
L 1850 1990 
L 2688 877 
Q 2867 640 3062 425 
Q 3258 211 3475 0 
L 2541 0 
L 1242 1709 
L 1242 1158 
Q 1242 883 1261 563 
Q 1280 243 1357 0 
z
" transform="scale(0.015625)"/>
       <path id="HardingTextWeb-Regular-75" d="M 506 2419 
Q 506 2637 477 2889 
Q 448 3142 378 3354 
L 1197 3462 
L 1197 1082 
Q 1197 768 1331 585 
Q 1466 403 1792 403 
Q 2074 403 2285 537 
Q 2496 672 2592 832 
L 2592 2419 
Q 2592 2637 2563 2889 
Q 2534 3142 2458 3354 
L 3283 3462 
L 3283 966 
Q 3283 576 3321 377 
Q 3360 179 3418 0 
L 2630 0 
L 2624 525 
L 2605 525 
Q 2560 429 2473 320 
Q 2387 211 2256 124 
Q 2125 38 1942 -19 
Q 1760 -77 1523 -77 
Q 960 -77 733 233 
Q 506 544 506 1050 
L 506 2419 
z
" transform="scale(0.015625)"/>
       <path id="HardingTextWeb-Regular-64" d="M 1965 3501 
Q 2202 3501 2400 3456 
Q 2598 3411 2701 3347 
L 2701 3859 
Q 2701 4141 2617 4365 
Q 2534 4589 2432 4698 
L 3379 4998 
L 3430 4960 
Q 3405 4749 3395 4550 
Q 3386 4352 3386 4051 
L 3386 1018 
Q 3386 634 3424 406 
Q 3462 179 3520 0 
L 2733 0 
L 2720 512 
L 2694 512 
Q 2592 275 2349 99 
Q 2106 -77 1702 -77 
Q 1434 -77 1181 28 
Q 928 134 729 345 
Q 531 557 412 877 
Q 294 1197 294 1613 
Q 294 2093 451 2451 
Q 608 2810 848 3040 
Q 1088 3270 1385 3385 
Q 1683 3501 1965 3501 
z
M 2701 787 
L 2701 2579 
Q 2694 2854 2480 3008 
Q 2266 3162 1914 3162 
Q 1530 3162 1274 2822 
Q 1018 2483 1018 1837 
Q 1018 1133 1299 768 
Q 1581 403 1971 403 
Q 2227 403 2425 521 
Q 2624 640 2701 787 
z
" transform="scale(0.015625)"/>
       <path id="HardingTextWeb-Regular-67" d="M 1664 1120 
Q 1523 1120 1382 1142 
Q 1242 1165 1114 1210 
Q 1011 1146 966 1072 
Q 922 998 922 896 
Q 922 774 1008 704 
Q 1094 634 1261 634 
Q 1414 634 1593 640 
Q 1773 646 1958 649 
Q 2144 653 2326 659 
Q 2509 666 2662 666 
Q 3085 666 3321 467 
Q 3558 269 3558 -115 
Q 3558 -397 3417 -630 
Q 3277 -864 3021 -1027 
Q 2765 -1190 2400 -1280 
Q 2035 -1370 1594 -1370 
Q 813 -1370 457 -1146 
Q 102 -922 102 -653 
Q 102 -378 332 -198 
Q 563 -19 870 64 
L 870 90 
Q 710 115 553 256 
Q 397 397 397 646 
Q 397 890 537 1050 
Q 678 1210 883 1274 
L 883 1299 
Q 614 1440 448 1686 
Q 282 1933 282 2272 
Q 282 2554 394 2781 
Q 506 3008 694 3168 
Q 883 3328 1136 3414 
Q 1389 3501 1664 3501 
Q 1888 3501 2102 3449 
Q 2317 3398 2490 3296 
L 3520 3603 
L 3520 2944 
Q 3379 2963 3164 3004 
Q 2950 3046 2771 3053 
Q 2899 2925 2976 2752 
Q 3053 2579 3053 2362 
Q 3053 2080 2937 1849 
Q 2822 1619 2633 1459 
Q 2445 1299 2192 1209 
Q 1939 1120 1664 1120 
z
M 1651 3181 
Q 1350 3181 1164 2969 
Q 979 2758 979 2285 
Q 979 1869 1180 1654 
Q 1382 1440 1677 1440 
Q 1971 1440 2169 1657 
Q 2368 1875 2368 2349 
Q 2368 2765 2157 2973 
Q 1946 3181 1651 3181 
z
M 730 -557 
Q 730 -794 941 -931 
Q 1152 -1069 1594 -1069 
Q 2298 -1069 2662 -857 
Q 3027 -646 3027 -384 
Q 3027 -147 2902 -64 
Q 2778 19 2560 19 
Q 2419 19 2201 12 
Q 1984 6 1763 -3 
Q 1542 -13 1363 -19 
Q 1184 -26 1120 -32 
Q 960 -58 845 -205 
Q 730 -352 730 -557 
z
" transform="scale(0.015625)"/>
       <path id="HardingTextWeb-Regular-2d" d="M 371 1792 
L 371 2317 
L 1600 2317 
L 1600 1792 
L 371 1792 
z
" transform="scale(0.015625)"/>
       <path id="HardingTextWeb-Regular-53" d="M 1811 4698 
Q 2240 4698 2480 4621 
Q 2720 4544 2912 4454 
L 2957 3693 
L 2925 3693 
Q 2739 3981 2425 4157 
Q 2112 4333 1747 4333 
Q 1389 4333 1203 4166 
Q 1018 4000 1018 3699 
Q 1018 3398 1226 3200 
Q 1434 3002 2010 2733 
Q 2560 2477 2921 2179 
Q 3283 1882 3283 1306 
Q 3283 1037 3190 784 
Q 3098 531 2902 342 
Q 2707 154 2400 38 
Q 2093 -77 1664 -77 
Q 1280 -77 941 3 
Q 602 83 320 237 
L 269 1114 
L 301 1114 
Q 538 781 909 531 
Q 1280 282 1677 282 
Q 2118 282 2345 467 
Q 2573 653 2573 992 
Q 2573 1357 2358 1581 
Q 2144 1805 1683 2035 
Q 1382 2176 1129 2307 
Q 877 2438 697 2598 
Q 518 2758 416 2972 
Q 314 3187 314 3494 
Q 314 4019 717 4358 
Q 1120 4698 1811 4698 
z
" transform="scale(0.015625)"/>
       <path id="HardingTextWeb-Regular-50" d="M 1350 1203 
Q 1350 928 1388 592 
Q 1427 256 1491 0 
L 422 0 
Q 506 256 544 592 
Q 582 928 582 1203 
L 582 3418 
Q 582 3693 544 4029 
Q 506 4365 422 4621 
L 1875 4621 
Q 2656 4621 3078 4281 
Q 3501 3942 3501 3322 
Q 3501 2701 3078 2361 
Q 2656 2022 1875 2022 
L 1350 2022 
L 1350 1203 
z
M 1830 4269 
L 1350 4269 
L 1350 2362 
L 1830 2362 
Q 2323 2362 2521 2605 
Q 2720 2848 2720 3322 
Q 2720 3795 2521 4032 
Q 2323 4269 1830 4269 
z
" transform="scale(0.015625)"/>
       <path id="HardingTextWeb-Regular-31" d="M 294 0 
L 294 339 
L 960 339 
Q 998 538 1017 778 
Q 1037 1018 1037 1312 
L 1037 3917 
L 256 3949 
L 256 4205 
Q 730 4269 1120 4413 
Q 1510 4557 1830 4678 
Q 1786 4384 1776 4080 
Q 1766 3776 1766 3494 
L 1766 1312 
Q 1766 1018 1788 778 
Q 1811 538 1843 339 
L 2483 339 
L 2483 0 
L 294 0 
z
" transform="scale(0.015625)"/>
      </defs>
      <use xlink:href="#HardingTextWeb-Regular-70"/>
      <use xlink:href="#HardingTextWeb-Regular-6b" x="61.799988"/>
      <use xlink:href="#HardingTextWeb-Regular-62" x="116.299973"/>
      <use xlink:href="#HardingTextWeb-Regular-75" x="176.999969"/>
      <use xlink:href="#HardingTextWeb-Regular-64" x="236.899963"/>
      <use xlink:href="#HardingTextWeb-Regular-67" x="298.399948"/>
      <use xlink:href="#HardingTextWeb-Regular-35" x="356.599945"/>
      <use xlink:href="#HardingTextWeb-Regular-30" x="407.799942"/>
      <use xlink:href="#HardingTextWeb-Regular-30" x="474.09993"/>
      <use xlink:href="#HardingTextWeb-Regular-2d" x="540.399918"/>
      <use xlink:href="#HardingTextWeb-Regular-53" x="571.199905"/>
      <use xlink:href="#HardingTextWeb-Regular-53" x="626.69989"/>
      <use xlink:href="#HardingTextWeb-Regular-50" x="682.199875"/>
      <use xlink:href="#HardingTextWeb-Regular-31" x="740.299866"/>
     </g>
    </g>
    <g id="line2d_30">
     <path d="M 273.352356 75.091595 
L 283.352356 75.091595 
L 293.352356 75.091595 
" style="fill: none; stroke-dasharray: 12.8,3.2,2,3.2; stroke-dashoffset: 0; stroke: #ffa500; stroke-width: 2"/>
    </g>
    <g id="text_25">
     <!-- pkbudg500-SSP2 -->
     <g transform="translate(301.352356 78.591595) scale(0.1 -0.1)">
      <defs>
       <path id="HardingTextWeb-Regular-32" d="M 3040 3418 
Q 3040 3002 2825 2598 
Q 2611 2195 2297 1836 
Q 1984 1478 1619 1168 
Q 1254 858 954 621 
L 1926 621 
Q 2125 621 2329 640 
Q 2534 659 2713 691 
Q 2893 723 3040 761 
Q 3187 800 3270 838 
L 3091 0 
L 243 0 
L 141 224 
Q 576 653 963 1046 
Q 1350 1440 1638 1811 
Q 1926 2182 2096 2547 
Q 2266 2912 2266 3283 
Q 2266 3648 2061 3872 
Q 1856 4096 1434 4096 
Q 1069 4096 845 3952 
Q 621 3808 403 3494 
L 262 3584 
Q 429 4051 790 4371 
Q 1152 4691 1728 4691 
Q 2406 4691 2723 4329 
Q 3040 3968 3040 3418 
z
" transform="scale(0.015625)"/>
      </defs>
      <use xlink:href="#HardingTextWeb-Regular-70"/>
      <use xlink:href="#HardingTextWeb-Regular-6b" x="61.799988"/>
      <use xlink:href="#HardingTextWeb-Regular-62" x="116.299973"/>
      <use xlink:href="#HardingTextWeb-Regular-75" x="176.999969"/>
      <use xlink:href="#HardingTextWeb-Regular-64" x="236.899963"/>
      <use xlink:href="#HardingTextWeb-Regular-67" x="298.399948"/>
      <use xlink:href="#HardingTextWeb-Regular-35" x="356.599945"/>
      <use xlink:href="#HardingTextWeb-Regular-30" x="407.799942"/>
      <use xlink:href="#HardingTextWeb-Regular-30" x="474.09993"/>
      <use xlink:href="#HardingTextWeb-Regular-2d" x="540.399918"/>
      <use xlink:href="#HardingTextWeb-Regular-53" x="571.199905"/>
      <use xlink:href="#HardingTextWeb-Regular-53" x="626.69989"/>
      <use xlink:href="#HardingTextWeb-Regular-50" x="682.199875"/>
      <use xlink:href="#HardingTextWeb-Regular-32" x="740.299866"/>
     </g>
    </g>
    <g id="line2d_31">
     <path d="M 273.352356 90.052532 
L 283.352356 90.052532 
L 293.352356 90.052532 
" style="fill: none; stroke-dasharray: 12.8,3.2,2,3.2; stroke-dashoffset: 0; stroke: #800080; stroke-width: 2"/>
    </g>
    <g id="text_26">
     <!-- pkbudg500-SSP5 -->
     <g transform="translate(301.352356 93.552532) scale(0.1 -0.1)">
      <use xlink:href="#HardingTextWeb-Regular-70"/>
      <use xlink:href="#HardingTextWeb-Regular-6b" x="61.799988"/>
      <use xlink:href="#HardingTextWeb-Regular-62" x="116.299973"/>
      <use xlink:href="#HardingTextWeb-Regular-75" x="176.999969"/>
      <use xlink:href="#HardingTextWeb-Regular-64" x="236.899963"/>
      <use xlink:href="#HardingTextWeb-Regular-67" x="298.399948"/>
      <use xlink:href="#HardingTextWeb-Regular-35" x="356.599945"/>
      <use xlink:href="#HardingTextWeb-Regular-30" x="407.799942"/>
      <use xlink:href="#HardingTextWeb-Regular-30" x="474.09993"/>
      <use xlink:href="#HardingTextWeb-Regular-2d" x="540.399918"/>
      <use xlink:href="#HardingTextWeb-Regular-53" x="571.199905"/>
      <use xlink:href="#HardingTextWeb-Regular-53" x="626.69989"/>
      <use xlink:href="#HardingTextWeb-Regular-50" x="682.199875"/>
      <use xlink:href="#HardingTextWeb-Regular-35" x="740.299866"/>
     </g>
    </g>
    <g id="line2d_32">
     <path d="M 273.352356 105.01347 
L 283.352356 105.01347 
L 293.352356 105.01347 
" style="fill: none; stroke-dasharray: 7.4,3.2; stroke-dashoffset: 0; stroke: #ff0000; stroke-width: 2"/>
    </g>
    <g id="text_27">
     <!-- IEA NZE 2050 -->
     <g transform="translate(301.352356 108.51347) scale(0.1 -0.1)">
      <defs>
       <path id="HardingTextWeb-Regular-49" d="M 1370 1203 
Q 1370 928 1424 592 
Q 1478 256 1568 0 
L 390 0 
Q 493 256 547 592 
Q 602 928 602 1203 
L 602 3418 
Q 602 3693 547 4029 
Q 493 4365 390 4621 
L 1568 4621 
Q 1478 4365 1424 4029 
Q 1370 3693 1370 3418 
L 1370 1203 
z
" transform="scale(0.015625)"/>
       <path id="HardingTextWeb-Regular-45" d="M 3162 0 
L 422 0 
Q 506 256 544 592 
Q 582 928 582 1203 
L 582 3418 
Q 582 3693 544 4029 
Q 506 4365 422 4621 
L 3123 4621 
L 3098 4051 
Q 2829 4166 2493 4214 
Q 2157 4262 1875 4262 
L 1350 4262 
L 1350 2605 
L 1875 2605 
Q 2080 2605 2352 2630 
Q 2624 2656 2829 2694 
L 2765 2138 
Q 2573 2195 2317 2220 
Q 2061 2246 1837 2246 
L 1350 2246 
L 1350 358 
L 1798 358 
Q 1971 358 2176 374 
Q 2381 390 2579 419 
Q 2778 448 2960 493 
Q 3142 538 3270 595 
L 3162 0 
z
" transform="scale(0.015625)"/>
       <path id="HardingTextWeb-Regular-41" d="M 2867 979 
Q 2822 1088 2774 1229 
Q 2726 1370 2669 1523 
L 1203 1523 
Q 1133 1318 1081 1168 
Q 1030 1018 1011 960 
Q 896 608 950 336 
Q 1005 64 1050 0 
L 51 0 
Q 192 192 304 403 
Q 416 614 557 1024 
Q 691 1382 857 1827 
Q 1024 2272 1197 2742 
Q 1370 3213 1546 3683 
Q 1722 4154 1875 4557 
L 2330 4698 
Q 2483 4256 2659 3769 
Q 2835 3283 3011 2800 
Q 3187 2317 3360 1840 
Q 3533 1363 3680 947 
Q 3776 678 3907 409 
Q 4038 141 4166 0 
L 2874 0 
Q 2918 77 2937 195 
Q 2957 314 2953 451 
Q 2950 589 2928 726 
Q 2906 864 2867 979 
z
M 1901 3552 
Q 1850 3398 1779 3200 
Q 1709 3002 1635 2781 
Q 1562 2560 1482 2329 
Q 1402 2099 1325 1888 
L 2541 1888 
Q 2381 2336 2214 2797 
Q 2048 3258 1939 3552 
L 1901 3552 
z
" transform="scale(0.015625)"/>
       <path id="HardingTextWeb-Regular-4e" d="M 4077 3187 
L 4077 0 
L 3571 0 
L 1126 3750 
L 1094 3750 
L 1094 1485 
Q 1094 1056 1142 733 
Q 1190 410 1274 0 
L 480 0 
Q 563 403 611 729 
Q 659 1056 659 1485 
L 659 3258 
Q 659 3533 640 3721 
Q 621 3910 579 4057 
Q 538 4205 467 4333 
Q 397 4461 288 4621 
L 1414 4621 
L 3616 1280 
L 3642 1280 
L 3642 3187 
Q 3642 3328 3629 3520 
Q 3616 3712 3593 3913 
Q 3571 4115 3536 4304 
Q 3501 4493 3462 4621 
L 4250 4621 
Q 4211 4493 4179 4304 
Q 4147 4115 4124 3913 
Q 4102 3712 4089 3520 
Q 4077 3328 4077 3187 
z
" transform="scale(0.015625)"/>
       <path id="HardingTextWeb-Regular-5a" d="M 3603 0 
L 250 0 
L 192 166 
L 2803 4262 
L 1702 4262 
Q 1581 4262 1411 4243 
Q 1242 4224 1066 4189 
Q 890 4154 717 4102 
Q 544 4051 410 3994 
L 467 4640 
Q 691 4634 995 4627 
Q 1299 4621 1536 4621 
L 3706 4621 
L 3776 4499 
L 1165 358 
L 2355 358 
Q 2496 358 2665 374 
Q 2835 390 3011 419 
Q 3187 448 3353 493 
Q 3520 538 3654 589 
L 3603 0 
z
" transform="scale(0.015625)"/>
      </defs>
      <use xlink:href="#HardingTextWeb-Regular-49"/>
      <use xlink:href="#HardingTextWeb-Regular-45" x="30.499985"/>
      <use xlink:href="#HardingTextWeb-Regular-41" x="85.699982"/>
      <use xlink:href="#HardingTextWeb-Regular-20" x="151.999969"/>
      <use xlink:href="#HardingTextWeb-Regular-4e" x="169.59996"/>
      <use xlink:href="#HardingTextWeb-Regular-5a" x="242.099945"/>
      <use xlink:href="#HardingTextWeb-Regular-45" x="304.09993"/>
      <use xlink:href="#HardingTextWeb-Regular-20" x="359.299927"/>
      <use xlink:href="#HardingTextWeb-Regular-32" x="376.899918"/>
      <use xlink:href="#HardingTextWeb-Regular-30" x="431.099915"/>
      <use xlink:href="#HardingTextWeb-Regular-35" x="497.399902"/>
      <use xlink:href="#HardingTextWeb-Regular-30" x="548.599899"/>
     </g>
    </g>
   </g>
  </g>
  <g id="axes_3">
   <g id="patch_8">
    <path d="M 467.521482 384.021395 
L 622.63643 384.021395 
L 622.63643 21.020312 
L 467.521482 21.020312 
L 467.521482 384.021395 
z
" style="fill: none"/>
   </g>
   <g id="PolyCollection_7">
    <defs>
     <path id="ma6814cc285" d="M 467.521482 -28.41445 
L 467.521482 -25.816036 
L 472.69198 -26.226036 
L 477.862479 -26.62519 
L 483.032977 -27.011823 
L 488.203475 -27.302135 
L 493.373973 -27.097011 
L 498.544472 -27.302979 
L 503.71497 -27.483167 
L 508.885468 -27.636553 
L 514.055967 -27.761934 
L 519.226465 -27.857897 
L 524.396963 -28.886981 
L 529.567461 -29.783648 
L 534.73796 -30.50133 
L 539.908458 -31.074232 
L 545.078956 -31.498883 
L 550.249454 -33.518504 
L 555.419953 -34.399636 
L 560.590451 -35.098381 
L 565.760949 -35.592214 
L 570.931448 -35.854298 
L 576.101946 -36.968424 
L 581.272444 -38.093993 
L 586.442942 -39.233503 
L 591.613441 -40.38967 
L 596.783939 -41.565465 
L 601.954437 -43.000028 
L 607.124936 -44.486858 
L 612.295434 -46.028797 
L 617.465932 -47.628901 
L 622.63643 -46.584009 
L 622.63643 -368.095864 
L 622.63643 -368.095864 
L 617.465932 -329.943817 
L 612.295434 -294.073314 
L 607.124936 -260.369312 
L 601.954437 -228.727641 
L 596.783939 -207.416783 
L 591.613441 -184.169106 
L 586.442942 -162.541561 
L 581.272444 -143.117261 
L 576.101946 -136.230351 
L 570.931448 -128.346766 
L 565.760949 -125.21573 
L 560.590451 -120.566953 
L 555.419953 -113.845876 
L 550.249454 -105.069615 
L 545.078956 -94.225313 
L 539.908458 -93.506445 
L 534.73796 -89.242674 
L 529.567461 -82.211518 
L 524.396963 -72.923335 
L 519.226465 -61.721872 
L 514.055967 -60.104275 
L 508.885468 -56.585665 
L 503.71497 -51.785978 
L 498.544472 -46.101558 
L 493.373973 -39.796891 
L 488.203475 -37.61739 
L 483.032977 -35.367067 
L 477.862479 -33.048558 
L 472.69198 -30.664211 
L 467.521482 -28.41445 
z
"/>
    </defs>
    <g clip-path="url(#p7a2fbe1218)">
     <use xlink:href="#ma6814cc285" x="0" y="404.39952" style="fill: #822681; fill-opacity: 0.1"/>
    </g>
   </g>
   <g id="PolyCollection_8">
    <defs>
     <path id="mc1ae674317" d="M 467.521482 -28.250327 
L 467.521482 -25.934478 
L 472.69198 -26.455906 
L 477.862479 -26.953801 
L 483.032977 -27.425726 
L 488.203475 -27.379881 
L 493.373973 -27.428067 
L 498.544472 -27.609253 
L 503.71497 -27.752415 
L 508.885468 -27.854553 
L 514.055967 -27.912188 
L 519.226465 -27.921277 
L 524.396963 -28.922154 
L 529.567461 -29.807675 
L 534.73796 -30.618336 
L 539.908458 -31.321039 
L 545.078956 -31.915648 
L 550.249454 -34.436163 
L 555.419953 -35.716759 
L 560.590451 -36.859119 
L 565.760949 -37.860337 
L 570.931448 -38.716713 
L 576.101946 -40.240236 
L 581.272444 -41.807724 
L 586.442942 -43.422658 
L 591.613441 -45.088774 
L 596.783939 -46.810094 
L 601.954437 -49.242113 
L 607.124936 -50.116495 
L 612.295434 -49.604831 
L 617.465932 -48.489295 
L 622.63643 -49.155137 
L 622.63643 -317.825946 
L 622.63643 -317.825946 
L 617.465932 -294.234046 
L 612.295434 -271.341143 
L 607.124936 -249.160901 
L 601.954437 -227.708108 
L 596.783939 -199.472168 
L 591.613441 -175.835252 
L 586.442942 -154.13576 
L 581.272444 -142.527601 
L 576.101946 -134.699146 
L 570.931448 -127.773217 
L 565.760949 -119.882325 
L 560.590451 -110.874081 
L 555.419953 -101.454214 
L 550.249454 -91.725996 
L 545.078956 -82.282247 
L 539.908458 -82.576236 
L 534.73796 -79.000881 
L 529.567461 -72.97818 
L 524.396963 -65.335523 
L 519.226465 -56.585844 
L 514.055967 -54.86601 
L 508.885468 -51.845649 
L 503.71497 -48.025568 
L 498.544472 -43.71466 
L 493.373973 -39.110954 
L 488.203475 -37.037926 
L 483.032977 -34.91099 
L 477.862479 -32.731153 
L 472.69198 -30.49928 
L 467.521482 -28.250327 
z
"/>
    </defs>
    <g clip-path="url(#p7a2fbe1218)">
     <use xlink:href="#mc1ae674317" x="0" y="404.39952" style="fill: #822681; fill-opacity: 0.2"/>
    </g>
   </g>
   <g id="PolyCollection_9">
    <defs>
     <path id="m718943e995" d="M 467.521482 -28.015684 
L 467.521482 -27.633202 
L 472.69198 -27.737866 
L 477.862479 -27.664119 
L 483.032977 -27.671048 
L 488.203475 -27.858722 
L 493.373973 -27.998427 
L 498.544472 -28.591326 
L 503.71497 -28.893596 
L 508.885468 -29.137831 
L 514.055967 -29.316499 
L 519.226465 -29.420005 
L 524.396963 -30.917377 
L 529.567461 -32.515732 
L 534.73796 -33.994176 
L 539.908458 -35.328308 
L 545.078956 -36.486889 
L 550.249454 -40.530249 
L 555.419953 -42.681625 
L 560.590451 -44.704396 
L 565.760949 -46.463804 
L 570.931448 -47.466855 
L 576.101946 -51.429772 
L 581.272444 -56.317963 
L 586.442942 -57.611761 
L 591.613441 -58.7965 
L 596.783939 -60.558232 
L 601.954437 -63.226406 
L 607.124936 -65.851944 
L 612.295434 -68.437189 
L 617.465932 -70.984484 
L 622.63643 -73.496188 
L 622.63643 -130.959871 
L 622.63643 -130.959871 
L 617.465932 -131.844905 
L 612.295434 -130.019225 
L 607.124936 -127.511064 
L 601.954437 -124.408444 
L 596.783939 -120.769794 
L 591.613441 -122.100825 
L 586.442942 -118.498089 
L 581.272444 -110.38386 
L 576.101946 -100.811754 
L 570.931448 -90.991061 
L 565.760949 -89.935441 
L 560.590451 -85.336949 
L 555.419953 -75.967154 
L 550.249454 -68.229173 
L 545.078956 -62.573282 
L 539.908458 -63.332885 
L 534.73796 -61.468676 
L 529.567461 -58.002179 
L 524.396963 -52.521343 
L 519.226465 -46.026449 
L 514.055967 -43.214953 
L 508.885468 -40.290028 
L 503.71497 -37.279158 
L 498.544472 -34.200559 
L 493.373973 -31.066417 
L 488.203475 -30.486752 
L 483.032977 -29.895182 
L 477.862479 -29.293466 
L 472.69198 -28.640649 
L 467.521482 -28.015684 
z
"/>
    </defs>
    <g clip-path="url(#p7a2fbe1218)">
     <use xlink:href="#m718943e995" x="0" y="404.39952" style="fill: #822681; fill-opacity: 0.4"/>
    </g>
   </g>
   <g id="matplotlib.axis_5">
    <g id="xtick_9">
     <g id="line2d_33">
      <g>
       <use xlink:href="#m8a44588abf" x="467.521482" y="384.021395" style="stroke: #000000; stroke-width: 0.8"/>
      </g>
     </g>
     <g id="text_28">
      <!-- 2020 -->
      <g transform="translate(454.796482 395.119832) scale(0.1 -0.1)">
       <use xlink:href="#DejaVuSans-32"/>
       <use xlink:href="#DejaVuSans-30" x="63.623047"/>
       <use xlink:href="#DejaVuSans-32" x="127.246094"/>
       <use xlink:href="#DejaVuSans-30" x="190.869141"/>
      </g>
     </g>
    </g>
    <g id="xtick_10">
     <g id="line2d_34">
      <g>
       <use xlink:href="#m8a44588abf" x="519.226465" y="384.021395" style="stroke: #000000; stroke-width: 0.8"/>
      </g>
     </g>
     <g id="text_29">
      <!-- 2030 -->
      <g transform="translate(506.501465 395.119832) scale(0.1 -0.1)">
       <use xlink:href="#DejaVuSans-32"/>
       <use xlink:href="#DejaVuSans-30" x="63.623047"/>
       <use xlink:href="#DejaVuSans-33" x="127.246094"/>
       <use xlink:href="#DejaVuSans-30" x="190.869141"/>
      </g>
     </g>
    </g>
    <g id="xtick_11">
     <g id="line2d_35">
      <g>
       <use xlink:href="#m8a44588abf" x="570.931448" y="384.021395" style="stroke: #000000; stroke-width: 0.8"/>
      </g>
     </g>
     <g id="text_30">
      <!-- 2040 -->
      <g transform="translate(558.206448 395.119832) scale(0.1 -0.1)">
       <use xlink:href="#DejaVuSans-32"/>
       <use xlink:href="#DejaVuSans-30" x="63.623047"/>
       <use xlink:href="#DejaVuSans-34" x="127.246094"/>
       <use xlink:href="#DejaVuSans-30" x="190.869141"/>
      </g>
     </g>
    </g>
    <g id="xtick_12">
     <g id="line2d_36">
      <g>
       <use xlink:href="#m8a44588abf" x="622.63643" y="384.021395" style="stroke: #000000; stroke-width: 0.8"/>
      </g>
     </g>
     <g id="text_31">
      <!-- 2050 -->
      <g transform="translate(609.91143 395.119832) scale(0.1 -0.1)">
       <use xlink:href="#DejaVuSans-32"/>
       <use xlink:href="#DejaVuSans-30" x="63.623047"/>
       <use xlink:href="#DejaVuSans-35" x="127.246094"/>
       <use xlink:href="#DejaVuSans-30" x="190.869141"/>
      </g>
     </g>
    </g>
   </g>
   <g id="matplotlib.axis_6">
    <g id="ytick_10">
     <g id="line2d_37">
      <g>
       <use xlink:href="#md970617b3e" x="467.521482" y="379.5399" style="stroke: #000000; stroke-width: 0.8"/>
      </g>
     </g>
     <g id="text_32">
      <!-- 0.0 -->
      <g transform="translate(448.118357 383.339119) scale(0.1 -0.1)">
       <defs>
        <path id="DejaVuSans-2e" d="M 684 794 
L 1344 794 
L 1344 0 
L 684 0 
L 684 794 
z
" transform="scale(0.015625)"/>
       </defs>
       <use xlink:href="#DejaVuSans-30"/>
       <use xlink:href="#DejaVuSans-2e" x="63.623047"/>
       <use xlink:href="#DejaVuSans-30" x="95.410156"/>
      </g>
     </g>
    </g>
    <g id="ytick_11">
     <g id="line2d_38">
      <g>
       <use xlink:href="#md970617b3e" x="467.521482" y="307.835983" style="stroke: #000000; stroke-width: 0.8"/>
      </g>
     </g>
     <g id="text_33">
      <!-- 0.8 -->
      <g transform="translate(448.118357 311.635201) scale(0.1 -0.1)">
       <use xlink:href="#DejaVuSans-30"/>
       <use xlink:href="#DejaVuSans-2e" x="63.623047"/>
       <use xlink:href="#DejaVuSans-38" x="95.410156"/>
      </g>
     </g>
    </g>
    <g id="ytick_12">
     <g id="line2d_39">
      <g>
       <use xlink:href="#md970617b3e" x="467.521482" y="236.132065" style="stroke: #000000; stroke-width: 0.8"/>
      </g>
     </g>
     <g id="text_34">
      <!-- 1.6 -->
      <g transform="translate(448.118357 239.931284) scale(0.1 -0.1)">
       <use xlink:href="#DejaVuSans-31"/>
       <use xlink:href="#DejaVuSans-2e" x="63.623047"/>
       <use xlink:href="#DejaVuSans-36" x="95.410156"/>
      </g>
     </g>
    </g>
    <g id="ytick_13">
     <g id="line2d_40">
      <g>
       <use xlink:href="#md970617b3e" x="467.521482" y="164.428148" style="stroke: #000000; stroke-width: 0.8"/>
      </g>
     </g>
     <g id="text_35">
      <!-- 2.4 -->
      <g transform="translate(448.118357 168.227366) scale(0.1 -0.1)">
       <use xlink:href="#DejaVuSans-32"/>
       <use xlink:href="#DejaVuSans-2e" x="63.623047"/>
       <use xlink:href="#DejaVuSans-34" x="95.410156"/>
      </g>
     </g>
    </g>
    <g id="ytick_14">
     <g id="line2d_41">
      <g>
       <use xlink:href="#md970617b3e" x="467.521482" y="92.72423" style="stroke: #000000; stroke-width: 0.8"/>
      </g>
     </g>
     <g id="text_36">
      <!-- 3.2 -->
      <g transform="translate(448.118357 96.523449) scale(0.1 -0.1)">
       <use xlink:href="#DejaVuSans-33"/>
       <use xlink:href="#DejaVuSans-2e" x="63.623047"/>
       <use xlink:href="#DejaVuSans-32" x="95.410156"/>
      </g>
     </g>
    </g>
    <g id="ytick_15">
     <g id="line2d_42">
      <g>
       <use xlink:href="#md970617b3e" x="467.521482" y="21.020312" style="stroke: #000000; stroke-width: 0.8"/>
      </g>
     </g>
     <g id="text_37">
      <!-- 4.0 -->
      <g transform="translate(448.118357 24.819531) scale(0.1 -0.1)">
       <use xlink:href="#DejaVuSans-34"/>
       <use xlink:href="#DejaVuSans-2e" x="63.623047"/>
       <use xlink:href="#DejaVuSans-30" x="95.410156"/>
      </g>
     </g>
    </g>
    <g id="text_38">
     <!-- %SOS/yr -->
     <g transform="translate(441.988669 221.945854) rotate(-90) scale(0.1 -0.1)">
      <defs>
       <path id="HardingTextWeb-Regular-25" d="M 1190 4691 
Q 1574 4691 1843 4393 
Q 2112 4096 2112 3558 
Q 2112 3283 2032 3062 
Q 1952 2842 1824 2691 
Q 1696 2541 1529 2461 
Q 1363 2381 1197 2381 
Q 819 2381 547 2681 
Q 275 2982 275 3520 
Q 275 3802 355 4019 
Q 435 4237 563 4387 
Q 691 4538 857 4614 
Q 1024 4691 1190 4691 
z
M 403 0 
L 3648 4621 
L 4045 4621 
L 794 0 
L 403 0 
z
M 1197 2592 
Q 1427 2592 1523 2841 
Q 1619 3091 1619 3552 
Q 1619 4019 1520 4249 
Q 1421 4480 1190 4480 
Q 960 4480 851 4233 
Q 742 3987 742 3526 
Q 742 3059 851 2825 
Q 960 2592 1197 2592 
z
M 3251 -70 
Q 2874 -70 2602 230 
Q 2330 531 2330 1069 
Q 2330 1350 2410 1568 
Q 2490 1786 2618 1936 
Q 2746 2086 2912 2163 
Q 3078 2240 3245 2240 
Q 3629 2240 3897 1942 
Q 4166 1645 4166 1107 
Q 4166 826 4086 608 
Q 4006 390 3878 240 
Q 3750 90 3584 10 
Q 3418 -70 3251 -70 
z
M 3245 2029 
Q 3014 2029 2905 1782 
Q 2797 1536 2797 1075 
Q 2797 608 2909 374 
Q 3021 141 3251 141 
Q 3482 141 3578 390 
Q 3674 640 3674 1101 
Q 3674 1568 3574 1798 
Q 3475 2029 3245 2029 
z
" transform="scale(0.015625)"/>
      </defs>
      <use xlink:href="#HardingTextWeb-Regular-25"/>
      <use xlink:href="#HardingTextWeb-Regular-53" x="69.399994"/>
      <use xlink:href="#HardingTextWeb-Regular-4f" x="124.899979"/>
      <use xlink:href="#HardingTextWeb-Regular-53" x="201.499969"/>
      <use xlink:href="#HardingTextWeb-Regular-2f" x="256.999954"/>
      <use xlink:href="#HardingTextWeb-Regular-79" x="294.399948"/>
      <use xlink:href="#HardingTextWeb-Regular-72" x="346.999939"/>
     </g>
    </g>
   </g>
   <g id="line2d_43">
    <path d="M 467.521482 376.534515 
L 472.69198 376.433575 
L 477.862479 376.319299 
L 483.032977 376.157521 
L 488.203475 376.002754 
L 493.373973 375.85569 
L 498.544472 374.880721 
L 503.71497 373.759146 
L 508.885468 372.61675 
L 514.055967 371.538132 
L 519.226465 370.698637 
L 524.396963 368.221168 
L 529.567461 365.818731 
L 534.73796 363.495793 
L 539.908458 360.880593 
L 545.078956 359.323448 
L 550.249454 355.804634 
L 555.419953 351.829955 
L 560.590451 347.721918 
L 565.760949 344.38188 
L 570.931448 341.906435 
L 576.101946 335.541227 
L 581.272444 330.339552 
L 586.442942 325.11679 
L 591.613441 320.487385 
L 596.783939 316.948868 
L 601.954437 312.659236 
L 607.124936 308.999994 
L 612.295434 307.214033 
L 617.465932 304.939664 
L 622.63643 300.933729 
" clip-path="url(#p7a2fbe1218)" style="fill: none; stroke: #822681; stroke-width: 2; stroke-linecap: square"/>
   </g>
   <g id="line2d_44">
    <path d="M 467.521482 376.183404 
L 472.69198 374.133939 
L 477.862479 372.084473 
L 483.032977 370.035008 
L 488.203475 367.985542 
L 493.373973 365.936076 
L 498.544472 363.399222 
L 503.71497 360.862367 
L 508.885468 358.325512 
L 514.055967 355.788657 
L 519.226465 353.251802 
L 524.396963 351.024261 
L 529.567461 348.79672 
L 534.73796 346.569179 
L 539.908458 344.341638 
L 545.078956 342.114097 
L 550.249454 339.739734 
L 555.419953 337.36537 
L 560.590451 334.991006 
L 565.760949 332.616643 
L 570.931448 330.242279 
L 576.101946 327.18748 
L 581.272444 324.132681 
L 586.442942 321.077882 
L 591.613441 318.023083 
L 596.783939 314.968284 
L 601.954437 310.923539 
L 607.124936 306.878794 
L 612.295434 302.83405 
L 617.465932 298.789305 
L 622.63643 294.74456 
" clip-path="url(#p7a2fbe1218)" style="fill: none; stroke-dasharray: 12.8,3.2,2,3.2; stroke-dashoffset: 0; stroke: #ffff00; stroke-width: 2"/>
   </g>
   <g id="line2d_45">
    <path d="M 467.521482 376.183404 
L 472.69198 374.011657 
L 477.862479 371.83991 
L 483.032977 369.668163 
L 488.203475 367.496415 
L 493.373973 365.324668 
L 498.544472 361.876533 
L 503.71497 358.428398 
L 508.885468 354.980263 
L 514.055967 351.532128 
L 519.226465 348.083993 
L 524.396963 343.016366 
L 529.567461 337.948738 
L 534.73796 332.881111 
L 539.908458 327.813483 
L 545.078956 322.745855 
L 550.249454 317.471353 
L 555.419953 312.196851 
L 560.590451 306.922349 
L 565.760949 301.647847 
L 570.931448 296.373344 
L 576.101946 294.590943 
L 581.272444 292.808542 
L 586.442942 291.026141 
L 591.613441 289.243741 
L 596.783939 287.46134 
L 601.954437 284.089057 
L 607.124936 280.716775 
L 612.295434 277.344492 
L 617.465932 273.97221 
L 622.63643 270.599927 
" clip-path="url(#p7a2fbe1218)" style="fill: none; stroke-dasharray: 12.8,3.2,2,3.2; stroke-dashoffset: 0; stroke: #ffa500; stroke-width: 2"/>
   </g>
   <g id="line2d_46">
    <path d="M 467.521482 376.183404 
L 472.69198 373.867249 
L 477.862479 371.551094 
L 483.032977 369.234939 
L 488.203475 366.918784 
L 493.373973 364.602629 
L 498.544472 360.217633 
L 503.71497 355.832636 
L 508.885468 351.44764 
L 514.055967 347.062644 
L 519.226465 342.677648 
L 524.396963 336.176959 
L 529.567461 329.676271 
L 534.73796 323.175583 
L 539.908458 316.674895 
L 545.078956 310.174207 
L 550.249454 303.470664 
L 555.419953 296.76712 
L 560.590451 290.063577 
L 565.760949 283.360034 
L 570.931448 276.65649 
L 576.101946 271.16593 
L 581.272444 265.67537 
L 586.442942 260.18481 
L 591.613441 254.69425 
L 596.783939 249.20369 
L 601.954437 241.462822 
L 607.124936 233.721953 
L 612.295434 225.981084 
L 617.465932 218.240215 
L 622.63643 210.499346 
" clip-path="url(#p7a2fbe1218)" style="fill: none; stroke-dasharray: 12.8,3.2,2,3.2; stroke-dashoffset: 0; stroke: #800080; stroke-width: 2"/>
   </g>
   <g id="patch_9">
    <path d="M 467.521482 384.021395 
L 467.521482 21.020312 
" style="fill: none; stroke: #000000; stroke-width: 0.8; stroke-linejoin: miter; stroke-linecap: square"/>
   </g>
   <g id="patch_10">
    <path d="M 467.521482 384.021395 
L 622.63643 384.021395 
" style="fill: none; stroke: #000000; stroke-width: 0.8; stroke-linejoin: miter; stroke-linecap: square"/>
   </g>
   <g id="text_39">
    <!-- (c) -->
    <g transform="translate(538.839112 15.020312) scale(0.1 -0.1)">
     <use xlink:href="#HardingTextWeb-Regular-28"/>
     <use xlink:href="#HardingTextWeb-Regular-63" x="36.799988"/>
     <use xlink:href="#HardingTextWeb-Regular-29" x="87.999985"/>
    </g>
   </g>
  </g>
  <g id="axes_4">
   <g id="patch_11">
    <path d="M 674.665035 384.021395 
L 721.19952 384.021395 
L 721.19952 21.020312 
L 674.665035 21.020312 
L 674.665035 384.021395 
z
" style="fill: none"/>
   </g>
   <g id="PolyCollection_10">
    <defs>
     <path id="mf12231df2d" d="M 676.780239 -366.879158 
L 676.780239 -36.878174 
L 719.084316 -36.878174 
L 719.084316 -366.879158 
L 719.084316 -366.879158 
L 676.780239 -366.879158 
z
" style="stroke: #822681; stroke-opacity: 0.1"/>
    </defs>
    <g clip-path="url(#p51318a6758)">
     <use xlink:href="#mf12231df2d" x="0" y="404.39952" style="fill: #822681; fill-opacity: 0.1; stroke: #822681; stroke-opacity: 0.1"/>
    </g>
   </g>
   <g id="PolyCollection_11">
    <defs>
     <path id="m3c4462d949" d="M 676.780239 -339.952589 
L 676.780239 -46.963513 
L 719.084316 -46.963513 
L 719.084316 -339.952589 
L 719.084316 -339.952589 
L 676.780239 -339.952589 
z
" style="stroke: #822681; stroke-opacity: 0.2"/>
    </defs>
    <g clip-path="url(#p51318a6758)">
     <use xlink:href="#m3c4462d949" x="0" y="404.39952" style="fill: #822681; fill-opacity: 0.2; stroke: #822681; stroke-opacity: 0.2"/>
    </g>
   </g>
   <g id="PolyCollection_12">
    <defs>
     <path id="me71bcad46a" d="M 676.780239 -238.68298 
L 676.780239 -80.055168 
L 719.084316 -80.055168 
L 719.084316 -238.68298 
L 719.084316 -238.68298 
L 676.780239 -238.68298 
z
" style="stroke: #822681; stroke-opacity: 0.4"/>
    </defs>
    <g clip-path="url(#p51318a6758)">
     <use xlink:href="#me71bcad46a" x="0" y="404.39952" style="fill: #822681; fill-opacity: 0.4; stroke: #822681; stroke-opacity: 0.4"/>
    </g>
   </g>
   <g id="matplotlib.axis_7"/>
   <g id="matplotlib.axis_8">
    <g id="ytick_16">
     <g id="line2d_47">
      <g>
       <use xlink:href="#md970617b3e" x="674.665035" y="330.453968" style="stroke: #000000; stroke-width: 0.8"/>
      </g>
     </g>
     <g id="text_40">
      <!-- 0.2 -->
      <g transform="translate(655.26191 334.253186) scale(0.1 -0.1)">
       <use xlink:href="#DejaVuSans-30"/>
       <use xlink:href="#DejaVuSans-2e" x="63.623047"/>
       <use xlink:href="#DejaVuSans-32" x="95.410156"/>
      </g>
     </g>
    </g>
    <g id="ytick_17">
     <g id="line2d_48">
      <g>
       <use xlink:href="#md970617b3e" x="674.665035" y="250.66798" style="stroke: #000000; stroke-width: 0.8"/>
      </g>
     </g>
     <g id="text_41">
      <!-- 0.4 -->
      <g transform="translate(655.26191 254.467199) scale(0.1 -0.1)">
       <use xlink:href="#DejaVuSans-30"/>
       <use xlink:href="#DejaVuSans-2e" x="63.623047"/>
       <use xlink:href="#DejaVuSans-34" x="95.410156"/>
      </g>
     </g>
    </g>
    <g id="ytick_18">
     <g id="line2d_49">
      <g>
       <use xlink:href="#md970617b3e" x="674.665035" y="170.881993" style="stroke: #000000; stroke-width: 0.8"/>
      </g>
     </g>
     <g id="text_42">
      <!-- 0.6 -->
      <g transform="translate(655.26191 174.681212) scale(0.1 -0.1)">
       <use xlink:href="#DejaVuSans-30"/>
       <use xlink:href="#DejaVuSans-2e" x="63.623047"/>
       <use xlink:href="#DejaVuSans-36" x="95.410156"/>
      </g>
     </g>
    </g>
    <g id="ytick_19">
     <g id="line2d_50">
      <g>
       <use xlink:href="#md970617b3e" x="674.665035" y="91.096006" style="stroke: #000000; stroke-width: 0.8"/>
      </g>
     </g>
     <g id="text_43">
      <!-- 0.8 -->
      <g transform="translate(655.26191 94.895225) scale(0.1 -0.1)">
       <use xlink:href="#DejaVuSans-30"/>
       <use xlink:href="#DejaVuSans-2e" x="63.623047"/>
       <use xlink:href="#DejaVuSans-38" x="95.410156"/>
      </g>
     </g>
    </g>
    <g id="text_44">
     <!-- %SOS -->
     <g transform="translate(649.182223 215.370854) rotate(-90) scale(0.1 -0.1)">
      <use xlink:href="#HardingTextWeb-Regular-25"/>
      <use xlink:href="#HardingTextWeb-Regular-53" x="69.399994"/>
      <use xlink:href="#HardingTextWeb-Regular-4f" x="124.899979"/>
      <use xlink:href="#HardingTextWeb-Regular-53" x="201.499969"/>
     </g>
    </g>
   </g>
   <g id="line2d_51">
    <path d="M 674.665035 285.33034 
L 721.19952 285.33034 
" clip-path="url(#p51318a6758)" style="fill: none; stroke: #822681; stroke-width: 2; stroke-linecap: square"/>
   </g>
   <g id="line2d_52">
    <path d="M 674.665035 235.021119 
L 721.19952 235.021119 
" clip-path="url(#p51318a6758)" style="fill: none; stroke-dasharray: 12.8,3.2,2,3.2; stroke-dashoffset: 0; stroke: #ffff00; stroke-width: 2"/>
   </g>
   <g id="line2d_53">
    <path d="M 674.665035 162.507945 
L 721.19952 162.507945 
" clip-path="url(#p51318a6758)" style="fill: none; stroke-dasharray: 12.8,3.2,2,3.2; stroke-dashoffset: 0; stroke: #ffa500; stroke-width: 2"/>
   </g>
   <g id="line2d_54">
    <path d="M 674.665035 81.577791 
L 721.19952 81.577791 
" clip-path="url(#p51318a6758)" style="fill: none; stroke-dasharray: 12.8,3.2,2,3.2; stroke-dashoffset: 0; stroke: #800080; stroke-width: 2"/>
   </g>
   <g id="patch_12">
    <path d="M 674.665035 384.021395 
L 674.665035 21.020312 
" style="fill: none; stroke: #000000; stroke-width: 0.8; stroke-linejoin: miter; stroke-linecap: square"/>
   </g>
   <g id="text_45">
    <!-- (d) -->
    <g transform="translate(691.17759 15.020312) scale(0.1 -0.1)">
     <use xlink:href="#HardingTextWeb-Regular-28"/>
     <use xlink:href="#HardingTextWeb-Regular-64" x="36.799988"/>
     <use xlink:href="#HardingTextWeb-Regular-29" x="98.299973"/>
    </g>
   </g>
  </g>
 </g>
 <defs>
  <clipPath id="pd811540e01">
   <rect x="43.6875" y="21.020312" width="155.114948" height="363.001082"/>
  </clipPath>
  <clipPath id="p37053100af">
   <rect x="260.377928" y="21.020312" width="155.114948" height="363.001082"/>
  </clipPath>
  <clipPath id="p7a2fbe1218">
   <rect x="467.521482" y="21.020312" width="155.114948" height="363.001082"/>
  </clipPath>
  <clipPath id="p51318a6758">
   <rect x="674.665035" y="21.020312" width="46.534485" height="363.001082"/>
  </clipPath>
 </defs>
</svg>
