<?xml version="1.0" encoding="utf-8" standalone="no"?>
<!DOCTYPE svg PUBLIC "-//W3C//DTD SVG 1.1//EN"
  "http://www.w3.org/Graphics/SVG/1.1/DTD/svg11.dtd">
<svg xmlns:xlink="http://www.w3.org/1999/xlink" width="568.1725pt" height="352.398125pt" viewBox="0 0 568.1725 352.398125" xmlns="http://www.w3.org/2000/svg" version="1.1">
 <metadata>
  <rdf:RDF xmlns:dc="http://purl.org/dc/elements/1.1/" xmlns:cc="http://creativecommons.org/ns#" xmlns:rdf="http://www.w3.org/1999/02/22-rdf-syntax-ns#">
   <cc:Work>
    <dc:type rdf:resource="http://purl.org/dc/dcmitype/StillImage"/>
    <dc:date>2025-03-25T11:58:47.167783</dc:date>
    <dc:format>image/svg+xml</dc:format>
    <dc:creator>
     <cc:Agent>
      <dc:title>Matplotlib v3.8.4, https://matplotlib.org/</dc:title>
     </cc:Agent>
    </dc:creator>
   </cc:Work>
  </rdf:RDF>
 </metadata>
 <defs>
  <style type="text/css">*{stroke-linejoin: round; stroke-linecap: butt}</style>
 </defs>
 <g id="figure_1">
  <g id="patch_1">
   <path d="M 0 352.398125 
L 568.1725 352.398125 
L 568.1725 0 
L 0 0 
L 0 352.398125 
z
" style="fill: none"/>
  </g>
  <g id="axes_1">
   <g id="patch_2">
    <path d="M 50.05 332.02 
L 560.9725 332.02 
L 560.9725 7.2 
L 50.05 7.2 
L 50.05 332.02 
z
" style="fill: none"/>
   </g>
   <g id="PolyCollection_1">
    <defs>
     <path id="m885fa4aa6f" d="M 73.27375 -35.88737 
L 73.27375 -35.14267 
L 88.75625 -35.264326 
L 104.23875 -35.385981 
L 119.72125 -35.507637 
L 135.20375 -35.629292 
L 150.68625 -35.733584 
L 166.16875 -35.85148 
L 181.65125 -35.950117 
L 197.13375 -36.046782 
L 212.61625 -36.143448 
L 228.09875 -36.240113 
L 243.58125 -36.813166 
L 259.06375 -37.38622 
L 274.54625 -37.959273 
L 290.02875 -38.532326 
L 305.51125 -39.038377 
L 320.99375 -39.832163 
L 336.47625 -40.62595 
L 351.95875 -41.419736 
L 367.44125 -42.213523 
L 382.92375 -43.007309 
L 398.40625 -43.818269 
L 413.88875 -44.629228 
L 429.37125 -45.440187 
L 444.85375 -46.251147 
L 460.33625 -47.062106 
L 475.81875 -47.874271 
L 491.30125 -48.686437 
L 506.78375 -49.498602 
L 522.26625 -50.310767 
L 537.74875 -51.122932 
L 537.74875 -330.43358 
L 537.74875 -330.43358 
L 522.26625 -306.100055 
L 506.78375 -281.76653 
L 491.30125 -257.433005 
L 475.81875 -233.099481 
L 460.33625 -208.765956 
L 444.85375 -193.378094 
L 429.37125 -177.990233 
L 413.88875 -162.602372 
L 398.40625 -147.21451 
L 382.92375 -131.826649 
L 367.44125 -121.274514 
L 351.95875 -110.72238 
L 336.47625 -100.170246 
L 320.99375 -89.618112 
L 305.51125 -79.065977 
L 290.02875 -73.263261 
L 274.54625 -67.460545 
L 259.06375 -61.657829 
L 243.58125 -55.855112 
L 228.09875 -50.052396 
L 212.61625 -47.931543 
L 197.13375 -45.810689 
L 181.65125 -43.689836 
L 166.16875 -41.568983 
L 150.68625 -39.448129 
L 135.20375 -38.724879 
L 119.72125 -38.001629 
L 104.23875 -37.278379 
L 88.75625 -36.555129 
L 73.27375 -35.88737 
z
"/>
    </defs>
    <g clip-path="url(#pac82123f02)">
     <use xlink:href="#m885fa4aa6f" x="0" y="352.398125" style="fill: #822681; fill-opacity: 0.1"/>
    </g>
   </g>
   <g id="PolyCollection_2">
    <defs>
     <path id="m605405980c" d="M 73.27375 -35.834653 
L 73.27375 -35.142677 
L 88.75625 -35.283383 
L 104.23875 -35.42409 
L 119.72125 -35.564797 
L 135.20375 -35.705504 
L 150.68625 -35.750079 
L 166.16875 -35.853353 
L 181.65125 -35.968413 
L 197.13375 -36.076509 
L 212.61625 -36.178597 
L 228.09875 -36.280685 
L 243.58125 -36.88405 
L 259.06375 -37.482902 
L 274.54625 -38.026443 
L 290.02875 -38.557317 
L 305.51125 -39.102029 
L 320.99375 -40.039658 
L 336.47625 -40.969141 
L 351.95875 -41.898624 
L 367.44125 -42.828107 
L 382.92375 -43.75759 
L 398.40625 -44.617826 
L 413.88875 -45.478063 
L 429.37125 -46.338299 
L 444.85375 -47.198536 
L 460.33625 -48.058772 
L 475.81875 -48.892109 
L 491.30125 -49.725446 
L 506.78375 -50.558783 
L 522.26625 -51.39212 
L 537.74875 -52.225457 
L 537.74875 -169.872139 
L 537.74875 -169.872139 
L 522.26625 -159.362813 
L 506.78375 -148.853487 
L 491.30125 -141.006004 
L 475.81875 -133.375493 
L 460.33625 -125.744983 
L 444.85375 -119.351619 
L 429.37125 -112.958255 
L 413.88875 -106.564891 
L 398.40625 -100.171527 
L 382.92375 -93.778163 
L 367.44125 -88.012647 
L 351.95875 -82.247131 
L 336.47625 -76.481616 
L 320.99375 -70.7161 
L 305.51125 -65.577441 
L 290.02875 -61.655718 
L 274.54625 -57.733996 
L 259.06375 -53.885607 
L 243.58125 -50.197282 
L 228.09875 -46.508956 
L 212.61625 -45.046455 
L 197.13375 -43.583955 
L 181.65125 -42.121454 
L 166.16875 -40.658954 
L 150.68625 -39.196453 
L 135.20375 -38.523538 
L 119.72125 -37.850623 
L 104.23875 -37.177709 
L 88.75625 -36.504794 
L 73.27375 -35.834653 
z
"/>
    </defs>
    <g clip-path="url(#pac82123f02)">
     <use xlink:href="#m605405980c" x="0" y="352.398125" style="fill: #822681; fill-opacity: 0.2"/>
    </g>
   </g>
   <g id="PolyCollection_3">
    <defs>
     <path id="m04caa0d3da" d="M 73.27375 -35.774854 
L 73.27375 -35.68441 
L 88.75625 -35.746314 
L 104.23875 -35.754794 
L 119.72125 -35.760779 
L 135.20375 -35.768407 
L 150.68625 -35.832953 
L 166.16875 -35.979521 
L 181.65125 -36.127991 
L 197.13375 -36.278909 
L 212.61625 -36.429827 
L 228.09875 -36.580745 
L 243.58125 -37.07605 
L 259.06375 -37.583538 
L 274.54625 -38.124156 
L 290.02875 -38.722587 
L 305.51125 -39.321018 
L 320.99375 -41.867491 
L 336.47625 -44.35092 
L 351.95875 -46.385557 
L 367.44125 -48.112159 
L 382.92375 -50.031169 
L 398.40625 -53.488275 
L 413.88875 -56.752953 
L 429.37125 -58.998948 
L 444.85375 -61.289292 
L 460.33625 -63.69939 
L 475.81875 -66.468083 
L 491.30125 -69.236776 
L 506.78375 -72.005469 
L 522.26625 -74.774162 
L 537.74875 -77.542854 
L 537.74875 -104.702799 
L 537.74875 -104.702799 
L 522.26625 -102.145991 
L 506.78375 -99.18647 
L 491.30125 -94.98697 
L 475.81875 -90.78747 
L 460.33625 -85.984815 
L 444.85375 -82.036835 
L 429.37125 -78.088856 
L 413.88875 -74.140877 
L 398.40625 -70.099004 
L 382.92375 -65.32364 
L 367.44125 -62.020433 
L 351.95875 -58.717226 
L 336.47625 -55.571296 
L 320.99375 -52.833215 
L 305.51125 -50.095134 
L 290.02875 -48.465217 
L 274.54625 -46.835301 
L 259.06375 -45.205384 
L 243.58125 -43.524913 
L 228.09875 -41.54414 
L 212.61625 -40.582105 
L 197.13375 -39.62007 
L 181.65125 -38.658034 
L 166.16875 -37.695999 
L 150.68625 -36.733963 
L 135.20375 -36.547767 
L 119.72125 -36.361571 
L 104.23875 -36.175375 
L 88.75625 -35.98729 
L 73.27375 -35.774854 
z
"/>
    </defs>
    <g clip-path="url(#pac82123f02)">
     <use xlink:href="#m04caa0d3da" x="0" y="352.398125" style="fill: #822681; fill-opacity: 0.4"/>
    </g>
   </g>
   <g id="matplotlib.axis_1">
    <g id="xtick_1">
     <g id="line2d_1">
      <defs>
       <path id="mf341f95ac7" d="M 0 0 
L 0 -3.5 
" style="stroke: #000000; stroke-width: 0.8"/>
      </defs>
      <g>
       <use xlink:href="#mf341f95ac7" x="73.27375" y="332.02" style="stroke: #000000; stroke-width: 0.8"/>
      </g>
     </g>
     <g id="text_1">
      <!-- 2020 -->
      <g transform="translate(60.54875 343.118437) scale(0.1 -0.1)">
       <defs>
        <path id="DejaVuSans-32" d="M 1228 531 
L 3431 531 
L 3431 0 
L 469 0 
L 469 531 
Q 828 903 1448 1529 
Q 2069 2156 2228 2338 
Q 2531 2678 2651 2914 
Q 2772 3150 2772 3378 
Q 2772 3750 2511 3984 
Q 2250 4219 1831 4219 
Q 1534 4219 1204 4116 
Q 875 4013 500 3803 
L 500 4441 
Q 881 4594 1212 4672 
Q 1544 4750 1819 4750 
Q 2544 4750 2975 4387 
Q 3406 4025 3406 3419 
Q 3406 3131 3298 2873 
Q 3191 2616 2906 2266 
Q 2828 2175 2409 1742 
Q 1991 1309 1228 531 
z
" transform="scale(0.015625)"/>
        <path id="DejaVuSans-30" d="M 2034 4250 
Q 1547 4250 1301 3770 
Q 1056 3291 1056 2328 
Q 1056 1369 1301 889 
Q 1547 409 2034 409 
Q 2525 409 2770 889 
Q 3016 1369 3016 2328 
Q 3016 3291 2770 3770 
Q 2525 4250 2034 4250 
z
M 2034 4750 
Q 2819 4750 3233 4129 
Q 3647 3509 3647 2328 
Q 3647 1150 3233 529 
Q 2819 -91 2034 -91 
Q 1250 -91 836 529 
Q 422 1150 422 2328 
Q 422 3509 836 4129 
Q 1250 4750 2034 4750 
z
" transform="scale(0.015625)"/>
       </defs>
       <use xlink:href="#DejaVuSans-32"/>
       <use xlink:href="#DejaVuSans-30" x="63.623047"/>
       <use xlink:href="#DejaVuSans-32" x="127.246094"/>
       <use xlink:href="#DejaVuSans-30" x="190.869141"/>
      </g>
     </g>
    </g>
    <g id="xtick_2">
     <g id="line2d_2">
      <g>
       <use xlink:href="#mf341f95ac7" x="150.68625" y="332.02" style="stroke: #000000; stroke-width: 0.8"/>
      </g>
     </g>
     <g id="text_2">
      <!-- 2025 -->
      <g transform="translate(137.96125 343.118437) scale(0.1 -0.1)">
       <defs>
        <path id="DejaVuSans-35" d="M 691 4666 
L 3169 4666 
L 3169 4134 
L 1269 4134 
L 1269 2991 
Q 1406 3038 1543 3061 
Q 1681 3084 1819 3084 
Q 2600 3084 3056 2656 
Q 3513 2228 3513 1497 
Q 3513 744 3044 326 
Q 2575 -91 1722 -91 
Q 1428 -91 1123 -41 
Q 819 9 494 109 
L 494 744 
Q 775 591 1075 516 
Q 1375 441 1709 441 
Q 2250 441 2565 725 
Q 2881 1009 2881 1497 
Q 2881 1984 2565 2268 
Q 2250 2553 1709 2553 
Q 1456 2553 1204 2497 
Q 953 2441 691 2322 
L 691 4666 
z
" transform="scale(0.015625)"/>
       </defs>
       <use xlink:href="#DejaVuSans-32"/>
       <use xlink:href="#DejaVuSans-30" x="63.623047"/>
       <use xlink:href="#DejaVuSans-32" x="127.246094"/>
       <use xlink:href="#DejaVuSans-35" x="190.869141"/>
      </g>
     </g>
    </g>
    <g id="xtick_3">
     <g id="line2d_3">
      <g>
       <use xlink:href="#mf341f95ac7" x="228.09875" y="332.02" style="stroke: #000000; stroke-width: 0.8"/>
      </g>
     </g>
     <g id="text_3">
      <!-- 2030 -->
      <g transform="translate(215.37375 343.118437) scale(0.1 -0.1)">
       <defs>
        <path id="DejaVuSans-33" d="M 2597 2516 
Q 3050 2419 3304 2112 
Q 3559 1806 3559 1356 
Q 3559 666 3084 287 
Q 2609 -91 1734 -91 
Q 1441 -91 1130 -33 
Q 819 25 488 141 
L 488 750 
Q 750 597 1062 519 
Q 1375 441 1716 441 
Q 2309 441 2620 675 
Q 2931 909 2931 1356 
Q 2931 1769 2642 2001 
Q 2353 2234 1838 2234 
L 1294 2234 
L 1294 2753 
L 1863 2753 
Q 2328 2753 2575 2939 
Q 2822 3125 2822 3475 
Q 2822 3834 2567 4026 
Q 2313 4219 1838 4219 
Q 1578 4219 1281 4162 
Q 984 4106 628 3988 
L 628 4550 
Q 988 4650 1302 4700 
Q 1616 4750 1894 4750 
Q 2613 4750 3031 4423 
Q 3450 4097 3450 3541 
Q 3450 3153 3228 2886 
Q 3006 2619 2597 2516 
z
" transform="scale(0.015625)"/>
       </defs>
       <use xlink:href="#DejaVuSans-32"/>
       <use xlink:href="#DejaVuSans-30" x="63.623047"/>
       <use xlink:href="#DejaVuSans-33" x="127.246094"/>
       <use xlink:href="#DejaVuSans-30" x="190.869141"/>
      </g>
     </g>
    </g>
    <g id="xtick_4">
     <g id="line2d_4">
      <g>
       <use xlink:href="#mf341f95ac7" x="305.51125" y="332.02" style="stroke: #000000; stroke-width: 0.8"/>
      </g>
     </g>
     <g id="text_4">
      <!-- 2035 -->
      <g transform="translate(292.78625 343.118437) scale(0.1 -0.1)">
       <use xlink:href="#DejaVuSans-32"/>
       <use xlink:href="#DejaVuSans-30" x="63.623047"/>
       <use xlink:href="#DejaVuSans-33" x="127.246094"/>
       <use xlink:href="#DejaVuSans-35" x="190.869141"/>
      </g>
     </g>
    </g>
    <g id="xtick_5">
     <g id="line2d_5">
      <g>
       <use xlink:href="#mf341f95ac7" x="382.92375" y="332.02" style="stroke: #000000; stroke-width: 0.8"/>
      </g>
     </g>
     <g id="text_5">
      <!-- 2040 -->
      <g transform="translate(370.19875 343.118437) scale(0.1 -0.1)">
       <defs>
        <path id="DejaVuSans-34" d="M 2419 4116 
L 825 1625 
L 2419 1625 
L 2419 4116 
z
M 2253 4666 
L 3047 4666 
L 3047 1625 
L 3713 1625 
L 3713 1100 
L 3047 1100 
L 3047 0 
L 2419 0 
L 2419 1100 
L 313 1100 
L 313 1709 
L 2253 4666 
z
" transform="scale(0.015625)"/>
       </defs>
       <use xlink:href="#DejaVuSans-32"/>
       <use xlink:href="#DejaVuSans-30" x="63.623047"/>
       <use xlink:href="#DejaVuSans-34" x="127.246094"/>
       <use xlink:href="#DejaVuSans-30" x="190.869141"/>
      </g>
     </g>
    </g>
    <g id="xtick_6">
     <g id="line2d_6">
      <g>
       <use xlink:href="#mf341f95ac7" x="460.33625" y="332.02" style="stroke: #000000; stroke-width: 0.8"/>
      </g>
     </g>
     <g id="text_6">
      <!-- 2045 -->
      <g transform="translate(447.61125 343.118437) scale(0.1 -0.1)">
       <use xlink:href="#DejaVuSans-32"/>
       <use xlink:href="#DejaVuSans-30" x="63.623047"/>
       <use xlink:href="#DejaVuSans-34" x="127.246094"/>
       <use xlink:href="#DejaVuSans-35" x="190.869141"/>
      </g>
     </g>
    </g>
    <g id="xtick_7">
     <g id="line2d_7">
      <g>
       <use xlink:href="#mf341f95ac7" x="537.74875" y="332.02" style="stroke: #000000; stroke-width: 0.8"/>
      </g>
     </g>
     <g id="text_7">
      <!-- 2050 -->
      <g transform="translate(525.02375 343.118437) scale(0.1 -0.1)">
       <use xlink:href="#DejaVuSans-32"/>
       <use xlink:href="#DejaVuSans-30" x="63.623047"/>
       <use xlink:href="#DejaVuSans-35" x="127.246094"/>
       <use xlink:href="#DejaVuSans-30" x="190.869141"/>
      </g>
     </g>
    </g>
   </g>
   <g id="matplotlib.axis_2">
    <g id="ytick_1">
     <g id="line2d_8">
      <defs>
       <path id="m478c5fd4dc" d="M 0 0 
L 3.5 0 
" style="stroke: #000000; stroke-width: 0.8"/>
      </defs>
      <g>
       <use xlink:href="#m478c5fd4dc" x="50.05" y="317.529561" style="stroke: #000000; stroke-width: 0.8"/>
      </g>
     </g>
     <g id="text_8">
      <!-- 0 -->
      <g transform="translate(40.1875 321.32878) scale(0.1 -0.1)">
       <use xlink:href="#DejaVuSans-30"/>
      </g>
     </g>
    </g>
    <g id="ytick_2">
     <g id="line2d_9">
      <g>
       <use xlink:href="#m478c5fd4dc" x="50.05" y="268.257254" style="stroke: #000000; stroke-width: 0.8"/>
      </g>
     </g>
     <g id="text_9">
      <!-- 200 -->
      <g transform="translate(27.4625 272.056473) scale(0.1 -0.1)">
       <use xlink:href="#DejaVuSans-32"/>
       <use xlink:href="#DejaVuSans-30" x="63.623047"/>
       <use xlink:href="#DejaVuSans-30" x="127.246094"/>
      </g>
     </g>
    </g>
    <g id="ytick_3">
     <g id="line2d_10">
      <g>
       <use xlink:href="#m478c5fd4dc" x="50.05" y="218.984947" style="stroke: #000000; stroke-width: 0.8"/>
      </g>
     </g>
     <g id="text_10">
      <!-- 400 -->
      <g transform="translate(27.4625 222.784166) scale(0.1 -0.1)">
       <use xlink:href="#DejaVuSans-34"/>
       <use xlink:href="#DejaVuSans-30" x="63.623047"/>
       <use xlink:href="#DejaVuSans-30" x="127.246094"/>
      </g>
     </g>
    </g>
    <g id="ytick_4">
     <g id="line2d_11">
      <g>
       <use xlink:href="#m478c5fd4dc" x="50.05" y="169.71264" style="stroke: #000000; stroke-width: 0.8"/>
      </g>
     </g>
     <g id="text_11">
      <!-- 600 -->
      <g transform="translate(27.4625 173.511859) scale(0.1 -0.1)">
       <defs>
        <path id="DejaVuSans-36" d="M 2113 2584 
Q 1688 2584 1439 2293 
Q 1191 2003 1191 1497 
Q 1191 994 1439 701 
Q 1688 409 2113 409 
Q 2538 409 2786 701 
Q 3034 994 3034 1497 
Q 3034 2003 2786 2293 
Q 2538 2584 2113 2584 
z
M 3366 4563 
L 3366 3988 
Q 3128 4100 2886 4159 
Q 2644 4219 2406 4219 
Q 1781 4219 1451 3797 
Q 1122 3375 1075 2522 
Q 1259 2794 1537 2939 
Q 1816 3084 2150 3084 
Q 2853 3084 3261 2657 
Q 3669 2231 3669 1497 
Q 3669 778 3244 343 
Q 2819 -91 2113 -91 
Q 1303 -91 875 529 
Q 447 1150 447 2328 
Q 447 3434 972 4092 
Q 1497 4750 2381 4750 
Q 2619 4750 2861 4703 
Q 3103 4656 3366 4563 
z
" transform="scale(0.015625)"/>
       </defs>
       <use xlink:href="#DejaVuSans-36"/>
       <use xlink:href="#DejaVuSans-30" x="63.623047"/>
       <use xlink:href="#DejaVuSans-30" x="127.246094"/>
      </g>
     </g>
    </g>
    <g id="ytick_5">
     <g id="line2d_12">
      <g>
       <use xlink:href="#m478c5fd4dc" x="50.05" y="120.440333" style="stroke: #000000; stroke-width: 0.8"/>
      </g>
     </g>
     <g id="text_12">
      <!-- 800 -->
      <g transform="translate(27.4625 124.239551) scale(0.1 -0.1)">
       <defs>
        <path id="DejaVuSans-38" d="M 2034 2216 
Q 1584 2216 1326 1975 
Q 1069 1734 1069 1313 
Q 1069 891 1326 650 
Q 1584 409 2034 409 
Q 2484 409 2743 651 
Q 3003 894 3003 1313 
Q 3003 1734 2745 1975 
Q 2488 2216 2034 2216 
z
M 1403 2484 
Q 997 2584 770 2862 
Q 544 3141 544 3541 
Q 544 4100 942 4425 
Q 1341 4750 2034 4750 
Q 2731 4750 3128 4425 
Q 3525 4100 3525 3541 
Q 3525 3141 3298 2862 
Q 3072 2584 2669 2484 
Q 3125 2378 3379 2068 
Q 3634 1759 3634 1313 
Q 3634 634 3220 271 
Q 2806 -91 2034 -91 
Q 1263 -91 848 271 
Q 434 634 434 1313 
Q 434 1759 690 2068 
Q 947 2378 1403 2484 
z
M 1172 3481 
Q 1172 3119 1398 2916 
Q 1625 2713 2034 2713 
Q 2441 2713 2670 2916 
Q 2900 3119 2900 3481 
Q 2900 3844 2670 4047 
Q 2441 4250 2034 4250 
Q 1625 4250 1398 4047 
Q 1172 3844 1172 3481 
z
" transform="scale(0.015625)"/>
       </defs>
       <use xlink:href="#DejaVuSans-38"/>
       <use xlink:href="#DejaVuSans-30" x="63.623047"/>
       <use xlink:href="#DejaVuSans-30" x="127.246094"/>
      </g>
     </g>
    </g>
    <g id="ytick_6">
     <g id="line2d_13">
      <g>
       <use xlink:href="#m478c5fd4dc" x="50.05" y="71.168025" style="stroke: #000000; stroke-width: 0.8"/>
      </g>
     </g>
     <g id="text_13">
      <!-- 1000 -->
      <g transform="translate(21.1 74.967244) scale(0.1 -0.1)">
       <defs>
        <path id="DejaVuSans-31" d="M 794 531 
L 1825 531 
L 1825 4091 
L 703 3866 
L 703 4441 
L 1819 4666 
L 2450 4666 
L 2450 531 
L 3481 531 
L 3481 0 
L 794 0 
L 794 531 
z
" transform="scale(0.015625)"/>
       </defs>
       <use xlink:href="#DejaVuSans-31"/>
       <use xlink:href="#DejaVuSans-30" x="63.623047"/>
       <use xlink:href="#DejaVuSans-30" x="127.246094"/>
       <use xlink:href="#DejaVuSans-30" x="190.869141"/>
      </g>
     </g>
    </g>
    <g id="ytick_7">
     <g id="line2d_14">
      <g>
       <use xlink:href="#m478c5fd4dc" x="50.05" y="21.895718" style="stroke: #000000; stroke-width: 0.8"/>
      </g>
     </g>
     <g id="text_14">
      <!-- 1200 -->
      <g transform="translate(21.1 25.694937) scale(0.1 -0.1)">
       <use xlink:href="#DejaVuSans-31"/>
       <use xlink:href="#DejaVuSans-32" x="63.623047"/>
       <use xlink:href="#DejaVuSans-30" x="127.246094"/>
       <use xlink:href="#DejaVuSans-30" x="190.869141"/>
      </g>
     </g>
    </g>
    <g id="text_15">
     <!-- MtH₂/yr -->
     <g transform="translate(14.970312 188.579531) rotate(-90) scale(0.1 -0.1)">
      <defs>
       <path id="HardingTextWeb-Regular-4d" d="M 2931 0 
L 2656 0 
L 1062 3738 
L 1030 3738 
L 1030 1485 
Q 1030 1056 1078 733 
Q 1126 410 1210 0 
L 422 0 
Q 506 403 550 729 
Q 595 1056 595 1485 
L 595 3379 
Q 595 3667 556 4012 
Q 518 4358 435 4621 
L 1478 4621 
L 2944 1133 
L 2976 1133 
L 4320 4621 
L 5338 4621 
Q 5274 4358 5232 4012 
Q 5190 3667 5190 3379 
L 5190 1242 
Q 5190 954 5232 608 
Q 5274 262 5338 0 
L 4269 0 
Q 4346 262 4384 608 
Q 4422 954 4429 1242 
L 4429 3731 
L 4403 3731 
L 2931 0 
z
" transform="scale(0.015625)"/>
       <path id="HardingTextWeb-Regular-74" d="M 2304 538 
Q 2298 461 2285 419 
Q 2272 378 2246 314 
Q 2176 141 1987 32 
Q 1798 -77 1498 -77 
Q 1030 -77 793 163 
Q 557 403 557 890 
L 557 2989 
L 102 2989 
L 102 3046 
L 1197 4141 
L 1248 4102 
L 1248 3424 
L 2182 3424 
L 2106 2989 
L 1248 2989 
L 1248 934 
Q 1248 659 1398 544 
Q 1549 429 1773 429 
Q 1933 429 2067 457 
Q 2202 486 2304 538 
z
" transform="scale(0.015625)"/>
       <path id="HardingTextWeb-Regular-48" d="M 1350 1203 
Q 1350 928 1388 592 
Q 1427 256 1491 0 
L 422 0 
Q 506 256 544 592 
Q 582 928 582 1203 
L 582 3418 
Q 582 3693 544 4029 
Q 506 4365 422 4621 
L 1491 4621 
Q 1427 4365 1388 4029 
Q 1350 3693 1350 3418 
L 1350 2515 
L 3392 2515 
L 3392 3418 
Q 3392 3693 3357 4029 
Q 3322 4365 3238 4621 
L 4301 4621 
Q 4237 4365 4198 4029 
Q 4160 3693 4160 3418 
L 4160 1203 
Q 4160 928 4198 592 
Q 4237 256 4301 0 
L 3238 0 
Q 3322 256 3357 592 
Q 3392 928 3392 1203 
L 3392 2170 
L 1350 2170 
L 1350 1203 
z
" transform="scale(0.015625)"/>
       <path id="HardingTextWeb-Regular-2082" d="M 2400 1510 
Q 2400 1254 2253 1004 
Q 2106 755 1888 534 
Q 1670 314 1420 118 
Q 1171 -77 966 -230 
L 1632 -230 
Q 1914 -230 2176 -182 
Q 2438 -134 2566 -83 
L 2445 -704 
L 397 -704 
L 326 -525 
Q 627 -250 892 0 
Q 1158 250 1356 486 
Q 1555 723 1670 950 
Q 1786 1178 1786 1402 
Q 1786 1619 1651 1776 
Q 1517 1933 1210 1933 
Q 973 1933 806 1837 
Q 640 1741 506 1542 
L 390 1606 
Q 506 1914 768 2131 
Q 1030 2349 1446 2349 
Q 1926 2349 2163 2109 
Q 2400 1869 2400 1510 
z
" transform="scale(0.015625)"/>
       <path id="HardingTextWeb-Regular-2f" d="M -154 -832 
L 1933 4934 
L 2394 4934 
L 307 -832 
L -154 -832 
z
" transform="scale(0.015625)"/>
       <path id="HardingTextWeb-Regular-79" d="M 1485 96 
L 531 2541 
Q 416 2835 320 3033 
Q 224 3232 122 3424 
L 1107 3424 
Q 1094 3226 1139 3030 
Q 1184 2835 1293 2528 
L 1837 973 
L 1862 973 
L 2419 2566 
Q 2509 2822 2534 3033 
Q 2560 3245 2528 3424 
L 3251 3424 
Q 3155 3232 3043 2998 
Q 2931 2765 2803 2432 
L 2042 403 
Q 1702 -486 1372 -924 
Q 1043 -1363 595 -1363 
Q 384 -1363 275 -1264 
Q 166 -1165 166 -1011 
Q 166 -870 252 -787 
Q 339 -704 474 -704 
Q 621 -704 691 -758 
Q 762 -813 858 -813 
Q 998 -813 1171 -566 
Q 1344 -320 1485 96 
z
" transform="scale(0.015625)"/>
       <path id="HardingTextWeb-Regular-72" d="M 1261 3462 
L 1242 2720 
L 1274 2720 
Q 1318 2861 1395 3001 
Q 1472 3142 1581 3251 
Q 1690 3360 1837 3430 
Q 1984 3501 2170 3501 
Q 2227 3501 2326 3485 
Q 2426 3469 2458 3456 
L 2394 2765 
L 2362 2765 
Q 2304 2803 2189 2838 
Q 2074 2874 1952 2874 
Q 1626 2874 1459 2650 
Q 1293 2426 1293 2131 
L 1293 1133 
Q 1293 813 1315 521 
Q 1338 230 1408 0 
L 480 0 
Q 557 243 579 563 
Q 602 883 602 1158 
L 602 2362 
Q 602 2637 525 2870 
Q 448 3104 339 3206 
L 1235 3482 
L 1261 3462 
z
" transform="scale(0.015625)"/>
      </defs>
      <use xlink:href="#HardingTextWeb-Regular-4d"/>
      <use xlink:href="#HardingTextWeb-Regular-74" x="89.999985"/>
      <use xlink:href="#HardingTextWeb-Regular-48" x="128.299973"/>
      <use xlink:href="#HardingTextWeb-Regular-2082" x="202.399963"/>
      <use xlink:href="#HardingTextWeb-Regular-2f" x="247.899948"/>
      <use xlink:href="#HardingTextWeb-Regular-79" x="285.299942"/>
      <use xlink:href="#HardingTextWeb-Regular-72" x="337.899933"/>
     </g>
    </g>
   </g>
   <g id="line2d_15">
    <path d="M 73.27375 316.652221 
L 88.75625 316.619082 
L 104.23875 316.544099 
L 119.72125 316.480347 
L 135.20375 316.410496 
L 150.68625 316.340646 
L 166.16875 315.855203 
L 181.65125 315.337731 
L 197.13375 314.820258 
L 212.61625 314.322845 
L 228.09875 313.83418 
L 243.58125 312.622185 
L 259.06375 311.420786 
L 274.54625 310.238214 
L 290.02875 309.055643 
L 305.51125 307.873071 
L 320.99375 305.677565 
L 336.47625 303.456394 
L 351.95875 301.235222 
L 367.44125 299.014051 
L 382.92375 296.815568 
L 398.40625 293.21987 
L 413.88875 289.241862 
L 429.37125 285.263855 
L 444.85375 281.537223 
L 460.33625 277.092252 
L 475.81875 272.646152 
L 491.30125 268.294787 
L 506.78375 264.33493 
L 522.26625 260.375073 
L 537.74875 256.415216 
" clip-path="url(#pac82123f02)" style="fill: none; stroke: #822681; stroke-width: 2; stroke-linecap: square"/>
   </g>
   <g id="line2d_16">
    <path d="M 73.27375 316.566246 
L 88.75625 315.97773 
L 104.23875 315.389214 
L 119.72125 314.800698 
L 135.20375 314.212182 
L 150.68625 313.623666 
L 166.16875 312.957201 
L 181.65125 312.290737 
L 197.13375 311.624272 
L 212.61625 310.957807 
L 228.09875 310.291342 
L 243.58125 308.79738 
L 259.06375 307.303417 
L 274.54625 305.809454 
L 290.02875 304.315492 
L 305.51125 302.821529 
L 320.99375 300.174409 
L 336.47625 297.527288 
L 351.95875 294.880168 
L 367.44125 292.233047 
L 382.92375 289.585927 
L 398.40625 285.363851 
L 413.88875 281.141776 
L 429.37125 276.9197 
L 444.85375 272.697625 
L 460.33625 268.475549 
L 475.81875 263.454704 
L 491.30125 258.433858 
L 506.78375 253.413012 
L 522.26625 248.392167 
L 537.74875 243.371321 
" clip-path="url(#pac82123f02)" style="fill: none; stroke-dasharray: 12.8,3.2,2,3.2; stroke-dashoffset: 0; stroke: #ffff00; stroke-width: 2"/>
   </g>
   <g id="line2d_17">
    <path d="M 73.27375 316.566246 
L 88.75625 315.895981 
L 104.23875 315.225715 
L 119.72125 314.555449 
L 135.20375 313.885184 
L 150.68625 313.214918 
L 166.16875 311.787067 
L 181.65125 310.359217 
L 197.13375 308.931367 
L 212.61625 307.503516 
L 228.09875 306.075666 
L 243.58125 302.498624 
L 259.06375 298.921582 
L 274.54625 295.34454 
L 290.02875 291.767498 
L 305.51125 288.190456 
L 320.99375 282.676868 
L 336.47625 277.163279 
L 351.95875 271.649691 
L 367.44125 266.136102 
L 382.92375 260.622514 
L 398.40625 254.702544 
L 413.88875 248.782575 
L 429.37125 242.862606 
L 444.85375 236.942636 
L 460.33625 231.022667 
L 475.81875 224.271263 
L 491.30125 217.519858 
L 506.78375 210.768454 
L 522.26625 204.01705 
L 537.74875 197.265646 
" clip-path="url(#pac82123f02)" style="fill: none; stroke-dasharray: 12.8,3.2,2,3.2; stroke-dashoffset: 0; stroke: #ffa500; stroke-width: 2"/>
   </g>
   <g id="line2d_18">
    <path d="M 73.27375 316.566246 
L 88.75625 315.842996 
L 104.23875 315.119746 
L 119.72125 314.396496 
L 135.20375 313.673246 
L 150.68625 312.949996 
L 166.16875 310.829142 
L 181.65125 308.708289 
L 197.13375 306.587436 
L 212.61625 304.466582 
L 228.09875 302.345729 
L 243.58125 296.543013 
L 259.06375 290.740296 
L 274.54625 284.93758 
L 290.02875 279.134864 
L 305.51125 273.332148 
L 320.99375 262.780013 
L 336.47625 252.227879 
L 351.95875 241.675745 
L 367.44125 231.123611 
L 382.92375 220.571476 
L 398.40625 205.183615 
L 413.88875 189.795753 
L 429.37125 174.407892 
L 444.85375 159.020031 
L 460.33625 143.632169 
L 475.81875 119.298644 
L 491.30125 94.96512 
L 506.78375 70.631595 
L 522.26625 46.29807 
L 537.74875 21.964545 
" clip-path="url(#pac82123f02)" style="fill: none; stroke-dasharray: 12.8,3.2,2,3.2; stroke-dashoffset: 0; stroke: #800080; stroke-width: 2"/>
   </g>
   <g id="line2d_19">
    <path d="M 228.09875 301.2697 
L 305.51125 280.082608 
L 537.74875 218.738585 
" clip-path="url(#pac82123f02)" style="fill: none; stroke-dasharray: 7.4,3.2; stroke-dashoffset: 0; stroke: #ff0000; stroke-width: 2"/>
   </g>
   <g id="patch_3">
    <path d="M 50.05 332.02 
L 50.05 7.2 
" style="fill: none; stroke: #000000; stroke-width: 0.8; stroke-linejoin: miter; stroke-linecap: square"/>
   </g>
   <g id="patch_4">
    <path d="M 50.05 332.02 
L 560.9725 332.02 
" style="fill: none; stroke: #000000; stroke-width: 0.8; stroke-linejoin: miter; stroke-linecap: square"/>
   </g>
  </g>
  <g id="legend_1">
   <g id="line2d_20">
    <path d="M 80.9225 27.720312 
L 90.9225 27.720312 
L 100.9225 27.720312 
" style="fill: none; stroke: #822681; stroke-width: 2; stroke-linecap: square"/>
   </g>
   <g id="text_16">
    <!-- 50th percentile -->
    <g transform="translate(108.9225 31.220312) scale(0.1 -0.1)">
     <defs>
      <path id="HardingTextWeb-Regular-35" d="M 1325 256 
Q 1792 256 2035 496 
Q 2278 736 2278 1254 
Q 2278 1478 2198 1673 
Q 2118 1869 1923 2038 
Q 1728 2208 1382 2352 
Q 1037 2496 512 2624 
L 1037 4621 
L 2995 4621 
L 2784 3910 
Q 2637 3942 2368 3968 
Q 2099 3994 1862 3994 
L 1197 3994 
L 998 3213 
Q 1421 3110 1785 2966 
Q 2150 2822 2412 2620 
Q 2675 2419 2822 2153 
Q 2970 1888 2970 1549 
Q 2970 1165 2838 861 
Q 2707 557 2486 349 
Q 2266 141 1965 32 
Q 1664 -77 1325 -77 
Q 934 -77 697 -9 
Q 461 58 224 166 
L 160 826 
Q 410 602 720 429 
Q 1030 256 1325 256 
z
" transform="scale(0.015625)"/>
      <path id="HardingTextWeb-Regular-30" d="M 2112 4691 
Q 2509 4691 2838 4537 
Q 3168 4384 3405 4089 
Q 3642 3795 3776 3356 
Q 3910 2918 3910 2355 
Q 3910 1766 3760 1308 
Q 3610 851 3363 547 
Q 3117 243 2793 83 
Q 2470 -77 2125 -77 
Q 1734 -77 1404 76 
Q 1075 230 838 524 
Q 602 819 467 1260 
Q 333 1702 333 2266 
Q 333 2854 483 3308 
Q 634 3763 877 4070 
Q 1120 4378 1443 4534 
Q 1766 4691 2112 4691 
z
M 2125 269 
Q 2605 269 2851 755 
Q 3098 1242 3098 2342 
Q 3098 3443 2845 3894 
Q 2592 4346 2112 4346 
Q 1638 4346 1388 3862 
Q 1139 3379 1139 2278 
Q 1139 1178 1395 723 
Q 1651 269 2125 269 
z
" transform="scale(0.015625)"/>
      <path id="HardingTextWeb-Regular-68" d="M 3322 1158 
Q 3322 883 3344 563 
Q 3366 243 3443 0 
L 2522 0 
Q 2592 230 2611 512 
Q 2630 794 2630 1107 
L 2630 2426 
Q 2630 2701 2483 2825 
Q 2336 2950 2035 2950 
Q 1798 2950 1593 2886 
Q 1389 2822 1242 2669 
L 1242 1107 
Q 1242 794 1261 512 
Q 1280 230 1350 0 
L 435 0 
Q 512 243 531 563 
Q 550 883 550 1158 
L 550 3872 
Q 550 4154 480 4374 
Q 410 4595 307 4704 
L 1222 5005 
L 1274 4966 
L 1242 3955 
L 1242 2931 
L 1261 2931 
Q 1382 3168 1683 3334 
Q 1984 3501 2374 3501 
Q 2893 3501 3107 3264 
Q 3322 3027 3322 2522 
L 3322 1158 
z
" transform="scale(0.015625)"/>
      <path id="HardingTextWeb-Regular-20" transform="scale(0.015625)"/>
      <path id="HardingTextWeb-Regular-70" d="M 1242 -173 
Q 1242 -486 1274 -793 
Q 1306 -1101 1376 -1331 
L 429 -1331 
Q 506 -1088 528 -768 
Q 550 -448 550 -173 
L 550 2362 
Q 550 2637 473 2870 
Q 397 3104 288 3206 
L 1216 3482 
L 1242 3462 
L 1229 2931 
L 1248 2931 
Q 1331 3130 1612 3315 
Q 1894 3501 2317 3501 
Q 2598 3501 2844 3395 
Q 3091 3290 3270 3085 
Q 3450 2880 3552 2563 
Q 3654 2246 3654 1830 
Q 3654 1478 3555 1132 
Q 3456 787 3248 521 
Q 3040 256 2717 89 
Q 2394 -77 1946 -77 
Q 1760 -77 1581 -51 
Q 1402 -26 1242 26 
L 1242 -173 
z
M 1242 544 
Q 1344 442 1523 355 
Q 1702 269 1946 269 
Q 2458 269 2688 656 
Q 2918 1043 2918 1734 
Q 2918 2368 2684 2688 
Q 2451 3008 1990 3008 
Q 1779 3008 1555 2886 
Q 1331 2765 1242 2643 
L 1242 544 
z
" transform="scale(0.015625)"/>
      <path id="HardingTextWeb-Regular-65" d="M 3162 781 
Q 3040 448 2707 185 
Q 2374 -77 1811 -77 
Q 1510 -77 1228 28 
Q 947 134 736 345 
Q 525 557 397 880 
Q 269 1203 269 1626 
Q 269 2042 384 2387 
Q 499 2733 704 2979 
Q 909 3226 1193 3363 
Q 1478 3501 1811 3501 
Q 2496 3501 2819 3085 
Q 3142 2669 3142 1869 
L 966 1869 
L 966 1792 
Q 966 1082 1283 781 
Q 1600 480 2086 480 
Q 2528 480 2777 624 
Q 3027 768 3149 902 
L 3162 781 
z
M 1798 3168 
Q 1459 3168 1251 2909 
Q 1043 2650 986 2163 
L 2426 2202 
Q 2413 2662 2288 2915 
Q 2163 3168 1798 3168 
z
" transform="scale(0.015625)"/>
      <path id="HardingTextWeb-Regular-63" d="M 3046 749 
Q 3002 595 2902 448 
Q 2803 301 2652 185 
Q 2502 70 2291 -3 
Q 2080 -77 1811 -77 
Q 1491 -77 1206 38 
Q 922 154 717 371 
Q 512 589 390 905 
Q 269 1222 269 1626 
Q 269 2086 416 2435 
Q 563 2784 800 3021 
Q 1037 3258 1341 3376 
Q 1645 3494 1965 3494 
Q 2528 3494 2768 3283 
Q 3008 3072 3008 2829 
Q 3008 2650 2918 2547 
Q 2829 2445 2650 2445 
Q 2490 2445 2410 2550 
Q 2330 2656 2304 2854 
Q 2291 3053 2220 3107 
Q 2150 3162 1933 3162 
Q 1542 3162 1254 2806 
Q 966 2451 966 1830 
Q 966 1139 1264 803 
Q 1562 467 2042 467 
Q 2368 467 2621 572 
Q 2874 678 3034 858 
L 3046 749 
z
" transform="scale(0.015625)"/>
      <path id="HardingTextWeb-Regular-6e" d="M 288 3206 
L 1190 3482 
L 1216 3462 
L 1197 2886 
L 1222 2886 
Q 1344 3130 1664 3315 
Q 1984 3501 2374 3501 
Q 2893 3501 3104 3261 
Q 3315 3021 3315 2515 
L 3315 1158 
Q 3315 883 3337 563 
Q 3360 243 3437 0 
L 2515 0 
Q 2586 230 2605 512 
Q 2624 794 2624 1107 
L 2624 2426 
Q 2624 2701 2480 2825 
Q 2336 2950 2035 2950 
Q 1798 2950 1596 2870 
Q 1395 2790 1242 2637 
L 1242 1107 
Q 1242 794 1261 512 
Q 1280 230 1350 0 
L 429 0 
Q 506 243 528 563 
Q 550 883 550 1158 
L 550 2362 
Q 550 2637 473 2870 
Q 397 3104 288 3206 
z
" transform="scale(0.015625)"/>
      <path id="HardingTextWeb-Regular-69" d="M 915 3942 
Q 723 3942 601 4064 
Q 480 4186 480 4365 
Q 480 4544 601 4665 
Q 723 4787 915 4787 
Q 1114 4787 1235 4665 
Q 1357 4544 1357 4365 
Q 1357 4186 1235 4064 
Q 1114 3942 915 3942 
z
M 1389 0 
L 454 0 
Q 531 243 553 563 
Q 576 883 576 1158 
L 576 2362 
Q 576 2637 499 2870 
Q 422 3104 314 3206 
L 1248 3482 
L 1299 3443 
Q 1293 3411 1286 3283 
Q 1280 3155 1277 3008 
Q 1274 2861 1270 2733 
Q 1267 2605 1267 2566 
L 1267 1158 
Q 1267 883 1289 563 
Q 1312 243 1389 0 
z
" transform="scale(0.015625)"/>
      <path id="HardingTextWeb-Regular-6c" d="M 1376 0 
L 448 0 
Q 525 243 547 563 
Q 570 883 570 1158 
L 570 3853 
Q 570 4128 493 4361 
Q 416 4595 307 4704 
L 1235 5005 
L 1286 4966 
Q 1286 4934 1280 4809 
Q 1274 4685 1267 4541 
Q 1261 4397 1257 4269 
Q 1254 4141 1254 4102 
L 1254 1158 
Q 1254 883 1276 563 
Q 1299 243 1376 0 
z
" transform="scale(0.015625)"/>
     </defs>
     <use xlink:href="#HardingTextWeb-Regular-35"/>
     <use xlink:href="#HardingTextWeb-Regular-30" x="51.199997"/>
     <use xlink:href="#HardingTextWeb-Regular-74" x="117.499985"/>
     <use xlink:href="#HardingTextWeb-Regular-68" x="155.799973"/>
     <use xlink:href="#HardingTextWeb-Regular-20" x="215.59996"/>
     <use xlink:href="#HardingTextWeb-Regular-70" x="233.199951"/>
     <use xlink:href="#HardingTextWeb-Regular-65" x="294.999939"/>
     <use xlink:href="#HardingTextWeb-Regular-72" x="348.199936"/>
     <use xlink:href="#HardingTextWeb-Regular-63" x="389.699921"/>
     <use xlink:href="#HardingTextWeb-Regular-65" x="440.899918"/>
     <use xlink:href="#HardingTextWeb-Regular-6e" x="494.099915"/>
     <use xlink:href="#HardingTextWeb-Regular-74" x="553.799911"/>
     <use xlink:href="#HardingTextWeb-Regular-69" x="592.099899"/>
     <use xlink:href="#HardingTextWeb-Regular-6c" x="620.69989"/>
     <use xlink:href="#HardingTextWeb-Regular-65" x="649.199875"/>
    </g>
   </g>
   <g id="line2d_21">
    <path d="M 80.9225 42.620312 
L 90.9225 42.620312 
L 100.9225 42.620312 
" style="fill: none; stroke-dasharray: 12.8,3.2,2,3.2; stroke-dashoffset: 0; stroke: #ffff00; stroke-width: 2"/>
   </g>
   <g id="text_17">
    <!-- pkbudg500-SSP1 -->
    <g transform="translate(108.9225 46.120312) scale(0.1 -0.1)">
     <defs>
      <path id="HardingTextWeb-Regular-6b" d="M 1357 0 
L 435 0 
Q 512 243 531 563 
Q 550 883 550 1158 
L 550 3898 
Q 550 4173 476 4384 
Q 403 4595 288 4704 
L 1216 5005 
L 1267 4966 
Q 1267 4934 1260 4806 
Q 1254 4678 1251 4531 
Q 1248 4384 1245 4256 
Q 1242 4128 1242 4090 
L 1242 1818 
L 2074 2733 
Q 2272 2950 2358 3116 
Q 2445 3283 2483 3424 
L 3226 3424 
Q 3027 3245 2848 3053 
Q 2669 2861 2458 2637 
L 1850 1990 
L 2688 877 
Q 2867 640 3062 425 
Q 3258 211 3475 0 
L 2541 0 
L 1242 1709 
L 1242 1158 
Q 1242 883 1261 563 
Q 1280 243 1357 0 
z
" transform="scale(0.015625)"/>
      <path id="HardingTextWeb-Regular-62" d="M 1146 3987 
L 1146 2944 
L 1165 2944 
Q 1254 3142 1584 3321 
Q 1914 3501 2336 3501 
Q 2906 3501 3245 3072 
Q 3584 2643 3584 1824 
Q 3584 1434 3481 1085 
Q 3379 736 3168 480 
Q 2957 224 2630 73 
Q 2304 -77 1850 -77 
Q 1446 -77 1097 6 
Q 749 90 461 250 
L 461 3872 
Q 461 4147 390 4371 
Q 320 4595 218 4698 
L 1133 5005 
L 1184 4966 
L 1146 3987 
z
M 1152 486 
Q 1254 403 1468 332 
Q 1683 262 1856 262 
Q 2355 262 2592 643 
Q 2829 1024 2829 1715 
Q 2829 2349 2624 2665 
Q 2419 2982 1958 2982 
Q 1741 2982 1494 2876 
Q 1248 2771 1152 2643 
L 1152 486 
z
" transform="scale(0.015625)"/>
      <path id="HardingTextWeb-Regular-75" d="M 506 2419 
Q 506 2637 477 2889 
Q 448 3142 378 3354 
L 1197 3462 
L 1197 1082 
Q 1197 768 1331 585 
Q 1466 403 1792 403 
Q 2074 403 2285 537 
Q 2496 672 2592 832 
L 2592 2419 
Q 2592 2637 2563 2889 
Q 2534 3142 2458 3354 
L 3283 3462 
L 3283 966 
Q 3283 576 3321 377 
Q 3360 179 3418 0 
L 2630 0 
L 2624 525 
L 2605 525 
Q 2560 429 2473 320 
Q 2387 211 2256 124 
Q 2125 38 1942 -19 
Q 1760 -77 1523 -77 
Q 960 -77 733 233 
Q 506 544 506 1050 
L 506 2419 
z
" transform="scale(0.015625)"/>
      <path id="HardingTextWeb-Regular-64" d="M 1965 3501 
Q 2202 3501 2400 3456 
Q 2598 3411 2701 3347 
L 2701 3859 
Q 2701 4141 2617 4365 
Q 2534 4589 2432 4698 
L 3379 4998 
L 3430 4960 
Q 3405 4749 3395 4550 
Q 3386 4352 3386 4051 
L 3386 1018 
Q 3386 634 3424 406 
Q 3462 179 3520 0 
L 2733 0 
L 2720 512 
L 2694 512 
Q 2592 275 2349 99 
Q 2106 -77 1702 -77 
Q 1434 -77 1181 28 
Q 928 134 729 345 
Q 531 557 412 877 
Q 294 1197 294 1613 
Q 294 2093 451 2451 
Q 608 2810 848 3040 
Q 1088 3270 1385 3385 
Q 1683 3501 1965 3501 
z
M 2701 787 
L 2701 2579 
Q 2694 2854 2480 3008 
Q 2266 3162 1914 3162 
Q 1530 3162 1274 2822 
Q 1018 2483 1018 1837 
Q 1018 1133 1299 768 
Q 1581 403 1971 403 
Q 2227 403 2425 521 
Q 2624 640 2701 787 
z
" transform="scale(0.015625)"/>
      <path id="HardingTextWeb-Regular-67" d="M 1664 1120 
Q 1523 1120 1382 1142 
Q 1242 1165 1114 1210 
Q 1011 1146 966 1072 
Q 922 998 922 896 
Q 922 774 1008 704 
Q 1094 634 1261 634 
Q 1414 634 1593 640 
Q 1773 646 1958 649 
Q 2144 653 2326 659 
Q 2509 666 2662 666 
Q 3085 666 3321 467 
Q 3558 269 3558 -115 
Q 3558 -397 3417 -630 
Q 3277 -864 3021 -1027 
Q 2765 -1190 2400 -1280 
Q 2035 -1370 1594 -1370 
Q 813 -1370 457 -1146 
Q 102 -922 102 -653 
Q 102 -378 332 -198 
Q 563 -19 870 64 
L 870 90 
Q 710 115 553 256 
Q 397 397 397 646 
Q 397 890 537 1050 
Q 678 1210 883 1274 
L 883 1299 
Q 614 1440 448 1686 
Q 282 1933 282 2272 
Q 282 2554 394 2781 
Q 506 3008 694 3168 
Q 883 3328 1136 3414 
Q 1389 3501 1664 3501 
Q 1888 3501 2102 3449 
Q 2317 3398 2490 3296 
L 3520 3603 
L 3520 2944 
Q 3379 2963 3164 3004 
Q 2950 3046 2771 3053 
Q 2899 2925 2976 2752 
Q 3053 2579 3053 2362 
Q 3053 2080 2937 1849 
Q 2822 1619 2633 1459 
Q 2445 1299 2192 1209 
Q 1939 1120 1664 1120 
z
M 1651 3181 
Q 1350 3181 1164 2969 
Q 979 2758 979 2285 
Q 979 1869 1180 1654 
Q 1382 1440 1677 1440 
Q 1971 1440 2169 1657 
Q 2368 1875 2368 2349 
Q 2368 2765 2157 2973 
Q 1946 3181 1651 3181 
z
M 730 -557 
Q 730 -794 941 -931 
Q 1152 -1069 1594 -1069 
Q 2298 -1069 2662 -857 
Q 3027 -646 3027 -384 
Q 3027 -147 2902 -64 
Q 2778 19 2560 19 
Q 2419 19 2201 12 
Q 1984 6 1763 -3 
Q 1542 -13 1363 -19 
Q 1184 -26 1120 -32 
Q 960 -58 845 -205 
Q 730 -352 730 -557 
z
" transform="scale(0.015625)"/>
      <path id="HardingTextWeb-Regular-2d" d="M 371 1792 
L 371 2317 
L 1600 2317 
L 1600 1792 
L 371 1792 
z
" transform="scale(0.015625)"/>
      <path id="HardingTextWeb-Regular-53" d="M 1811 4698 
Q 2240 4698 2480 4621 
Q 2720 4544 2912 4454 
L 2957 3693 
L 2925 3693 
Q 2739 3981 2425 4157 
Q 2112 4333 1747 4333 
Q 1389 4333 1203 4166 
Q 1018 4000 1018 3699 
Q 1018 3398 1226 3200 
Q 1434 3002 2010 2733 
Q 2560 2477 2921 2179 
Q 3283 1882 3283 1306 
Q 3283 1037 3190 784 
Q 3098 531 2902 342 
Q 2707 154 2400 38 
Q 2093 -77 1664 -77 
Q 1280 -77 941 3 
Q 602 83 320 237 
L 269 1114 
L 301 1114 
Q 538 781 909 531 
Q 1280 282 1677 282 
Q 2118 282 2345 467 
Q 2573 653 2573 992 
Q 2573 1357 2358 1581 
Q 2144 1805 1683 2035 
Q 1382 2176 1129 2307 
Q 877 2438 697 2598 
Q 518 2758 416 2972 
Q 314 3187 314 3494 
Q 314 4019 717 4358 
Q 1120 4698 1811 4698 
z
" transform="scale(0.015625)"/>
      <path id="HardingTextWeb-Regular-50" d="M 1350 1203 
Q 1350 928 1388 592 
Q 1427 256 1491 0 
L 422 0 
Q 506 256 544 592 
Q 582 928 582 1203 
L 582 3418 
Q 582 3693 544 4029 
Q 506 4365 422 4621 
L 1875 4621 
Q 2656 4621 3078 4281 
Q 3501 3942 3501 3322 
Q 3501 2701 3078 2361 
Q 2656 2022 1875 2022 
L 1350 2022 
L 1350 1203 
z
M 1830 4269 
L 1350 4269 
L 1350 2362 
L 1830 2362 
Q 2323 2362 2521 2605 
Q 2720 2848 2720 3322 
Q 2720 3795 2521 4032 
Q 2323 4269 1830 4269 
z
" transform="scale(0.015625)"/>
      <path id="HardingTextWeb-Regular-31" d="M 294 0 
L 294 339 
L 960 339 
Q 998 538 1017 778 
Q 1037 1018 1037 1312 
L 1037 3917 
L 256 3949 
L 256 4205 
Q 730 4269 1120 4413 
Q 1510 4557 1830 4678 
Q 1786 4384 1776 4080 
Q 1766 3776 1766 3494 
L 1766 1312 
Q 1766 1018 1788 778 
Q 1811 538 1843 339 
L 2483 339 
L 2483 0 
L 294 0 
z
" transform="scale(0.015625)"/>
     </defs>
     <use xlink:href="#HardingTextWeb-Regular-70"/>
     <use xlink:href="#HardingTextWeb-Regular-6b" x="61.799988"/>
     <use xlink:href="#HardingTextWeb-Regular-62" x="116.299973"/>
     <use xlink:href="#HardingTextWeb-Regular-75" x="176.999969"/>
     <use xlink:href="#HardingTextWeb-Regular-64" x="236.899963"/>
     <use xlink:href="#HardingTextWeb-Regular-67" x="298.399948"/>
     <use xlink:href="#HardingTextWeb-Regular-35" x="356.599945"/>
     <use xlink:href="#HardingTextWeb-Regular-30" x="407.799942"/>
     <use xlink:href="#HardingTextWeb-Regular-30" x="474.09993"/>
     <use xlink:href="#HardingTextWeb-Regular-2d" x="540.399918"/>
     <use xlink:href="#HardingTextWeb-Regular-53" x="571.199905"/>
     <use xlink:href="#HardingTextWeb-Regular-53" x="626.69989"/>
     <use xlink:href="#HardingTextWeb-Regular-50" x="682.199875"/>
     <use xlink:href="#HardingTextWeb-Regular-31" x="740.299866"/>
    </g>
   </g>
   <g id="line2d_22">
    <path d="M 80.9225 57.58125 
L 90.9225 57.58125 
L 100.9225 57.58125 
" style="fill: none; stroke-dasharray: 12.8,3.2,2,3.2; stroke-dashoffset: 0; stroke: #ffa500; stroke-width: 2"/>
   </g>
   <g id="text_18">
    <!-- pkbudg500-SSP2 -->
    <g transform="translate(108.9225 61.08125) scale(0.1 -0.1)">
     <defs>
      <path id="HardingTextWeb-Regular-32" d="M 3040 3418 
Q 3040 3002 2825 2598 
Q 2611 2195 2297 1836 
Q 1984 1478 1619 1168 
Q 1254 858 954 621 
L 1926 621 
Q 2125 621 2329 640 
Q 2534 659 2713 691 
Q 2893 723 3040 761 
Q 3187 800 3270 838 
L 3091 0 
L 243 0 
L 141 224 
Q 576 653 963 1046 
Q 1350 1440 1638 1811 
Q 1926 2182 2096 2547 
Q 2266 2912 2266 3283 
Q 2266 3648 2061 3872 
Q 1856 4096 1434 4096 
Q 1069 4096 845 3952 
Q 621 3808 403 3494 
L 262 3584 
Q 429 4051 790 4371 
Q 1152 4691 1728 4691 
Q 2406 4691 2723 4329 
Q 3040 3968 3040 3418 
z
" transform="scale(0.015625)"/>
     </defs>
     <use xlink:href="#HardingTextWeb-Regular-70"/>
     <use xlink:href="#HardingTextWeb-Regular-6b" x="61.799988"/>
     <use xlink:href="#HardingTextWeb-Regular-62" x="116.299973"/>
     <use xlink:href="#HardingTextWeb-Regular-75" x="176.999969"/>
     <use xlink:href="#HardingTextWeb-Regular-64" x="236.899963"/>
     <use xlink:href="#HardingTextWeb-Regular-67" x="298.399948"/>
     <use xlink:href="#HardingTextWeb-Regular-35" x="356.599945"/>
     <use xlink:href="#HardingTextWeb-Regular-30" x="407.799942"/>
     <use xlink:href="#HardingTextWeb-Regular-30" x="474.09993"/>
     <use xlink:href="#HardingTextWeb-Regular-2d" x="540.399918"/>
     <use xlink:href="#HardingTextWeb-Regular-53" x="571.199905"/>
     <use xlink:href="#HardingTextWeb-Regular-53" x="626.69989"/>
     <use xlink:href="#HardingTextWeb-Regular-50" x="682.199875"/>
     <use xlink:href="#HardingTextWeb-Regular-32" x="740.299866"/>
    </g>
   </g>
   <g id="line2d_23">
    <path d="M 80.9225 72.542187 
L 90.9225 72.542187 
L 100.9225 72.542187 
" style="fill: none; stroke-dasharray: 12.8,3.2,2,3.2; stroke-dashoffset: 0; stroke: #800080; stroke-width: 2"/>
   </g>
   <g id="text_19">
    <!-- pkbudg500-SSP5 -->
    <g transform="translate(108.9225 76.042187) scale(0.1 -0.1)">
     <use xlink:href="#HardingTextWeb-Regular-70"/>
     <use xlink:href="#HardingTextWeb-Regular-6b" x="61.799988"/>
     <use xlink:href="#HardingTextWeb-Regular-62" x="116.299973"/>
     <use xlink:href="#HardingTextWeb-Regular-75" x="176.999969"/>
     <use xlink:href="#HardingTextWeb-Regular-64" x="236.899963"/>
     <use xlink:href="#HardingTextWeb-Regular-67" x="298.399948"/>
     <use xlink:href="#HardingTextWeb-Regular-35" x="356.599945"/>
     <use xlink:href="#HardingTextWeb-Regular-30" x="407.799942"/>
     <use xlink:href="#HardingTextWeb-Regular-30" x="474.09993"/>
     <use xlink:href="#HardingTextWeb-Regular-2d" x="540.399918"/>
     <use xlink:href="#HardingTextWeb-Regular-53" x="571.199905"/>
     <use xlink:href="#HardingTextWeb-Regular-53" x="626.69989"/>
     <use xlink:href="#HardingTextWeb-Regular-50" x="682.199875"/>
     <use xlink:href="#HardingTextWeb-Regular-35" x="740.299866"/>
    </g>
   </g>
   <g id="line2d_24">
    <path d="M 80.9225 87.503125 
L 90.9225 87.503125 
L 100.9225 87.503125 
" style="fill: none; stroke-dasharray: 7.4,3.2; stroke-dashoffset: 0; stroke: #ff0000; stroke-width: 2"/>
   </g>
   <g id="text_20">
    <!-- IEA NZE 2050 -->
    <g transform="translate(108.9225 91.003125) scale(0.1 -0.1)">
     <defs>
      <path id="HardingTextWeb-Regular-49" d="M 1370 1203 
Q 1370 928 1424 592 
Q 1478 256 1568 0 
L 390 0 
Q 493 256 547 592 
Q 602 928 602 1203 
L 602 3418 
Q 602 3693 547 4029 
Q 493 4365 390 4621 
L 1568 4621 
Q 1478 4365 1424 4029 
Q 1370 3693 1370 3418 
L 1370 1203 
z
" transform="scale(0.015625)"/>
      <path id="HardingTextWeb-Regular-45" d="M 3162 0 
L 422 0 
Q 506 256 544 592 
Q 582 928 582 1203 
L 582 3418 
Q 582 3693 544 4029 
Q 506 4365 422 4621 
L 3123 4621 
L 3098 4051 
Q 2829 4166 2493 4214 
Q 2157 4262 1875 4262 
L 1350 4262 
L 1350 2605 
L 1875 2605 
Q 2080 2605 2352 2630 
Q 2624 2656 2829 2694 
L 2765 2138 
Q 2573 2195 2317 2220 
Q 2061 2246 1837 2246 
L 1350 2246 
L 1350 358 
L 1798 358 
Q 1971 358 2176 374 
Q 2381 390 2579 419 
Q 2778 448 2960 493 
Q 3142 538 3270 595 
L 3162 0 
z
" transform="scale(0.015625)"/>
      <path id="HardingTextWeb-Regular-41" d="M 2867 979 
Q 2822 1088 2774 1229 
Q 2726 1370 2669 1523 
L 1203 1523 
Q 1133 1318 1081 1168 
Q 1030 1018 1011 960 
Q 896 608 950 336 
Q 1005 64 1050 0 
L 51 0 
Q 192 192 304 403 
Q 416 614 557 1024 
Q 691 1382 857 1827 
Q 1024 2272 1197 2742 
Q 1370 3213 1546 3683 
Q 1722 4154 1875 4557 
L 2330 4698 
Q 2483 4256 2659 3769 
Q 2835 3283 3011 2800 
Q 3187 2317 3360 1840 
Q 3533 1363 3680 947 
Q 3776 678 3907 409 
Q 4038 141 4166 0 
L 2874 0 
Q 2918 77 2937 195 
Q 2957 314 2953 451 
Q 2950 589 2928 726 
Q 2906 864 2867 979 
z
M 1901 3552 
Q 1850 3398 1779 3200 
Q 1709 3002 1635 2781 
Q 1562 2560 1482 2329 
Q 1402 2099 1325 1888 
L 2541 1888 
Q 2381 2336 2214 2797 
Q 2048 3258 1939 3552 
L 1901 3552 
z
" transform="scale(0.015625)"/>
      <path id="HardingTextWeb-Regular-4e" d="M 4077 3187 
L 4077 0 
L 3571 0 
L 1126 3750 
L 1094 3750 
L 1094 1485 
Q 1094 1056 1142 733 
Q 1190 410 1274 0 
L 480 0 
Q 563 403 611 729 
Q 659 1056 659 1485 
L 659 3258 
Q 659 3533 640 3721 
Q 621 3910 579 4057 
Q 538 4205 467 4333 
Q 397 4461 288 4621 
L 1414 4621 
L 3616 1280 
L 3642 1280 
L 3642 3187 
Q 3642 3328 3629 3520 
Q 3616 3712 3593 3913 
Q 3571 4115 3536 4304 
Q 3501 4493 3462 4621 
L 4250 4621 
Q 4211 4493 4179 4304 
Q 4147 4115 4124 3913 
Q 4102 3712 4089 3520 
Q 4077 3328 4077 3187 
z
" transform="scale(0.015625)"/>
      <path id="HardingTextWeb-Regular-5a" d="M 3603 0 
L 250 0 
L 192 166 
L 2803 4262 
L 1702 4262 
Q 1581 4262 1411 4243 
Q 1242 4224 1066 4189 
Q 890 4154 717 4102 
Q 544 4051 410 3994 
L 467 4640 
Q 691 4634 995 4627 
Q 1299 4621 1536 4621 
L 3706 4621 
L 3776 4499 
L 1165 358 
L 2355 358 
Q 2496 358 2665 374 
Q 2835 390 3011 419 
Q 3187 448 3353 493 
Q 3520 538 3654 589 
L 3603 0 
z
" transform="scale(0.015625)"/>
     </defs>
     <use xlink:href="#HardingTextWeb-Regular-49"/>
     <use xlink:href="#HardingTextWeb-Regular-45" x="30.499985"/>
     <use xlink:href="#HardingTextWeb-Regular-41" x="85.699982"/>
     <use xlink:href="#HardingTextWeb-Regular-20" x="151.999969"/>
     <use xlink:href="#HardingTextWeb-Regular-4e" x="169.59996"/>
     <use xlink:href="#HardingTextWeb-Regular-5a" x="242.099945"/>
     <use xlink:href="#HardingTextWeb-Regular-45" x="304.09993"/>
     <use xlink:href="#HardingTextWeb-Regular-20" x="359.299927"/>
     <use xlink:href="#HardingTextWeb-Regular-32" x="376.899918"/>
     <use xlink:href="#HardingTextWeb-Regular-30" x="431.099915"/>
     <use xlink:href="#HardingTextWeb-Regular-35" x="497.399902"/>
     <use xlink:href="#HardingTextWeb-Regular-30" x="548.599899"/>
    </g>
   </g>
  </g>
 </g>
 <defs>
  <clipPath id="pac82123f02">
   <rect x="50.05" y="7.2" width="510.9225" height="324.82"/>
  </clipPath>
 </defs>
</svg>
