<?xml version="1.0" encoding="utf-8" standalone="no"?>
<!DOCTYPE svg PUBLIC "-//W3C//DTD SVG 1.1//EN"
  "http://www.w3.org/Graphics/SVG/1.1/DTD/svg11.dtd">
<svg xmlns:xlink="http://www.w3.org/1999/xlink" width="465.12pt" height="393.12pt" viewBox="0 0 465.12 393.12" xmlns="http://www.w3.org/2000/svg" version="1.1">
 <metadata>
  <rdf:RDF xmlns:dc="http://purl.org/dc/elements/1.1/" xmlns:cc="http://creativecommons.org/ns#" xmlns:rdf="http://www.w3.org/1999/02/22-rdf-syntax-ns#">
   <cc:Work>
    <dc:type rdf:resource="http://purl.org/dc/dcmitype/StillImage"/>
    <dc:date>2025-10-08T04:50:14.279588</dc:date>
    <dc:format>image/svg+xml</dc:format>
    <dc:creator>
     <cc:Agent>
      <dc:title>Matplotlib v3.10.3, https://matplotlib.org/</dc:title>
     </cc:Agent>
    </dc:creator>
   </cc:Work>
  </rdf:RDF>
 </metadata>
 <defs>
  <style type="text/css">*{stroke-linejoin: round; stroke-linecap: butt}</style>
 </defs>
 <g id="figure_1">
  <g id="patch_1">
   <path d="M 0 393.12 
L 465.12 393.12 
L 465.12 0 
L 0 0 
L 0 393.12 
z
" style="fill: none"/>
  </g>
  <g id="axes_1">
   <g id="patch_2">
    <path d="M 230.864983 95.396249 
C 205.297823 95.396249 205.297823 125.258728 230.864983 125.258728 
C 256.432142 125.258728 256.432142 95.396249 232.998573 95.396249 
" clip-path="url(#pa6b82c30c4)" style="fill: none; stroke: #ff0000; stroke-width: 1.908341; stroke-linecap: round"/>
    <path d="M 236.998573 97.396249 
L 232.998573 95.396249 
L 236.998573 93.396249 
" clip-path="url(#pa6b82c30c4)" style="fill: none; stroke: #ff0000; stroke-width: 1.908341; stroke-linecap: round"/>
   </g>
   <g id="patch_3">
    <path d="M 207.946653 115.265806 
Q 161.493441 98.291536 113.110557 106.700717 
" clip-path="url(#pa6b82c30c4)" style="fill: none; stroke: #1e90ff; stroke-width: 0.312402; stroke-linecap: round"/>
    <path d="M 117.393951 107.986226 
L 113.110557 106.700717 
L 116.709001 104.045307 
" clip-path="url(#pa6b82c30c4)" style="fill: none; stroke: #1e90ff; stroke-width: 0.312402; stroke-linecap: round"/>
   </g>
   <g id="patch_4">
    <path d="M 209.424781 138.118156 
Q 99.886811 208.130746 54.980617 329.736679 
" clip-path="url(#pa6b82c30c4)" style="fill: none; stroke: #ff0000; stroke-width: 0.329717; stroke-linecap: round"/>
    <path d="M 58.242429 326.677172 
L 54.980617 329.736679 
L 54.490099 325.291526 
" clip-path="url(#pa6b82c30c4)" style="fill: none; stroke: #ff0000; stroke-width: 0.329717; stroke-linecap: round"/>
   </g>
   <g id="patch_5">
    <path d="M 243.592201 103.741932 
Q 248.48282 92.389093 250.128076 80.640475 
" clip-path="url(#pa6b82c30c4)" style="fill: none; stroke: #1e90ff; stroke-width: 0.445579; stroke-linecap: round"/>
    <path d="M 247.592662 84.324452 
L 250.128076 80.640475 
L 251.554009 84.879192 
" clip-path="url(#pa6b82c30c4)" style="fill: none; stroke: #1e90ff; stroke-width: 0.445579; stroke-linecap: round"/>
   </g>
   <g id="patch_6">
    <path d="M 206.618875 131.360166 
Q 171.312361 143.064358 145.697872 169.095064 
" clip-path="url(#pa6b82c30c4)" style="fill: none; stroke: #ff0000; stroke-width: 0.60489; stroke-linecap: round"/>
    <path d="M 149.928978 167.646705 
L 145.697872 169.095064 
L 147.077849 164.841164 
" clip-path="url(#pa6b82c30c4)" style="fill: none; stroke: #ff0000; stroke-width: 0.60489; stroke-linecap: round"/>
   </g>
   <g id="patch_7">
    <path d="M 211.321588 140.845631 
Q 198.64102 153.462297 191.114581 168.941055 
" clip-path="url(#pa6b82c30c4)" style="fill: none; stroke: #ff0000; stroke-width: 0.60489; stroke-linecap: round"/>
    <path d="M 194.662378 166.218348 
L 191.114581 168.941055 
L 191.065094 164.469193 
" clip-path="url(#pa6b82c30c4)" style="fill: none; stroke: #ff0000; stroke-width: 0.60489; stroke-linecap: round"/>
   </g>
   <g id="patch_8">
    <path d="M 241.102275 148.066929 
Q 292.154708 252.919551 395.198496 306.586752 
" clip-path="url(#pa6b82c30c4)" style="fill: none; stroke: #1e90ff; stroke-width: 0.392636; stroke-linecap: round"/>
    <path d="M 392.574669 302.965215 
L 395.198496 306.586752 
L 390.72697 306.512892 
" clip-path="url(#pa6b82c30c4)" style="fill: none; stroke: #1e90ff; stroke-width: 0.392636; stroke-linecap: round"/>
   </g>
   <g id="patch_9">
    <path d="M 212.407033 108.401843 
Q 181.902422 84.304878 144.213958 77.160839 
" clip-path="url(#pa6b82c30c4)" style="fill: none; stroke: #ff0000; stroke-width: 0.460062; stroke-linecap: round"/>
    <path d="M 147.771498 79.870803 
L 144.213958 77.160839 
L 148.516453 75.940785 
" clip-path="url(#pa6b82c30c4)" style="fill: none; stroke: #ff0000; stroke-width: 0.460062; stroke-linecap: round"/>
   </g>
   <g id="patch_10">
    <path d="M 210.840171 110.292881 
Q 205.236743 107.322514 200.075048 105.596549 
" clip-path="url(#pa6b82c30c4)" style="fill: none; stroke: #ff0000; stroke-width: 0.804463; stroke-linecap: round"/>
    <path d="M 203.234348 108.761802 
L 200.075048 105.596549 
L 204.50283 104.968261 
" clip-path="url(#pa6b82c30c4)" style="fill: none; stroke: #ff0000; stroke-width: 0.804463; stroke-linecap: round"/>
   </g>
   <g id="patch_11">
    <path d="M 111.360347 122.523722 
Q 157.813559 139.497992 205.739623 131.168208 
" clip-path="url(#pa6b82c30c4)" style="fill: none; stroke: #ff0000; stroke-width: 0.727121; stroke-linecap: round"/>
    <path d="M 201.456228 129.8827 
L 205.739623 131.168208 
L 202.141179 133.823619 
" clip-path="url(#pa6b82c30c4)" style="fill: none; stroke: #ff0000; stroke-width: 0.727121; stroke-linecap: round"/>
   </g>
   <g id="patch_12">
    <path d="M 88.442017 82.668322 
C 62.874858 82.668322 62.874858 112.5308 88.442017 112.5308 
C 114.009177 112.5308 114.009177 82.668322 90.338271 82.668322 
" clip-path="url(#pa6b82c30c4)" style="fill: none; stroke: #ff0000; stroke-width: 1.696061; stroke-linecap: round"/>
    <path d="M 94.338271 84.668322 
L 90.338271 82.668322 
L 94.338271 80.668322 
" clip-path="url(#pa6b82c30c4)" style="fill: none; stroke: #ff0000; stroke-width: 1.696061; stroke-linecap: round"/>
   </g>
   <g id="patch_13">
    <path d="M 76.073154 134.252165 
Q 27.781177 226.277907 42.429624 328.819994 
" clip-path="url(#pa6b82c30c4)" style="fill: none; stroke: #ff0000; stroke-width: 0.307274; stroke-linecap: round"/>
    <path d="M 43.843855 324.577359 
L 42.429624 328.819994 
L 39.884055 325.143028 
" clip-path="url(#pa6b82c30c4)" style="fill: none; stroke: #ff0000; stroke-width: 0.307274; stroke-linecap: round"/>
   </g>
   <g id="patch_14">
    <path d="M 113.439748 112.328397 
Q 178.219787 108.564333 230.62661 70.945109 
" clip-path="url(#pa6b82c30c4)" style="fill: none; stroke: #1e90ff; stroke-width: 0.338088; stroke-linecap: round"/>
    <path d="M 226.210846 71.652945 
L 230.62661 70.945109 
L 228.54342 74.902421 
" clip-path="url(#pa6b82c30c4)" style="fill: none; stroke: #1e90ff; stroke-width: 0.338088; stroke-linecap: round"/>
   </g>
   <g id="patch_15">
    <path d="M 93.632816 136.987471 
Q 99.640318 155.441685 111.361324 170.372804 
" clip-path="url(#pa6b82c30c4)" style="fill: none; stroke: #ff0000; stroke-width: 0.380458; stroke-linecap: round"/>
    <path d="M 110.464596 165.991494 
L 111.361324 170.372804 
L 107.318239 168.4614 
" clip-path="url(#pa6b82c30c4)" style="fill: none; stroke: #ff0000; stroke-width: 0.380458; stroke-linecap: round"/>
   </g>
   <g id="patch_16">
    <path d="M 101.497744 133.847361 
Q 124.317581 165.770183 158.971921 183.254044 
" clip-path="url(#pa6b82c30c4)" style="fill: none; stroke: #ff0000; stroke-width: 0.380458; stroke-linecap: round"/>
    <path d="M 156.301575 179.66667 
L 158.971921 183.254044 
L 154.499814 183.237897 
" clip-path="url(#pa6b82c30c4)" style="fill: none; stroke: #ff0000; stroke-width: 0.380458; stroke-linecap: round"/>
   </g>
   <g id="patch_17">
    <path d="M 103.663081 132.359718 
Q 216.900193 273.550075 393.24061 312.668509 
" clip-path="url(#pa6b82c30c4)" style="fill: none; stroke: #1e90ff; stroke-width: 0.324008; stroke-linecap: round"/>
    <path d="M 389.768682 309.849695 
L 393.24061 312.668509 
L 388.902402 313.754763 
" clip-path="url(#pa6b82c30c4)" style="fill: none; stroke: #1e90ff; stroke-width: 0.324008; stroke-linecap: round"/>
   </g>
   <g id="patch_18">
    <path d="M 107.51515 96.371228 
Q 115.108417 86.791388 118.767108 74.542575 
" clip-path="url(#pa6b82c30c4)" style="fill: none; stroke: #ff0000; stroke-width: 0.34194; stroke-linecap: round"/>
    <path d="M 115.705959 77.802845 
L 118.767108 74.542575 
L 119.538635 78.947657 
" clip-path="url(#pa6b82c30c4)" style="fill: none; stroke: #ff0000; stroke-width: 0.34194; stroke-linecap: round"/>
   </g>
   <g id="patch_19">
    <path d="M 113.161419 116.268486 
Q 132.875683 117.16286 150.718472 111.473702 
" clip-path="url(#pa6b82c30c4)" style="fill: none; stroke: #ff0000; stroke-width: 0.900351; stroke-linecap: round"/>
    <path d="M 146.299943 110.783342 
L 150.718472 111.473702 
L 147.515067 114.59431 
" clip-path="url(#pa6b82c30c4)" style="fill: none; stroke: #ff0000; stroke-width: 0.900351; stroke-linecap: round"/>
   </g>
   <g id="patch_20">
    <path d="M 68.302844 340.914787 
Q 177.840814 270.902197 222.409833 150.209332 
" clip-path="url(#pa6b82c30c4)" style="fill: none; stroke: #1e90ff; stroke-width: 1.200294; stroke-linecap: round"/>
    <path d="M 219.148021 153.268839 
L 222.409833 150.209332 
L 222.900352 154.654486 
" clip-path="url(#pa6b82c30c4)" style="fill: none; stroke: #1e90ff; stroke-width: 1.200294; stroke-linecap: round"/>
   </g>
   <g id="patch_21">
    <path d="M 59.231506 332.05285 
Q 107.523483 240.027109 92.874924 137.484241 
" clip-path="url(#pa6b82c30c4)" style="fill: none; stroke: #ff0000; stroke-width: 0.306568; stroke-linecap: round"/>
    <path d="M 91.460693 141.726876 
L 92.874924 137.484241 
L 95.420493 141.161206 
" clip-path="url(#pa6b82c30c4)" style="fill: none; stroke: #ff0000; stroke-width: 0.306568; stroke-linecap: round"/>
   </g>
   <g id="patch_22">
    <path d="M 46.862642 323.911737 
C 21.295483 323.911737 21.295483 353.774215 46.862642 353.774215 
C 72.429801 353.774215 72.429801 323.911737 48.649751 323.911737 
" clip-path="url(#pa6b82c30c4)" style="fill: none; stroke: #ff0000; stroke-width: 1.598439; stroke-linecap: round"/>
    <path d="M 52.649751 325.911737 
L 48.649751 323.911737 
L 52.649751 321.911737 
" clip-path="url(#pa6b82c30c4)" style="fill: none; stroke: #ff0000; stroke-width: 1.598439; stroke-linecap: round"/>
   </g>
   <g id="patch_23">
    <path d="M 67.290737 339.363636 
Q 201.165002 240.252624 244.425455 79.840405 
" clip-path="url(#pa6b82c30c4)" style="fill: none; stroke: #ff0000; stroke-width: 0.381147; stroke-linecap: round"/>
    <path d="M 241.45292 83.181668 
L 244.425455 79.840405 
L 245.314944 84.223191 
" clip-path="url(#pa6b82c30c4)" style="fill: none; stroke: #ff0000; stroke-width: 0.381147; stroke-linecap: round"/>
   </g>
   <g id="patch_24">
    <path d="M 64.751849 336.309212 
Q 113.611602 283.972551 125.811174 213.954204 
" clip-path="url(#pa6b82c30c4)" style="fill: none; stroke: #1e90ff; stroke-width: 0.470361; stroke-linecap: round"/>
    <path d="M 123.154266 217.551542 
L 125.811174 213.954204 
L 127.094899 218.238134 
" clip-path="url(#pa6b82c30c4)" style="fill: none; stroke: #1e90ff; stroke-width: 0.470361; stroke-linecap: round"/>
   </g>
   <g id="patch_25">
    <path d="M 68.450624 341.161304 
Q 140.379371 295.146457 173.413423 216.977536 
" clip-path="url(#pa6b82c30c4)" style="fill: none; stroke: #1e90ff; stroke-width: 0.470361; stroke-linecap: round"/>
    <path d="M 170.014108 219.883505 
L 173.413423 216.977536 
L 173.698609 221.440569 
" clip-path="url(#pa6b82c30c4)" style="fill: none; stroke: #1e90ff; stroke-width: 0.470361; stroke-linecap: round"/>
   </g>
   <g id="patch_26">
    <path d="M 71.009274 360.24064 
Q 238.862283 401.223066 395.305736 328.808636 
" clip-path="url(#pa6b82c30c4)" style="fill: none; stroke: #ff0000; stroke-width: 0.351499; stroke-linecap: round"/>
    <path d="M 390.835631 328.673888 
L 395.305736 328.808636 
L 392.515875 332.303871 
" clip-path="url(#pa6b82c30c4)" style="fill: none; stroke: #ff0000; stroke-width: 0.351499; stroke-linecap: round"/>
   </g>
   <g id="patch_27">
    <path d="M 61.067952 333.198595 
Q 130.438926 226.224577 121.405286 99.482621 
" clip-path="url(#pa6b82c30c4)" style="fill: none; stroke: #1e90ff; stroke-width: 0.389257; stroke-linecap: round"/>
    <path d="M 119.694729 103.61469 
L 121.405286 99.482621 
L 123.684607 103.330308 
" clip-path="url(#pa6b82c30c4)" style="fill: none; stroke: #1e90ff; stroke-width: 0.389257; stroke-linecap: round"/>
   </g>
   <g id="patch_28">
    <path d="M 65.133534 336.713101 
Q 153.563927 249.108579 171.575245 126.599869 
" clip-path="url(#pa6b82c30c4)" style="fill: none; stroke: #1e90ff; stroke-width: 0.582121; stroke-linecap: round"/>
    <path d="M 169.014687 130.266413 
L 171.575245 126.599869 
L 172.972145 130.848242 
" clip-path="url(#pa6b82c30c4)" style="fill: none; stroke: #1e90ff; stroke-width: 0.582121; stroke-linecap: round"/>
   </g>
   <g id="patch_29">
    <path d="M 237.763528 76.666225 
Q 232.872909 88.019064 231.250019 99.607968 
" clip-path="url(#pa6b82c30c4)" style="fill: none; stroke: #ff0000; stroke-width: 0.589825; stroke-linecap: round"/>
    <path d="M 233.785432 95.923992 
L 231.250019 99.607968 
L 229.824086 95.369252 
" clip-path="url(#pa6b82c30c4)" style="fill: none; stroke: #ff0000; stroke-width: 0.589825; stroke-linecap: round"/>
   </g>
   <g id="patch_30">
    <path d="M 225.493016 55.351833 
Q 160.712976 59.115897 108.319484 96.725552 
" clip-path="url(#pa6b82c30c4)" style="fill: none; stroke: #ff0000; stroke-width: 0.352764; stroke-linecap: round"/>
    <path d="M 112.735247 96.017717 
L 108.319484 96.725552 
L 110.402673 92.76824 
" clip-path="url(#pa6b82c30c4)" style="fill: none; stroke: #ff0000; stroke-width: 0.352764; stroke-linecap: round"/>
   </g>
   <g id="patch_31">
    <path d="M 230.062652 69.560008 
Q 96.188386 168.67102 52.905669 329.165799 
" clip-path="url(#pa6b82c30c4)" style="fill: none; stroke: #ff0000; stroke-width: 0.304665; stroke-linecap: round"/>
    <path d="M 55.878203 325.824536 
L 52.905669 329.165799 
L 52.016179 324.783014 
" clip-path="url(#pa6b82c30c4)" style="fill: none; stroke: #ff0000; stroke-width: 0.304665; stroke-linecap: round"/>
   </g>
   <g id="patch_32">
    <path d="M 250.490746 25.286951 
C 224.923587 25.286951 224.923587 55.149429 250.490746 55.149429 
C 276.057905 55.149429 276.057905 25.286951 252.267423 25.286951 
" clip-path="url(#pa6b82c30c4)" style="fill: none; stroke: #ff0000; stroke-width: 1.589108; stroke-linecap: round"/>
    <path d="M 256.267423 27.286951 
L 252.267423 25.286951 
L 256.267423 23.286951 
" clip-path="url(#pa6b82c30c4)" style="fill: none; stroke: #ff0000; stroke-width: 1.589108; stroke-linecap: round"/>
   </g>
   <g id="patch_33">
    <path d="M 228.528304 67.090938 
Q 169.143936 103.128323 139.037797 165.288823 
" clip-path="url(#pa6b82c30c4)" style="fill: none; stroke: #ff0000; stroke-width: 0.354372; stroke-linecap: round"/>
    <path d="M 142.581372 162.560623 
L 139.037797 165.288823 
L 138.981382 160.817043 
" clip-path="url(#pa6b82c30c4)" style="fill: none; stroke: #ff0000; stroke-width: 0.354372; stroke-linecap: round"/>
   </g>
   <g id="patch_34">
    <path d="M 232.822161 72.840145 
Q 196.050272 114.052215 185.78094 167.918169 
" clip-path="url(#pa6b82c30c4)" style="fill: none; stroke: #ff0000; stroke-width: 0.354372; stroke-linecap: round"/>
    <path d="M 188.494648 164.363484 
L 185.78094 167.918169 
L 184.565417 163.614391 
" clip-path="url(#pa6b82c30c4)" style="fill: none; stroke: #ff0000; stroke-width: 0.354372; stroke-linecap: round"/>
   </g>
   <g id="patch_35">
    <path d="M 255.800118 79.576976 
Q 289.112353 215.252233 397.909363 302.327532 
" clip-path="url(#pa6b82c30c4)" style="fill: none; stroke: #1e90ff; stroke-width: 0.316031; stroke-linecap: round"/>
    <path d="M 396.036135 298.266618 
L 397.909363 302.327532 
L 393.536695 301.389566 
" clip-path="url(#pa6b82c30c4)" style="fill: none; stroke: #1e90ff; stroke-width: 0.316031; stroke-linecap: round"/>
   </g>
   <g id="patch_36">
    <path d="M 225.865289 50.824105 
Q 181.993491 46.063739 141.604865 62.913602 
" clip-path="url(#pa6b82c30c4)" style="fill: none; stroke: #ff0000; stroke-width: 0.32821; stroke-linecap: round"/>
    <path d="M 146.066541 63.219292 
L 141.604865 62.913602 
L 144.526423 59.527675 
" clip-path="url(#pa6b82c30c4)" style="fill: none; stroke: #ff0000; stroke-width: 0.32821; stroke-linecap: round"/>
   </g>
   <g id="patch_37">
    <path d="M 226.333633 61.590489 
Q 206.966572 68.943951 192.185249 82.069832 
" clip-path="url(#pa6b82c30c4)" style="fill: none; stroke: #ff0000; stroke-width: 0.847901; stroke-linecap: round"/>
    <path d="M 196.504188 80.909329 
L 192.185249 82.069832 
L 193.848211 77.918379 
" clip-path="url(#pa6b82c30c4)" style="fill: none; stroke: #ff0000; stroke-width: 0.847901; stroke-linecap: round"/>
   </g>
   <g id="patch_38">
    <path d="M 153.29314 182.534555 
Q 188.599654 170.830363 214.241042 144.77232 
" clip-path="url(#pa6b82c30c4)" style="fill: none; stroke: #ff0000; stroke-width: 0.570587; stroke-linecap: round"/>
    <path d="M 210.009936 146.220679 
L 214.241042 144.77232 
L 212.861065 149.02622 
" clip-path="url(#pa6b82c30c4)" style="fill: none; stroke: #ff0000; stroke-width: 0.570587; stroke-linecap: round"/>
   </g>
   <g id="patch_39">
    <path d="M 123.856232 164.179322 
Q 117.848731 145.725109 106.084159 130.738492 
" clip-path="url(#pa6b82c30c4)" style="fill: none; stroke: #ff0000; stroke-width: 0.317352; stroke-linecap: round"/>
    <path d="M 106.980887 135.119802 
L 106.084159 130.738492 
L 110.127244 132.649895 
" clip-path="url(#pa6b82c30c4)" style="fill: none; stroke: #ff0000; stroke-width: 0.317352; stroke-linecap: round"/>
   </g>
   <g id="patch_40">
    <path d="M 111.157825 206.100997 
Q 62.298072 258.437658 50.091894 328.493915 
" clip-path="url(#pa6b82c30c4)" style="fill: none; stroke: #ff0000; stroke-width: 0.435941; stroke-linecap: round"/>
    <path d="M 52.748803 324.896578 
L 50.091894 328.493915 
L 48.808169 324.209986 
" clip-path="url(#pa6b82c30c4)" style="fill: none; stroke: #ff0000; stroke-width: 0.435941; stroke-linecap: round"/>
   </g>
   <g id="patch_41">
    <path d="M 151.009474 176.694485 
Q 210.393842 140.6571 240.514859 78.465882 
" clip-path="url(#pa6b82c30c4)" style="fill: none; stroke: #1e90ff; stroke-width: 0.323843; stroke-linecap: round"/>
    <path d="M 236.971284 81.194082 
L 240.514859 78.465882 
L 240.571274 82.937662 
" clip-path="url(#pa6b82c30c4)" style="fill: none; stroke: #1e90ff; stroke-width: 0.323843; stroke-linecap: round"/>
   </g>
   <g id="patch_42">
    <path d="M 129.047032 158.773515 
C 103.479872 158.773515 103.479872 188.635993 129.047032 188.635993 
C 154.614191 188.635993 154.614191 158.773515 130.910945 158.773515 
" clip-path="url(#pa6b82c30c4)" style="fill: none; stroke: #ff0000; stroke-width: 1.667135; stroke-linecap: round"/>
    <path d="M 134.910945 160.773515 
L 130.910945 158.773515 
L 134.910945 156.773515 
" clip-path="url(#pa6b82c30c4)" style="fill: none; stroke: #ff0000; stroke-width: 1.667135; stroke-linecap: round"/>
   </g>
   <g id="patch_43">
    <path d="M 152.945757 195.963836 
Q 155.279084 196.241393 155.764378 196.264833 
" clip-path="url(#pa6b82c30c4)" style="fill: none; stroke: #ff0000; stroke-width: 1.667135; stroke-linecap: round"/>
    <path d="M 151.865523 194.074187 
L 155.764378 196.264833 
L 151.672548 198.069529 
" clip-path="url(#pa6b82c30c4)" style="fill: none; stroke: #ff0000; stroke-width: 1.667135; stroke-linecap: round"/>
   </g>
   <g id="patch_44">
    <path d="M 146.916236 206.118819 
Q 251.318433 303.023568 392.833248 315.985248 
" clip-path="url(#pa6b82c30c4)" style="fill: none; stroke: #1e90ff; stroke-width: 0.301749; stroke-linecap: round"/>
    <path d="M 389.032343 313.628742 
L 392.833248 315.985248 
L 388.6675 317.612069 
" clip-path="url(#pa6b82c30c4)" style="fill: none; stroke: #1e90ff; stroke-width: 0.301749; stroke-linecap: round"/>
   </g>
   <g id="patch_45">
    <path d="M 134.463314 164.232156 
Q 139.328351 130.041136 128.625398 97.590031 
" clip-path="url(#pa6b82c30c4)" style="fill: none; stroke: #ff0000; stroke-width: 0.326286; stroke-linecap: round"/>
    <path d="M 127.978923 102.015194 
L 128.625398 97.590031 
L 131.777644 100.762308 
" clip-path="url(#pa6b82c30c4)" style="fill: none; stroke: #ff0000; stroke-width: 0.326286; stroke-linecap: round"/>
   </g>
   <g id="patch_46">
    <path d="M 146.519105 170.757618 
Q 162.88072 150.642062 169.69915 126.624228 
" clip-path="url(#pa6b82c30c4)" style="fill: none; stroke: #ff0000; stroke-width: 0.860719; stroke-linecap: round"/>
    <path d="M 166.682784 129.925976 
L 169.69915 126.624228 
L 170.530728 131.01837 
" clip-path="url(#pa6b82c30c4)" style="fill: none; stroke: #ff0000; stroke-width: 0.860719; stroke-linecap: round"/>
   </g>
   <g id="patch_47">
    <path d="M 201.956006 177.504964 
Q 214.636574 164.888298 222.179784 149.375049 
" clip-path="url(#pa6b82c30c4)" style="fill: none; stroke: #ff0000; stroke-width: 0.570587; stroke-linecap: round"/>
    <path d="M 218.631987 152.097756 
L 222.179784 149.375049 
L 222.229272 153.846911 
" clip-path="url(#pa6b82c30c4)" style="fill: none; stroke: #ff0000; stroke-width: 0.570587; stroke-linecap: round"/>
   </g>
   <g id="patch_48">
    <path d="M 169.356885 171.775308 
Q 146.537048 139.852486 111.819716 122.336843 
" clip-path="url(#pa6b82c30c4)" style="fill: none; stroke: #ff0000; stroke-width: 0.317352; stroke-linecap: round"/>
    <path d="M 114.490062 125.924217 
L 111.819716 122.336843 
L 116.291823 122.352991 
" clip-path="url(#pa6b82c30c4)" style="fill: none; stroke: #ff0000; stroke-width: 0.317352; stroke-linecap: round"/>
   </g>
   <g id="patch_49">
    <path d="M 160.82463 205.704779 
Q 88.895882 251.719626 55.846851 329.923994 
" clip-path="url(#pa6b82c30c4)" style="fill: none; stroke: #ff0000; stroke-width: 0.435941; stroke-linecap: round"/>
    <path d="M 59.246166 327.018025 
L 55.846851 329.923994 
L 55.561665 325.460961 
" clip-path="url(#pa6b82c30c4)" style="fill: none; stroke: #ff0000; stroke-width: 0.435941; stroke-linecap: round"/>
   </g>
   <g id="patch_50">
    <path d="M 200.081196 175.401152 
Q 236.853086 134.189082 247.12881 80.2896 
" clip-path="url(#pa6b82c30c4)" style="fill: none; stroke: #1e90ff; stroke-width: 0.323843; stroke-linecap: round"/>
    <path d="M 244.415101 83.844285 
L 247.12881 80.2896 
L 248.344333 84.593378 
" clip-path="url(#pa6b82c30c4)" style="fill: none; stroke: #1e90ff; stroke-width: 0.323843; stroke-linecap: round"/>
   </g>
   <g id="patch_51">
    <path d="M 158.513886 185.764025 
Q 156.180559 185.486468 155.695265 185.463028 
" clip-path="url(#pa6b82c30c4)" style="fill: none; stroke: #ff0000; stroke-width: 1.667135; stroke-linecap: round"/>
    <path d="M 159.59412 187.653674 
L 155.695265 185.463028 
L 159.787095 183.658332 
" clip-path="url(#pa6b82c30c4)" style="fill: none; stroke: #ff0000; stroke-width: 1.667135; stroke-linecap: round"/>
   </g>
   <g id="patch_52">
    <path d="M 182.412612 163.229389 
C 156.845452 163.229389 156.845452 193.091868 182.412612 193.091868 
C 207.979771 193.091868 207.979771 163.229389 184.276525 163.229389 
" clip-path="url(#pa6b82c30c4)" style="fill: none; stroke: #ff0000; stroke-width: 1.667135; stroke-linecap: round"/>
    <path d="M 188.276525 165.229389 
L 184.276525 163.229389 
L 188.276525 161.229389 
" clip-path="url(#pa6b82c30c4)" style="fill: none; stroke: #ff0000; stroke-width: 1.667135; stroke-linecap: round"/>
   </g>
   <g id="patch_53">
    <path d="M 199.173184 211.636684 
Q 279.35417 294.932293 393.013796 314.186181 
" clip-path="url(#pa6b82c30c4)" style="fill: none; stroke: #1e90ff; stroke-width: 0.301749; stroke-linecap: round"/>
    <path d="M 389.404022 311.546193 
L 393.013796 314.186181 
L 388.735942 315.490007 
" clip-path="url(#pa6b82c30c4)" style="fill: none; stroke: #1e90ff; stroke-width: 0.301749; stroke-linecap: round"/>
   </g>
   <g id="patch_54">
    <path d="M 178.12468 168.461187 
Q 167.525988 124.615099 137.216139 91.70098 
" clip-path="url(#pa6b82c30c4)" style="fill: none; stroke: #ff0000; stroke-width: 0.326286; stroke-linecap: round"/>
    <path d="M 138.454543 95.99823 
L 137.216139 91.70098 
L 141.396981 93.288607 
" clip-path="url(#pa6b82c30c4)" style="fill: none; stroke: #ff0000; stroke-width: 0.326286; stroke-linecap: round"/>
   </g>
   <g id="patch_55">
    <path d="M 187.449372 168.607307 
Q 189.815032 146.143174 183.943447 125.329508 
" clip-path="url(#pa6b82c30c4)" style="fill: none; stroke: #ff0000; stroke-width: 0.860719; stroke-linecap: round"/>
    <path d="M 183.104596 129.722266 
L 183.943447 125.329508 
L 186.954343 128.636243 
" clip-path="url(#pa6b82c30c4)" style="fill: none; stroke: #ff0000; stroke-width: 0.860719; stroke-linecap: round"/>
   </g>
   <g id="patch_56">
    <path d="M 407.874944 294.832491 
Q 356.822511 189.979869 253.861539 136.3558 
" clip-path="url(#pa6b82c30c4)" style="fill: none; stroke: #1e90ff; stroke-width: 0.476154; stroke-linecap: round"/>
    <path d="M 256.485367 139.977337 
L 253.861539 136.3558 
L 258.333065 136.42966 
" clip-path="url(#pa6b82c30c4)" style="fill: none; stroke: #1e90ff; stroke-width: 0.476154; stroke-linecap: round"/>
   </g>
   <g id="patch_57">
    <path d="M 402.891173 297.811775 
Q 289.654061 156.621418 113.288095 117.497316 
" clip-path="url(#pa6b82c30c4)" style="fill: none; stroke: #ff0000; stroke-width: 0.300601; stroke-linecap: round"/>
    <path d="M 116.760023 120.31613 
L 113.288095 117.497316 
L 117.626303 116.411062 
" clip-path="url(#pa6b82c30c4)" style="fill: none; stroke: #ff0000; stroke-width: 0.300601; stroke-linecap: round"/>
   </g>
   <g id="patch_58">
    <path d="M 393.965605 311.174267 
Q 226.112595 270.191841 69.619433 342.629281 
" clip-path="url(#pa6b82c30c4)" style="fill: none; stroke: #1e90ff; stroke-width: 0.302505; stroke-linecap: round"/>
    <path d="M 74.089538 342.764029 
L 69.619433 342.629281 
L 72.409294 339.134046 
" clip-path="url(#pa6b82c30c4)" style="fill: none; stroke: #1e90ff; stroke-width: 0.302505; stroke-linecap: round"/>
   </g>
   <g id="patch_59">
    <path d="M 412.802864 293.213145 
Q 379.49063 157.537888 270.692938 70.462044 
" clip-path="url(#pa6b82c30c4)" style="fill: none; stroke: #ff0000; stroke-width: 0.31525; stroke-linecap: round"/>
    <path d="M 272.566166 74.522958 
L 270.692938 70.462044 
L 275.065606 71.400011 
" clip-path="url(#pa6b82c30c4)" style="fill: none; stroke: #ff0000; stroke-width: 0.31525; stroke-linecap: round"/>
   </g>
   <g id="patch_60">
    <path d="M 400.243032 300.157866 
Q 295.840835 203.253117 154.360563 190.294601 
" clip-path="url(#pa6b82c30c4)" style="fill: none; stroke: #1e90ff; stroke-width: 0.332774; stroke-linecap: round"/>
    <path d="M 158.161468 192.651107 
L 154.360563 190.294601 
L 158.526311 188.667781 
" clip-path="url(#pa6b82c30c4)" style="fill: none; stroke: #1e90ff; stroke-width: 0.332774; stroke-linecap: round"/>
   </g>
   <g id="patch_61">
    <path d="M 401.351663 299.095876 
Q 321.170678 215.800267 207.545252 196.552173 
" clip-path="url(#pa6b82c30c4)" style="fill: none; stroke: #1e90ff; stroke-width: 0.332774; stroke-linecap: round"/>
    <path d="M 211.155026 199.19216 
L 207.545252 196.552173 
L 211.823106 195.248346 
" clip-path="url(#pa6b82c30c4)" style="fill: none; stroke: #1e90ff; stroke-width: 0.332774; stroke-linecap: round"/>
   </g>
   <g id="patch_62">
    <path d="M 418.112236 287.778214 
C 392.545077 287.778214 392.545077 317.640692 418.112236 317.640692 
C 443.679396 317.640692 443.679396 287.778214 419.929986 287.778214 
" clip-path="url(#pa6b82c30c4)" style="fill: none; stroke: #ff0000; stroke-width: 1.625845; stroke-linecap: round"/>
    <path d="M 423.929986 289.778214 
L 419.929986 287.778214 
L 423.929986 285.778214 
" clip-path="url(#pa6b82c30c4)" style="fill: none; stroke: #ff0000; stroke-width: 1.625845; stroke-linecap: round"/>
   </g>
   <g id="patch_63">
    <path d="M 405.509393 296.051457 
Q 311.638485 142.882367 142.912585 82.245112 
" clip-path="url(#pa6b82c30c4)" style="fill: none; stroke: #1e90ff; stroke-width: 0.316843; stroke-linecap: round"/>
    <path d="M 146.000463 85.480079 
L 142.912585 82.245112 
L 147.353285 81.71579 
" clip-path="url(#pa6b82c30c4)" style="fill: none; stroke: #1e90ff; stroke-width: 0.316843; stroke-linecap: round"/>
   </g>
   <g id="patch_64">
    <path d="M 406.377403 295.565861 
Q 333.866089 167.17737 198.23798 110.347109 
" clip-path="url(#pa6b82c30c4)" style="fill: none; stroke: #1e90ff; stroke-width: 0.354727; stroke-linecap: round"/>
    <path d="M 201.154283 113.737562 
L 198.23798 110.347109 
L 202.700125 110.048338 
" clip-path="url(#pa6b82c30c4)" style="fill: none; stroke: #1e90ff; stroke-width: 0.354727; stroke-linecap: round"/>
   </g>
   <g id="patch_65">
    <path d="M 137.334473 91.033151 
Q 167.839084 115.130116 205.085358 122.190335 
" clip-path="url(#pa6b82c30c4)" style="fill: none; stroke: #ff0000; stroke-width: 0.862612; stroke-linecap: round"/>
    <path d="M 201.527817 119.480371 
L 205.085358 122.190335 
L 200.782863 123.410389 
" clip-path="url(#pa6b82c30c4)" style="fill: none; stroke: #ff0000; stroke-width: 0.862612; stroke-linecap: round"/>
   </g>
   <g id="patch_66">
    <path d="M 99.803391 90.335839 
Q 92.210124 99.915678 88.636094 111.881059 
" clip-path="url(#pa6b82c30c4)" style="fill: none; stroke: #ff0000; stroke-width: 0.606518; stroke-linecap: round"/>
    <path d="M 91.697243 108.620788 
L 88.636094 111.881059 
L 87.864567 107.475977 
" clip-path="url(#pa6b82c30c4)" style="fill: none; stroke: #ff0000; stroke-width: 0.606518; stroke-linecap: round"/>
   </g>
   <g id="patch_67">
    <path d="M 104.671214 94.751886 
Q 35.300239 201.725904 44.340191 328.556418 
" clip-path="url(#pa6b82c30c4)" style="fill: none; stroke: #ff0000; stroke-width: 0.309848; stroke-linecap: round"/>
    <path d="M 46.050748 324.424349 
L 44.340191 328.556418 
L 42.06087 324.708731 
" clip-path="url(#pa6b82c30c4)" style="fill: none; stroke: #ff0000; stroke-width: 0.309848; stroke-linecap: round"/>
   </g>
   <g id="patch_68">
    <path d="M 143.50198 78.50159 
Q 187.373778 83.261956 227.590073 66.483989 
" clip-path="url(#pa6b82c30c4)" style="fill: none; stroke: #1e90ff; stroke-width: 0.495224; stroke-linecap: round"/>
    <path d="M 223.128397 66.178299 
L 227.590073 66.483989 
L 224.668515 69.869916 
" clip-path="url(#pa6b82c30c4)" style="fill: none; stroke: #1e90ff; stroke-width: 0.495224; stroke-linecap: round"/>
   </g>
   <g id="patch_69">
    <path d="M 113.46024 98.580104 
Q 108.595204 132.771124 119.270171 165.137377 
" clip-path="url(#pa6b82c30c4)" style="fill: none; stroke: #ff0000; stroke-width: 0.406201; stroke-linecap: round"/>
    <path d="M 119.916646 160.712214 
L 119.270171 165.137377 
L 116.117925 161.9651 
" clip-path="url(#pa6b82c30c4)" style="fill: none; stroke: #ff0000; stroke-width: 0.406201; stroke-linecap: round"/>
   </g>
   <g id="patch_70">
    <path d="M 123.164455 98.806947 
Q 133.763147 142.653035 164.012472 175.501429 
" clip-path="url(#pa6b82c30c4)" style="fill: none; stroke: #ff0000; stroke-width: 0.406201; stroke-linecap: round"/>
    <path d="M 162.774068 171.204179 
L 164.012472 175.501429 
L 159.83163 173.913802 
" clip-path="url(#pa6b82c30c4)" style="fill: none; stroke: #ff0000; stroke-width: 0.406201; stroke-linecap: round"/>
   </g>
   <g id="patch_71">
    <path d="M 131.479366 95.765501 
Q 225.350275 248.934592 394.060354 309.56616 
" clip-path="url(#pa6b82c30c4)" style="fill: none; stroke: #1e90ff; stroke-width: 0.33188; stroke-linecap: round"/>
    <path d="M 390.972476 306.331194 
L 394.060354 309.56616 
L 389.619654 310.095483 
" clip-path="url(#pa6b82c30c4)" style="fill: none; stroke: #1e90ff; stroke-width: 0.33188; stroke-linecap: round"/>
   </g>
   <g id="patch_72">
    <path d="M 118.876523 44.313788 
C 93.309364 44.313788 93.309364 74.176266 118.876523 74.176266 
C 144.443683 74.176266 144.443683 44.313788 120.745773 44.313788 
" clip-path="url(#pa6b82c30c4)" style="fill: none; stroke: #ff0000; stroke-width: 1.671908; stroke-linecap: round"/>
    <path d="M 124.745773 46.313788 
L 120.745773 44.313788 
L 124.745773 42.313788 
" clip-path="url(#pa6b82c30c4)" style="fill: none; stroke: #ff0000; stroke-width: 1.671908; stroke-linecap: round"/>
   </g>
   <g id="patch_73">
    <path d="M 138.175228 90.069762 
Q 143.908229 93.47744 149.179735 95.491085 
" clip-path="url(#pa6b82c30c4)" style="fill: none; stroke: #ff0000; stroke-width: 0.91797; stroke-linecap: round"/>
    <path d="M 146.156749 92.195398 
L 149.179735 95.491085 
L 144.729393 95.932061 
" clip-path="url(#pa6b82c30c4)" style="fill: none; stroke: #ff0000; stroke-width: 0.91797; stroke-linecap: round"/>
   </g>
   <g id="patch_74">
    <path d="M 194.599239 116.089254 
Q 200.202667 119.059622 204.897094 120.629342 
" clip-path="url(#pa6b82c30c4)" style="fill: none; stroke: #ff0000; stroke-width: 1.245146; stroke-linecap: round"/>
    <path d="M 201.737794 117.464089 
L 204.897094 120.629342 
L 200.469312 121.25763 
" clip-path="url(#pa6b82c30c4)" style="fill: none; stroke: #ff0000; stroke-width: 1.245146; stroke-linecap: round"/>
   </g>
   <g id="patch_75">
    <path d="M 149.855027 97.385723 
Q 130.140762 96.491349 111.917778 102.301731 
" clip-path="url(#pa6b82c30c4)" style="fill: none; stroke: #ff0000; stroke-width: 0.543427; stroke-linecap: round"/>
    <path d="M 116.336307 102.992091 
L 111.917778 102.301731 
L 115.121184 99.181123 
" clip-path="url(#pa6b82c30c4)" style="fill: none; stroke: #ff0000; stroke-width: 0.543427; stroke-linecap: round"/>
   </g>
   <g id="patch_76">
    <path d="M 156.303536 118.184522 
Q 67.873143 205.789044 49.818729 328.590888 
" clip-path="url(#pa6b82c30c4)" style="fill: none; stroke: #ff0000; stroke-width: 0.317116; stroke-linecap: round"/>
    <path d="M 52.379286 324.924344 
L 49.818729 328.590888 
L 48.421828 324.342515 
" clip-path="url(#pa6b82c30c4)" style="fill: none; stroke: #ff0000; stroke-width: 0.317116; stroke-linecap: round"/>
   </g>
   <g id="patch_77">
    <path d="M 198.731541 94.682348 
Q 218.098601 87.328887 233.266717 73.859532 
" clip-path="url(#pa6b82c30c4)" style="fill: none; stroke: #1e90ff; stroke-width: 0.385228; stroke-linecap: round"/>
    <path d="M 228.947778 75.020034 
L 233.266717 73.859532 
L 231.603755 78.010985 
" clip-path="url(#pa6b82c30c4)" style="fill: none; stroke: #1e90ff; stroke-width: 0.385228; stroke-linecap: round"/>
   </g>
   <g id="patch_78">
    <path d="M 157.102354 119.001783 
Q 140.740739 139.117339 133.805722 163.54585 
" clip-path="url(#pa6b82c30c4)" style="fill: none; stroke: #ff0000; stroke-width: 0.478883; stroke-linecap: round"/>
    <path d="M 136.822088 160.244103 
L 133.805722 163.54585 
L 132.974144 159.151709 
" clip-path="url(#pa6b82c30c4)" style="fill: none; stroke: #ff0000; stroke-width: 0.478883; stroke-linecap: round"/>
   </g>
   <g id="patch_79">
    <path d="M 169.537667 125.607968 
Q 167.172007 148.072102 173.1595 169.296638 
" clip-path="url(#pa6b82c30c4)" style="fill: none; stroke: #ff0000; stroke-width: 0.478883; stroke-linecap: round"/>
    <path d="M 173.998351 164.903879 
L 173.1595 169.296638 
L 170.148604 165.989902 
" clip-path="url(#pa6b82c30c4)" style="fill: none; stroke: #ff0000; stroke-width: 0.478883; stroke-linecap: round"/>
   </g>
   <g id="patch_80">
    <path d="M 186.309261 123.198239 
Q 258.820575 251.58673 394.449326 308.41726 
" clip-path="url(#pa6b82c30c4)" style="fill: none; stroke: #1e90ff; stroke-width: 0.354105; stroke-linecap: round"/>
    <path d="M 391.533023 305.026807 
L 394.449326 308.41726 
L 389.987181 308.716031 
" clip-path="url(#pa6b82c30c4)" style="fill: none; stroke: #1e90ff; stroke-width: 0.354105; stroke-linecap: round"/>
   </g>
   <g id="patch_81">
    <path d="M 155.275723 85.229912 
Q 149.542722 81.822234 143.723698 79.599444 
" clip-path="url(#pa6b82c30c4)" style="fill: none; stroke: #ff0000; stroke-width: 0.393742; stroke-linecap: round"/>
    <path d="M 146.746684 82.895132 
L 143.723698 79.599444 
L 148.174039 79.158468 
" clip-path="url(#pa6b82c30c4)" style="fill: none; stroke: #ff0000; stroke-width: 0.393742; stroke-linecap: round"/>
   </g>
   <g id="patch_82">
    <path d="M 174.574428 71.260929 
C 149.007269 71.260929 149.007269 101.123408 174.574428 101.123408 
C 200.141587 101.123408 200.141587 71.260929 176.806752 71.260929 
" clip-path="url(#pa6b82c30c4)" style="fill: none; stroke: #ff0000; stroke-width: 1.996651; stroke-linecap: round"/>
    <path d="M 180.806752 73.260929 
L 176.806752 71.260929 
L 180.806752 69.260929 
" clip-path="url(#pa6b82c30c4)" style="fill: none; stroke: #ff0000; stroke-width: 1.996651; stroke-linecap: round"/>
   </g>
   <g id="PathCollection_1">
    <defs>
     <path id="mfe037a9147" d="M 0 19.364917 
C 5.135636 19.364917 10.061621 17.324507 13.693064 13.693064 
C 17.324507 10.061621 19.364917 5.135636 19.364917 0 
C 19.364917 -5.135636 17.324507 -10.061621 13.693064 -13.693064 
C 10.061621 -17.324507 5.135636 -19.364917 0 -19.364917 
C -5.135636 -19.364917 -10.061621 -17.324507 -13.693064 -13.693064 
C -17.324507 -10.061621 -19.364917 -5.135636 -19.364917 0 
C -19.364917 5.135636 -17.324507 10.061621 -13.693064 13.693064 
C -10.061621 17.324507 -5.135636 19.364917 0 19.364917 
z
" style="stroke: #000000"/>
    </defs>
    <g clip-path="url(#pa6b82c30c4)">
     <use xlink:href="#mfe037a9147" x="230.864983" y="125.258728" style="fill: #ffffff; stroke: #000000"/>
     <use xlink:href="#mfe037a9147" x="88.442017" y="112.5308" style="fill: #ffffff; stroke: #000000"/>
     <use xlink:href="#mfe037a9147" x="46.862642" y="353.774215" style="fill: #ffffff; stroke: #000000"/>
     <use xlink:href="#mfe037a9147" x="250.490746" y="55.149429" style="fill: #ffffff; stroke: #000000"/>
     <use xlink:href="#mfe037a9147" x="129.047032" y="188.635993" style="fill: #ffffff; stroke: #000000"/>
     <use xlink:href="#mfe037a9147" x="182.412612" y="193.091868" style="fill: #ffffff; stroke: #000000"/>
     <use xlink:href="#mfe037a9147" x="418.112236" y="317.640692" style="fill: #ffffff; stroke: #000000"/>
     <use xlink:href="#mfe037a9147" x="118.876523" y="74.176266" style="fill: #ffffff; stroke: #000000"/>
     <use xlink:href="#mfe037a9147" x="174.574428" y="101.123408" style="fill: #ffffff; stroke: #000000"/>
    </g>
   </g>
   <g id="text_1">
    <g clip-path="url(#pa6b82c30c4)">
     <!-- Biogeochemical -->
     <g transform="translate(109.224375 187.216228) scale(0.05 -0.05)">
      <defs>
       <path id="DejaVuSans-42" d="M 1259 2228 
L 1259 519 
L 2272 519 
Q 2781 519 3026 730 
Q 3272 941 3272 1375 
Q 3272 1813 3026 2020 
Q 2781 2228 2272 2228 
L 1259 2228 
z
M 1259 4147 
L 1259 2741 
L 2194 2741 
Q 2656 2741 2882 2914 
Q 3109 3088 3109 3444 
Q 3109 3797 2882 3972 
Q 2656 4147 2194 4147 
L 1259 4147 
z
M 628 4666 
L 2241 4666 
Q 2963 4666 3353 4366 
Q 3744 4066 3744 3513 
Q 3744 3084 3544 2831 
Q 3344 2578 2956 2516 
Q 3422 2416 3680 2098 
Q 3938 1781 3938 1306 
Q 3938 681 3513 340 
Q 3088 0 2303 0 
L 628 0 
L 628 4666 
z
" transform="scale(0.015625)"/>
       <path id="DejaVuSans-69" d="M 603 3500 
L 1178 3500 
L 1178 0 
L 603 0 
L 603 3500 
z
M 603 4863 
L 1178 4863 
L 1178 4134 
L 603 4134 
L 603 4863 
z
" transform="scale(0.015625)"/>
       <path id="DejaVuSans-6f" d="M 1959 3097 
Q 1497 3097 1228 2736 
Q 959 2375 959 1747 
Q 959 1119 1226 758 
Q 1494 397 1959 397 
Q 2419 397 2687 759 
Q 2956 1122 2956 1747 
Q 2956 2369 2687 2733 
Q 2419 3097 1959 3097 
z
M 1959 3584 
Q 2709 3584 3137 3096 
Q 3566 2609 3566 1747 
Q 3566 888 3137 398 
Q 2709 -91 1959 -91 
Q 1206 -91 779 398 
Q 353 888 353 1747 
Q 353 2609 779 3096 
Q 1206 3584 1959 3584 
z
" transform="scale(0.015625)"/>
       <path id="DejaVuSans-67" d="M 2906 1791 
Q 2906 2416 2648 2759 
Q 2391 3103 1925 3103 
Q 1463 3103 1205 2759 
Q 947 2416 947 1791 
Q 947 1169 1205 825 
Q 1463 481 1925 481 
Q 2391 481 2648 825 
Q 2906 1169 2906 1791 
z
M 3481 434 
Q 3481 -459 3084 -895 
Q 2688 -1331 1869 -1331 
Q 1566 -1331 1297 -1286 
Q 1028 -1241 775 -1147 
L 775 -588 
Q 1028 -725 1275 -790 
Q 1522 -856 1778 -856 
Q 2344 -856 2625 -561 
Q 2906 -266 2906 331 
L 2906 616 
Q 2728 306 2450 153 
Q 2172 0 1784 0 
Q 1141 0 747 490 
Q 353 981 353 1791 
Q 353 2603 747 3093 
Q 1141 3584 1784 3584 
Q 2172 3584 2450 3431 
Q 2728 3278 2906 2969 
L 2906 3500 
L 3481 3500 
L 3481 434 
z
" transform="scale(0.015625)"/>
       <path id="DejaVuSans-65" d="M 3597 1894 
L 3597 1613 
L 953 1613 
Q 991 1019 1311 708 
Q 1631 397 2203 397 
Q 2534 397 2845 478 
Q 3156 559 3463 722 
L 3463 178 
Q 3153 47 2828 -22 
Q 2503 -91 2169 -91 
Q 1331 -91 842 396 
Q 353 884 353 1716 
Q 353 2575 817 3079 
Q 1281 3584 2069 3584 
Q 2775 3584 3186 3129 
Q 3597 2675 3597 1894 
z
M 3022 2063 
Q 3016 2534 2758 2815 
Q 2500 3097 2075 3097 
Q 1594 3097 1305 2825 
Q 1016 2553 972 2059 
L 3022 2063 
z
" transform="scale(0.015625)"/>
       <path id="DejaVuSans-63" d="M 3122 3366 
L 3122 2828 
Q 2878 2963 2633 3030 
Q 2388 3097 2138 3097 
Q 1578 3097 1268 2742 
Q 959 2388 959 1747 
Q 959 1106 1268 751 
Q 1578 397 2138 397 
Q 2388 397 2633 464 
Q 2878 531 3122 666 
L 3122 134 
Q 2881 22 2623 -34 
Q 2366 -91 2075 -91 
Q 1284 -91 818 406 
Q 353 903 353 1747 
Q 353 2603 823 3093 
Q 1294 3584 2113 3584 
Q 2378 3584 2631 3529 
Q 2884 3475 3122 3366 
z
" transform="scale(0.015625)"/>
       <path id="DejaVuSans-68" d="M 3513 2113 
L 3513 0 
L 2938 0 
L 2938 2094 
Q 2938 2591 2744 2837 
Q 2550 3084 2163 3084 
Q 1697 3084 1428 2787 
Q 1159 2491 1159 1978 
L 1159 0 
L 581 0 
L 581 4863 
L 1159 4863 
L 1159 2956 
Q 1366 3272 1645 3428 
Q 1925 3584 2291 3584 
Q 2894 3584 3203 3211 
Q 3513 2838 3513 2113 
z
" transform="scale(0.015625)"/>
       <path id="DejaVuSans-6d" d="M 3328 2828 
Q 3544 3216 3844 3400 
Q 4144 3584 4550 3584 
Q 5097 3584 5394 3201 
Q 5691 2819 5691 2113 
L 5691 0 
L 5113 0 
L 5113 2094 
Q 5113 2597 4934 2840 
Q 4756 3084 4391 3084 
Q 3944 3084 3684 2787 
Q 3425 2491 3425 1978 
L 3425 0 
L 2847 0 
L 2847 2094 
Q 2847 2600 2669 2842 
Q 2491 3084 2119 3084 
Q 1678 3084 1418 2786 
Q 1159 2488 1159 1978 
L 1159 0 
L 581 0 
L 581 3500 
L 1159 3500 
L 1159 2956 
Q 1356 3278 1631 3431 
Q 1906 3584 2284 3584 
Q 2666 3584 2933 3390 
Q 3200 3197 3328 2828 
z
" transform="scale(0.015625)"/>
       <path id="DejaVuSans-61" d="M 2194 1759 
Q 1497 1759 1228 1600 
Q 959 1441 959 1056 
Q 959 750 1161 570 
Q 1363 391 1709 391 
Q 2188 391 2477 730 
Q 2766 1069 2766 1631 
L 2766 1759 
L 2194 1759 
z
M 3341 1997 
L 3341 0 
L 2766 0 
L 2766 531 
Q 2569 213 2275 61 
Q 1981 -91 1556 -91 
Q 1019 -91 701 211 
Q 384 513 384 1019 
Q 384 1609 779 1909 
Q 1175 2209 1959 2209 
L 2766 2209 
L 2766 2266 
Q 2766 2663 2505 2880 
Q 2244 3097 1772 3097 
Q 1472 3097 1187 3025 
Q 903 2953 641 2809 
L 641 3341 
Q 956 3463 1253 3523 
Q 1550 3584 1831 3584 
Q 2591 3584 2966 3190 
Q 3341 2797 3341 1997 
z
" transform="scale(0.015625)"/>
       <path id="DejaVuSans-6c" d="M 603 4863 
L 1178 4863 
L 1178 0 
L 603 0 
L 603 4863 
z
" transform="scale(0.015625)"/>
      </defs>
      <use xlink:href="#DejaVuSans-42"/>
      <use xlink:href="#DejaVuSans-69" transform="translate(68.603516 0)"/>
      <use xlink:href="#DejaVuSans-6f" transform="translate(96.386719 0)"/>
      <use xlink:href="#DejaVuSans-67" transform="translate(157.568359 0)"/>
      <use xlink:href="#DejaVuSans-65" transform="translate(221.044922 0)"/>
      <use xlink:href="#DejaVuSans-6f" transform="translate(282.568359 0)"/>
      <use xlink:href="#DejaVuSans-63" transform="translate(343.75 0)"/>
      <use xlink:href="#DejaVuSans-68" transform="translate(398.730469 0)"/>
      <use xlink:href="#DejaVuSans-65" transform="translate(462.109375 0)"/>
      <use xlink:href="#DejaVuSans-6d" transform="translate(523.632812 0)"/>
      <use xlink:href="#DejaVuSans-69" transform="translate(621.044922 0)"/>
      <use xlink:href="#DejaVuSans-63" transform="translate(648.828125 0)"/>
      <use xlink:href="#DejaVuSans-61" transform="translate(703.808594 0)"/>
      <use xlink:href="#DejaVuSans-6c" transform="translate(765.087891 0)"/>
     </g>
    </g>
    <g clip-path="url(#pa6b82c30c4)">
     <!-- flows-P -->
     <g transform="translate(120.186485 192.815134) scale(0.05 -0.05)">
      <defs>
       <path id="DejaVuSans-66" d="M 2375 4863 
L 2375 4384 
L 1825 4384 
Q 1516 4384 1395 4259 
Q 1275 4134 1275 3809 
L 1275 3500 
L 2222 3500 
L 2222 3053 
L 1275 3053 
L 1275 0 
L 697 0 
L 697 3053 
L 147 3053 
L 147 3500 
L 697 3500 
L 697 3744 
Q 697 4328 969 4595 
Q 1241 4863 1831 4863 
L 2375 4863 
z
" transform="scale(0.015625)"/>
       <path id="DejaVuSans-77" d="M 269 3500 
L 844 3500 
L 1563 769 
L 2278 3500 
L 2956 3500 
L 3675 769 
L 4391 3500 
L 4966 3500 
L 4050 0 
L 3372 0 
L 2619 2869 
L 1863 0 
L 1184 0 
L 269 3500 
z
" transform="scale(0.015625)"/>
       <path id="DejaVuSans-73" d="M 2834 3397 
L 2834 2853 
Q 2591 2978 2328 3040 
Q 2066 3103 1784 3103 
Q 1356 3103 1142 2972 
Q 928 2841 928 2578 
Q 928 2378 1081 2264 
Q 1234 2150 1697 2047 
L 1894 2003 
Q 2506 1872 2764 1633 
Q 3022 1394 3022 966 
Q 3022 478 2636 193 
Q 2250 -91 1575 -91 
Q 1294 -91 989 -36 
Q 684 19 347 128 
L 347 722 
Q 666 556 975 473 
Q 1284 391 1588 391 
Q 1994 391 2212 530 
Q 2431 669 2431 922 
Q 2431 1156 2273 1281 
Q 2116 1406 1581 1522 
L 1381 1569 
Q 847 1681 609 1914 
Q 372 2147 372 2553 
Q 372 3047 722 3315 
Q 1072 3584 1716 3584 
Q 2034 3584 2315 3537 
Q 2597 3491 2834 3397 
z
" transform="scale(0.015625)"/>
       <path id="DejaVuSans-2d" d="M 313 2009 
L 1997 2009 
L 1997 1497 
L 313 1497 
L 313 2009 
z
" transform="scale(0.015625)"/>
       <path id="DejaVuSans-50" d="M 1259 4147 
L 1259 2394 
L 2053 2394 
Q 2494 2394 2734 2622 
Q 2975 2850 2975 3272 
Q 2975 3691 2734 3919 
Q 2494 4147 2053 4147 
L 1259 4147 
z
M 628 4666 
L 2053 4666 
Q 2838 4666 3239 4311 
Q 3641 3956 3641 3272 
Q 3641 2581 3239 2228 
Q 2838 1875 2053 1875 
L 1259 1875 
L 1259 0 
L 628 0 
L 628 4666 
z
" transform="scale(0.015625)"/>
      </defs>
      <use xlink:href="#DejaVuSans-66"/>
      <use xlink:href="#DejaVuSans-6c" transform="translate(35.205078 0)"/>
      <use xlink:href="#DejaVuSans-6f" transform="translate(62.988281 0)"/>
      <use xlink:href="#DejaVuSans-77" transform="translate(124.169922 0)"/>
      <use xlink:href="#DejaVuSans-73" transform="translate(205.957031 0)"/>
      <use xlink:href="#DejaVuSans-2d" transform="translate(258.056641 0)"/>
      <use xlink:href="#DejaVuSans-50" transform="translate(294.140625 0)"/>
     </g>
    </g>
   </g>
   <g id="text_2">
    <g clip-path="url(#pa6b82c30c4)">
     <!-- Freshwater -->
     <g transform="translate(236.714965 53.729664) scale(0.05 -0.05)">
      <defs>
       <path id="DejaVuSans-46" d="M 628 4666 
L 3309 4666 
L 3309 4134 
L 1259 4134 
L 1259 2759 
L 3109 2759 
L 3109 2228 
L 1259 2228 
L 1259 0 
L 628 0 
L 628 4666 
z
" transform="scale(0.015625)"/>
       <path id="DejaVuSans-72" d="M 2631 2963 
Q 2534 3019 2420 3045 
Q 2306 3072 2169 3072 
Q 1681 3072 1420 2755 
Q 1159 2438 1159 1844 
L 1159 0 
L 581 0 
L 581 3500 
L 1159 3500 
L 1159 2956 
Q 1341 3275 1631 3429 
Q 1922 3584 2338 3584 
Q 2397 3584 2469 3576 
Q 2541 3569 2628 3553 
L 2631 2963 
z
" transform="scale(0.015625)"/>
       <path id="DejaVuSans-74" d="M 1172 4494 
L 1172 3500 
L 2356 3500 
L 2356 3053 
L 1172 3053 
L 1172 1153 
Q 1172 725 1289 603 
Q 1406 481 1766 481 
L 2356 481 
L 2356 0 
L 1766 0 
Q 1100 0 847 248 
Q 594 497 594 1153 
L 594 3053 
L 172 3053 
L 172 3500 
L 594 3500 
L 594 4494 
L 1172 4494 
z
" transform="scale(0.015625)"/>
      </defs>
      <use xlink:href="#DejaVuSans-46"/>
      <use xlink:href="#DejaVuSans-72" transform="translate(50.269531 0)"/>
      <use xlink:href="#DejaVuSans-65" transform="translate(89.132812 0)"/>
      <use xlink:href="#DejaVuSans-73" transform="translate(150.65625 0)"/>
      <use xlink:href="#DejaVuSans-68" transform="translate(202.755859 0)"/>
      <use xlink:href="#DejaVuSans-77" transform="translate(266.134766 0)"/>
      <use xlink:href="#DejaVuSans-61" transform="translate(347.921875 0)"/>
      <use xlink:href="#DejaVuSans-74" transform="translate(409.201172 0)"/>
      <use xlink:href="#DejaVuSans-65" transform="translate(448.410156 0)"/>
      <use xlink:href="#DejaVuSans-72" transform="translate(509.933594 0)"/>
     </g>
    </g>
    <g clip-path="url(#pa6b82c30c4)">
     <!-- use -->
     <g transform="translate(246.065746 59.32857) scale(0.05 -0.05)">
      <defs>
       <path id="DejaVuSans-75" d="M 544 1381 
L 544 3500 
L 1119 3500 
L 1119 1403 
Q 1119 906 1312 657 
Q 1506 409 1894 409 
Q 2359 409 2629 706 
Q 2900 1003 2900 1516 
L 2900 3500 
L 3475 3500 
L 3475 0 
L 2900 0 
L 2900 538 
Q 2691 219 2414 64 
Q 2138 -91 1772 -91 
Q 1169 -91 856 284 
Q 544 659 544 1381 
z
M 1991 3584 
L 1991 3584 
z
" transform="scale(0.015625)"/>
      </defs>
      <use xlink:href="#DejaVuSans-75"/>
      <use xlink:href="#DejaVuSans-73" transform="translate(63.378906 0)"/>
      <use xlink:href="#DejaVuSans-65" transform="translate(115.478516 0)"/>
     </g>
    </g>
   </g>
   <g id="text_3">
    <g clip-path="url(#pa6b82c30c4)">
     <!-- Biogeochemical -->
     <g transform="translate(162.589955 191.672102) scale(0.05 -0.05)">
      <use xlink:href="#DejaVuSans-42"/>
      <use xlink:href="#DejaVuSans-69" transform="translate(68.603516 0)"/>
      <use xlink:href="#DejaVuSans-6f" transform="translate(96.386719 0)"/>
      <use xlink:href="#DejaVuSans-67" transform="translate(157.568359 0)"/>
      <use xlink:href="#DejaVuSans-65" transform="translate(221.044922 0)"/>
      <use xlink:href="#DejaVuSans-6f" transform="translate(282.568359 0)"/>
      <use xlink:href="#DejaVuSans-63" transform="translate(343.75 0)"/>
      <use xlink:href="#DejaVuSans-68" transform="translate(398.730469 0)"/>
      <use xlink:href="#DejaVuSans-65" transform="translate(462.109375 0)"/>
      <use xlink:href="#DejaVuSans-6d" transform="translate(523.632812 0)"/>
      <use xlink:href="#DejaVuSans-69" transform="translate(621.044922 0)"/>
      <use xlink:href="#DejaVuSans-63" transform="translate(648.828125 0)"/>
      <use xlink:href="#DejaVuSans-61" transform="translate(703.808594 0)"/>
      <use xlink:href="#DejaVuSans-6c" transform="translate(765.087891 0)"/>
     </g>
    </g>
    <g clip-path="url(#pa6b82c30c4)">
     <!-- flows-N -->
     <g transform="translate(173.189174 197.271008) scale(0.05 -0.05)">
      <defs>
       <path id="DejaVuSans-4e" d="M 628 4666 
L 1478 4666 
L 3547 763 
L 3547 4666 
L 4159 4666 
L 4159 0 
L 3309 0 
L 1241 3903 
L 1241 0 
L 628 0 
L 628 4666 
z
" transform="scale(0.015625)"/>
      </defs>
      <use xlink:href="#DejaVuSans-66"/>
      <use xlink:href="#DejaVuSans-6c" transform="translate(35.205078 0)"/>
      <use xlink:href="#DejaVuSans-6f" transform="translate(62.988281 0)"/>
      <use xlink:href="#DejaVuSans-77" transform="translate(124.169922 0)"/>
      <use xlink:href="#DejaVuSans-73" transform="translate(205.957031 0)"/>
      <use xlink:href="#DejaVuSans-2d" transform="translate(258.056641 0)"/>
      <use xlink:href="#DejaVuSans-4e" transform="translate(294.140625 0)"/>
     </g>
    </g>
   </g>
   <g id="text_4">
    <g clip-path="url(#pa6b82c30c4)">
     <!-- Stratospheric -->
     <g transform="translate(401.366533 313.421473) scale(0.05 -0.05)">
      <defs>
       <path id="DejaVuSans-53" d="M 3425 4513 
L 3425 3897 
Q 3066 4069 2747 4153 
Q 2428 4238 2131 4238 
Q 1616 4238 1336 4038 
Q 1056 3838 1056 3469 
Q 1056 3159 1242 3001 
Q 1428 2844 1947 2747 
L 2328 2669 
Q 3034 2534 3370 2195 
Q 3706 1856 3706 1288 
Q 3706 609 3251 259 
Q 2797 -91 1919 -91 
Q 1588 -91 1214 -16 
Q 841 59 441 206 
L 441 856 
Q 825 641 1194 531 
Q 1563 422 1919 422 
Q 2459 422 2753 634 
Q 3047 847 3047 1241 
Q 3047 1584 2836 1778 
Q 2625 1972 2144 2069 
L 1759 2144 
Q 1053 2284 737 2584 
Q 422 2884 422 3419 
Q 422 4038 858 4394 
Q 1294 4750 2059 4750 
Q 2388 4750 2728 4690 
Q 3069 4631 3425 4513 
z
" transform="scale(0.015625)"/>
       <path id="DejaVuSans-70" d="M 1159 525 
L 1159 -1331 
L 581 -1331 
L 581 3500 
L 1159 3500 
L 1159 2969 
Q 1341 3281 1617 3432 
Q 1894 3584 2278 3584 
Q 2916 3584 3314 3078 
Q 3713 2572 3713 1747 
Q 3713 922 3314 415 
Q 2916 -91 2278 -91 
Q 1894 -91 1617 61 
Q 1341 213 1159 525 
z
M 3116 1747 
Q 3116 2381 2855 2742 
Q 2594 3103 2138 3103 
Q 1681 3103 1420 2742 
Q 1159 2381 1159 1747 
Q 1159 1113 1420 752 
Q 1681 391 2138 391 
Q 2594 391 2855 752 
Q 3116 1113 3116 1747 
z
" transform="scale(0.015625)"/>
      </defs>
      <use xlink:href="#DejaVuSans-53"/>
      <use xlink:href="#DejaVuSans-74" transform="translate(63.476562 0)"/>
      <use xlink:href="#DejaVuSans-72" transform="translate(102.685547 0)"/>
      <use xlink:href="#DejaVuSans-61" transform="translate(143.798828 0)"/>
      <use xlink:href="#DejaVuSans-74" transform="translate(205.078125 0)"/>
      <use xlink:href="#DejaVuSans-6f" transform="translate(244.287109 0)"/>
      <use xlink:href="#DejaVuSans-73" transform="translate(305.46875 0)"/>
      <use xlink:href="#DejaVuSans-70" transform="translate(357.568359 0)"/>
      <use xlink:href="#DejaVuSans-68" transform="translate(421.044922 0)"/>
      <use xlink:href="#DejaVuSans-65" transform="translate(484.423828 0)"/>
      <use xlink:href="#DejaVuSans-72" transform="translate(545.947266 0)"/>
      <use xlink:href="#DejaVuSans-69" transform="translate(587.060547 0)"/>
      <use xlink:href="#DejaVuSans-63" transform="translate(614.84375 0)"/>
     </g>
    </g>
    <g clip-path="url(#pa6b82c30c4)">
     <!-- ozone -->
     <g transform="translate(410.618096 319.02038) scale(0.05 -0.05)">
      <defs>
       <path id="DejaVuSans-7a" d="M 353 3500 
L 3084 3500 
L 3084 2975 
L 922 459 
L 3084 459 
L 3084 0 
L 275 0 
L 275 525 
L 2438 3041 
L 353 3041 
L 353 3500 
z
" transform="scale(0.015625)"/>
       <path id="DejaVuSans-6e" d="M 3513 2113 
L 3513 0 
L 2938 0 
L 2938 2094 
Q 2938 2591 2744 2837 
Q 2550 3084 2163 3084 
Q 1697 3084 1428 2787 
Q 1159 2491 1159 1978 
L 1159 0 
L 581 0 
L 581 3500 
L 1159 3500 
L 1159 2956 
Q 1366 3272 1645 3428 
Q 1925 3584 2291 3584 
Q 2894 3584 3203 3211 
Q 3513 2838 3513 2113 
z
" transform="scale(0.015625)"/>
      </defs>
      <use xlink:href="#DejaVuSans-6f"/>
      <use xlink:href="#DejaVuSans-7a" transform="translate(61.181641 0)"/>
      <use xlink:href="#DejaVuSans-6f" transform="translate(113.671875 0)"/>
      <use xlink:href="#DejaVuSans-6e" transform="translate(174.853516 0)"/>
      <use xlink:href="#DejaVuSans-65" transform="translate(238.232422 0)"/>
     </g>
    </g>
    <g clip-path="url(#pa6b82c30c4)">
     <!-- depletion -->
     <g transform="translate(406.378252 324.619286) scale(0.05 -0.05)">
      <defs>
       <path id="DejaVuSans-64" d="M 2906 2969 
L 2906 4863 
L 3481 4863 
L 3481 0 
L 2906 0 
L 2906 525 
Q 2725 213 2448 61 
Q 2172 -91 1784 -91 
Q 1150 -91 751 415 
Q 353 922 353 1747 
Q 353 2572 751 3078 
Q 1150 3584 1784 3584 
Q 2172 3584 2448 3432 
Q 2725 3281 2906 2969 
z
M 947 1747 
Q 947 1113 1208 752 
Q 1469 391 1925 391 
Q 2381 391 2643 752 
Q 2906 1113 2906 1747 
Q 2906 2381 2643 2742 
Q 2381 3103 1925 3103 
Q 1469 3103 1208 2742 
Q 947 2381 947 1747 
z
" transform="scale(0.015625)"/>
      </defs>
      <use xlink:href="#DejaVuSans-64"/>
      <use xlink:href="#DejaVuSans-65" transform="translate(63.476562 0)"/>
      <use xlink:href="#DejaVuSans-70" transform="translate(125 0)"/>
      <use xlink:href="#DejaVuSans-6c" transform="translate(188.476562 0)"/>
      <use xlink:href="#DejaVuSans-65" transform="translate(216.259766 0)"/>
      <use xlink:href="#DejaVuSans-74" transform="translate(277.783203 0)"/>
      <use xlink:href="#DejaVuSans-69" transform="translate(316.992188 0)"/>
      <use xlink:href="#DejaVuSans-6f" transform="translate(344.775391 0)"/>
      <use xlink:href="#DejaVuSans-6e" transform="translate(405.957031 0)"/>
     </g>
    </g>
   </g>
   <g id="text_5">
    <g clip-path="url(#pa6b82c30c4)">
     <!-- Ocean -->
     <g transform="translate(80.444752 111.111035) scale(0.05 -0.05)">
      <defs>
       <path id="DejaVuSans-4f" d="M 2522 4238 
Q 1834 4238 1429 3725 
Q 1025 3213 1025 2328 
Q 1025 1447 1429 934 
Q 1834 422 2522 422 
Q 3209 422 3611 934 
Q 4013 1447 4013 2328 
Q 4013 3213 3611 3725 
Q 3209 4238 2522 4238 
z
M 2522 4750 
Q 3503 4750 4090 4092 
Q 4678 3434 4678 2328 
Q 4678 1225 4090 567 
Q 3503 -91 2522 -91 
Q 1538 -91 948 565 
Q 359 1222 359 2328 
Q 359 3434 948 4092 
Q 1538 4750 2522 4750 
z
" transform="scale(0.015625)"/>
      </defs>
      <use xlink:href="#DejaVuSans-4f"/>
      <use xlink:href="#DejaVuSans-63" transform="translate(78.710938 0)"/>
      <use xlink:href="#DejaVuSans-65" transform="translate(133.691406 0)"/>
      <use xlink:href="#DejaVuSans-61" transform="translate(195.214844 0)"/>
      <use xlink:href="#DejaVuSans-6e" transform="translate(256.494141 0)"/>
     </g>
    </g>
    <g clip-path="url(#pa6b82c30c4)">
     <!-- acidification -->
     <g transform="translate(73.289283 116.709941) scale(0.05 -0.05)">
      <use xlink:href="#DejaVuSans-61"/>
      <use xlink:href="#DejaVuSans-63" transform="translate(61.279297 0)"/>
      <use xlink:href="#DejaVuSans-69" transform="translate(116.259766 0)"/>
      <use xlink:href="#DejaVuSans-64" transform="translate(144.042969 0)"/>
      <use xlink:href="#DejaVuSans-69" transform="translate(207.519531 0)"/>
      <use xlink:href="#DejaVuSans-66" transform="translate(235.302734 0)"/>
      <use xlink:href="#DejaVuSans-69" transform="translate(270.507812 0)"/>
      <use xlink:href="#DejaVuSans-63" transform="translate(298.291016 0)"/>
      <use xlink:href="#DejaVuSans-61" transform="translate(353.271484 0)"/>
      <use xlink:href="#DejaVuSans-74" transform="translate(414.550781 0)"/>
      <use xlink:href="#DejaVuSans-69" transform="translate(453.759766 0)"/>
      <use xlink:href="#DejaVuSans-6f" transform="translate(481.542969 0)"/>
      <use xlink:href="#DejaVuSans-6e" transform="translate(542.724609 0)"/>
     </g>
    </g>
   </g>
   <g id="text_6">
    <g clip-path="url(#pa6b82c30c4)">
     <!-- Biosphere -->
     <g transform="translate(162.1131 99.703642) scale(0.05 -0.05)">
      <use xlink:href="#DejaVuSans-42"/>
      <use xlink:href="#DejaVuSans-69" transform="translate(68.603516 0)"/>
      <use xlink:href="#DejaVuSans-6f" transform="translate(96.386719 0)"/>
      <use xlink:href="#DejaVuSans-73" transform="translate(157.568359 0)"/>
      <use xlink:href="#DejaVuSans-70" transform="translate(209.667969 0)"/>
      <use xlink:href="#DejaVuSans-68" transform="translate(273.144531 0)"/>
      <use xlink:href="#DejaVuSans-65" transform="translate(336.523438 0)"/>
      <use xlink:href="#DejaVuSans-72" transform="translate(398.046875 0)"/>
      <use xlink:href="#DejaVuSans-65" transform="translate(436.910156 0)"/>
     </g>
    </g>
    <g clip-path="url(#pa6b82c30c4)">
     <!-- Integrity -->
     <g transform="translate(163.965053 105.302548) scale(0.05 -0.05)">
      <defs>
       <path id="DejaVuSans-49" d="M 628 4666 
L 1259 4666 
L 1259 0 
L 628 0 
L 628 4666 
z
" transform="scale(0.015625)"/>
       <path id="DejaVuSans-79" d="M 2059 -325 
Q 1816 -950 1584 -1140 
Q 1353 -1331 966 -1331 
L 506 -1331 
L 506 -850 
L 844 -850 
Q 1081 -850 1212 -737 
Q 1344 -625 1503 -206 
L 1606 56 
L 191 3500 
L 800 3500 
L 1894 763 
L 2988 3500 
L 3597 3500 
L 2059 -325 
z
" transform="scale(0.015625)"/>
      </defs>
      <use xlink:href="#DejaVuSans-49"/>
      <use xlink:href="#DejaVuSans-6e" transform="translate(29.492188 0)"/>
      <use xlink:href="#DejaVuSans-74" transform="translate(92.871094 0)"/>
      <use xlink:href="#DejaVuSans-65" transform="translate(132.080078 0)"/>
      <use xlink:href="#DejaVuSans-67" transform="translate(193.603516 0)"/>
      <use xlink:href="#DejaVuSans-72" transform="translate(257.080078 0)"/>
      <use xlink:href="#DejaVuSans-69" transform="translate(298.193359 0)"/>
      <use xlink:href="#DejaVuSans-74" transform="translate(325.976562 0)"/>
      <use xlink:href="#DejaVuSans-79" transform="translate(365.185547 0)"/>
     </g>
    </g>
   </g>
   <g id="text_7">
    <g clip-path="url(#pa6b82c30c4)">
     <!-- Land-system -->
     <g transform="translate(102.840195 72.756501) scale(0.05 -0.05)">
      <defs>
       <path id="DejaVuSans-4c" d="M 628 4666 
L 1259 4666 
L 1259 531 
L 3531 531 
L 3531 0 
L 628 0 
L 628 4666 
z
" transform="scale(0.015625)"/>
      </defs>
      <use xlink:href="#DejaVuSans-4c"/>
      <use xlink:href="#DejaVuSans-61" transform="translate(55.712891 0)"/>
      <use xlink:href="#DejaVuSans-6e" transform="translate(116.992188 0)"/>
      <use xlink:href="#DejaVuSans-64" transform="translate(180.371094 0)"/>
      <use xlink:href="#DejaVuSans-2d" transform="translate(243.847656 0)"/>
      <use xlink:href="#DejaVuSans-73" transform="translate(279.931641 0)"/>
      <use xlink:href="#DejaVuSans-79" transform="translate(332.03125 0)"/>
      <use xlink:href="#DejaVuSans-73" transform="translate(391.210938 0)"/>
      <use xlink:href="#DejaVuSans-74" transform="translate(443.310547 0)"/>
      <use xlink:href="#DejaVuSans-65" transform="translate(482.519531 0)"/>
      <use xlink:href="#DejaVuSans-6d" transform="translate(544.042969 0)"/>
     </g>
    </g>
    <g clip-path="url(#pa6b82c30c4)">
     <!-- change -->
     <g transform="translate(109.675742 78.355407) scale(0.05 -0.05)">
      <use xlink:href="#DejaVuSans-63"/>
      <use xlink:href="#DejaVuSans-68" transform="translate(54.980469 0)"/>
      <use xlink:href="#DejaVuSans-61" transform="translate(118.359375 0)"/>
      <use xlink:href="#DejaVuSans-6e" transform="translate(179.638672 0)"/>
      <use xlink:href="#DejaVuSans-67" transform="translate(243.017578 0)"/>
      <use xlink:href="#DejaVuSans-65" transform="translate(306.494141 0)"/>
     </g>
    </g>
   </g>
   <g id="text_8">
    <g clip-path="url(#pa6b82c30c4)">
     <!-- Atmospheric -->
     <g transform="translate(31.14233 349.554997) scale(0.05 -0.05)">
      <defs>
       <path id="DejaVuSans-41" d="M 2188 4044 
L 1331 1722 
L 3047 1722 
L 2188 4044 
z
M 1831 4666 
L 2547 4666 
L 4325 0 
L 3669 0 
L 3244 1197 
L 1141 1197 
L 716 0 
L 50 0 
L 1831 4666 
z
" transform="scale(0.015625)"/>
      </defs>
      <use xlink:href="#DejaVuSans-41"/>
      <use xlink:href="#DejaVuSans-74" transform="translate(66.658203 0)"/>
      <use xlink:href="#DejaVuSans-6d" transform="translate(105.867188 0)"/>
      <use xlink:href="#DejaVuSans-6f" transform="translate(203.279297 0)"/>
      <use xlink:href="#DejaVuSans-73" transform="translate(264.460938 0)"/>
      <use xlink:href="#DejaVuSans-70" transform="translate(316.560547 0)"/>
      <use xlink:href="#DejaVuSans-68" transform="translate(380.037109 0)"/>
      <use xlink:href="#DejaVuSans-65" transform="translate(443.416016 0)"/>
      <use xlink:href="#DejaVuSans-72" transform="translate(504.939453 0)"/>
      <use xlink:href="#DejaVuSans-69" transform="translate(546.052734 0)"/>
      <use xlink:href="#DejaVuSans-63" transform="translate(573.835938 0)"/>
     </g>
    </g>
    <g clip-path="url(#pa6b82c30c4)">
     <!-- aerosol -->
     <g transform="translate(37.764595 355.153903) scale(0.05 -0.05)">
      <use xlink:href="#DejaVuSans-61"/>
      <use xlink:href="#DejaVuSans-65" transform="translate(61.279297 0)"/>
      <use xlink:href="#DejaVuSans-72" transform="translate(122.802734 0)"/>
      <use xlink:href="#DejaVuSans-6f" transform="translate(161.666016 0)"/>
      <use xlink:href="#DejaVuSans-73" transform="translate(222.847656 0)"/>
      <use xlink:href="#DejaVuSans-6f" transform="translate(274.947266 0)"/>
      <use xlink:href="#DejaVuSans-6c" transform="translate(336.128906 0)"/>
     </g>
    </g>
    <g clip-path="url(#pa6b82c30c4)">
     <!-- loading -->
     <g transform="translate(37.653267 360.752809) scale(0.05 -0.05)">
      <use xlink:href="#DejaVuSans-6c"/>
      <use xlink:href="#DejaVuSans-6f" transform="translate(27.783203 0)"/>
      <use xlink:href="#DejaVuSans-61" transform="translate(88.964844 0)"/>
      <use xlink:href="#DejaVuSans-64" transform="translate(150.244141 0)"/>
      <use xlink:href="#DejaVuSans-69" transform="translate(213.720703 0)"/>
      <use xlink:href="#DejaVuSans-6e" transform="translate(241.503906 0)"/>
      <use xlink:href="#DejaVuSans-67" transform="translate(304.882812 0)"/>
     </g>
    </g>
   </g>
   <g id="text_9">
    <g clip-path="url(#pa6b82c30c4)">
     <!-- Climate -->
     <g transform="translate(221.24467 118.240056) scale(0.05 -0.05)">
      <defs>
       <path id="DejaVuSans-43" d="M 4122 4306 
L 4122 3641 
Q 3803 3938 3442 4084 
Q 3081 4231 2675 4231 
Q 1875 4231 1450 3742 
Q 1025 3253 1025 2328 
Q 1025 1406 1450 917 
Q 1875 428 2675 428 
Q 3081 428 3442 575 
Q 3803 722 4122 1019 
L 4122 359 
Q 3791 134 3420 21 
Q 3050 -91 2638 -91 
Q 1578 -91 968 557 
Q 359 1206 359 2328 
Q 359 3453 968 4101 
Q 1578 4750 2638 4750 
Q 3056 4750 3426 4639 
Q 3797 4528 4122 4306 
z
" transform="scale(0.015625)"/>
      </defs>
      <use xlink:href="#DejaVuSans-43"/>
      <use xlink:href="#DejaVuSans-6c" transform="translate(69.824219 0)"/>
      <use xlink:href="#DejaVuSans-69" transform="translate(97.607422 0)"/>
      <use xlink:href="#DejaVuSans-6d" transform="translate(125.390625 0)"/>
      <use xlink:href="#DejaVuSans-61" transform="translate(222.802734 0)"/>
      <use xlink:href="#DejaVuSans-74" transform="translate(284.082031 0)"/>
      <use xlink:href="#DejaVuSans-65" transform="translate(323.291016 0)"/>
     </g>
    </g>
    <g clip-path="url(#pa6b82c30c4)">
     <!-- change -->
     <g transform="translate(221.664201 123.838962) scale(0.05 -0.05)">
      <use xlink:href="#DejaVuSans-63"/>
      <use xlink:href="#DejaVuSans-68" transform="translate(54.980469 0)"/>
      <use xlink:href="#DejaVuSans-61" transform="translate(118.359375 0)"/>
      <use xlink:href="#DejaVuSans-6e" transform="translate(179.638672 0)"/>
      <use xlink:href="#DejaVuSans-67" transform="translate(243.017578 0)"/>
      <use xlink:href="#DejaVuSans-65" transform="translate(306.494141 0)"/>
     </g>
    </g>
    <g clip-path="url(#pa6b82c30c4)">
     <!-- Energy -->
     <g transform="translate(222.111858 129.437868) scale(0.05 -0.05)">
      <defs>
       <path id="DejaVuSans-45" d="M 628 4666 
L 3578 4666 
L 3578 4134 
L 1259 4134 
L 1259 2753 
L 3481 2753 
L 3481 2222 
L 1259 2222 
L 1259 531 
L 3634 531 
L 3634 0 
L 628 0 
L 628 4666 
z
" transform="scale(0.015625)"/>
      </defs>
      <use xlink:href="#DejaVuSans-45"/>
      <use xlink:href="#DejaVuSans-6e" transform="translate(63.183594 0)"/>
      <use xlink:href="#DejaVuSans-65" transform="translate(126.5625 0)"/>
      <use xlink:href="#DejaVuSans-72" transform="translate(188.085938 0)"/>
      <use xlink:href="#DejaVuSans-67" transform="translate(227.449219 0)"/>
      <use xlink:href="#DejaVuSans-79" transform="translate(290.925781 0)"/>
     </g>
    </g>
    <g clip-path="url(#pa6b82c30c4)">
     <!-- imbalance -->
     <g transform="translate(217.892326 135.036774) scale(0.05 -0.05)">
      <defs>
       <path id="DejaVuSans-62" d="M 3116 1747 
Q 3116 2381 2855 2742 
Q 2594 3103 2138 3103 
Q 1681 3103 1420 2742 
Q 1159 2381 1159 1747 
Q 1159 1113 1420 752 
Q 1681 391 2138 391 
Q 2594 391 2855 752 
Q 3116 1113 3116 1747 
z
M 1159 2969 
Q 1341 3281 1617 3432 
Q 1894 3584 2278 3584 
Q 2916 3584 3314 3078 
Q 3713 2572 3713 1747 
Q 3713 922 3314 415 
Q 2916 -91 2278 -91 
Q 1894 -91 1617 61 
Q 1341 213 1159 525 
L 1159 0 
L 581 0 
L 581 4863 
L 1159 4863 
L 1159 2969 
z
" transform="scale(0.015625)"/>
      </defs>
      <use xlink:href="#DejaVuSans-69"/>
      <use xlink:href="#DejaVuSans-6d" transform="translate(27.783203 0)"/>
      <use xlink:href="#DejaVuSans-62" transform="translate(125.195312 0)"/>
      <use xlink:href="#DejaVuSans-61" transform="translate(188.671875 0)"/>
      <use xlink:href="#DejaVuSans-6c" transform="translate(249.951172 0)"/>
      <use xlink:href="#DejaVuSans-61" transform="translate(277.734375 0)"/>
      <use xlink:href="#DejaVuSans-6e" transform="translate(339.013672 0)"/>
      <use xlink:href="#DejaVuSans-63" transform="translate(402.392578 0)"/>
      <use xlink:href="#DejaVuSans-65" transform="translate(457.373047 0)"/>
     </g>
    </g>
   </g>
  </g>
 </g>
 <defs>
  <clipPath id="pa6b82c30c4">
   <rect x="7.2" y="7.2" width="450.72" height="378.72"/>
  </clipPath>
 </defs>
</svg>
